  0
SECTION
  2
HEADER
  9
$ACADVER
  1
AC1015
  9
$ACADMAINTVER
 70
     6
  9
$DWGCODEPAGE
  3
DOS932
  9
$INSBASE
 10
0.0
 20
0.0
 30
0.0
  9
$EXTMIN
 10
-16.9505146252
 20
-16.9505146252
 30
0.0
  9
$EXTMAX
 10
16.9505146252
 20
16.9505146252
 30
0.0
  9
$LIMMIN
 10
0.0
 20
0.0
  9
$LIMMAX
 10
420.0
 20
297.0
  9
$ORTHOMODE
 70
     0
  9
$REGENMODE
 70
     1
  9
$FILLMODE
 70
     1
  9
$QTEXTMODE
 70
     0
  9
$MIRRTEXT
 70
     1
  9
$LTSCALE
 40
1.0
  9
$ATTMODE
 70
     1
  9
$TEXTSIZE
 40
3.5
  9
$TRACEWID
 40
1.0
  9
$TEXTSTYLE
  7
Standard
  9
$CLAYER
  8
0
  9
$CELTYPE
  6
ByLayer
  9
$CECOLOR
 62
   256
  9
$CELTSCALE
 40
1.0
  9
$DISPSILH
 70
     0
  9
$DIMSCALE
 40
1.0
  9
$DIMASZ
 40
3.302
  9
$DIMEXO
 40
1.0
  9
$DIMDLI
 40
3.75
  9
$DIMRND
 40
0.0
  9
$DIMDLE
 40
0.0
  9
$DIMEXE
 40
1.0
  9
$DIMTP
 40
0.0
  9
$DIMTM
 40
0.0
  9
$DIMTXT
 40
3.5
  9
$DIMCEN
 40
2.5
  9
$DIMTSZ
 40
0.0
  9
$DIMTOL
 70
     0
  9
$DIMLIM
 70
     0
  9
$DIMTIH
 70
     1
  9
$DIMTOH
 70
     1
  9
$DIMSE1
 70
     0
  9
$DIMSE2
 70
     0
  9
$DIMTAD
 70
     1
  9
$DIMZIN
 70
     0
  9
$DIMBLK
  1

  9
$DIMASO
 70
     1
  9
$DIMSHO
 70
     1
  9
$DIMPOST
  1

  9
$DIMAPOST
  1

  9
$DIMALT
 70
     0
  9
$DIMALTD
 70
     3
  9
$DIMALTF
 40
0.0393700787
  9
$DIMLFAC
 40
1.0
  9
$DIMTOFL
 70
     1
  9
$DIMTVP
 40
0.0
  9
$DIMTIX
 70
     0
  9
$DIMSOXD
 70
     0
  9
$DIMSAH
 70
     0
  9
$DIMBLK1
  1

  9
$DIMBLK2
  1

  9
$DIMSTYLE
  2
ISO-25
  9
$DIMCLRD
 70
     0
  9
$DIMCLRE
 70
     0
  9
$DIMCLRT
 70
     0
  9
$DIMTFAC
 40
1.0
  9
$DIMGAP
 40
1.524
  9
$DIMJUST
 70
     0
  9
$DIMSD1
 70
     0
  9
$DIMSD2
 70
     0
  9
$DIMTOLJ
 70
     0
  9
$DIMTZIN
 70
     0
  9
$DIMALTZ
 70
     0
  9
$DIMALTTZ
 70
     0
  9
$DIMUPT
 70
     0
  9
$DIMDEC
 70
     2
  9
$DIMTDEC
 70
     2
  9
$DIMALTU
 70
     2
  9
$DIMALTTD
 70
     3
  9
$DIMTXSTY
  7
Standard
  9
$DIMAUNIT
 70
     0
  9
$DIMADEC
 70
     2
  9
$DIMALTRND
 40
0.0
  9
$DIMAZIN
 70
     0
  9
$DIMDSEP
 70
    44
  9
$DIMATFIT
 70
     3
  9
$DIMFRAC
 70
     0
  9
$DIMLDRBLK
  1

  9
$DIMLUNIT
 70
     2
  9
$DIMLWD
 70
    -2
  9
$DIMLWE
 70
    -2
  9
$DIMTMOVE
 70
     0
  9
$LUNITS
 70
     2
  9
$LUPREC
 70
     2
  9
$SKETCHINC
 40
1.0
  9
$FILLETRAD
 40
10.0
  9
$AUNITS
 70
     0
  9
$AUPREC
 70
     2
  9
$MENU
  1
.
  9
$ELEVATION
 40
0.0
  9
$PELEVATION
 40
0.0
  9
$THICKNESS
 40
0.0
  9
$LIMCHECK
 70
     0
  9
$CHAMFERA
 40
0.0
  9
$CHAMFERB
 40
0.0
  9
$CHAMFERC
 40
0.0
  9
$CHAMFERD
 40
0.0
  9
$SKPOLY
 70
     0
  9
$TDCREATE
 40
2458882.957786459
  9
$TDUCREATE
 40
2458882.582786459
  9
$TDUPDATE
 40
2458882.957802026
  9
$TDUUPDATE
 40
2458882.582802026
  9
$TDINDWG
 40
0.0000000116
  9
$TDUSRTIMER
 40
0.0000000116
  9
$USRTIMER
 70
     1
  9
$ANGBASE
 50
0.0
  9
$ANGDIR
 70
     0
  9
$PDMODE
 70
     0
  9
$PDSIZE
 40
-1.0
  9
$PLINEWID
 40
0.0
  9
$SPLFRAME
 70
     0
  9
$SPLINETYPE
 70
     6
  9
$SPLINESEGS
 70
     8
  9
$HANDSEED
  5
13E
  9
$SURFTAB1
 70
     6
  9
$SURFTAB2
 70
     6
  9
$SURFTYPE
 70
     6
  9
$SURFU
 70
     6
  9
$SURFV
 70
     6
  9
$UCSBASE
  2

  9
$UCSNAME
  2

  9
$UCSORG
 10
0.0
 20
0.0
 30
0.0
  9
$UCSXDIR
 10
1.0
 20
0.0
 30
0.0
  9
$UCSYDIR
 10
0.0
 20
1.0
 30
0.0
  9
$UCSORTHOREF
  2

  9
$UCSORTHOVIEW
 70
     0
  9
$UCSORGTOP
 10
0.0
 20
0.0
 30
0.0
  9
$UCSORGBOTTOM
 10
0.0
 20
0.0
 30
0.0
  9
$UCSORGLEFT
 10
0.0
 20
0.0
 30
0.0
  9
$UCSORGRIGHT
 10
0.0
 20
0.0
 30
0.0
  9
$UCSORGFRONT
 10
0.0
 20
0.0
 30
0.0
  9
$UCSORGBACK
 10
0.0
 20
0.0
 30
0.0
  9
$PUCSBASE
  2

  9
$PUCSNAME
  2

  9
$PUCSORG
 10
0.0
 20
0.0
 30
0.0
  9
$PUCSXDIR
 10
1.0
 20
0.0
 30
0.0
  9
$PUCSYDIR
 10
0.0
 20
1.0
 30
0.0
  9
$PUCSORTHOREF
  2

  9
$PUCSORTHOVIEW
 70
     0
  9
$PUCSORGTOP
 10
0.0
 20
0.0
 30
0.0
  9
$PUCSORGBOTTOM
 10
0.0
 20
0.0
 30
0.0
  9
$PUCSORGLEFT
 10
0.0
 20
0.0
 30
0.0
  9
$PUCSORGRIGHT
 10
0.0
 20
0.0
 30
0.0
  9
$PUCSORGFRONT
 10
0.0
 20
0.0
 30
0.0
  9
$PUCSORGBACK
 10
0.0
 20
0.0
 30
0.0
  9
$USERI1
 70
     0
  9
$USERI2
 70
     0
  9
$USERI3
 70
     0
  9
$USERI4
 70
     0
  9
$USERI5
 70
     0
  9
$USERR1
 40
0.0
  9
$USERR2
 40
0.0
  9
$USERR3
 40
0.0
  9
$USERR4
 40
0.0
  9
$USERR5
 40
0.0
  9
$WORLDVIEW
 70
     1
  9
$SHADEDGE
 70
     3
  9
$SHADEDIF
 70
    70
  9
$TILEMODE
 70
     1
  9
$MAXACTVP
 70
    64
  9
$PINSBASE
 10
0.0
 20
0.0
 30
0.0
  9
$PLIMCHECK
 70
     0
  9
$PEXTMIN
 10
1.0000000000E+20
 20
1.0000000000E+20
 30
1.0000000000E+20
  9
$PEXTMAX
 10
-1.0000000000E+20
 20
-1.0000000000E+20
 30
-1.0000000000E+20
  9
$PLIMMIN
 10
0.0
 20
0.0
  9
$PLIMMAX
 10
420.0
 20
297.0
  9
$UNITMODE
 70
     0
  9
$VISRETAIN
 70
     1
  9
$PLINEGEN
 70
     0
  9
$PSLTSCALE
 70
     1
  9
$TREEDEPTH
 70
  3020
  9
$CMLSTYLE
  2
Standard
  9
$CMLJUST
 70
     0
  9
$CMLSCALE
 40
20.0
  9
$PROXYGRAPHICS
 70
     1
  9
$MEASUREMENT
 70
     1
  9
$CELWEIGHT
370
    -1
  9
$ENDCAPS
280
     0
  9
$JOINSTYLE
280
     0
  9
$LWDISPLAY
290
     1
  9
$INSUNITS
 70
     4
  9
$HYPERLINKBASE
  1

  9
$STYLESHEET
  1

  9
$XEDIT
290
     1
  9
$CEPSNTYPE
380
     0
  9
$PSTYLEMODE
290
     1
  9
$FINGERPRINTGUID
  2
{8105460E-78B9-418A-AEC4-9B9C7E6DDF55}
  9
$VERSIONGUID
  2
{FAEB1C32-E019-11D5-929B-00C0DF256EC4}
  9
$EXTNAMES
290
     1
  9
$PSVPSCALE
 40
0.0
  9
$OLESTARTUP
290
     0
  0
ENDSEC
  0
SECTION
  2
CLASSES
  0
CLASS
  1
ACDBDICTIONARYWDFLT
  2
AcDbDictionaryWithDefault
  3
ObjectDBX Classes
 90
        0
280
     0
281
     0
  0
CLASS
  1
VISUALSTYLE
  2
AcDbVisualStyle
  3
ObjectDBX Classes
 90
     4095
280
     0
281
     0
  0
CLASS
  1
MATERIAL
  2
AcDbMaterial
  3
ObjectDBX Classes
 90
     1153
280
     0
281
     0
  0
CLASS
  1
SCALE
  2
AcDbScale
  3
ObjectDBX Classes
 90
     1153
280
     0
281
     0
  0
CLASS
  1
TABLESTYLE
  2
AcDbTableStyle
  3
ObjectDBX Classes
 90
     4095
280
     0
281
     0
  0
CLASS
  1
MLEADERSTYLE
  2
AcDbMLeaderStyle
  3
ACDB_MLEADERSTYLE_CLASS
 90
     4095
280
     0
281
     0
  0
CLASS
  1
SUN
  2
AcDbSun
  3
SCENEOE
 90
     1153
280
     0
281
     0
  0
CLASS
  1
ACDBPLACEHOLDER
  2
AcDbPlaceHolder
  3
ObjectDBX Classes
 90
        0
280
     0
281
     0
  0
CLASS
  1
LAYOUT
  2
AcDbLayout
  3
ObjectDBX Classes
 90
        0
280
     0
281
     0
  0
ENDSEC
  0
SECTION
  2
TABLES
  0
TABLE
  2
VPORT
  5
8
330
0
100
AcDbSymbolTable
 70
     1
  0
VPORT
  5
29
330
8
100
AcDbSymbolTableRecord
100
AcDbViewportTableRecord
  2
*Active
 70
     0
 10
0.0
 20
0.0
 11
1.0
 21
1.0
 12
0.0
 22
0.0
 13
0.0
 23
0.0
 14
10.0
 24
10.0
 15
10.0
 25
10.0
 16
0.0
 26
0.0
 36
1.0
 17
0.0
 27
0.0
 37
0.0
 40
34.5790498355
 41
1.0
 42
50.0
 43
0.0
 44
0.0
 50
0.0
 51
0.0
 71
     0
 72
   100
 73
     1
 74
     3
 75
     0
 76
     0
 77
     0
 78
     0
281
     0
 65
     1
110
0.0
120
0.0
130
0.0
111
1.0
121
0.0
131
0.0
112
0.0
122
1.0
132
0.0
 79
     0
146
0.0
  0
ENDTAB
  0
TABLE
  2
LTYPE
  5
5
330
0
100
AcDbSymbolTable
 70
     6
  0
LTYPE
  5
14
330
5
100
AcDbSymbolTableRecord
100
AcDbLinetypeTableRecord
  2
ByBlock
 70
     0
  3

 72
    65
 73
     0
 40
0.0
  0
LTYPE
  5
15
330
5
100
AcDbSymbolTableRecord
100
AcDbLinetypeTableRecord
  2
ByLayer
 70
     0
  3

 72
    65
 73
     0
 40
0.0
  0
LTYPE
  5
16
330
5
100
AcDbSymbolTableRecord
100
AcDbLinetypeTableRecord
  2
Continuous
 70
     0
  3
Solid line
 72
    65
 73
     0
 40
0.0
  0
LTYPE
  5
6E
330
5
100
AcDbSymbolTableRecord
100
AcDbLinetypeTableRecord
  2
HIDDEN
 70
     0
  3
Hidden __ __ __ __ __ __ __ __ __ __ __ __ __ __
 72
    65
 73
     2
 40
1.905
 49
1.27
 74
     0
 49
-0.635
 74
     0
  0
LTYPE
  5
6F
330
5
100
AcDbSymbolTableRecord
100
AcDbLinetypeTableRecord
  2
PHANTOM
 70
     0
  3
Phantom ______  __  __  ______  __  __  ______
 72
    65
 73
     6
 40
12.7
 49
6.35
 74
     0
 49
-1.27
 74
     0
 49
1.27
 74
     0
 49
-1.27
 74
     0
 49
1.27
 74
     0
 49
-1.27
 74
     0
  0
LTYPE
  5
70
330
5
100
AcDbSymbolTableRecord
100
AcDbLinetypeTableRecord
  2
CENTER
 70
     0
  3
Center ____ _ ____ _ ____ _ ____ _ ____ _ ____
 72
    65
 73
     4
 40
10.16
 49
6.35
 74
     0
 49
-1.27
 74
     0
 49
1.27
 74
     0
 49
-1.27
 74
     0
  0
LTYPE
  5
71
330
5
100
AcDbSymbolTableRecord
100
AcDbLinetypeTableRecord
  2
CENTERX2
 70
     0
  3
Center (2x) ________  __  ________  __  _____
 72
    65
 73
     4
 40
20.32
 49
12.7
 74
     0
 49
-2.54
 74
     0
 49
2.54
 74
     0
 49
-2.54
 74
     0
  0
LTYPE
  5
72
330
5
100
AcDbSymbolTableRecord
100
AcDbLinetypeTableRecord
  2
DOT2
 70
     0
  3
Dot (.5x) ........................................
 72
    65
 73
     2
 40
0.635
 49
0.0
 74
     0
 49
-0.635
 74
     0
  0
ENDTAB
  0
TABLE
  2
LAYER
  5
2
330
0
100
AcDbSymbolTable
 70
     1
  0
LAYER
  5
10
330
2
100
AcDbSymbolTableRecord
100
AcDbLayerTableRecord
  2
0
 70
     0
 62
     7
  6
Continuous
370
    -3
390
F
  0
ENDTAB
  0
TABLE
  2
STYLE
  5
3
330
0
100
AcDbSymbolTable
 70
     2
  0
STYLE
  5
11
330
3
100
AcDbSymbolTableRecord
100
AcDbTextStyleTableRecord
  2
Standard
 70
     0
 40
0.0
 41
1.0
 50
0.0
 71
     0
 42
3.5
  3
txt
  4
bigfont
  0
STYLE
  5
13C
330
3
100
AcDbSymbolTableRecord
100
AcDbTextStyleTableRecord
  2
SLDTEXTSTYLE0
 70
     0
 40
0.0
 41
0.7
 50
0.0
 71
     0
 42
3.5
  3
TXT
  4
bigfont
  0
ENDTAB
  0
TABLE
  2
VIEW
  5
6
330
0
100
AcDbSymbolTable
 70
     0
  0
ENDTAB
  0
TABLE
  2
UCS
  5
7
330
0
100
AcDbSymbolTable
 70
     0
  0
ENDTAB
  0
TABLE
  2
APPID
  5
9
330
0
100
AcDbSymbolTable
 70
     1
  0
APPID
  5
12
330
9
100
AcDbSymbolTableRecord
100
AcDbRegAppTableRecord
  2
ACAD
 70
     0
  0
ENDTAB
  0
TABLE
  2
DIMSTYLE
  5
A
330
0
100
AcDbSymbolTable
 70
     1
100
AcDbDimStyleTable
  0
DIMSTYLE
105
27
330
A
100
AcDbSymbolTableRecord
100
AcDbDimStyleTableRecord
  2
ISO-25
 70
     0
 41
2.5
 42
0.625
 43
3.75
 44
1.25
 73
     0
 74
     0
 77
     1
 78
     8
140
2.5
141
2.5
143
0.0393700787
147
0.625
171
     3
172
     1
178
     0
271
     2
272
     2
274
     3
278
    44
283
     0
284
     8
340
11
  0
ENDTAB
  0
TABLE
  2
BLOCK_RECORD
  5
1
330
0
100
AcDbSymbolTable
 70
     1
  0
BLOCK_RECORD
  5
1F
330
1
100
AcDbSymbolTableRecord
100
AcDbBlockTableRecord
  2
*Model_Space
340
22
  0
BLOCK_RECORD
  5
1B
330
1
100
AcDbSymbolTableRecord
100
AcDbBlockTableRecord
  2
*Paper_Space
340
1E
  0
BLOCK_RECORD
  5
23
330
1
100
AcDbSymbolTableRecord
100
AcDbBlockTableRecord
  2
*Paper_Space0
340
26
  0
ENDTAB
  0
ENDSEC
  0
SECTION
  2
BLOCKS
  0
BLOCK
  5
20
330
1F
100
AcDbEntity
  8
0
100
AcDbBlockBegin
  2
*Model_Space
 70
     0
 10
0.0
 20
0.0
 30
0.0
  3
*Model_Space
  1

  0
ENDBLK
  5
21
330
1F
100
AcDbEntity
  8
0
100
AcDbBlockEnd
  0
BLOCK
  5
1C
330
1B
100
AcDbEntity
 67
     1
  8
0
100
AcDbBlockBegin
  2
*Paper_Space
 70
     0
 10
0.0
 20
0.0
 30
0.0
  3
*Paper_Space
  1

  0
ENDBLK
  5
1D
330
1B
100
AcDbEntity
 67
     1
  8
0
100
AcDbBlockEnd
  0
BLOCK
  5
24
330
23
100
AcDbEntity
  8
0
100
AcDbBlockBegin
  2
*Paper_Space0
 70
     0
 10
0.0
 20
0.0
 30
0.0
  3
*Paper_Space0
  1

  0
ENDBLK
  5
25
330
23
100
AcDbEntity
  8
0
100
AcDbBlockEnd
  0
ENDSEC
  0
SECTION
  2
ENTITIES
  0
CIRCLE
  5
73
330
1F
100
AcDbEntity
  8
0
  6
Continuous
 62
     7
370
    25
100
AcDbCircle
 10
-6.9826794642
 20
-6.9826794642
 30
0.0
 40
2.109750000000001
  0
CIRCLE
  5
74
330
1F
100
AcDbEntity
  8
0
  6
Continuous
 62
     7
370
    25
100
AcDbCircle
 10
-9.875
 20
0.0
 30
0.0
 40
2.10975
  0
CIRCLE
  5
75
330
1F
100
AcDbEntity
  8
0
  6
Continuous
 62
     7
370
    25
100
AcDbCircle
 10
-6.9826794642
 20
6.9826794642
 30
0.0
 40
2.109750000000001
  0
CIRCLE
  5
76
330
1F
100
AcDbEntity
  8
0
  6
Continuous
 62
     7
370
    25
100
AcDbCircle
 10
0.0
 20
9.875
 30
0.0
 40
2.10975
  0
CIRCLE
  5
77
330
1F
100
AcDbEntity
  8
0
  6
Continuous
 62
     7
370
    25
100
AcDbCircle
 10
6.9826794642
 20
6.9826794642
 30
0.0
 40
2.109750000000002
  0
CIRCLE
  5
78
330
1F
100
AcDbEntity
  8
0
  6
Continuous
 62
     7
370
    25
100
AcDbCircle
 10
9.875
 20
0.0
 30
0.0
 40
2.10975
  0
CIRCLE
  5
79
330
1F
100
AcDbEntity
  8
0
  6
Continuous
 62
     7
370
    25
100
AcDbCircle
 10
6.9826794642
 20
-6.9826794642
 30
0.0
 40
2.109750000000002
  0
CIRCLE
  5
7A
330
1F
100
AcDbEntity
  8
0
  6
Continuous
 62
     7
370
    25
100
AcDbCircle
 10
0.0
 20
-9.875
 30
0.0
 40
2.10975
  0
CIRCLE
  5
7B
330
1F
100
AcDbEntity
  8
0
  6
Continuous
 62
     7
370
    25
100
AcDbCircle
 10
0.0
 20
0.0
 30
0.0
 40
5.0
  0
LINE
  5
7C
330
1F
100
AcDbEntity
  8
0
  6
Continuous
 62
     7
370
    25
100
AcDbLine
 10
2.427531613
 20
14.8378158429
 30
0.0
 11
2.3815029045
 21
14.5564742955
 31
0.0
  0
ARC
  5
7D
330
1F
100
AcDbEntity
  8
0
  6
Continuous
 62
     7
370
    25
100
AcDbCircle
 10
0.0
 20
0.0
 30
0.0
 40
14.75000000000001
100
AcDbArc
 50
76.7915236701
 51
80.7084763299
  0
LINE
  5
7E
330
1F
100
AcDbEntity
  8
0
  6
Continuous
 62
     7
370
    25
100
AcDbLine
 10
3.4354395238
 20
14.6373304942
 30
0.0
 11
3.3702997565
 21
14.3597903728
 31
0.0
  0
SPLINE
  5
7F
330
1F
100
AcDbEntity
  8
0
  6
Continuous
 62
     7
370
    25
100
AcDbSpline
210
0.0
220
0.0
230
1.0
 70
     8
 71
     4
 72
    15
 73
    10
 74
     0
 42
0.000000001
 43
0.00000001
 40
0.0
 40
0.0
 40
0.0
 40
0.0
 40
0.0
 40
0.0014010169528072
 40
0.0028020339056145
 40
0.005604067811229
 40
0.0106611581043112
 40
0.0157182483973935
 40
0.0256487376366981
 40
0.0256487376366981
 40
0.0256487376366981
 40
0.0256487376366981
 40
0.0256487376366981
 10
3.435439523774863
 20
14.63733049424363
 30
0.0
 10
3.443028339538579
 20
14.66491218351942
 30
0.0
 10
3.459880508964059
 20
14.71953373604184
 30
0.0
 10
3.500177694335316
 20
14.82663397992985
 30
0.0
 10
3.589428074252106
 20
15.02516943336396
 30
0.0
 10
3.728949244752242
 20
15.28218466853443
 30
0.0
 10
3.982372691578677
 20
15.6740650788831
 30
0.0
 10
4.236033740398933
 20
15.99565705435437
 30
0.0
 10
4.438801971774073
 20
16.22483588127666
 30
0.0
 10
4.578144780902025
 20
16.37194522239274
 30
0.0
  0
ARC
  5
80
330
1F
100
AcDbEntity
  8
0
  6
Continuous
 62
     7
370
    25
100
AcDbCircle
 10
0.0
 20
0.0
 30
0.0
 40
17.0
100
AcDbArc
 50
71.8727737451
 51
74.3772262549
  0
SPLINE
  5
81
330
1F
100
AcDbEntity
  8
0
  6
Continuous
 62
     7
370
    25
100
AcDbSpline
210
0.0
220
0.0
230
1.0
 70
     8
 71
     4
 72
    15
 73
    10
 74
     0
 42
0.000000001
 43
0.00000001
 40
0.0
 40
0.0
 40
0.0
 40
0.0
 40
0.0
 40
0.0014010169528072
 40
0.0028020339056145
 40
0.005604067811229
 40
0.0106611581043112
 40
0.0157182483973935
 40
0.0256487376367126
 40
0.0256487376367126
 40
0.0256487376367126
 40
0.0256487376367126
 40
0.0256487376367126
 10
5.275601544549556
 20
14.07912344794148
 30
0.0
 10
5.284615240386685
 20
14.10627290457245
 30
0.0
 10
5.300949282270798
 20
14.16105162936623
 30
0.0
 10
5.326945104626587
 20
14.27249014429604
 30
0.0
 10
5.363036513966357
 20
14.48715119515868
 30
0.0
 10
5.389818914515848
 20
14.77836536230764
 30
0.0
 10
5.396822110327918
 20
15.2449965385755
 30
0.0
 10
5.364577585158827
 20
15.65331702174157
 30
0.0
 10
5.323306896706362
 20
15.95652424566495
 30
0.0
 10
5.289177156146727
 20
16.15625590942593
 30
0.0
  0
LINE
  5
82
330
1F
100
AcDbEntity
  8
0
  6
Continuous
 62
     7
370
    25
100
AcDbLine
 10
5.2756015445
 20
14.0791234479
 30
0.0
 11
5.1755702517
 21
13.8121675551
 31
0.0
  0
ARC
  5
83
330
1F
100
AcDbEntity
  8
0
  6
Continuous
 62
     7
370
    25
100
AcDbCircle
 10
0.0
 20
0.0
 30
0.0
 40
14.75
100
AcDbArc
 50
65.5415236701
 51
69.4584763299
  0
LINE
  5
84
330
1F
100
AcDbEntity
  8
0
  6
Continuous
 62
     7
370
    25
100
AcDbLine
 10
6.2250300362
 20
13.6858572902
 30
0.0
 11
6.1069965196
 21
13.4263581626
 31
0.0
  0
SPLINE
  5
85
330
1F
100
AcDbEntity
  8
0
  6
Continuous
 62
     7
370
    25
100
AcDbSpline
210
0.0
220
0.0
230
1.0
 70
     8
 71
     4
 72
    15
 73
    10
 74
     0
 42
0.000000001
 43
0.00000001
 40
0.0
 40
0.0
 40
0.0
 40
0.0
 40
0.0
 40
0.0014010169528072
 40
0.0028020339056145
 40
0.005604067811229
 40
0.0106611581043112
 40
0.0157182483973935
 40
0.0256487376366981
 40
0.0256487376366981
 40
0.0256487376366981
 40
0.0256487376366981
 40
0.0256487376366981
 10
6.225030036212357
 20
13.68585729019133
 30
0.0
 10
6.237853955651664
 20
13.71142850053061
 30
0.0
 10
6.265038451637657
 20
13.76171282007748
 30
0.0
 10
6.325455558959582
 20
13.85889357194001
 30
0.0
 10
6.451723363394446
 20
14.03620233694834
 30
0.0
 10
6.638704858718066
 20
14.26105986636198
 30
0.0
 10
6.963710920521219
 20
14.59596994266252
 30
0.0
 10
7.275237425468265
 20
14.86189580280325
 30
0.0
 10
7.518820093277946
 20
15.0471129032751
 30
0.0
 10
7.684185078130594
 20
15.16421114614815
 30
0.0
  0
ARC
  5
86
330
1F
100
AcDbEntity
  8
0
  6
Continuous
 62
     7
370
    25
100
AcDbCircle
 10
0.0
 20
0.0
 30
0.0
 40
17.0
100
AcDbArc
 50
60.6227737451
 51
63.1272262549
  0
SPLINE
  5
87
330
1F
100
AcDbEntity
  8
0
  6
Continuous
 62
     7
370
    25
100
AcDbSpline
210
0.0
220
0.0
230
1.0
 70
     8
 71
     4
 72
    15
 73
    10
 74
     0
 42
0.000000001
 43
0.00000001
 40
0.0
 40
0.0
 40
0.0
 40
0.0
 40
0.0
 40
0.0014010169528072
 40
0.0028020339056145
 40
0.005604067811229
 40
0.0106611581043112
 40
0.0157182483973935
 40
0.0256487376367126
 40
0.0256487376367126
 40
0.0256487376367126
 40
0.0256487376367126
 40
0.0256487376367126
 10
7.92093306733049
 20
12.77937823456601
 30
0.0
 10
7.935070163766279
 20
12.8042475371772
 30
0.0
 10
7.961777150675357
 20
12.8547870906432
 30
0.0
 10
8.00901404635655
 20
12.95901281240189
 30
0.0
 10
8.086290262923113
 20
13.16250812669374
 30
0.0
 10
8.16937111280067
 20
13.44290170813076
 30
0.0
 10
8.26727497060979
 20
13.89920044146541
 30
0.0
 10
8.315309389497004
 20
14.30596575584032
 30
0.0
 10
8.333984500703547
 20
14.61139844987631
 30
0.0
 10
8.339476268138622
 20
14.81395070779963
 30
0.0
  0
LINE
  5
88
330
1F
100
AcDbEntity
  8
0
  6
Continuous
 62
     7
370
    25
100
AcDbLine
 10
7.9209330673
 20
12.7793782346
 30
0.0
 11
7.7707433366
 21
12.5370669615
 31
0.0
  0
ARC
  5
89
330
1F
100
AcDbEntity
  8
0
  6
Continuous
 62
     7
370
    25
100
AcDbCircle
 10
0.0
 20
0.0
 30
0.0
 40
14.75
100
AcDbArc
 50
54.2915236701
 51
58.2084763299
  0
LINE
  5
8A
330
1F
100
AcDbEntity
  8
0
  6
Continuous
 62
     7
370
    25
100
AcDbLine
 10
8.7753961354
 20
12.2084442656
 30
0.0
 11
8.6090048313
 21
11.9769585377
 31
0.0
  0
SPLINE
  5
8B
330
1F
100
AcDbEntity
  8
0
  6
Continuous
 62
     7
370
    25
100
AcDbSpline
210
0.0
220
0.0
230
1.0
 70
     8
 71
     4
 72
    15
 73
    10
 74
     0
 42
0.000000001
 43
0.00000001
 40
0.0
 40
0.0
 40
0.0
 40
0.0
 40
0.0
 40
0.0014010169528072
 40
0.0028020339056145
 40
0.005604067811229
 40
0.0106611581043112
 40
0.0157182483973935
 40
0.0256487376366981
 40
0.0256487376366981
 40
0.0256487376366981
 40
0.0256487376366981
 40
0.0256487376366981
 10
8.775396135395283
 20
12.20844426559415
 30
0.0
 10
8.792962342477866
 20
12.23102230972408
 30
0.0
 10
8.829434480088869
 20
12.275036998095
 30
0.0
 10
8.907649713809386
 20
12.35856365613757
 30
0.0
 10
9.06608254184969
 20
12.50783185631675
 30
0.0
 10
9.293338767991939
 20
12.69189053121973
 30
0.0
 10
9.677437644082216
 20
12.95695986705966
 30
0.0
 10
10.03485781627701
 20
13.15700023019757
 30
0.0
 10
10.30989417520004
 20
13.29113781491879
 30
0.0
 10
10.49492645214725
 20
13.37372493974467
 30
0.0
  0
ARC
  5
8C
330
1F
100
AcDbEntity
  8
0
  6
Continuous
 62
     7
370
    25
100
AcDbCircle
 10
0.0
 20
0.0
 30
0.0
 40
17.0
100
AcDbArc
 50
49.3727737451
 51
51.8772262549
  0
SPLINE
  5
8D
330
1F
100
AcDbEntity
  8
0
  6
Continuous
 62
     7
370
    25
100
AcDbSpline
210
0.0
220
0.0
230
1.0
 70
     8
 71
     4
 72
    15
 73
    10
 74
     0
 42
0.000000001
 43
0.00000001
 40
0.0
 40
0.0
 40
0.0
 40
0.0
 40
0.0
 40
0.0014010169528072
 40
0.0028020339056145
 40
0.005604067811229
 40
0.0106611581043112
 40
0.0157182483973935
 40
0.0256487376367126
 40
0.0256487376367126
 40
0.0256487376367126
 40
0.0256487376367126
 40
0.0256487376367126
 10
10.26186757444434
 20
10.98852868239406
 30
0.0
 10
10.28058479079094
 20
11.01016211763297
 30
0.0
 10
10.31663838819552
 20
11.05452029307441
 30
0.0
 10
10.38330106979184
 20
11.14752788562525
 30
0.0
 10
10.49879241191955
 20
11.33203725253956
 30
0.0
 10
10.63497896065665
 20
11.59083488017656
 30
0.0
 10
10.82002109011234
 20
12.01926586615121
 30
0.0
 10
10.94648851727603
 20
12.40884424882015
 30
0.0
 10
11.02439175409104
 20
12.70476480582559
 30
0.0
 10
11.06929398397811
 20
12.90235368823187
 30
0.0
  0
LINE
  5
8E
330
1F
100
AcDbEntity
  8
0
  6
Continuous
 62
     7
370
    25
100
AcDbLine
 10
10.2618675744
 20
10.9885286824
 30
0.0
 11
10.067291113
 21
10.7801739154
 31
0.0
  0
ARC
  5
8F
330
1F
100
AcDbEntity
  8
0
  6
Continuous
 62
     7
370
    25
100
AcDbCircle
 10
0.0
 20
0.0
 30
0.0
 40
14.75
100
AcDbArc
 50
43.0415236701
 51
46.9584763299
  0
LINE
  5
90
330
1F
100
AcDbEntity
  8
0
  6
Continuous
 62
     7
370
    25
100
AcDbLine
 10
10.9885286824
 20
10.2618675744
 30
0.0
 11
10.7801739154
 21
10.067291113
 31
0.0
  0
SPLINE
  5
91
330
1F
100
AcDbEntity
  8
0
  6
Continuous
 62
     7
370
    25
100
AcDbSpline
210
0.0
220
0.0
230
1.0
 70
     8
 71
     4
 72
    15
 73
    10
 74
     0
 42
0.000000001
 43
0.00000001
 40
0.0
 40
0.0
 40
0.0
 40
0.0
 40
0.0
 40
0.0014010169528072
 40
0.0028020339056145
 40
0.005604067811229
 40
0.0106611581043112
 40
0.0157182483973935
 40
0.0256487376366981
 40
0.0256487376366981
 40
0.0256487376366981
 40
0.0256487376366981
 40
0.0256487376366981
 10
10.98852868239381
 20
10.26186757444461
 30
0.0
 10
11.01016211763272
 20
10.28058479079121
 30
0.0
 10
11.05452029307416
 20
10.31663838819579
 30
0.0
 10
11.147527885625
 20
10.38330106979211
 30
0.0
 10
11.33203725253931
 20
10.49879241191982
 30
0.0
 10
11.5908348801763
 20
10.63497896065693
 30
0.0
 10
12.01926586615068
 20
10.82002109011251
 30
0.0
 10
12.40884424881932
 20
10.94648851727615
 30
0.0
 10
12.70476480582446
 20
11.02439175409112
 30
0.0
 10
12.90235368823044
 20
11.06929398397816
 30
0.0
  0
ARC
  5
92
330
1F
100
AcDbEntity
  8
0
  6
Continuous
 62
     7
370
    25
100
AcDbCircle
 10
0.0
 20
0.0
 30
0.0
 40
17.0
100
AcDbArc
 50
38.1227737451
 51
40.6272262549
  0
SPLINE
  5
93
330
1F
100
AcDbEntity
  8
0
  6
Continuous
 62
     7
370
    25
100
AcDbSpline
210
0.0
220
0.0
230
1.0
 70
     8
 71
     4
 72
    15
 73
    10
 74
     0
 42
0.000000001
 43
0.00000001
 40
0.0
 40
0.0
 40
0.0
 40
0.0
 40
0.0
 40
0.0014010169528072
 40
0.0028020339056145
 40
0.005604067811229
 40
0.0106611581043112
 40
0.0157182483973935
 40
0.0256487376367126
 40
0.0256487376367126
 40
0.0256487376367126
 40
0.0256487376367126
 40
0.0256487376367126
 10
12.20844426559393
 20
8.775396135395582
 30
0.0
 10
12.23102230972387
 20
8.792962342478164
 30
0.0
 10
12.27503699809479
 20
8.82943448008917
 30
0.0
 10
12.35856365613735
 20
8.907649713809688
 30
0.0
 10
12.50783185631653
 20
9.066082541849998
 30
0.0
 10
12.69189053121951
 20
9.29333876799225
 30
0.0
 10
12.9569598670596
 20
9.677437644082776
 30
0.0
 10
13.15700023019762
 20
10.03485781627785
 30
0.0
 10
13.29113781491893
 20
10.30989417520117
 30
0.0
 10
13.3737249397449
 20
10.49492645214866
 30
0.0
  0
LINE
  5
94
330
1F
100
AcDbEntity
  8
0
  6
Continuous
 62
     7
370
    25
100
AcDbLine
 10
12.2084442656
 20
8.7753961354
 30
0.0
 11
11.9769585377
 21
8.6090048313
 31
0.0
  0
ARC
  5
95
330
1F
100
AcDbEntity
  8
0
  6
Continuous
 62
     7
370
    25
100
AcDbCircle
 10
0.0
 20
0.0
 30
0.0
 40
14.75
100
AcDbArc
 50
31.7915236701
 51
35.7084763299
  0
LINE
  5
96
330
1F
100
AcDbEntity
  8
0
  6
Continuous
 62
     7
370
    25
100
AcDbLine
 10
12.7793782346
 20
7.9209330673
 30
0.0
 11
12.5370669615
 21
7.7707433366
 31
0.0
  0
SPLINE
  5
97
330
1F
100
AcDbEntity
  8
0
  6
Continuous
 62
     7
370
    25
100
AcDbSpline
210
0.0
220
0.0
230
1.0
 70
     8
 71
     4
 72
    15
 73
    10
 74
     0
 42
0.000000001
 43
0.00000001
 40
0.0
 40
0.0
 40
0.0
 40
0.0
 40
0.0
 40
0.0014010169528072
 40
0.0028020339056145
 40
0.005604067811229
 40
0.0106611581043112
 40
0.0157182483973935
 40
0.0256487376366981
 40
0.0256487376366981
 40
0.0256487376366981
 40
0.0256487376366981
 40
0.0256487376366981
 10
12.77937823456582
 20
7.920933067330802
 30
0.0
 10
12.804247537177
 20
7.935070163766591
 30
0.0
 10
12.85478709064301
 20
7.961777150675672
 30
0.0
 10
12.9590128124017
 20
8.009014046356864
 30
0.0
 10
13.16250812669354
 20
8.086290262923434
 30
0.0
 10
13.44290170813057
 20
8.169371112800997
 30
0.0
 10
13.89920044146492
 20
8.267274970610067
 30
0.0
 10
14.30596575583953
 20
8.315309389497283
 30
0.0
 10
14.61139844987522
 20
8.33398450070385
 30
0.0
 10
14.81395070779824
 20
8.339476268138954
 30
0.0
  0
ARC
  5
98
330
1F
100
AcDbEntity
  8
0
  6
Continuous
 62
     7
370
    25
100
AcDbCircle
 10
0.0
 20
0.0
 30
0.0
 40
17.0
100
AcDbArc
 50
26.8727737451
 51
29.3772262549
  0
SPLINE
  5
99
330
1F
100
AcDbEntity
  8
0
  6
Continuous
 62
     7
370
    25
100
AcDbSpline
210
0.0
220
0.0
230
1.0
 70
     8
 71
     4
 72
    15
 73
    10
 74
     0
 42
0.000000001
 43
0.00000001
 40
0.0
 40
0.0
 40
0.0
 40
0.0
 40
0.0
 40
0.0014010169528072
 40
0.0028020339056145
 40
0.005604067811229
 40
0.0106611581043112
 40
0.0157182483973935
 40
0.0256487376367126
 40
0.0256487376367126
 40
0.0256487376367126
 40
0.0256487376367126
 40
0.0256487376367126
 10
13.68585729019117
 20
6.225030036212691
 30
0.0
 10
13.71142850053046
 20
6.237853955651999
 30
0.0
 10
13.76171282007733
 20
6.265038451637992
 30
0.0
 10
13.85889357193986
 20
6.325455558959921
 30
0.0
 10
14.03620233694819
 20
6.451723363394787
 30
0.0
 10
14.26105986636182
 20
6.638704858718413
 30
0.0
 10
14.59596994266257
 20
6.963710920521781
 30
0.0
 10
14.86189580280346
 20
7.275237425469078
 30
0.0
 10
15.04711290327545
 20
7.518820093279022
 30
0.0
 10
15.16421114614865
 20
7.684185078131931
 30
0.0
  0
LINE
  5
9A
330
1F
100
AcDbEntity
  8
0
  6
Continuous
 62
     7
370
    25
100
AcDbLine
 10
13.6858572902
 20
6.2250300362
 30
0.0
 11
13.4263581626
 21
6.1069965196
 31
0.0
  0
ARC
  5
9B
330
1F
100
AcDbEntity
  8
0
  6
Continuous
 62
     7
370
    25
100
AcDbCircle
 10
0.0
 20
0.0
 30
0.0
 40
14.75
100
AcDbArc
 50
20.5415236701
 51
24.4584763299
  0
LINE
  5
9C
330
1F
100
AcDbEntity
  8
0
  6
Continuous
 62
     7
370
    25
100
AcDbLine
 10
14.0791234479
 20
5.2756015445
 30
0.0
 11
13.8121675551
 21
5.1755702517
 31
0.0
  0
SPLINE
  5
9D
330
1F
100
AcDbEntity
  8
0
  6
Continuous
 62
     7
370
    25
100
AcDbSpline
210
0.0
220
0.0
230
1.0
 70
     8
 71
     4
 72
    15
 73
    10
 74
     0
 42
0.000000001
 43
0.00000001
 40
0.0
 40
0.0
 40
0.0
 40
0.0
 40
0.0
 40
0.0014010169528072
 40
0.0028020339056145
 40
0.005604067811229
 40
0.0106611581043112
 40
0.0157182483973935
 40
0.0256487376366981
 40
0.0256487376366981
 40
0.0256487376366981
 40
0.0256487376366981
 40
0.0256487376366981
 10
14.07912344794134
 20
5.2756015445499
 30
0.0
 10
14.10627290457232
 20
5.284615240387029
 30
0.0
 10
14.1610516293661
 20
5.300949282271143
 30
0.0
 10
14.27249014429592
 20
5.326945104626935
 30
0.0
 10
14.48715119515855
 20
5.363036513966709
 30
0.0
 10
14.77836536230751
 20
5.389818914516209
 30
0.0
 10
15.24499653857508
 20
5.396822110328285
 30
0.0
 10
15.65331702174085
 20
5.364577585159255
 30
0.0
 10
15.95652424566394
 20
5.32330689670687
 30
0.0
 10
16.15625590942463
 20
5.28917715614732
 30
0.0
  0
ARC
  5
9E
330
1F
100
AcDbEntity
  8
0
  6
Continuous
 62
     7
370
    25
100
AcDbCircle
 10
0.0
 20
0.0
 30
0.0
 40
17.0
100
AcDbArc
 50
15.6227737451
 51
18.1272262549
  0
SPLINE
  5
9F
330
1F
100
AcDbEntity
  8
0
  6
Continuous
 62
     7
370
    25
100
AcDbSpline
210
0.0
220
0.0
230
1.0
 70
     8
 71
     4
 72
    15
 73
    10
 74
     0
 42
0.000000001
 43
0.00000001
 40
0.0
 40
0.0
 40
0.0
 40
0.0
 40
0.0
 40
0.0014010169528072
 40
0.0028020339056145
 40
0.005604067811229
 40
0.0106611581043112
 40
0.0157182483973935
 40
0.0256487376367126
 40
0.0256487376367126
 40
0.0256487376367126
 40
0.0256487376367126
 40
0.0256487376367126
 10
14.63733049424355
 20
3.435439523775221
 30
0.0
 10
14.66491218351934
 20
3.443028339538938
 30
0.0
 10
14.71953373604176
 20
3.459880508964419
 30
0.0
 10
14.82663397992977
 20
3.500177694335679
 30
0.0
 10
15.02516943336388
 20
3.589428074252473
 30
0.0
 10
15.28218466853434
 20
3.728949244752616
 30
0.0
 10
15.67406507888325
 20
3.982372691579222
 30
0.0
 10
15.99565705435474
 20
4.236033740399694
 30
0.0
 10
16.22483588127722
 20
4.43880197177506
 30
0.0
 10
16.37194522239349
 20
4.578144780903242
 30
0.0
  0
LINE
  5
A0
330
1F
100
AcDbEntity
  8
0
  6
Continuous
 62
     7
370
    25
100
AcDbLine
 10
14.6373304942
 20
3.4354395238
 30
0.0
 11
14.3597903728
 21
3.3702997565
 31
0.0
  0
ARC
  5
A1
330
1F
100
AcDbEntity
  8
0
  6
Continuous
 62
     7
370
    25
100
AcDbCircle
 10
0.0
 20
0.0
 30
0.0
 40
14.75
100
AcDbArc
 50
9.2915236701
 51
13.2084763299
  0
LINE
  5
A2
330
1F
100
AcDbEntity
  8
0
  6
Continuous
 62
     7
370
    25
100
AcDbLine
 10
14.8378158429
 20
2.427531613
 30
0.0
 11
14.5564742955
 21
2.3815029045
 31
0.0
  0
SPLINE
  5
A3
330
1F
100
AcDbEntity
  8
0
  6
Continuous
 62
     7
370
    25
100
AcDbSpline
210
0.0
220
0.0
230
1.0
 70
     8
 71
     4
 72
    15
 73
    10
 74
     0
 42
0.000000001
 43
0.00000001
 40
0.0
 40
0.0
 40
0.0
 40
0.0
 40
0.0
 40
0.0014010169528072
 40
0.0028020339056145
 40
0.005604067811229
 40
0.0106611581043112
 40
0.0157182483973935
 40
0.0256487376366981
 40
0.0256487376366981
 40
0.0256487376366981
 40
0.0256487376366981
 40
0.0256487376366981
 10
14.83781584287587
 20
2.427531613003388
 30
0.0
 10
14.86620211513391
 20
2.431075516965776
 30
0.0
 10
14.9231148955819
 20
2.436408905755554
 30
0.0
 10
15.03748368404952
 20
2.440164649911434
 30
0.0
 10
15.25506116768159
 20
2.433684279403781
 30
0.0
 10
15.54590472341375
 20
2.403138997991844
 30
0.0
 10
16.00493596820034
 20
2.318972402919305
 30
0.0
 10
16.39912009297798
 20
2.207688072713337
 30
0.0
 10
16.68844976321367
 20
2.108057594014359
 30
0.0
 10
16.87768525698452
 20
2.035617932249681
 30
0.0
  0
ARC
  5
A4
330
1F
100
AcDbEntity
  8
0
  6
Continuous
 62
     7
370
    25
100
AcDbCircle
 10
0.0
 20
0.0
 30
0.0
 40
17.0
100
AcDbArc
 50
4.3727737451
 51
6.8772262549
  0
SPLINE
  5
A5
330
1F
100
AcDbEntity
  8
0
  6
Continuous
 62
     7
370
    25
100
AcDbSpline
210
0.0
220
0.0
230
1.0
 70
     8
 71
     4
 72
    15
 73
    10
 74
     0
 42
0.000000001
 43
0.00000001
 40
0.0
 40
0.0
 40
0.0
 40
0.0
 40
0.0
 40
0.0014010169528072
 40
0.0028020339056145
 40
0.005604067811229
 40
0.0106611581043112
 40
0.0157182483973935
 40
0.0256487376367126
 40
0.0256487376367126
 40
0.0256487376367126
 40
0.0256487376367126
 40
0.0256487376367126
 10
15.02629929611166
 20
0.5138269970557485
 30
0.0
 10
15.05483151547307
 20
0.515889075209932
 30
0.0
 10
15.11169122533972
 20
0.5217612986546852
 30
0.0
 10
15.22459515894309
 20
0.5403899638403811
 30
0.0
 10
15.43672769466748
 20
0.5891930771910903
 30
0.0
 10
15.71602368424299
 20
0.6758922025298018
 30
0.0
 10
16.14981468423942
 20
0.8479941134396056
 30
0.0
 10
16.51471417577498
 20
1.034041654281835
 30
0.0
 10
16.77904751535429
 20
1.188203179804605
 30
0.0
 10
16.95051462523439
 20
1.29616894719761
 30
0.0
  0
LINE
  5
A6
330
1F
100
AcDbEntity
  8
0
  6
Continuous
 62
     7
370
    25
100
AcDbLine
 10
15.0262992961
 20
0.5138269971
 30
0.0
 11
14.7413838921
 21
0.5040842638
 31
0.0
  0
ARC
  5
A7
330
1F
100
AcDbEntity
  8
0
  6
Continuous
 62
     7
370
    25
100
AcDbCircle
 10
0.0
 20
0.0
 30
0.0
 40
14.75
100
AcDbArc
 50
358.0415236701
 51
1.9584763299
  0
LINE
  5
A8
330
1F
100
AcDbEntity
  8
0
  6
Continuous
 62
     7
370
    25
100
AcDbLine
 10
15.0262992961
 20
-0.5138269971
 30
0.0
 11
14.7413838921
 21
-0.5040842638
 31
0.0
  0
SPLINE
  5
A9
330
1F
100
AcDbEntity
  8
0
  6
Continuous
 62
     7
370
    25
100
AcDbSpline
210
0.0
220
0.0
230
1.0
 70
     8
 71
     4
 72
    15
 73
    10
 74
     0
 42
0.000000001
 43
0.00000001
 40
0.0
 40
0.0
 40
0.0
 40
0.0
 40
0.0
 40
0.0014010169528072
 40
0.0028020339056145
 40
0.005604067811229
 40
0.0106611581043112
 40
0.0157182483973935
 40
0.0256487376366981
 40
0.0256487376366981
 40
0.0256487376366981
 40
0.0256487376366981
 40
0.0256487376366981
 10
15.02629929611167
 20
-0.5138269970554337
 30
0.0
 10
15.05483151547308
 20
-0.5158890752096167
 30
0.0
 10
15.11169122533973
 20
-0.5217612986543686
 30
0.0
 10
15.2245951589431
 20
-0.5403899638400621
 30
0.0
 10
15.43672769466749
 20
-0.589193077190767
 30
0.0
 10
15.716023684243
 20
-0.6758922025294726
 30
0.0
 10
16.14981468423916
 20
-0.847994113439158
 30
0.0
 10
16.51471417577447
 20
-1.03404165428122
 30
0.0
 10
16.77904751535355
 20
-1.188203179803805
 30
0.0
 10
16.95051462523342
 20
-1.296168947196623
 30
0.0
  0
ARC
  5
AA
330
1F
100
AcDbEntity
  8
0
  6
Continuous
 62
     7
370
    25
100
AcDbCircle
 10
0.0
 20
0.0
 30
0.0
 40
17.0
100
AcDbArc
 50
353.1227737451
 51
355.6272262549
  0
SPLINE
  5
AB
330
1F
100
AcDbEntity
  8
0
  6
Continuous
 62
     7
370
    25
100
AcDbSpline
210
0.0
220
0.0
230
1.0
 70
     8
 71
     4
 72
    15
 73
    10
 74
     0
 42
0.000000001
 43
0.00000001
 40
0.0
 40
0.0
 40
0.0
 40
0.0
 40
0.0
 40
0.0014010169528072
 40
0.0028020339056145
 40
0.005604067811229
 40
0.0106611581043112
 40
0.0157182483973935
 40
0.0256487376367125
 40
0.0256487376367125
 40
0.0256487376367125
 40
0.0256487376367125
 40
0.0256487376367125
 10
14.83781584287592
 20
-2.427531613003076
 30
0.0
 10
14.86620211513395
 20
-2.431075516965464
 30
0.0
 10
14.92311489558195
 20
-2.43640890575524
 30
0.0
 10
15.03748368404957
 20
-2.440164649911119
 30
0.0
 10
15.25506116768164
 20
-2.433684279403462
 30
0.0
 10
15.5459047234138
 20
-2.403138997991518
 30
0.0
 10
16.00493596820068
 20
-2.318972402918916
 30
0.0
 10
16.3991200929786
 20
-2.207688072712833
 30
0.0
 10
16.68844976321455
 20
-2.108057594013722
 30
0.0
 10
16.87768525698565
 20
-2.035617932248907
 30
0.0
  0
LINE
  5
AC
330
1F
100
AcDbEntity
  8
0
  6
Continuous
 62
     7
370
    25
100
AcDbLine
 10
14.8378158429
 20
-2.427531613
 30
0.0
 11
14.5564742955
 21
-2.3815029045
 31
0.0
  0
ARC
  5
AD
330
1F
100
AcDbEntity
  8
0
  6
Continuous
 62
     7
370
    25
100
AcDbCircle
 10
0.0
 20
0.0
 30
0.0
 40
14.75
100
AcDbArc
 50
346.7915236701
 51
350.7084763299
  0
LINE
  5
AE
330
1F
100
AcDbEntity
  8
0
  6
Continuous
 62
     7
370
    25
100
AcDbLine
 10
14.6373304942
 20
-3.4354395238
 30
0.0
 11
14.3597903728
 21
-3.3702997565
 31
0.0
  0
SPLINE
  5
AF
330
1F
100
AcDbEntity
  8
0
  6
Continuous
 62
     7
370
    25
100
AcDbSpline
210
0.0
220
0.0
230
1.0
 70
     8
 71
     4
 72
    15
 73
    10
 74
     0
 42
0.000000001
 43
0.00000001
 40
0.0
 40
0.0
 40
0.0
 40
0.0
 40
0.0
 40
0.0014010169528072
 40
0.0028020339056145
 40
0.005604067811229
 40
0.0106611581043112
 40
0.0157182483973935
 40
0.0256487376366981
 40
0.0256487376366981
 40
0.0256487376366981
 40
0.0256487376366981
 40
0.0256487376366981
 10
14.63733049424362
 20
-3.435439523774914
 30
0.0
 10
14.66491218351941
 20
-3.44302833953863
 30
0.0
 10
14.71953373604183
 20
-3.45988050896411
 30
0.0
 10
14.82663397992984
 20
-3.500177694335368
 30
0.0
 10
15.02516943336395
 20
-3.589428074252158
 30
0.0
 10
15.28218466853442
 20
-3.728949244752295
 30
0.0
 10
15.67406507888309
 20
-3.982372691578731
 30
0.0
 10
15.99565705435436
 20
-4.236033740398989
 30
0.0
 10
16.22483588127665
 20
-4.438801971774128
 30
0.0
 10
16.37194522239272
 20
-4.57814478090208
 30
0.0
  0
ARC
  5
B0
330
1F
100
AcDbEntity
  8
0
  6
Continuous
 62
     7
370
    25
100
AcDbCircle
 10
0.0
 20
0.0
 30
0.0
 40
17.0
100
AcDbArc
 50
341.8727737451
 51
344.3772262549
  0
SPLINE
  5
B1
330
1F
100
AcDbEntity
  8
0
  6
Continuous
 62
     7
370
    25
100
AcDbSpline
210
0.0
220
0.0
230
1.0
 70
     8
 71
     4
 72
    15
 73
    10
 74
     0
 42
0.000000001
 43
0.00000001
 40
0.0
 40
0.0
 40
0.0
 40
0.0
 40
0.0
 40
0.0014010169528072
 40
0.0028020339056145
 40
0.005604067811229
 40
0.0106611581043112
 40
0.0157182483973935
 40
0.0256487376367126
 40
0.0256487376367126
 40
0.0256487376367126
 40
0.0256487376367126
 40
0.0256487376367126
 10
14.07912344794146
 20
-5.275601544549605
 30
0.0
 10
14.10627290457243
 20
-5.284615240386735
 30
0.0
 10
14.16105162936621
 20
-5.300949282270848
 30
0.0
 10
14.27249014429603
 20
-5.326945104626637
 30
0.0
 10
14.48715119515866
 20
-5.363036513966406
 30
0.0
 10
14.77836536230762
 20
-5.389818914515899
 30
0.0
 10
15.24499653857549
 20
-5.396822110327971
 30
0.0
 10
15.65331702174156
 20
-5.364577585158881
 30
0.0
 10
15.95652424566493
 20
-5.323306896706417
 30
0.0
 10
16.15625590942591
 20
-5.289177156146785
 30
0.0
  0
LINE
  5
B2
330
1F
100
AcDbEntity
  8
0
  6
Continuous
 62
     7
370
    25
100
AcDbLine
 10
14.0791234479
 20
-5.2756015445
 30
0.0
 11
13.8121675551
 21
-5.1755702517
 31
0.0
  0
ARC
  5
B3
330
1F
100
AcDbEntity
  8
0
  6
Continuous
 62
     7
370
    25
100
AcDbCircle
 10
0.0
 20
0.0
 30
0.0
 40
14.75
100
AcDbArc
 50
335.5415236701
 51
339.4584763299
  0
LINE
  5
B4
330
1F
100
AcDbEntity
  8
0
  6
Continuous
 62
     7
370
    25
100
AcDbLine
 10
13.6858572902
 20
-6.2250300362
 30
0.0
 11
13.4263581626
 21
-6.1069965196
 31
0.0
  0
SPLINE
  5
B5
330
1F
100
AcDbEntity
  8
0
  6
Continuous
 62
     7
370
    25
100
AcDbSpline
210
0.0
220
0.0
230
1.0
 70
     8
 71
     4
 72
    15
 73
    10
 74
     0
 42
0.000000001
 43
0.00000001
 40
0.0
 40
0.0
 40
0.0
 40
0.0
 40
0.0
 40
0.0014010169528072
 40
0.0028020339056145
 40
0.005604067811229
 40
0.0106611581043112
 40
0.0157182483973935
 40
0.0256487376366981
 40
0.0256487376366981
 40
0.0256487376366981
 40
0.0256487376366981
 40
0.0256487376366981
 10
13.6858572901913
 20
-6.225030036212405
 30
0.0
 10
13.71142850053059
 20
-6.237853955651711
 30
0.0
 10
13.76171282007746
 20
-6.265038451637705
 30
0.0
 10
13.85889357193999
 20
-6.325455558959631
 30
0.0
 10
14.03620233694832
 20
-6.451723363394493
 30
0.0
 10
14.26105986636195
 20
-6.638704858718114
 30
0.0
 10
14.5959699426625
 20
-6.963710920521268
 30
0.0
 10
14.86189580280322
 20
-7.275237425468316
 30
0.0
 10
15.04711290327507
 20
-7.518820093277998
 30
0.0
 10
15.16421114614812
 20
-7.684185078130645
 30
0.0
  0
ARC
  5
B6
330
1F
100
AcDbEntity
  8
0
  6
Continuous
 62
     7
370
    25
100
AcDbCircle
 10
0.0
 20
0.0
 30
0.0
 40
17.0
100
AcDbArc
 50
330.6227737451
 51
333.1272262549
  0
SPLINE
  5
B7
330
1F
100
AcDbEntity
  8
0
  6
Continuous
 62
     7
370
    25
100
AcDbSpline
210
0.0
220
0.0
230
1.0
 70
     8
 71
     4
 72
    15
 73
    10
 74
     0
 42
0.000000001
 43
0.00000001
 40
0.0
 40
0.0
 40
0.0
 40
0.0
 40
0.0
 40
0.0014010169528072
 40
0.0028020339056145
 40
0.005604067811229
 40
0.0106611581043112
 40
0.0157182483973935
 40
0.0256487376367126
 40
0.0256487376367126
 40
0.0256487376367126
 40
0.0256487376367126
 40
0.0256487376367126
 10
12.77937823456598
 20
-7.920933067330533
 30
0.0
 10
12.80424753717717
 20
-7.935070163766323
 30
0.0
 10
12.85478709064317
 20
-7.961777150675402
 30
0.0
 10
12.95901281240186
 20
-8.009014046356592
 30
0.0
 10
13.16250812669371
 20
-8.086290262923159
 30
0.0
 10
13.44290170813074
 20
-8.169371112800714
 30
0.0
 10
13.89920044146538
 20
-8.267274970609838
 30
0.0
 10
14.30596575584029
 20
-8.315309389497054
 30
0.0
 10
14.61139844987628
 20
-8.333984500703597
 30
0.0
 10
14.8139507077996
 20
-8.339476268138675
 30
0.0
  0
LINE
  5
B8
330
1F
100
AcDbEntity
  8
0
  6
Continuous
 62
     7
370
    25
100
AcDbLine
 10
12.7793782346
 20
-7.9209330673
 30
0.0
 11
12.5370669615
 21
-7.7707433366
 31
0.0
  0
ARC
  5
B9
330
1F
100
AcDbEntity
  8
0
  6
Continuous
 62
     7
370
    25
100
AcDbCircle
 10
0.0
 20
0.0
 30
0.0
 40
14.75
100
AcDbArc
 50
324.2915236701
 51
328.2084763299
  0
LINE
  5
BA
330
1F
100
AcDbEntity
  8
0
  6
Continuous
 62
     7
370
    25
100
AcDbLine
 10
12.2084442656
 20
-8.7753961354
 30
0.0
 11
11.9769585377
 21
-8.6090048313
 31
0.0
  0
SPLINE
  5
BB
330
1F
100
AcDbEntity
  8
0
  6
Continuous
 62
     7
370
    25
100
AcDbSpline
210
0.0
220
0.0
230
1.0
 70
     8
 71
     4
 72
    15
 73
    10
 74
     0
 42
0.000000001
 43
0.00000001
 40
0.0
 40
0.0
 40
0.0
 40
0.0
 40
0.0
 40
0.0014010169528072
 40
0.0028020339056145
 40
0.005604067811229
 40
0.0106611581043112
 40
0.0157182483973935
 40
0.0256487376366981
 40
0.0256487376366981
 40
0.0256487376366981
 40
0.0256487376366981
 40
0.0256487376366981
 10
12.20844426559412
 20
-8.775396135395326
 30
0.0
 10
12.23102230972406
 20
-8.792962342477908
 30
0.0
 10
12.27503699809497
 20
-8.82943448008891
 30
0.0
 10
12.35856365613754
 20
-8.90764971380943
 30
0.0
 10
12.50783185631672
 20
-9.066082541849735
 30
0.0
 10
12.6918905312197
 20
-9.293338767991985
 30
0.0
 10
12.95695986705963
 20
-9.677437644082262
 30
0.0
 10
13.15700023019754
 20
-10.03485781627706
 30
0.0
 10
13.29113781491876
 20
-10.30989417520009
 30
0.0
 10
13.37372493974464
 20
-10.4949264521473
 30
0.0
  0
ARC
  5
BC
330
1F
100
AcDbEntity
  8
0
  6
Continuous
 62
     7
370
    25
100
AcDbCircle
 10
0.0
 20
0.0
 30
0.0
 40
17.0
100
AcDbArc
 50
319.3727737451
 51
321.8772262549
  0
SPLINE
  5
BD
330
1F
100
AcDbEntity
  8
0
  6
Continuous
 62
     7
370
    25
100
AcDbSpline
210
0.0
220
0.0
230
1.0
 70
     8
 71
     4
 72
    15
 73
    10
 74
     0
 42
0.000000001
 43
0.00000001
 40
0.0
 40
0.0
 40
0.0
 40
0.0
 40
0.0
 40
0.0014010169528072
 40
0.0028020339056145
 40
0.005604067811229
 40
0.0106611581043112
 40
0.0157182483973935
 40
0.0256487376367126
 40
0.0256487376367126
 40
0.0256487376367126
 40
0.0256487376367126
 40
0.0256487376367126
 10
10.98852868239402
 20
-10.26186757444438
 30
0.0
 10
11.01016211763294
 20
-10.28058479079098
 30
0.0
 10
11.05452029307437
 20
-10.31663838819556
 30
0.0
 10
11.14752788562521
 20
-10.38330106979188
 30
0.0
 10
11.33203725253952
 20
-10.49879241191959
 30
0.0
 10
11.59083488017652
 20
-10.63497896065669
 30
0.0
 10
12.01926586615118
 20
-10.82002109011238
 30
0.0
 10
12.40884424882012
 20
-10.94648851727607
 30
0.0
 10
12.70476480582555
 20
-11.02439175409108
 30
0.0
 10
12.90235368823183
 20
-11.06929398397815
 30
0.0
  0
LINE
  5
BE
330
1F
100
AcDbEntity
  8
0
  6
Continuous
 62
     7
370
    25
100
AcDbLine
 10
10.9885286824
 20
-10.2618675744
 30
0.0
 11
10.7801739154
 21
-10.067291113
 31
0.0
  0
ARC
  5
BF
330
1F
100
AcDbEntity
  8
0
  6
Continuous
 62
     7
370
    25
100
AcDbCircle
 10
0.0
 20
0.0
 30
0.0
 40
14.75
100
AcDbArc
 50
313.0415236701
 51
316.9584763299
  0
LINE
  5
C0
330
1F
100
AcDbEntity
  8
0
  6
Continuous
 62
     7
370
    25
100
AcDbLine
 10
10.2618675744
 20
-10.9885286824
 30
0.0
 11
10.067291113
 21
-10.7801739154
 31
0.0
  0
SPLINE
  5
C1
330
1F
100
AcDbEntity
  8
0
  6
Continuous
 62
     7
370
    25
100
AcDbSpline
210
0.0
220
0.0
230
1.0
 70
     8
 71
     4
 72
    15
 73
    10
 74
     0
 42
0.000000001
 43
0.00000001
 40
0.0
 40
0.0
 40
0.0
 40
0.0
 40
0.0
 40
0.0014010169528072
 40
0.0028020339056145
 40
0.005604067811229
 40
0.0106611581043112
 40
0.0157182483973935
 40
0.0256487376366981
 40
0.0256487376366981
 40
0.0256487376366981
 40
0.0256487376366981
 40
0.0256487376366981
 10
10.26186757444457
 20
-10.98852868239384
 30
0.0
 10
10.28058479079117
 20
-11.01016211763276
 30
0.0
 10
10.31663838819575
 20
-11.05452029307419
 30
0.0
 10
10.38330106979207
 20
-11.14752788562503
 30
0.0
 10
10.49879241191979
 20
-11.33203725253934
 30
0.0
 10
10.63497896065689
 20
-11.59083488017633
 30
0.0
 10
10.82002109011247
 20
-12.01926586615071
 30
0.0
 10
10.94648851727611
 20
-12.40884424881936
 30
0.0
 10
11.02439175409107
 20
-12.7047648058245
 30
0.0
 10
11.06929398397812
 20
-12.90235368823048
 30
0.0
  0
ARC
  5
C2
330
1F
100
AcDbEntity
  8
0
  6
Continuous
 62
     7
370
    25
100
AcDbCircle
 10
0.0
 20
0.0
 30
0.0
 40
17.0
100
AcDbArc
 50
308.1227737451
 51
310.6272262549
  0
SPLINE
  5
C3
330
1F
100
AcDbEntity
  8
0
  6
Continuous
 62
     7
370
    25
100
AcDbSpline
210
0.0
220
0.0
230
1.0
 70
     8
 71
     4
 72
    15
 73
    10
 74
     0
 42
0.000000001
 43
0.00000001
 40
0.0
 40
0.0
 40
0.0
 40
0.0
 40
0.0
 40
0.0014010169528072
 40
0.0028020339056145
 40
0.005604067811229
 40
0.0106611581043112
 40
0.0157182483973935
 40
0.0256487376367126
 40
0.0256487376367126
 40
0.0256487376367126
 40
0.0256487376367126
 40
0.0256487376367126
 10
8.77539613539554
 20
-12.20844426559397
 30
0.0
 10
8.792962342478123
 20
-12.2310223097239
 30
0.0
 10
8.829434480089128
 20
-12.27503699809482
 30
0.0
 10
8.907649713809649
 20
-12.35856365613738
 30
0.0
 10
9.066082541849955
 20
-12.50783185631656
 30
0.0
 10
9.293338767992209
 20
-12.69189053121954
 30
0.0
 10
9.677437644082733
 20
-12.95695986705963
 30
0.0
 10
10.03485781627781
 20
-13.15700023019766
 30
0.0
 10
10.30989417520112
 20
-13.29113781491897
 30
0.0
 10
10.49492645214862
 20
-13.37372493974494
 30
0.0
  0
LINE
  5
C4
330
1F
100
AcDbEntity
  8
0
  6
Continuous
 62
     7
370
    25
100
AcDbLine
 10
8.7753961354
 20
-12.2084442656
 30
0.0
 11
8.6090048313
 21
-11.9769585377
 31
0.0
  0
ARC
  5
C5
330
1F
100
AcDbEntity
  8
0
  6
Continuous
 62
     7
370
    25
100
AcDbCircle
 10
0.0
 20
0.0
 30
0.0
 40
14.75
100
AcDbArc
 50
301.7915236701
 51
305.7084763299
  0
LINE
  5
C6
330
1F
100
AcDbEntity
  8
0
  6
Continuous
 62
     7
370
    25
100
AcDbLine
 10
7.9209330673
 20
-12.7793782346
 30
0.0
 11
7.7707433366
 21
-12.5370669615
 31
0.0
  0
SPLINE
  5
C7
330
1F
100
AcDbEntity
  8
0
  6
Continuous
 62
     7
370
    25
100
AcDbSpline
210
0.0
220
0.0
230
1.0
 70
     8
 71
     4
 72
    15
 73
    10
 74
     0
 42
0.000000001
 43
0.00000001
 40
0.0
 40
0.0
 40
0.0
 40
0.0
 40
0.0
 40
0.0014010169528072
 40
0.0028020339056145
 40
0.005604067811229
 40
0.0106611581043112
 40
0.0157182483973935
 40
0.0256487376366981
 40
0.0256487376366981
 40
0.0256487376366981
 40
0.0256487376366981
 40
0.0256487376366981
 10
7.920933067330759
 20
-12.77937823456585
 30
0.0
 10
7.935070163766548
 20
-12.80424753717703
 30
0.0
 10
7.961777150675628
 20
-12.85478709064304
 30
0.0
 10
8.009014046356821
 20
-12.95901281240173
 30
0.0
 10
8.08629026292339
 20
-13.16250812669357
 30
0.0
 10
8.169371112800953
 20
-13.4429017081306
 30
0.0
 10
8.267274970610021
 20
-13.89920044146495
 30
0.0
 10
8.315309389497237
 20
-14.30596575583956
 30
0.0
 10
8.333984500703801
 20
-14.61139844987525
 30
0.0
 10
8.339476268138903
 20
-14.81395070779827
 30
0.0
  0
ARC
  5
C8
330
1F
100
AcDbEntity
  8
0
  6
Continuous
 62
     7
370
    25
100
AcDbCircle
 10
0.0
 20
0.0
 30
0.0
 40
17.0
100
AcDbArc
 50
296.8727737451
 51
299.3772262549
  0
SPLINE
  5
C9
330
1F
100
AcDbEntity
  8
0
  6
Continuous
 62
     7
370
    25
100
AcDbSpline
210
0.0
220
0.0
230
1.0
 70
     8
 71
     4
 72
    15
 73
    10
 74
     0
 42
0.000000001
 43
0.00000001
 40
0.0
 40
0.0
 40
0.0
 40
0.0
 40
0.0
 40
0.0014010169528072
 40
0.0028020339056145
 40
0.005604067811229
 40
0.0106611581043112
 40
0.0157182483973935
 40
0.0256487376367126
 40
0.0256487376367126
 40
0.0256487376367126
 40
0.0256487376367126
 40
0.0256487376367126
 10
6.225030036212649
 20
-13.68585729019119
 30
0.0
 10
6.237853955651957
 20
-13.71142850053047
 30
0.0
 10
6.265038451637951
 20
-13.76171282007735
 30
0.0
 10
6.325455558959879
 20
-13.85889357193988
 30
0.0
 10
6.451723363394745
 20
-14.03620233694821
 30
0.0
 10
6.63870485871837
 20
-14.26105986636184
 30
0.0
 10
6.963710920521739
 20
-14.59596994266259
 30
0.0
 10
7.275237425469035
 20
-14.86189580280348
 30
0.0
 10
7.518820093278976
 20
-15.04711290327547
 30
0.0
 10
7.684185078131886
 20
-15.16421114614867
 30
0.0
  0
LINE
  5
CA
330
1F
100
AcDbEntity
  8
0
  6
Continuous
 62
     7
370
    25
100
AcDbLine
 10
6.2250300362
 20
-13.6858572902
 30
0.0
 11
6.1069965196
 21
-13.4263581626
 31
0.0
  0
ARC
  5
CB
330
1F
100
AcDbEntity
  8
0
  6
Continuous
 62
     7
370
    25
100
AcDbCircle
 10
0.0
 20
0.0
 30
0.0
 40
14.75
100
AcDbArc
 50
290.5415236701
 51
294.4584763299
  0
LINE
  5
CC
330
1F
100
AcDbEntity
  8
0
  6
Continuous
 62
     7
370
    25
100
AcDbLine
 10
5.2756015445
 20
-14.0791234479
 30
0.0
 11
5.1755702517
 21
-13.8121675551
 31
0.0
  0
SPLINE
  5
CD
330
1F
100
AcDbEntity
  8
0
  6
Continuous
 62
     7
370
    25
100
AcDbSpline
210
0.0
220
0.0
230
1.0
 70
     8
 71
     4
 72
    15
 73
    10
 74
     0
 42
0.000000001
 43
0.00000001
 40
0.0
 40
0.0
 40
0.0
 40
0.0
 40
0.0
 40
0.0014010169528072
 40
0.0028020339056145
 40
0.005604067811229
 40
0.0106611581043112
 40
0.0157182483973935
 40
0.0256487376366981
 40
0.0256487376366981
 40
0.0256487376366981
 40
0.0256487376366981
 40
0.0256487376366981
 10
5.275601544549857
 20
-14.07912344794136
 30
0.0
 10
5.284615240386987
 20
-14.10627290457234
 30
0.0
 10
5.300949282271101
 20
-14.16105162936612
 30
0.0
 10
5.326945104626891
 20
-14.27249014429593
 30
0.0
 10
5.363036513966665
 20
-14.48715119515856
 30
0.0
 10
5.389818914516164
 20
-14.77836536230753
 30
0.0
 10
5.396822110328238
 20
-15.24499653857509
 30
0.0
 10
5.364577585159207
 20
-15.65331702174087
 30
0.0
 10
5.323306896706821
 20
-15.95652424566395
 30
0.0
 10
5.289177156147273
 20
-16.15625590942464
 30
0.0
  0
ARC
  5
CE
330
1F
100
AcDbEntity
  8
0
  6
Continuous
 62
     7
370
    25
100
AcDbCircle
 10
0.0
 20
0.0
 30
0.0
 40
17.0
100
AcDbArc
 50
285.6227737451
 51
288.1272262549
  0
SPLINE
  5
CF
330
1F
100
AcDbEntity
  8
0
  6
Continuous
 62
     7
370
    25
100
AcDbSpline
210
0.0
220
0.0
230
1.0
 70
     8
 71
     4
 72
    15
 73
    10
 74
     0
 42
0.000000001
 43
0.00000001
 40
0.0
 40
0.0
 40
0.0
 40
0.0
 40
0.0
 40
0.0014010169528072
 40
0.0028020339056145
 40
0.005604067811229
 40
0.0106611581043112
 40
0.0157182483973935
 40
0.0256487376367126
 40
0.0256487376367126
 40
0.0256487376367126
 40
0.0256487376367126
 40
0.0256487376367126
 10
3.435439523775169
 20
-14.63733049424357
 30
0.0
 10
3.443028339538886
 20
-14.66491218351935
 30
0.0
 10
3.459880508964367
 20
-14.71953373604177
 30
0.0
 10
3.500177694335627
 20
-14.82663397992977
 30
0.0
 10
3.58942807425242
 20
-15.02516943336389
 30
0.0
 10
3.728949244752561
 20
-15.28218466853435
 30
0.0
 10
3.982372691579166
 20
-15.67406507888327
 30
0.0
 10
4.236033740399636
 20
-15.99565705435475
 30
0.0
 10
4.438801971775001
 20
-16.22483588127723
 30
0.0
 10
4.578144780903182
 20
-16.3719452223935
 30
0.0
  0
LINE
  5
D0
330
1F
100
AcDbEntity
  8
0
  6
Continuous
 62
     7
370
    25
100
AcDbLine
 10
3.4354395238
 20
-14.6373304942
 30
0.0
 11
3.3702997565
 21
-14.3597903728
 31
0.0
  0
ARC
  5
D1
330
1F
100
AcDbEntity
  8
0
  6
Continuous
 62
     7
370
    25
100
AcDbCircle
 10
0.0
 20
0.0
 30
0.0
 40
14.75
100
AcDbArc
 50
279.2915236701
 51
283.2084763299
  0
LINE
  5
D2
330
1F
100
AcDbEntity
  8
0
  6
Continuous
 62
     7
370
    25
100
AcDbLine
 10
2.427531613
 20
-14.8378158429
 30
0.0
 11
2.3815029045
 21
-14.5564742955
 31
0.0
  0
SPLINE
  5
D3
330
1F
100
AcDbEntity
  8
0
  6
Continuous
 62
     7
370
    25
100
AcDbSpline
210
0.0
220
0.0
230
1.0
 70
     8
 71
     4
 72
    15
 73
    10
 74
     0
 42
0.000000001
 43
0.00000001
 40
0.0
 40
0.0
 40
0.0
 40
0.0
 40
0.0
 40
0.0014010169528072
 40
0.0028020339056145
 40
0.005604067811229
 40
0.0106611581043112
 40
0.0157182483973935
 40
0.025648737636698
 40
0.025648737636698
 40
0.025648737636698
 40
0.025648737636698
 40
0.025648737636698
 10
2.427531613003335
 20
-14.83781584287588
 30
0.0
 10
2.431075516965724
 20
-14.86620211513391
 30
0.0
 10
2.436408905755501
 20
-14.92311489558191
 30
0.0
 10
2.440164649911381
 20
-15.03748368404953
 30
0.0
 10
2.433684279403728
 20
-15.2550611676816
 30
0.0
 10
2.403138997991789
 20
-15.54590472341376
 30
0.0
 10
2.318972402919249
 20
-16.00493596820035
 30
0.0
 10
2.20768807271328
 20
-16.39912009297799
 30
0.0
 10
2.108057594014303
 20
-16.68844976321368
 30
0.0
 10
2.035617932249626
 20
-16.87768525698452
 30
0.0
  0
ARC
  5
D4
330
1F
100
AcDbEntity
  8
0
  6
Continuous
 62
     7
370
    25
100
AcDbCircle
 10
0.0
 20
0.0
 30
0.0
 40
17.0
100
AcDbArc
 50
274.3727737451
 51
276.8772262549
  0
SPLINE
  5
D5
330
1F
100
AcDbEntity
  8
0
  6
Continuous
 62
     7
370
    25
100
AcDbSpline
210
0.0
220
0.0
230
1.0
 70
     8
 71
     4
 72
    15
 73
    10
 74
     0
 42
0.000000001
 43
0.00000001
 40
0.0
 40
0.0
 40
0.0
 40
0.0
 40
0.0
 40
0.0014010169528072
 40
0.0028020339056145
 40
0.005604067811229
 40
0.0106611581043112
 40
0.0157182483973935
 40
0.0256487376367126
 40
0.0256487376367126
 40
0.0256487376367126
 40
0.0256487376367126
 40
0.0256487376367126
 10
0.5138269970555911
 20
-15.02629929611166
 30
0.0
 10
0.5158890752097743
 20
-15.05483151547308
 30
0.0
 10
0.5217612986545269
 20
-15.11169122533973
 30
0.0
 10
0.5403899638402215
 20
-15.2245951589431
 30
0.0
 10
0.5891930771909286
 20
-15.43672769466749
 30
0.0
 10
0.6758922025296371
 20
-15.71602368424299
 30
0.0
 10
0.8479941134394362
 20
-16.14981468423943
 30
0.0
 10
1.034041654281662
 20
-16.51471417577498
 30
0.0
 10
1.188203179804428
 20
-16.77904751535431
 30
0.0
 10
1.296168947197431
 20
-16.9505146252344
 30
0.0
  0
LINE
  5
D6
330
1F
100
AcDbEntity
  8
0
  6
Continuous
 62
     7
370
    25
100
AcDbLine
 10
0.5138269971
 20
-15.0262992961
 30
0.0
 11
0.5040842638
 21
-14.7413838921
 31
0.0
  0
ARC
  5
D7
330
1F
100
AcDbEntity
  8
0
  6
Continuous
 62
     7
370
    25
100
AcDbCircle
 10
0.0
 20
0.0
 30
0.0
 40
14.75
100
AcDbArc
 50
268.0415236701
 51
271.9584763299
  0
LINE
  5
D8
330
1F
100
AcDbEntity
  8
0
  6
Continuous
 62
     7
370
    25
100
AcDbLine
 10
-0.5138269971
 20
-15.0262992961
 30
0.0
 11
-0.5040842638
 21
-14.7413838921
 31
0.0
  0
SPLINE
  5
D9
330
1F
100
AcDbEntity
  8
0
  6
Continuous
 62
     7
370
    25
100
AcDbSpline
210
0.0
220
0.0
230
1.0
 70
     8
 71
     4
 72
    15
 73
    10
 74
     0
 42
0.000000001
 43
0.00000001
 40
0.0
 40
0.0
 40
0.0
 40
0.0
 40
0.0
 40
0.0014010169528072
 40
0.0028020339056145
 40
0.005604067811229
 40
0.0106611581043112
 40
0.0157182483973935
 40
0.025648737636698
 40
0.025648737636698
 40
0.025648737636698
 40
0.025648737636698
 40
0.025648737636698
 10
-0.5138269970555911
 20
-15.02629929611166
 30
0.0
 10
-0.5158890752097743
 20
-15.05483151547308
 30
0.0
 10
-0.5217612986545269
 20
-15.11169122533973
 30
0.0
 10
-0.5403899638402215
 20
-15.2245951589431
 30
0.0
 10
-0.5891930771909286
 20
-15.43672769466749
 30
0.0
 10
-0.6758922025296371
 20
-15.71602368424299
 30
0.0
 10
-0.8479941134393266
 20
-16.14981468423915
 30
0.0
 10
-1.034041654281392
 20
-16.51471417577446
 30
0.0
 10
-1.18820317980398
 20
-16.77904751535354
 30
0.0
 10
-1.296168947196799
 20
-16.9505146252334
 30
0.0
  0
ARC
  5
DA
330
1F
100
AcDbEntity
  8
0
  6
Continuous
 62
     7
370
    25
100
AcDbCircle
 10
0.0
 20
0.0
 30
0.0
 40
17.0
100
AcDbArc
 50
263.1227737451
 51
265.6272262549
  0
SPLINE
  5
DB
330
1F
100
AcDbEntity
  8
0
  6
Continuous
 62
     7
370
    25
100
AcDbSpline
210
0.0
220
0.0
230
1.0
 70
     8
 71
     4
 72
    15
 73
    10
 74
     0
 42
0.000000001
 43
0.00000001
 40
0.0
 40
0.0
 40
0.0
 40
0.0
 40
0.0
 40
0.0014010169528072
 40
0.0028020339056145
 40
0.005604067811229
 40
0.0106611581043112
 40
0.0157182483973935
 40
0.0256487376367126
 40
0.0256487376367126
 40
0.0256487376367126
 40
0.0256487376367126
 40
0.0256487376367126
 10
-2.427531613003128
 20
-14.83781584287592
 30
0.0
 10
-2.431075516965516
 20
-14.86620211513395
 30
0.0
 10
-2.436408905755293
 20
-14.92311489558194
 30
0.0
 10
-2.440164649911172
 20
-15.03748368404956
 30
0.0
 10
-2.433684279403515
 20
-15.25506116768163
 30
0.0
 10
-2.403138997991572
 20
-15.54590472341379
 30
0.0
 10
-2.318972402918972
 20
-16.00493596820067
 30
0.0
 10
-2.20768807271289
 20
-16.39912009297859
 30
0.0
 10
-2.108057594013779
 20
-16.68844976321455
 30
0.0
 10
-2.035617932248964
 20
-16.87768525698565
 30
0.0
  0
LINE
  5
DC
330
1F
100
AcDbEntity
  8
0
  6
Continuous
 62
     7
370
    25
100
AcDbLine
 10
-2.427531613
 20
-14.8378158429
 30
0.0
 11
-2.3815029045
 21
-14.5564742955
 31
0.0
  0
ARC
  5
DD
330
1F
100
AcDbEntity
  8
0
  6
Continuous
 62
     7
370
    25
100
AcDbCircle
 10
0.0
 20
0.0
 30
0.0
 40
14.75
100
AcDbArc
 50
256.7915236701
 51
260.7084763299
  0
LINE
  5
DE
330
1F
100
AcDbEntity
  8
0
  6
Continuous
 62
     7
370
    25
100
AcDbLine
 10
-3.4354395238
 20
-14.6373304942
 30
0.0
 11
-3.3702997565
 21
-14.3597903728
 31
0.0
  0
SPLINE
  5
DF
330
1F
100
AcDbEntity
  8
0
  6
Continuous
 62
     7
370
    25
100
AcDbSpline
210
0.0
220
0.0
230
1.0
 70
     8
 71
     4
 72
    15
 73
    10
 74
     0
 42
0.000000001
 43
0.00000001
 40
0.0
 40
0.0
 40
0.0
 40
0.0
 40
0.0
 40
0.0014010169528072
 40
0.0028020339056145
 40
0.005604067811229
 40
0.0106611581043112
 40
0.0157182483973935
 40
0.025648737636698
 40
0.025648737636698
 40
0.025648737636698
 40
0.025648737636698
 40
0.025648737636698
 10
-3.435439523774965
 20
-14.63733049424361
 30
0.0
 10
-3.443028339538681
 20
-14.6649121835194
 30
0.0
 10
-3.459880508964162
 20
-14.71953373604182
 30
0.0
 10
-3.50017769433542
 20
-14.82663397992982
 30
0.0
 10
-3.589428074252211
 20
-15.02516943336393
 30
0.0
 10
-3.728949244752348
 20
-15.28218466853441
 30
0.0
 10
-3.982372691578786
 20
-15.67406507888307
 30
0.0
 10
-4.236033740399044
 20
-15.99565705435434
 30
0.0
 10
-4.438801971774184
 20
-16.22483588127663
 30
0.0
 10
-4.578144780902138
 20
-16.3719452223927
 30
0.0
  0
ARC
  5
E0
330
1F
100
AcDbEntity
  8
0
  6
Continuous
 62
     7
370
    25
100
AcDbCircle
 10
0.0
 20
0.0
 30
0.0
 40
17.0
100
AcDbArc
 50
251.8727737451
 51
254.3772262549
  0
SPLINE
  5
E1
330
1F
100
AcDbEntity
  8
0
  6
Continuous
 62
     7
370
    25
100
AcDbSpline
210
0.0
220
0.0
230
1.0
 70
     8
 71
     4
 72
    15
 73
    10
 74
     0
 42
0.000000001
 43
0.00000001
 40
0.0
 40
0.0
 40
0.0
 40
0.0
 40
0.0
 40
0.0014010169528072
 40
0.0028020339056145
 40
0.005604067811229
 40
0.0106611581043112
 40
0.0157182483973935
 40
0.0256487376367127
 40
0.0256487376367127
 40
0.0256487376367127
 40
0.0256487376367127
 40
0.0256487376367127
 10
-5.27560154454966
 20
-14.07912344794143
 30
0.0
 10
-5.284615240386791
 20
-14.10627290457241
 30
0.0
 10
-5.300949282270903
 20
-14.16105162936619
 30
0.0
 10
-5.326945104626692
 20
-14.272490144296
 30
0.0
 10
-5.363036513966463
 20
-14.48715119515864
 30
0.0
 10
-5.389818914515958
 20
-14.7783653623076
 30
0.0
 10
-5.39682211032803
 20
-15.24499653857547
 30
0.0
 10
-5.364577585158942
 20
-15.65331702174154
 30
0.0
 10
-5.323306896706478
 20
-15.95652424566491
 30
0.0
 10
-5.289177156146846
 20
-16.15625590942589
 30
0.0
  0
LINE
  5
E2
330
1F
100
AcDbEntity
  8
0
  6
Continuous
 62
     7
370
    25
100
AcDbLine
 10
-5.2756015445
 20
-14.0791234479
 30
0.0
 11
-5.1755702517
 21
-13.8121675551
 31
0.0
  0
ARC
  5
E3
330
1F
100
AcDbEntity
  8
0
  6
Continuous
 62
     7
370
    25
100
AcDbCircle
 10
0.0
 20
0.0
 30
0.0
 40
14.75
100
AcDbArc
 50
245.5415236701
 51
249.4584763299
  0
LINE
  5
E4
330
1F
100
AcDbEntity
  8
0
  6
Continuous
 62
     7
370
    25
100
AcDbLine
 10
-6.2250300362
 20
-13.6858572902
 30
0.0
 11
-6.1069965196
 21
-13.4263581626
 31
0.0
  0
SPLINE
  5
E5
330
1F
100
AcDbEntity
  8
0
  6
Continuous
 62
     7
370
    25
100
AcDbSpline
210
0.0
220
0.0
230
1.0
 70
     8
 71
     4
 72
    15
 73
    10
 74
     0
 42
0.000000001
 43
0.00000001
 40
0.0
 40
0.0
 40
0.0
 40
0.0
 40
0.0
 40
0.0014010169528072
 40
0.0028020339056145
 40
0.005604067811229
 40
0.0106611581043112
 40
0.0157182483973935
 40
0.0256487376366981
 40
0.0256487376366981
 40
0.0256487376366981
 40
0.0256487376366981
 40
0.0256487376366981
 10
-6.225030036212458
 20
-13.68585729019128
 30
0.0
 10
-6.237853955651765
 20
-13.71142850053056
 30
0.0
 10
-6.265038451637758
 20
-13.76171282007744
 30
0.0
 10
-6.325455558959685
 20
-13.85889357193996
 30
0.0
 10
-6.451723363394549
 20
-14.03620233694829
 30
0.0
 10
-6.638704858718171
 20
-14.26105986636193
 30
0.0
 10
-6.963710920521327
 20
-14.59596994266247
 30
0.0
 10
-7.275237425468375
 20
-14.8618958028032
 30
0.0
 10
-7.518820093278057
 20
-15.04711290327504
 30
0.0
 10
-7.684185078130707
 20
-15.1642111461481
 30
0.0
  0
ARC
  5
E6
330
1F
100
AcDbEntity
  8
0
  6
Continuous
 62
     7
370
    25
100
AcDbCircle
 10
0.0
 20
0.0
 30
0.0
 40
17.0
100
AcDbArc
 50
240.6227737451
 51
243.1272262549
  0
SPLINE
  5
E7
330
1F
100
AcDbEntity
  8
0
  6
Continuous
 62
     7
370
    25
100
AcDbSpline
210
0.0
220
0.0
230
1.0
 70
     8
 71
     4
 72
    15
 73
    10
 74
     0
 42
0.000000001
 43
0.00000001
 40
0.0
 40
0.0
 40
0.0
 40
0.0
 40
0.0
 40
0.0014010169528072
 40
0.0028020339056145
 40
0.005604067811229
 40
0.0106611581043112
 40
0.0157182483973935
 40
0.0256487376367126
 40
0.0256487376367126
 40
0.0256487376367126
 40
0.0256487376367126
 40
0.0256487376367126
 10
-7.92093306733058
 20
-12.77937823456595
 30
0.0
 10
-7.935070163766369
 20
-12.80424753717714
 30
0.0
 10
-7.961777150675448
 20
-12.85478709064314
 30
0.0
 10
-8.00901404635664
 20
-12.95901281240183
 30
0.0
 10
-8.086290262923207
 20
-13.16250812669368
 30
0.0
 10
-8.169371112800766
 20
-13.44290170813071
 30
0.0
 10
-8.26727497060989
 20
-13.89920044146535
 30
0.0
 10
-8.315309389497104
 20
-14.30596575584026
 30
0.0
 10
-8.33398450070365
 20
-14.61139844987625
 30
0.0
 10
-8.339476268138728
 20
-14.81395070779957
 30
0.0
  0
LINE
  5
E8
330
1F
100
AcDbEntity
  8
0
  6
Continuous
 62
     7
370
    25
100
AcDbLine
 10
-7.9209330673
 20
-12.7793782346
 30
0.0
 11
-7.7707433366
 21
-12.5370669615
 31
0.0
  0
ARC
  5
E9
330
1F
100
AcDbEntity
  8
0
  6
Continuous
 62
     7
370
    25
100
AcDbCircle
 10
0.0
 20
0.0
 30
0.0
 40
14.75
100
AcDbArc
 50
234.2915236701
 51
238.2084763299
  0
LINE
  5
EA
330
1F
100
AcDbEntity
  8
0
  6
Continuous
 62
     7
370
    25
100
AcDbLine
 10
-8.7753961354
 20
-12.2084442656
 30
0.0
 11
-8.6090048313
 21
-11.9769585377
 31
0.0
  0
SPLINE
  5
EB
330
1F
100
AcDbEntity
  8
0
  6
Continuous
 62
     7
370
    25
100
AcDbSpline
210
0.0
220
0.0
230
1.0
 70
     8
 71
     4
 72
    15
 73
    10
 74
     0
 42
0.000000001
 43
0.00000001
 40
0.0
 40
0.0
 40
0.0
 40
0.0
 40
0.0
 40
0.0014010169528072
 40
0.0028020339056145
 40
0.005604067811229
 40
0.0106611581043112
 40
0.0157182483973935
 40
0.0256487376366981
 40
0.0256487376366981
 40
0.0256487376366981
 40
0.0256487376366981
 40
0.0256487376366981
 10
-8.77539613539537
 20
-12.20844426559408
 30
0.0
 10
-8.792962342477951
 20
-12.23102230972402
 30
0.0
 10
-8.829434480088956
 20
-12.27503699809494
 30
0.0
 10
-8.907649713809473
 20
-12.35856365613751
 30
0.0
 10
-9.06608254184978
 20
-12.50783185631669
 30
0.0
 10
-9.293338767992031
 20
-12.69189053121967
 30
0.0
 10
-9.677437644082307
 20
-12.95695986705959
 30
0.0
 10
-10.03485781627711
 20
-13.1570002301975
 30
0.0
 10
-10.30989417520014
 20
-13.29113781491871
 30
0.0
 10
-10.49492645214734
 20
-13.37372493974459
 30
0.0
  0
ARC
  5
EC
330
1F
100
AcDbEntity
  8
0
  6
Continuous
 62
     7
370
    25
100
AcDbCircle
 10
0.0
 20
0.0
 30
0.0
 40
17.0
100
AcDbArc
 50
229.3727737451
 51
231.8772262549
  0
SPLINE
  5
ED
330
1F
100
AcDbEntity
  8
0
  6
Continuous
 62
     7
370
    25
100
AcDbSpline
210
0.0
220
0.0
230
1.0
 70
     8
 71
     4
 72
    15
 73
    10
 74
     0
 42
0.000000001
 43
0.00000001
 40
0.0
 40
0.0
 40
0.0
 40
0.0
 40
0.0
 40
0.0014010169528072
 40
0.0028020339056145
 40
0.005604067811229
 40
0.0106611581043112
 40
0.0157182483973935
 40
0.0256487376367126
 40
0.0256487376367126
 40
0.0256487376367126
 40
0.0256487376367126
 40
0.0256487376367126
 10
-10.26186757444442
 20
-10.98852868239399
 30
0.0
 10
-10.28058479079101
 20
-11.0101621176329
 30
0.0
 10
-10.31663838819559
 20
-11.05452029307434
 30
0.0
 10
-10.38330106979192
 20
-11.14752788562518
 30
0.0
 10
-10.49879241191963
 20
-11.33203725253949
 30
0.0
 10
-10.63497896065673
 20
-11.59083488017648
 30
0.0
 10
-10.82002109011242
 20
-12.01926586615114
 30
0.0
 10
-10.94648851727612
 20
-12.40884424882008
 30
0.0
 10
-11.02439175409113
 20
-12.70476480582551
 30
0.0
 10
-11.0692939839782
 20
-12.90235368823179
 30
0.0
  0
LINE
  5
EE
330
1F
100
AcDbEntity
  8
0
  6
Continuous
 62
     7
370
    25
100
AcDbLine
 10
-10.2618675744
 20
-10.9885286824
 30
0.0
 11
-10.067291113
 21
-10.7801739154
 31
0.0
  0
ARC
  5
EF
330
1F
100
AcDbEntity
  8
0
  6
Continuous
 62
     7
370
    25
100
AcDbCircle
 10
0.0
 20
0.0
 30
0.0
 40
14.75
100
AcDbArc
 50
223.0415236701
 51
226.9584763299
  0
LINE
  5
F0
330
1F
100
AcDbEntity
  8
0
  6
Continuous
 62
     7
370
    25
100
AcDbLine
 10
-10.9885286824
 20
-10.2618675744
 30
0.0
 11
-10.7801739154
 21
-10.067291113
 31
0.0
  0
SPLINE
  5
F1
330
1F
100
AcDbEntity
  8
0
  6
Continuous
 62
     7
370
    25
100
AcDbSpline
210
0.0
220
0.0
230
1.0
 70
     8
 71
     4
 72
    15
 73
    10
 74
     0
 42
0.000000001
 43
0.00000001
 40
0.0
 40
0.0
 40
0.0
 40
0.0
 40
0.0
 40
0.0014010169528072
 40
0.0028020339056145
 40
0.005604067811229
 40
0.0106611581043112
 40
0.0157182483973935
 40
0.0256487376366981
 40
0.0256487376366981
 40
0.0256487376366981
 40
0.0256487376366981
 40
0.0256487376366981
 10
-10.98852868239388
 20
-10.26186757444453
 30
0.0
 10
-11.0101621176328
 20
-10.28058479079113
 30
0.0
 10
-11.05452029307423
 20
-10.31663838819571
 30
0.0
 10
-11.14752788562507
 20
-10.38330106979203
 30
0.0
 10
-11.33203725253938
 20
-10.49879241191974
 30
0.0
 10
-11.59083488017637
 20
-10.63497896065685
 30
0.0
 10
-12.01926586615075
 20
-10.82002109011243
 30
0.0
 10
-12.4088442488194
 20
-10.94648851727606
 30
0.0
 10
-12.70476480582454
 20
-11.02439175409103
 30
0.0
 10
-12.90235368823052
 20
-11.06929398397807
 30
0.0
  0
ARC
  5
F2
330
1F
100
AcDbEntity
  8
0
  6
Continuous
 62
     7
370
    25
100
AcDbCircle
 10
0.0
 20
0.0
 30
0.0
 40
17.0
100
AcDbArc
 50
218.1227737451
 51
220.6272262549
  0
SPLINE
  5
F3
330
1F
100
AcDbEntity
  8
0
  6
Continuous
 62
     7
370
    25
100
AcDbSpline
210
0.0
220
0.0
230
1.0
 70
     8
 71
     4
 72
    15
 73
    10
 74
     0
 42
0.000000001
 43
0.00000001
 40
0.0
 40
0.0
 40
0.0
 40
0.0
 40
0.0
 40
0.0014010169528072
 40
0.0028020339056145
 40
0.005604067811229
 40
0.0106611581043112
 40
0.0157182483973935
 40
0.0256487376367126
 40
0.0256487376367126
 40
0.0256487376367126
 40
0.0256487376367126
 40
0.0256487376367126
 10
-12.20844426559399
 20
-8.775396135395496
 30
0.0
 10
-12.23102230972393
 20
-8.792962342478079
 30
0.0
 10
-12.27503699809485
 20
-8.829434480089084
 30
0.0
 10
-12.35856365613741
 20
-8.907649713809603
 30
0.0
 10
-12.50783185631659
 20
-9.06608254184991
 30
0.0
 10
-12.69189053121957
 20
-9.293338767992163
 30
0.0
 10
-12.95695986705966
 20
-9.677437644082685
 30
0.0
 10
-13.15700023019769
 20
-10.03485781627776
 30
0.0
 10
-13.291137814919
 20
-10.30989417520107
 30
0.0
 10
-13.37372493974497
 20
-10.49492645214857
 30
0.0
  0
LINE
  5
F4
330
1F
100
AcDbEntity
  8
0
  6
Continuous
 62
     7
370
    25
100
AcDbLine
 10
-12.2084442656
 20
-8.7753961354
 30
0.0
 11
-11.9769585377
 21
-8.6090048313
 31
0.0
  0
ARC
  5
F5
330
1F
100
AcDbEntity
  8
0
  6
Continuous
 62
     7
370
    25
100
AcDbCircle
 10
0.0
 20
0.0
 30
0.0
 40
14.75
100
AcDbArc
 50
211.7915236701
 51
215.7084763299
  0
LINE
  5
F6
330
1F
100
AcDbEntity
  8
0
  6
Continuous
 62
     7
370
    25
100
AcDbLine
 10
-12.7793782346
 20
-7.9209330673
 30
0.0
 11
-12.5370669615
 21
-7.7707433366
 31
0.0
  0
SPLINE
  5
F7
330
1F
100
AcDbEntity
  8
0
  6
Continuous
 62
     7
370
    25
100
AcDbSpline
210
0.0
220
0.0
230
1.0
 70
     8
 71
     4
 72
    15
 73
    10
 74
     0
 42
0.000000001
 43
0.00000001
 40
0.0
 40
0.0
 40
0.0
 40
0.0
 40
0.0
 40
0.0014010169528072
 40
0.0028020339056145
 40
0.005604067811229
 40
0.0106611581043112
 40
0.0157182483973935
 40
0.0256487376366981
 40
0.0256487376366981
 40
0.0256487376366981
 40
0.0256487376366981
 40
0.0256487376366981
 10
-12.77937823456587
 20
-7.920933067330714
 30
0.0
 10
-12.80424753717706
 20
-7.935070163766503
 30
0.0
 10
-12.85478709064306
 20
-7.961777150675583
 30
0.0
 10
-12.95901281240175
 20
-8.009014046356775
 30
0.0
 10
-13.1625081266936
 20
-8.086290262923344
 30
0.0
 10
-13.44290170813062
 20
-8.169371112800905
 30
0.0
 10
-13.89920044146498
 20
-8.267274970609972
 30
0.0
 10
-14.30596575583959
 20
-8.315309389497184
 30
0.0
 10
-14.61139844987528
 20
-8.333984500703748
 30
0.0
 10
-14.8139507077983
 20
-8.33947626813885
 30
0.0
  0
ARC
  5
F8
330
1F
100
AcDbEntity
  8
0
  6
Continuous
 62
     7
370
    25
100
AcDbCircle
 10
0.0
 20
0.0
 30
0.0
 40
17.0
100
AcDbArc
 50
206.8727737451
 51
209.3772262549
  0
SPLINE
  5
F9
330
1F
100
AcDbEntity
  8
0
  6
Continuous
 62
     7
370
    25
100
AcDbSpline
210
0.0
220
0.0
230
1.0
 70
     8
 71
     4
 72
    15
 73
    10
 74
     0
 42
0.000000001
 43
0.00000001
 40
0.0
 40
0.0
 40
0.0
 40
0.0
 40
0.0
 40
0.0014010169528072
 40
0.0028020339056145
 40
0.005604067811229
 40
0.0106611581043112
 40
0.0157182483973935
 40
0.0256487376367126
 40
0.0256487376367126
 40
0.0256487376367126
 40
0.0256487376367126
 40
0.0256487376367126
 10
-13.68585729019122
 20
-6.225030036212604
 30
0.0
 10
-13.7114285005305
 20
-6.23785395565191
 30
0.0
 10
-13.76171282007737
 20
-6.265038451637903
 30
0.0
 10
-13.8588935719399
 20
-6.325455558959831
 30
0.0
 10
-14.03620233694823
 20
-6.451723363394698
 30
0.0
 10
-14.26105986636186
 20
-6.638704858718322
 30
0.0
 10
-14.59596994266261
 20
-6.963710920521687
 30
0.0
 10
-14.86189580280351
 20
-7.275237425468984
 30
0.0
 10
-15.0471129032755
 20
-7.518820093278925
 30
0.0
 10
-15.16421114614871
 20
-7.684185078131834
 30
0.0
  0
LINE
  5
FA
330
1F
100
AcDbEntity
  8
0
  6
Continuous
 62
     7
370
    25
100
AcDbLine
 10
-13.6858572902
 20
-6.2250300362
 30
0.0
 11
-13.4263581626
 21
-6.1069965196
 31
0.0
  0
ARC
  5
FB
330
1F
100
AcDbEntity
  8
0
  6
Continuous
 62
     7
370
    25
100
AcDbCircle
 10
0.0
 20
0.0
 30
0.0
 40
14.75
100
AcDbArc
 50
200.5415236701
 51
204.4584763299
  0
LINE
  5
FC
330
1F
100
AcDbEntity
  8
0
  6
Continuous
 62
     7
370
    25
100
AcDbLine
 10
-14.0791234479
 20
-5.2756015445
 30
0.0
 11
-13.8121675551
 21
-5.1755702517
 31
0.0
  0
SPLINE
  5
FD
330
1F
100
AcDbEntity
  8
0
  6
Continuous
 62
     7
370
    25
100
AcDbSpline
210
0.0
220
0.0
230
1.0
 70
     8
 71
     4
 72
    15
 73
    10
 74
     0
 42
0.000000001
 43
0.00000001
 40
0.0
 40
0.0
 40
0.0
 40
0.0
 40
0.0
 40
0.0014010169528072
 40
0.0028020339056145
 40
0.005604067811229
 40
0.0106611581043112
 40
0.0157182483973935
 40
0.0256487376366981
 40
0.0256487376366981
 40
0.0256487376366981
 40
0.0256487376366981
 40
0.0256487376366981
 10
-14.07912344794138
 20
-5.27560154454981
 30
0.0
 10
-14.10627290457236
 20
-5.284615240386939
 30
0.0
 10
-14.16105162936614
 20
-5.300949282271053
 30
0.0
 10
-14.27249014429595
 20
-5.326945104626843
 30
0.0
 10
-14.48715119515858
 20
-5.363036513966616
 30
0.0
 10
-14.77836536230755
 20
-5.389818914516114
 30
0.0
 10
-15.24499653857512
 20
-5.396822110328187
 30
0.0
 10
-15.65331702174089
 20
-5.364577585159155
 30
0.0
 10
-15.95652424566398
 20
-5.323306896706768
 30
0.0
 10
-16.15625590942467
 20
-5.289177156147217
 30
0.0
  0
ARC
  5
FE
330
1F
100
AcDbEntity
  8
0
  6
Continuous
 62
     7
370
    25
100
AcDbCircle
 10
0.0
 20
0.0
 30
0.0
 40
17.0
100
AcDbArc
 50
195.6227737451
 51
198.1272262549
  0
SPLINE
  5
FF
330
1F
100
AcDbEntity
  8
0
  6
Continuous
 62
     7
370
    25
100
AcDbSpline
210
0.0
220
0.0
230
1.0
 70
     8
 71
     4
 72
    15
 73
    10
 74
     0
 42
0.000000001
 43
0.00000001
 40
0.0
 40
0.0
 40
0.0
 40
0.0
 40
0.0
 40
0.0014010169528072
 40
0.0028020339056145
 40
0.005604067811229
 40
0.0106611581043112
 40
0.0157182483973935
 40
0.0256487376367126
 40
0.0256487376367126
 40
0.0256487376367126
 40
0.0256487376367126
 40
0.0256487376367126
 10
-14.63733049424357
 20
-3.435439523775122
 30
0.0
 10
-14.66491218351936
 20
-3.443028339538838
 30
0.0
 10
-14.71953373604178
 20
-3.459880508964319
 30
0.0
 10
-14.82663397992978
 20
-3.500177694335578
 30
0.0
 10
-15.0251694333639
 20
-3.589428074252371
 30
0.0
 10
-15.28218466853436
 20
-3.728949244752512
 30
0.0
 10
-15.67406507888328
 20
-3.982372691579115
 30
0.0
 10
-15.99565705435476
 20
-4.236033740399585
 30
0.0
 10
-16.22483588127725
 20
-4.438801971774951
 30
0.0
 10
-16.37194522239352
 20
-4.578144780903133
 30
0.0
  0
LINE
  5
100
330
1F
100
AcDbEntity
  8
0
  6
Continuous
 62
     7
370
    25
100
AcDbLine
 10
-14.6373304942
 20
-3.4354395238
 30
0.0
 11
-14.3597903728
 21
-3.3702997565
 31
0.0
  0
ARC
  5
101
330
1F
100
AcDbEntity
  8
0
  6
Continuous
 62
     7
370
    25
100
AcDbCircle
 10
0.0
 20
0.0
 30
0.0
 40
14.75
100
AcDbArc
 50
189.2915236701
 51
193.2084763299
  0
LINE
  5
102
330
1F
100
AcDbEntity
  8
0
  6
Continuous
 62
     7
370
    25
100
AcDbLine
 10
-14.8378158429
 20
-2.427531613
 30
0.0
 11
-14.5564742955
 21
-2.3815029045
 31
0.0
  0
SPLINE
  5
103
330
1F
100
AcDbEntity
  8
0
  6
Continuous
 62
     7
370
    25
100
AcDbSpline
210
0.0
220
0.0
230
1.0
 70
     8
 71
     4
 72
    15
 73
    10
 74
     0
 42
0.000000001
 43
0.00000001
 40
0.0
 40
0.0
 40
0.0
 40
0.0
 40
0.0
 40
0.0014010169528072
 40
0.0028020339056145
 40
0.005604067811229
 40
0.0106611581043112
 40
0.0157182483973935
 40
0.0256487376366981
 40
0.0256487376366981
 40
0.0256487376366981
 40
0.0256487376366981
 40
0.0256487376366981
 10
-14.83781584287589
 20
-2.427531613003287
 30
0.0
 10
-14.86620211513392
 20
-2.431075516965675
 30
0.0
 10
-14.92311489558192
 20
-2.436408905755452
 30
0.0
 10
-15.03748368404954
 20
-2.440164649911333
 30
0.0
 10
-15.25506116768161
 20
-2.433684279403678
 30
0.0
 10
-15.54590472341376
 20
-2.403138997991738
 30
0.0
 10
-16.00493596820036
 20
-2.318972402919197
 30
0.0
 10
-16.399120092978
 20
-2.207688072713227
 30
0.0
 10
-16.68844976321368
 20
-2.108057594014247
 30
0.0
 10
-16.87768525698452
 20
-2.035617932249569
 30
0.0
  0
ARC
  5
104
330
1F
100
AcDbEntity
  8
0
  6
Continuous
 62
     7
370
    25
100
AcDbCircle
 10
0.0
 20
0.0
 30
0.0
 40
17.0
100
AcDbArc
 50
184.3727737451
 51
186.8772262549
  0
SPLINE
  5
105
330
1F
100
AcDbEntity
  8
0
  6
Continuous
 62
     7
370
    25
100
AcDbSpline
210
0.0
220
0.0
230
1.0
 70
     8
 71
     4
 72
    15
 73
    10
 74
     0
 42
0.000000001
 43
0.00000001
 40
0.0
 40
0.0
 40
0.0
 40
0.0
 40
0.0
 40
0.0014010169528072
 40
0.0028020339056145
 40
0.005604067811229
 40
0.0106611581043112
 40
0.0157182483973935
 40
0.0256487376367126
 40
0.0256487376367126
 40
0.0256487376367126
 40
0.0256487376367126
 40
0.0256487376367126
 10
-15.02629929611166
 20
-0.5138269970556436
 30
0.0
 10
-15.05483151547307
 20
-0.515889075209827
 30
0.0
 10
-15.11169122533972
 20
-0.5217612986545798
 30
0.0
 10
-15.2245951589431
 20
-0.5403899638402747
 30
0.0
 10
-15.43672769466748
 20
-0.5891930771909825
 30
0.0
 10
-15.71602368424299
 20
-0.675892202529692
 30
0.0
 10
-16.14981468423942
 20
-0.8479941134394928
 30
0.0
 10
-16.51471417577498
 20
-1.03404165428172
 30
0.0
 10
-16.7790475153543
 20
-1.188203179804488
 30
0.0
 10
-16.9505146252344
 20
-1.296168947197491
 30
0.0
  0
LINE
  5
106
330
1F
100
AcDbEntity
  8
0
  6
Continuous
 62
     7
370
    25
100
AcDbLine
 10
-15.0262992961
 20
-0.5138269971
 30
0.0
 11
-14.7413838921
 21
-0.5040842638
 31
0.0
  0
ARC
  5
107
330
1F
100
AcDbEntity
  8
0
  6
Continuous
 62
     7
370
    25
100
AcDbCircle
 10
0.0
 20
0.0
 30
0.0
 40
14.75
100
AcDbArc
 50
178.0415236701
 51
181.9584763299
  0
LINE
  5
108
330
1F
100
AcDbEntity
  8
0
  6
Continuous
 62
     7
370
    25
100
AcDbLine
 10
-15.0262992961
 20
0.5138269971
 30
0.0
 11
-14.7413838921
 21
0.5040842638
 31
0.0
  0
SPLINE
  5
109
330
1F
100
AcDbEntity
  8
0
  6
Continuous
 62
     7
370
    25
100
AcDbSpline
210
0.0
220
0.0
230
1.0
 70
     8
 71
     4
 72
    15
 73
    10
 74
     0
 42
0.000000001
 43
0.00000001
 40
0.0
 40
0.0
 40
0.0
 40
0.0
 40
0.0
 40
0.0014010169528072
 40
0.0028020339056145
 40
0.005604067811229
 40
0.0106611581043112
 40
0.0157182483973935
 40
0.0256487376366981
 40
0.0256487376366981
 40
0.0256487376366981
 40
0.0256487376366981
 40
0.0256487376366981
 10
-15.02629929611167
 20
0.5138269970555386
 30
0.0
 10
-15.05483151547308
 20
0.5158890752097217
 30
0.0
 10
-15.11169122533973
 20
0.5217612986544741
 30
0.0
 10
-15.2245951589431
 20
0.5403899638401685
 30
0.0
 10
-15.43672769466749
 20
0.5891930771908747
 30
0.0
 10
-15.716023684243
 20
0.6758922025295823
 30
0.0
 10
-16.14981468423916
 20
0.8479941134392704
 30
0.0
 10
-16.51471417577446
 20
1.034041654281334
 30
0.0
 10
-16.77904751535354
 20
1.188203179803921
 30
0.0
 10
-16.95051462523341
 20
1.29616894719674
 30
0.0
  0
ARC
  5
10A
330
1F
100
AcDbEntity
  8
0
  6
Continuous
 62
     7
370
    25
100
AcDbCircle
 10
0.0
 20
0.0
 30
0.0
 40
17.0
100
AcDbArc
 50
173.1227737451
 51
175.6272262549
  0
SPLINE
  5
10B
330
1F
100
AcDbEntity
  8
0
  6
Continuous
 62
     7
370
    25
100
AcDbSpline
210
0.0
220
0.0
230
1.0
 70
     8
 71
     4
 72
    15
 73
    10
 74
     0
 42
0.000000001
 43
0.00000001
 40
0.0
 40
0.0
 40
0.0
 40
0.0
 40
0.0
 40
0.0014010169528072
 40
0.0028020339056145
 40
0.005604067811229
 40
0.0106611581043112
 40
0.0157182483973935
 40
0.0256487376367126
 40
0.0256487376367126
 40
0.0256487376367126
 40
0.0256487376367126
 40
0.0256487376367126
 10
-14.83781584287591
 20
2.427531613003183
 30
0.0
 10
-14.86620211513394
 20
2.431075516965572
 30
0.0
 10
-14.92311489558193
 20
2.436408905755348
 30
0.0
 10
-15.03748368404955
 20
2.440164649911228
 30
0.0
 10
-15.25506116768162
 20
2.433684279403572
 30
0.0
 10
-15.54590472341378
 20
2.40313899799163
 30
0.0
 10
-16.00493596820066
 20
2.318972402919032
 30
0.0
 10
-16.39912009297858
 20
2.20768807271295
 30
0.0
 10
-16.68844976321454
 20
2.108057594013841
 30
0.0
 10
-16.87768525698564
 20
2.035617932249027
 30
0.0
  0
LINE
  5
10C
330
1F
100
AcDbEntity
  8
0
  6
Continuous
 62
     7
370
    25
100
AcDbLine
 10
-14.8378158429
 20
2.427531613
 30
0.0
 11
-14.5564742955
 21
2.3815029045
 31
0.0
  0
ARC
  5
10D
330
1F
100
AcDbEntity
  8
0
  6
Continuous
 62
     7
370
    25
100
AcDbCircle
 10
0.0
 20
0.0
 30
0.0
 40
14.75
100
AcDbArc
 50
166.7915236701
 51
170.7084763299
  0
LINE
  5
10E
330
1F
100
AcDbEntity
  8
0
  6
Continuous
 62
     7
370
    25
100
AcDbLine
 10
-14.6373304942
 20
3.4354395238
 30
0.0
 11
-14.3597903728
 21
3.3702997565
 31
0.0
  0
SPLINE
  5
10F
330
1F
100
AcDbEntity
  8
0
  6
Continuous
 62
     7
370
    25
100
AcDbSpline
210
0.0
220
0.0
230
1.0
 70
     8
 71
     4
 72
    15
 73
    10
 74
     0
 42
0.000000001
 43
0.00000001
 40
0.0
 40
0.0
 40
0.0
 40
0.0
 40
0.0
 40
0.0014010169528072
 40
0.0028020339056145
 40
0.005604067811229
 40
0.0106611581043112
 40
0.0157182483973935
 40
0.0256487376366981
 40
0.0256487376366981
 40
0.0256487376366981
 40
0.0256487376366981
 40
0.0256487376366981
 10
-14.6373304942436
 20
3.435439523775019
 30
0.0
 10
-14.66491218351938
 20
3.443028339538736
 30
0.0
 10
-14.71953373604181
 20
3.459880508964217
 30
0.0
 10
-14.82663397992981
 20
3.500177694335475
 30
0.0
 10
-15.02516943336392
 20
3.589428074252266
 30
0.0
 10
-15.28218466853439
 20
3.728949244752405
 30
0.0
 10
-15.67406507888306
 20
3.982372691578844
 30
0.0
 10
-15.99565705435432
 20
4.236033740399105
 30
0.0
 10
-16.22483588127661
 20
4.438801971774246
 30
0.0
 10
-16.37194522239269
 20
4.5781447809022
 30
0.0
  0
ARC
  5
110
330
1F
100
AcDbEntity
  8
0
  6
Continuous
 62
     7
370
    25
100
AcDbCircle
 10
0.0
 20
0.0
 30
0.0
 40
17.0
100
AcDbArc
 50
161.8727737451
 51
164.3772262549
  0
SPLINE
  5
111
330
1F
100
AcDbEntity
  8
0
  6
Continuous
 62
     7
370
    25
100
AcDbSpline
210
0.0
220
0.0
230
1.0
 70
     8
 71
     4
 72
    15
 73
    10
 74
     0
 42
0.000000001
 43
0.00000001
 40
0.0
 40
0.0
 40
0.0
 40
0.0
 40
0.0
 40
0.0014010169528072
 40
0.0028020339056145
 40
0.005604067811229
 40
0.0106611581043112
 40
0.0157182483973935
 40
0.0256487376367126
 40
0.0256487376367126
 40
0.0256487376367126
 40
0.0256487376367126
 40
0.0256487376367126
 10
-14.07912344794142
 20
5.275601544549709
 30
0.0
 10
-14.10627290457239
 20
5.284615240386838
 30
0.0
 10
-14.16105162936617
 20
5.300949282270953
 30
0.0
 10
-14.27249014429599
 20
5.326945104626742
 30
0.0
 10
-14.48715119515862
 20
5.363036513966513
 30
0.0
 10
-14.77836536230758
 20
5.38981891451601
 30
0.0
 10
-15.24499653857545
 20
5.396822110328084
 30
0.0
 10
-15.65331702174151
 20
5.364577585158997
 30
0.0
 10
-15.95652424566489
 20
5.323306896706535
 30
0.0
 10
-16.15625590942587
 20
5.289177156146903
 30
0.0
  0
LINE
  5
112
330
1F
100
AcDbEntity
  8
0
  6
Continuous
 62
     7
370
    25
100
AcDbLine
 10
-14.0791234479
 20
5.2756015445
 30
0.0
 11
-13.8121675551
 21
5.1755702517
 31
0.0
  0
ARC
  5
113
330
1F
100
AcDbEntity
  8
0
  6
Continuous
 62
     7
370
    25
100
AcDbCircle
 10
0.0
 20
0.0
 30
0.0
 40
14.75
100
AcDbArc
 50
155.5415236701
 51
159.4584763299
  0
LINE
  5
114
330
1F
100
AcDbEntity
  8
0
  6
Continuous
 62
     7
370
    25
100
AcDbLine
 10
-13.6858572902
 20
6.2250300362
 30
0.0
 11
-13.4263581626
 21
6.1069965196
 31
0.0
  0
SPLINE
  5
115
330
1F
100
AcDbEntity
  8
0
  6
Continuous
 62
     7
370
    25
100
AcDbSpline
210
0.0
220
0.0
230
1.0
 70
     8
 71
     4
 72
    15
 73
    10
 74
     0
 42
0.000000001
 43
0.00000001
 40
0.0
 40
0.0
 40
0.0
 40
0.0
 40
0.0
 40
0.0014010169528072
 40
0.0028020339056145
 40
0.005604067811229
 40
0.0106611581043112
 40
0.0157182483973935
 40
0.0256487376366981
 40
0.0256487376366981
 40
0.0256487376366981
 40
0.0256487376366981
 40
0.0256487376366981
 10
-13.68585729019126
 20
6.225030036212505
 30
0.0
 10
-13.71142850053054
 20
6.237853955651813
 30
0.0
 10
-13.76171282007742
 20
6.265038451637806
 30
0.0
 10
-13.85889357193994
 20
6.325455558959733
 30
0.0
 10
-14.03620233694827
 20
6.451723363394597
 30
0.0
 10
-14.2610598663619
 20
6.638704858718221
 30
0.0
 10
-14.59596994266245
 20
6.963710920521377
 30
0.0
 10
-14.86189580280317
 20
7.275237425468427
 30
0.0
 10
-15.04711290327501
 20
7.51882009327811
 30
0.0
 10
-15.16421114614807
 20
7.684185078130759
 30
0.0
  0
ARC
  5
116
330
1F
100
AcDbEntity
  8
0
  6
Continuous
 62
     7
370
    25
100
AcDbCircle
 10
0.0
 20
0.0
 30
0.0
 40
17.0
100
AcDbArc
 50
150.6227737451
 51
153.1272262549
  0
SPLINE
  5
117
330
1F
100
AcDbEntity
  8
0
  6
Continuous
 62
     7
370
    25
100
AcDbSpline
210
0.0
220
0.0
230
1.0
 70
     8
 71
     4
 72
    15
 73
    10
 74
     0
 42
0.000000001
 43
0.00000001
 40
0.0
 40
0.0
 40
0.0
 40
0.0
 40
0.0
 40
0.0014010169528072
 40
0.0028020339056145
 40
0.005604067811229
 40
0.0106611581043112
 40
0.0157182483973935
 40
0.0256487376367127
 40
0.0256487376367127
 40
0.0256487376367127
 40
0.0256487376367127
 40
0.0256487376367127
 10
-12.77937823456593
 20
7.92093306733062
 30
0.0
 10
-12.80424753717712
 20
7.935070163766411
 30
0.0
 10
-12.85478709064312
 20
7.961777150675491
 30
0.0
 10
-12.95901281240181
 20
8.009014046356683
 30
0.0
 10
-13.16250812669366
 20
8.086290262923248
 30
0.0
 10
-13.44290170813068
 20
8.169371112800809
 30
0.0
 10
-13.89920044146533
 20
8.267274970609934
 30
0.0
 10
-14.30596575584024
 20
8.315309389497152
 30
0.0
 10
-14.61139844987623
 20
8.333984500703696
 30
0.0
 10
-14.81395070779955
 20
8.339476268138775
 30
0.0
  0
LINE
  5
118
330
1F
100
AcDbEntity
  8
0
  6
Continuous
 62
     7
370
    25
100
AcDbLine
 10
-12.7793782346
 20
7.9209330673
 30
0.0
 11
-12.5370669615
 21
7.7707433366
 31
0.0
  0
ARC
  5
119
330
1F
100
AcDbEntity
  8
0
  6
Continuous
 62
     7
370
    25
100
AcDbCircle
 10
0.0
 20
0.0
 30
0.0
 40
14.75
100
AcDbArc
 50
144.2915236701
 51
148.2084763299
  0
LINE
  5
11A
330
1F
100
AcDbEntity
  8
0
  6
Continuous
 62
     7
370
    25
100
AcDbLine
 10
-12.2084442656
 20
8.7753961354
 30
0.0
 11
-11.9769585377
 21
8.6090048313
 31
0.0
  0
SPLINE
  5
11B
330
1F
100
AcDbEntity
  8
0
  6
Continuous
 62
     7
370
    25
100
AcDbSpline
210
0.0
220
0.0
230
1.0
 70
     8
 71
     4
 72
    15
 73
    10
 74
     0
 42
0.000000001
 43
0.00000001
 40
0.0
 40
0.0
 40
0.0
 40
0.0
 40
0.0
 40
0.0014010169528072
 40
0.0028020339056145
 40
0.005604067811229
 40
0.0106611581043112
 40
0.0157182483973935
 40
0.0256487376366981
 40
0.0256487376366981
 40
0.0256487376366981
 40
0.0256487376366981
 40
0.0256487376366981
 10
-12.20844426559406
 20
8.77539613539541
 30
0.0
 10
-12.23102230972399
 20
8.79296234247799
 30
0.0
 10
-12.27503699809491
 20
8.829434480088995
 30
0.0
 10
-12.35856365613748
 20
8.907649713809514
 30
0.0
 10
-12.50783185631666
 20
9.06608254184982
 30
0.0
 10
-12.69189053121964
 20
9.29333876799207
 30
0.0
 10
-12.95695986705956
 20
9.67743764408235
 30
0.0
 10
-13.15700023019747
 20
10.03485781627715
 30
0.0
 10
-13.29113781491868
 20
10.30989417520018
 30
0.0
 10
-13.37372493974457
 20
10.49492645214739
 30
0.0
  0
ARC
  5
11C
330
1F
100
AcDbEntity
  8
0
  6
Continuous
 62
     7
370
    25
100
AcDbCircle
 10
0.0
 20
0.0
 30
0.0
 40
17.0
100
AcDbArc
 50
139.3727737451
 51
141.8772262549
  0
SPLINE
  5
11D
330
1F
100
AcDbEntity
  8
0
  6
Continuous
 62
     7
370
    25
100
AcDbSpline
210
0.0
220
0.0
230
1.0
 70
     8
 71
     4
 72
    15
 73
    10
 74
     0
 42
0.000000001
 43
0.00000001
 40
0.0
 40
0.0
 40
0.0
 40
0.0
 40
0.0
 40
0.0014010169528072
 40
0.0028020339056145
 40
0.005604067811229
 40
0.0106611581043112
 40
0.0157182483973935
 40
0.0256487376367126
 40
0.0256487376367126
 40
0.0256487376367126
 40
0.0256487376367126
 40
0.0256487376367126
 10
-10.98852868239395
 20
10.26186757444446
 30
0.0
 10
-11.01016211763287
 20
10.28058479079105
 30
0.0
 10
-11.0545202930743
 20
10.31663838819563
 30
0.0
 10
-11.14752788562514
 20
10.38330106979195
 30
0.0
 10
-11.33203725253945
 20
10.49879241191967
 30
0.0
 10
-11.59083488017644
 20
10.63497896065677
 30
0.0
 10
-12.0192658661511
 20
10.82002109011246
 30
0.0
 10
-12.40884424882004
 20
10.94648851727616
 30
0.0
 10
-12.70476480582547
 20
11.02439175409117
 30
0.0
 10
-12.90235368823175
 20
11.06929398397824
 30
0.0
  0
LINE
  5
11E
330
1F
100
AcDbEntity
  8
0
  6
Continuous
 62
     7
370
    25
100
AcDbLine
 10
-10.9885286824
 20
10.2618675744
 30
0.0
 11
-10.7801739154
 21
10.067291113
 31
0.0
  0
ARC
  5
11F
330
1F
100
AcDbEntity
  8
0
  6
Continuous
 62
     7
370
    25
100
AcDbCircle
 10
0.0
 20
0.0
 30
0.0
 40
14.75
100
AcDbArc
 50
133.0415236701
 51
136.9584763299
  0
LINE
  5
120
330
1F
100
AcDbEntity
  8
0
  6
Continuous
 62
     7
370
    25
100
AcDbLine
 10
-10.2618675744
 20
10.9885286824
 30
0.0
 11
-10.067291113
 21
10.7801739154
 31
0.0
  0
SPLINE
  5
121
330
1F
100
AcDbEntity
  8
0
  6
Continuous
 62
     7
370
    25
100
AcDbSpline
210
0.0
220
0.0
230
1.0
 70
     8
 71
     4
 72
    15
 73
    10
 74
     0
 42
0.000000001
 43
0.00000001
 40
0.0
 40
0.0
 40
0.0
 40
0.0
 40
0.0
 40
0.0014010169528072
 40
0.0028020339056145
 40
0.005604067811229
 40
0.0106611581043112
 40
0.0157182483973935
 40
0.0256487376366981
 40
0.0256487376366981
 40
0.0256487376366981
 40
0.0256487376366981
 40
0.0256487376366981
 10
-10.2618675744445
 20
10.98852868239391
 30
0.0
 10
-10.28058479079109
 20
11.01016211763283
 30
0.0
 10
-10.31663838819567
 20
11.05452029307427
 30
0.0
 10
-10.38330106979199
 20
11.14752788562511
 30
0.0
 10
-10.49879241191971
 20
11.33203725253942
 30
0.0
 10
-10.63497896065681
 20
11.59083488017641
 30
0.0
 10
-10.82002109011239
 20
12.01926586615079
 30
0.0
 10
-10.94648851727602
 20
12.40884424881944
 30
0.0
 10
-11.02439175409099
 20
12.70476480582458
 30
0.0
 10
-11.06929398397803
 20
12.90235368823056
 30
0.0
  0
ARC
  5
122
330
1F
100
AcDbEntity
  8
0
  6
Continuous
 62
     7
370
    25
100
AcDbCircle
 10
0.0
 20
0.0
 30
0.0
 40
17.0
100
AcDbArc
 50
128.1227737451
 51
130.6272262549
  0
SPLINE
  5
123
330
1F
100
AcDbEntity
  8
0
  6
Continuous
 62
     7
370
    25
100
AcDbSpline
210
0.0
220
0.0
230
1.0
 70
     8
 71
     4
 72
    15
 73
    10
 74
     0
 42
0.000000001
 43
0.00000001
 40
0.0
 40
0.0
 40
0.0
 40
0.0
 40
0.0
 40
0.0014010169528072
 40
0.0028020339056145
 40
0.005604067811229
 40
0.0106611581043112
 40
0.0157182483973935
 40
0.0256487376367126
 40
0.0256487376367126
 40
0.0256487376367126
 40
0.0256487376367126
 40
0.0256487376367126
 10
-8.775396135395454
 20
12.20844426559403
 30
0.0
 10
-8.792962342478035
 20
12.23102230972397
 30
0.0
 10
-8.82943448008904
 20
12.27503699809488
 30
0.0
 10
-8.907649713809558
 20
12.35856365613745
 30
0.0
 10
-9.066082541849864
 20
12.50783185631663
 30
0.0
 10
-9.293338767992118
 20
12.69189053121961
 30
0.0
 10
-9.677437644082639
 20
12.9569598670597
 30
0.0
 10
-10.03485781627771
 20
13.15700023019773
 30
0.0
 10
-10.30989417520103
 20
13.29113781491904
 30
0.0
 10
-10.49492645214852
 20
13.37372493974501
 30
0.0
  0
LINE
  5
124
330
1F
100
AcDbEntity
  8
0
  6
Continuous
 62
     7
370
    25
100
AcDbLine
 10
-8.7753961354
 20
12.2084442656
 30
0.0
 11
-8.6090048313
 21
11.9769585377
 31
0.0
  0
ARC
  5
125
330
1F
100
AcDbEntity
  8
0
  6
Continuous
 62
     7
370
    25
100
AcDbCircle
 10
0.0
 20
0.0
 30
0.0
 40
14.75
100
AcDbArc
 50
121.7915236701
 51
125.7084763299
  0
LINE
  5
126
330
1F
100
AcDbEntity
  8
0
  6
Continuous
 62
     7
370
    25
100
AcDbLine
 10
-7.9209330673
 20
12.7793782346
 30
0.0
 11
-7.7707433366
 21
12.5370669615
 31
0.0
  0
SPLINE
  5
127
330
1F
100
AcDbEntity
  8
0
  6
Continuous
 62
     7
370
    25
100
AcDbSpline
210
0.0
220
0.0
230
1.0
 70
     8
 71
     4
 72
    15
 73
    10
 74
     0
 42
0.000000001
 43
0.00000001
 40
0.0
 40
0.0
 40
0.0
 40
0.0
 40
0.0
 40
0.0014010169528072
 40
0.0028020339056145
 40
0.005604067811229
 40
0.0106611581043112
 40
0.0157182483973935
 40
0.0256487376366981
 40
0.0256487376366981
 40
0.0256487376366981
 40
0.0256487376366981
 40
0.0256487376366981
 10
-7.920933067330667
 20
12.7793782345659
 30
0.0
 10
-7.935070163766456
 20
12.80424753717709
 30
0.0
 10
-7.961777150675536
 20
12.85478709064309
 30
0.0
 10
-8.009014046356727
 20
12.95901281240178
 30
0.0
 10
-8.086290262923296
 20
13.16250812669363
 30
0.0
 10
-8.169371112800855
 20
13.44290170813066
 30
0.0
 10
-8.267274970609922
 20
13.89920044146501
 30
0.0
 10
-8.315309389497132
 20
14.30596575583962
 30
0.0
 10
-8.333984500703696
 20
14.61139844987531
 30
0.0
 10
-8.339476268138798
 20
14.81395070779833
 30
0.0
  0
ARC
  5
128
330
1F
100
AcDbEntity
  8
0
  6
Continuous
 62
     7
370
    25
100
AcDbCircle
 10
0.0
 20
0.0
 30
0.0
 40
17.0
100
AcDbArc
 50
116.8727737451
 51
119.3772262549
  0
SPLINE
  5
129
330
1F
100
AcDbEntity
  8
0
  6
Continuous
 62
     7
370
    25
100
AcDbSpline
210
0.0
220
0.0
230
1.0
 70
     8
 71
     4
 72
    15
 73
    10
 74
     0
 42
0.000000001
 43
0.00000001
 40
0.0
 40
0.0
 40
0.0
 40
0.0
 40
0.0
 40
0.0014010169528072
 40
0.0028020339056145
 40
0.005604067811229
 40
0.0106611581043112
 40
0.0157182483973935
 40
0.0256487376367126
 40
0.0256487376367126
 40
0.0256487376367126
 40
0.0256487376367126
 40
0.0256487376367126
 10
-6.225030036212556
 20
13.68585729019124
 30
0.0
 10
-6.237853955651862
 20
13.71142850053052
 30
0.0
 10
-6.265038451637856
 20
13.7617128200774
 30
0.0
 10
-6.325455558959784
 20
13.85889357193992
 30
0.0
 10
-6.451723363394649
 20
14.03620233694825
 30
0.0
 10
-6.638704858718271
 20
14.26105986636188
 30
0.0
 10
-6.963710920521636
 20
14.59596994266264
 30
0.0
 10
-7.275237425468932
 20
14.86189580280353
 30
0.0
 10
-7.518820093278873
 20
15.04711290327553
 30
0.0
 10
-7.684185078131783
 20
15.16421114614873
 30
0.0
  0
LINE
  5
12A
330
1F
100
AcDbEntity
  8
0
  6
Continuous
 62
     7
370
    25
100
AcDbLine
 10
-6.2250300362
 20
13.6858572902
 30
0.0
 11
-6.1069965196
 21
13.4263581626
 31
0.0
  0
ARC
  5
12B
330
1F
100
AcDbEntity
  8
0
  6
Continuous
 62
     7
370
    25
100
AcDbCircle
 10
0.0
 20
0.0
 30
0.0
 40
14.75
100
AcDbArc
 50
110.5415236701
 51
114.4584763299
  0
LINE
  5
12C
330
1F
100
AcDbEntity
  8
0
  6
Continuous
 62
     7
370
    25
100
AcDbLine
 10
-5.2756015445
 20
14.0791234479
 30
0.0
 11
-5.1755702517
 21
13.8121675551
 31
0.0
  0
SPLINE
  5
12D
330
1F
100
AcDbEntity
  8
0
  6
Continuous
 62
     7
370
    25
100
AcDbSpline
210
0.0
220
0.0
230
1.0
 70
     8
 71
     4
 72
    15
 73
    10
 74
     0
 42
0.000000001
 43
0.00000001
 40
0.0
 40
0.0
 40
0.0
 40
0.0
 40
0.0
 40
0.0014010169528072
 40
0.0028020339056145
 40
0.005604067811229
 40
0.0106611581043112
 40
0.0157182483973935
 40
0.0256487376366981
 40
0.0256487376366981
 40
0.0256487376366981
 40
0.0256487376366981
 40
0.0256487376366981
 10
-5.27560154454976
 20
14.0791234479414
 30
0.0
 10
-5.28461524038689
 20
14.10627290457238
 30
0.0
 10
-5.300949282271003
 20
14.16105162936616
 30
0.0
 10
-5.326945104626793
 20
14.27249014429597
 30
0.0
 10
-5.363036513966565
 20
14.4871511951586
 30
0.0
 10
-5.389818914516062
 20
14.77836536230757
 30
0.0
 10
-5.396822110328134
 20
15.24499653857513
 30
0.0
 10
-5.3645775851591
 20
15.6533170217409
 30
0.0
 10
-5.323306896706712
 20
15.95652424566399
 30
0.0
 10
-5.289177156147161
 20
16.15625590942468
 30
0.0
  0
ARC
  5
12E
330
1F
100
AcDbEntity
  8
0
  6
Continuous
 62
     7
370
    25
100
AcDbCircle
 10
0.0
 20
0.0
 30
0.0
 40
17.0
100
AcDbArc
 50
105.6227737451
 51
108.1272262549
  0
SPLINE
  5
12F
330
1F
100
AcDbEntity
  8
0
  6
Continuous
 62
     7
370
    25
100
AcDbSpline
210
0.0
220
0.0
230
1.0
 70
     8
 71
     4
 72
    15
 73
    10
 74
     0
 42
0.000000001
 43
0.00000001
 40
0.0
 40
0.0
 40
0.0
 40
0.0
 40
0.0
 40
0.0014010169528072
 40
0.0028020339056145
 40
0.005604067811229
 40
0.0106611581043112
 40
0.0157182483973935
 40
0.0256487376367126
 40
0.0256487376367126
 40
0.0256487376367126
 40
0.0256487376367126
 40
0.0256487376367126
 10
-3.435439523775071
 20
14.63733049424359
 30
0.0
 10
-3.443028339538788
 20
14.66491218351937
 30
0.0
 10
-3.459880508964269
 20
14.7195337360418
 30
0.0
 10
-3.500177694335527
 20
14.8266339799298
 30
0.0
 10
-3.58942807425232
 20
15.02516943336391
 30
0.0
 10
-3.728949244752459
 20
15.28218466853438
 30
0.0
 10
-3.982372691579061
 20
15.6740650788833
 30
0.0
 10
-4.236033740399529
 20
15.99565705435478
 30
0.0
 10
-4.438801971774892
 20
16.22483588127727
 30
0.0
 10
-4.578144780903072
 20
16.37194522239353
 30
0.0
  0
LINE
  5
130
330
1F
100
AcDbEntity
  8
0
  6
Continuous
 62
     7
370
    25
100
AcDbLine
 10
-3.4354395238
 20
14.6373304942
 30
0.0
 11
-3.3702997565
 21
14.3597903728
 31
0.0
  0
ARC
  5
131
330
1F
100
AcDbEntity
  8
0
  6
Continuous
 62
     7
370
    25
100
AcDbCircle
 10
0.0
 20
0.0
 30
0.0
 40
14.75
100
AcDbArc
 50
99.2915236701
 51
103.2084763299
  0
LINE
  5
132
330
1F
100
AcDbEntity
  8
0
  6
Continuous
 62
     7
370
    25
100
AcDbLine
 10
-2.427531613
 20
14.8378158429
 30
0.0
 11
-2.3815029045
 21
14.5564742955
 31
0.0
  0
SPLINE
  5
133
330
1F
100
AcDbEntity
  8
0
  6
Continuous
 62
     7
370
    25
100
AcDbSpline
210
0.0
220
0.0
230
1.0
 70
     8
 71
     4
 72
    15
 73
    10
 74
     0
 42
0.000000001
 43
0.00000001
 40
0.0
 40
0.0
 40
0.0
 40
0.0
 40
0.0
 40
0.0014010169528072
 40
0.0028020339056145
 40
0.005604067811229
 40
0.0106611581043112
 40
0.0157182483973935
 40
0.025648737636698
 40
0.025648737636698
 40
0.025648737636698
 40
0.025648737636698
 40
0.025648737636698
 10
-2.427531613003235
 20
14.8378158428759
 30
0.0
 10
-2.431075516965624
 20
14.86620211513393
 30
0.0
 10
-2.436408905755401
 20
14.92311489558193
 30
0.0
 10
-2.440164649911281
 20
15.03748368404955
 30
0.0
 10
-2.433684279403626
 20
15.25506116768162
 30
0.0
 10
-2.403138997991685
 20
15.54590472341378
 30
0.0
 10
-2.318972402919142
 20
16.00493596820037
 30
0.0
 10
-2.20768807271317
 20
16.39912009297801
 30
0.0
 10
-2.10805759401419
 20
16.68844976321369
 30
0.0
 10
-2.035617932249512
 20
16.87768525698453
 30
0.0
  0
ARC
  5
134
330
1F
100
AcDbEntity
  8
0
  6
Continuous
 62
     7
370
    25
100
AcDbCircle
 10
0.0
 20
0.0
 30
0.0
 40
17.0
100
AcDbArc
 50
94.3727737451
 51
96.8772262549
  0
SPLINE
  5
135
330
1F
100
AcDbEntity
  8
0
  6
Continuous
 62
     7
370
    25
100
AcDbSpline
210
0.0
220
0.0
230
1.0
 70
     8
 71
     4
 72
    15
 73
    10
 74
     0
 42
0.000000001
 43
0.00000001
 40
0.0
 40
0.0
 40
0.0
 40
0.0
 40
0.0
 40
0.0014010169528072
 40
0.0028020339056145
 40
0.005604067811229
 40
0.0106611581043112
 40
0.0157182483973935
 40
0.0256487376367126
 40
0.0256487376367126
 40
0.0256487376367126
 40
0.0256487376367126
 40
0.0256487376367126
 10
-0.5138269970555911
 20
15.02629929611166
 30
0.0
 10
-0.5158890752097743
 20
15.05483151547308
 30
0.0
 10
-0.5217612986545269
 20
15.11169122533973
 30
0.0
 10
-0.5403899638402215
 20
15.2245951589431
 30
0.0
 10
-0.5891930771909286
 20
15.43672769466749
 30
0.0
 10
-0.6758922025296371
 20
15.71602368424299
 30
0.0
 10
-0.8479941134394362
 20
16.14981468423943
 30
0.0
 10
-1.034041654281662
 20
16.51471417577498
 30
0.0
 10
-1.188203179804428
 20
16.77904751535431
 30
0.0
 10
-1.296168947197431
 20
16.9505146252344
 30
0.0
  0
LINE
  5
136
330
1F
100
AcDbEntity
  8
0
  6
Continuous
 62
     7
370
    25
100
AcDbLine
 10
-0.5138269971
 20
15.0262992961
 30
0.0
 11
-0.5040842638
 21
14.7413838921
 31
0.0
  0
ARC
  5
137
330
1F
100
AcDbEntity
  8
0
  6
Continuous
 62
     7
370
    25
100
AcDbCircle
 10
0.0
 20
0.0
 30
0.0
 40
14.75
100
AcDbArc
 50
88.0415236701
 51
91.9584763299
  0
LINE
  5
138
330
1F
100
AcDbEntity
  8
0
  6
Continuous
 62
     7
370
    25
100
AcDbLine
 10
0.5138269971
 20
15.0262992961
 30
0.0
 11
0.5040842638
 21
14.7413838921
 31
0.0
  0
SPLINE
  5
139
330
1F
100
AcDbEntity
  8
0
  6
Continuous
 62
     7
370
    25
100
AcDbSpline
210
0.0
220
0.0
230
1.0
 70
     8
 71
     4
 72
    15
 73
    10
 74
     0
 42
0.000000001
 43
0.00000001
 40
0.0
 40
0.0
 40
0.0
 40
0.0
 40
0.0
 40
0.0014010169528072
 40
0.0028020339056145
 40
0.005604067811229
 40
0.0106611581043112
 40
0.0157182483973935
 40
0.025648737636698
 40
0.025648737636698
 40
0.025648737636698
 40
0.025648737636698
 40
0.025648737636698
 10
0.5138269970555911
 20
15.02629929611166
 30
0.0
 10
0.5158890752097743
 20
15.05483151547308
 30
0.0
 10
0.5217612986545269
 20
15.11169122533973
 30
0.0
 10
0.5403899638402215
 20
15.2245951589431
 30
0.0
 10
0.5891930771909286
 20
15.43672769466749
 30
0.0
 10
0.6758922025296371
 20
15.71602368424299
 30
0.0
 10
0.8479941134393266
 20
16.14981468423915
 30
0.0
 10
1.034041654281392
 20
16.51471417577446
 30
0.0
 10
1.18820317980398
 20
16.77904751535354
 30
0.0
 10
1.296168947196799
 20
16.9505146252334
 30
0.0
  0
ARC
  5
13A
330
1F
100
AcDbEntity
  8
0
  6
Continuous
 62
     7
370
    25
100
AcDbCircle
 10
0.0
 20
0.0
 30
0.0
 40
17.0
100
AcDbArc
 50
83.1227737451
 51
85.6272262549
  0
SPLINE
  5
13B
330
1F
100
AcDbEntity
  8
0
  6
Continuous
 62
     7
370
    25
100
AcDbSpline
210
0.0
220
0.0
230
1.0
 70
     8
 71
     4
 72
    15
 73
    10
 74
     0
 42
0.000000001
 43
0.00000001
 40
0.0
 40
0.0
 40
0.0
 40
0.0
 40
0.0
 40
0.0014010169528072
 40
0.0028020339056145
 40
0.005604067811229
 40
0.0106611581043112
 40
0.0157182483973935
 40
0.0256487376367126
 40
0.0256487376367126
 40
0.0256487376367126
 40
0.0256487376367126
 40
0.0256487376367126
 10
2.427531613003024
 20
14.83781584287593
 30
0.0
 10
2.431075516965413
 20
14.86620211513396
 30
0.0
 10
2.436408905755188
 20
14.92311489558196
 30
0.0
 10
2.440164649911067
 20
15.03748368404958
 30
0.0
 10
2.433684279403408
 20
15.25506116768165
 30
0.0
 10
2.403138997991464
 20
15.54590472341381
 30
0.0
 10
2.318972402918861
 20
16.00493596820069
 30
0.0
 10
2.207688072712775
 20
16.3991200929786
 30
0.0
 10
2.108057594013663
 20
16.68844976321456
 30
0.0
 10
2.035617932248848
 20
16.87768525698566
 30
0.0
  0
MTEXT
  5
13D
330
1F
100
AcDbEntity
  8
0
  6
Continuous
 62
     7
100
AcDbMText
 10
-16.9505146252
 20
-25.2205110169
 30
0.0
 40
4.83362
 41
0.0
 71
     1
 72
     1
  1
SOLIDWORKS pi (pIgp)
  7
SLDTEXTSTYLE0
 73
     1
 44
1.0
  0
ENDSEC
  0
SECTION
  2
OBJECTS
  0
DICTIONARY
  5
C
330
0
100
AcDbDictionary
281
     1
  3
ACAD_GROUP
350
D
  3
ACAD_LAYOUT
350
1A
  3
ACAD_MLINESTYLE
350
17
  3
ACAD_PLOTSETTINGS
350
19
  3
ACAD_PLOTSTYLENAME
350
E
  3
ACAD_SCALELIST
350
47
  0
DICTIONARY
  5
D
102
{ACAD_REACTORS
330
C
102
}
330
C
100
AcDbDictionary
281
     1
  0
DICTIONARY
  5
1A
102
{ACAD_REACTORS
330
C
102
}
330
C
100
AcDbDictionary
281
     1
  3
Layout1
350
1E
  3
Layout2
350
26
  3
Model
350
22
  0
DICTIONARY
  5
17
102
{ACAD_REACTORS
330
C
102
}
330
C
100
AcDbDictionary
281
     1
  3
Standard
350
18
  0
DICTIONARY
  5
19
102
{ACAD_REACTORS
330
C
102
}
330
C
100
AcDbDictionary
281
     1
  0
ACDBDICTIONARYWDFLT
  5
E
102
{ACAD_REACTORS
330
C
102
}
330
C
100
AcDbDictionary
281
     1
  3
Normal
350
F
100
AcDbDictionaryWithDefault
340
F
  0
DICTIONARY
  5
47
102
{ACAD_REACTORS
330
C
102
}
330
C
100
AcDbDictionary
281
     1
  3
A0
350
48
  3
A1
350
49
  3
A2
350
4A
  3
A3
350
4B
  3
A4
350
4C
  3
A5
350
4D
  3
A6
350
4E
  3
A7
350
4F
  3
A8
350
50
  3
A9
350
51
  3
B0
350
52
  3
B1
350
53
  3
B2
350
54
  3
B3
350
55
  3
B4
350
56
  3
B5
350
57
  3
B6
350
58
  3
B7
350
59
  3
B8
350
5A
  3
B9
350
5B
  3
C0
350
5C
  3
C1
350
5D
  3
C2
350
5E
  3
C3
350
5F
  3
C4
350
60
  3
C5
350
61
  3
C6
350
62
  3
C7
350
63
  3
C8
350
64
  3
C9
350
65
  3
D0
350
66
  3
D1
350
67
  3
D2
350
68
  0
LAYOUT
  5
1E
102
{ACAD_REACTORS
330
1A
102
}
330
1A
100
AcDbPlotSettings
  1

  2
none_device
  4

  6

 40
0.0
 41
0.0
 42
0.0
 43
0.0
 44
0.0
 45
0.0
 46
0.0
 47
0.0
 48
0.0
 49
0.0
140
0.0
141
0.0
142
1.0
143
1.0
 70
   688
 72
     1
 73
     0
 74
     5
  7

 75
    16
147
1.0
148
0.0
149
0.0
100
AcDbLayout
  1
Layout1
 70
     1
 71
     1
 10
0.0
 20
0.0
 11
420.0
 21
297.0
 12
0.0
 22
0.0
 32
0.0
 14
1.0000000000E+20
 24
1.0000000000E+20
 34
1.0000000000E+20
 15
-1.0000000000E+20
 25
-1.0000000000E+20
 35
-1.0000000000E+20
146
0.0
 13
0.0
 23
0.0
 33
0.0
 16
1.0
 26
0.0
 36
0.0
 17
0.0
 27
1.0
 37
0.0
 76
     0
330
1B
  0
LAYOUT
  5
26
102
{ACAD_REACTORS
330
1A
102
}
330
1A
100
AcDbPlotSettings
  1

  2
none_device
  4

  6

 40
0.0
 41
0.0
 42
0.0
 43
0.0
 44
0.0
 45
0.0
 46
0.0
 47
0.0
 48
0.0
 49
0.0
140
0.0
141
0.0
142
1.0
143
1.0
 70
   688
 72
     1
 73
     0
 74
     5
  7

 75
    16
147
1.0
148
0.0
149
0.0
100
AcDbLayout
  1
Layout2
 70
     1
 71
     2
 10
0.0
 20
0.0
 11
0.0
 21
0.0
 12
0.0
 22
0.0
 32
0.0
 14
0.0
 24
0.0
 34
0.0
 15
0.0
 25
0.0
 35
0.0
146
0.0
 13
0.0
 23
0.0
 33
0.0
 16
1.0
 26
0.0
 36
0.0
 17
0.0
 27
1.0
 37
0.0
 76
     0
330
23
  0
LAYOUT
  5
22
102
{ACAD_REACTORS
330
1A
102
}
330
1A
100
AcDbPlotSettings
  1

  2
none_device
  4
ANSI_A_(11.00_x_8.50_Inches)
  6

 40
6.35
 41
19.05
 42
6.35000508
 43
19.05000254
 44
279.4
 45
215.9
 46
133.34999746
 47
88.89999873
 48
0.0
 49
0.0
140
0.0
141
0.0
142
0.2482225521
143
1.0
 70
  1696
 72
     0
 73
     0
 74
     0
  7

 75
     0
147
0.0179189148
148
-1300.4909072572
149
0.0
100
AcDbLayout
  1
Model
 70
     1
 71
     0
 10
0.0
 20
0.0
 11
420.0
 21
297.0
 12
0.0
 22
0.0
 32
0.0
 14
-16.9505146252
 24
-16.9505146252
 34
0.0
 15
16.9505146252
 25
16.9505146252
 35
0.0
146
0.0
 13
0.0
 23
0.0
 33
0.0
 16
1.0
 26
0.0
 36
0.0
 17
0.0
 27
1.0
 37
0.0
 76
     0
330
1F
331
29
  0
MLINESTYLE
  5
18
102
{ACAD_REACTORS
330
17
102
}
330
17
100
AcDbMlineStyle
  2
Standard
 70
     0
  3

 62
   256
 51
90.0
 52
90.0
 71
     2
 49
0.5
 62
   256
  6
BYLAYER
 49
-0.5
 62
   256
  6
BYLAYER
  0
ACDBPLACEHOLDER
  5
F
102
{ACAD_REACTORS
330
E
102
}
330
E
  0
SCALE
  5
48
102
{ACAD_REACTORS
330
47
102
}
330
47
100
AcDbScale
 70
     0
300
1:1
140
1.0
141
1.0
290
     1
  0
SCALE
  5
49
102
{ACAD_REACTORS
330
47
102
}
330
47
100
AcDbScale
 70
     0
300
1:2
140
1.0
141
2.0
290
     0
  0
SCALE
  5
4A
102
{ACAD_REACTORS
330
47
102
}
330
47
100
AcDbScale
 70
     0
300
1:4
140
1.0
141
4.0
290
     0
  0
SCALE
  5
4B
102
{ACAD_REACTORS
330
47
102
}
330
47
100
AcDbScale
 70
     0
300
1:5
140
1.0
141
5.0
290
     0
  0
SCALE
  5
4C
102
{ACAD_REACTORS
330
47
102
}
330
47
100
AcDbScale
 70
     0
300
1:8
140
1.0
141
8.0
290
     0
  0
SCALE
  5
4D
102
{ACAD_REACTORS
330
47
102
}
330
47
100
AcDbScale
 70
     0
300
1:10
140
1.0
141
10.0
290
     0
  0
SCALE
  5
4E
102
{ACAD_REACTORS
330
47
102
}
330
47
100
AcDbScale
 70
     0
300
1:16
140
1.0
141
16.0
290
     0
  0
SCALE
  5
4F
102
{ACAD_REACTORS
330
47
102
}
330
47
100
AcDbScale
 70
     0
300
1:20
140
1.0
141
20.0
290
     0
  0
SCALE
  5
50
102
{ACAD_REACTORS
330
47
102
}
330
47
100
AcDbScale
 70
     0
300
1:30
140
1.0
141
30.0
290
     0
  0
SCALE
  5
51
102
{ACAD_REACTORS
330
47
102
}
330
47
100
AcDbScale
 70
     0
300
1:40
140
1.0
141
40.0
290
     0
  0
SCALE
  5
52
102
{ACAD_REACTORS
330
47
102
}
330
47
100
AcDbScale
 70
     0
300
1:50
140
1.0
141
50.0
290
     0
  0
SCALE
  5
53
102
{ACAD_REACTORS
330
47
102
}
330
47
100
AcDbScale
 70
     0
300
1:100
140
1.0
141
100.0
290
     0
  0
SCALE
  5
54
102
{ACAD_REACTORS
330
47
102
}
330
47
100
AcDbScale
 70
     0
300
2:1
140
2.0
141
1.0
290
     0
  0
SCALE
  5
55
102
{ACAD_REACTORS
330
47
102
}
330
47
100
AcDbScale
 70
     0
300
4:1
140
4.0
141
1.0
290
     0
  0
SCALE
  5
56
102
{ACAD_REACTORS
330
47
102
}
330
47
100
AcDbScale
 70
     0
300
8:1
140
8.0
141
1.0
290
     0
  0
SCALE
  5
57
102
{ACAD_REACTORS
330
47
102
}
330
47
100
AcDbScale
 70
     0
300
10:1
140
10.0
141
1.0
290
     0
  0
SCALE
  5
58
102
{ACAD_REACTORS
330
47
102
}
330
47
100
AcDbScale
 70
     0
300
100:1
140
100.0
141
1.0
290
     0
  0
SCALE
  5
59
102
{ACAD_REACTORS
330
47
102
}
330
47
100
AcDbScale
 70
     0
300
1/128" = 1'-0"
140
0.0078125
141
12.0
290
     0
  0
SCALE
  5
5A
102
{ACAD_REACTORS
330
47
102
}
330
47
100
AcDbScale
 70
     0
300
1/64" = 1'-0"
140
0.015625
141
12.0
290
     0
  0
SCALE
  5
5B
102
{ACAD_REACTORS
330
47
102
}
330
47
100
AcDbScale
 70
     0
300
1/32" = 1'-0"
140
0.03125
141
12.0
290
     0
  0
SCALE
  5
5C
102
{ACAD_REACTORS
330
47
102
}
330
47
100
AcDbScale
 70
     0
300
1/16" = 1'-0"
140
0.0625
141
12.0
290
     0
  0
SCALE
  5
5D
102
{ACAD_REACTORS
330
47
102
}
330
47
100
AcDbScale
 70
     0
300
3/32" = 1'-0"
140
0.09375
141
12.0
290
     0
  0
SCALE
  5
5E
102
{ACAD_REACTORS
330
47
102
}
330
47
100
AcDbScale
 70
     0
300
1/8" = 1'-0"
140
0.125
141
12.0
290
     0
  0
SCALE
  5
5F
102
{ACAD_REACTORS
330
47
102
}
330
47
100
AcDbScale
 70
     0
300
3/16" = 1'-0"
140
0.1875
141
12.0
290
     0
  0
SCALE
  5
60
102
{ACAD_REACTORS
330
47
102
}
330
47
100
AcDbScale
 70
     0
300
1/4" = 1'-0"
140
0.25
141
12.0
290
     0
  0
SCALE
  5
61
102
{ACAD_REACTORS
330
47
102
}
330
47
100
AcDbScale
 70
     0
300
3/8" = 1'-0"
140
0.375
141
12.0
290
     0
  0
SCALE
  5
62
102
{ACAD_REACTORS
330
47
102
}
330
47
100
AcDbScale
 70
     0
300
1/2" = 1'-0"
140
0.5
141
12.0
290
     0
  0
SCALE
  5
63
102
{ACAD_REACTORS
330
47
102
}
330
47
100
AcDbScale
 70
     0
300
3/4" = 1'-0"
140
0.75
141
12.0
290
     0
  0
SCALE
  5
64
102
{ACAD_REACTORS
330
47
102
}
330
47
100
AcDbScale
 70
     0
300
1" = 1'-0"
140
1.0
141
12.0
290
     0
  0
SCALE
  5
65
102
{ACAD_REACTORS
330
47
102
}
330
47
100
AcDbScale
 70
     0
300
1-1/2" = 1'-0"
140
1.5
141
12.0
290
     0
  0
SCALE
  5
66
102
{ACAD_REACTORS
330
47
102
}
330
47
100
AcDbScale
 70
     0
300
3" = 1'-0"
140
3.0
141
12.0
290
     0
  0
SCALE
  5
67
102
{ACAD_REACTORS
330
47
102
}
330
47
100
AcDbScale
 70
     0
300
6" = 1'-0"
140
6.0
141
12.0
290
     0
  0
SCALE
  5
68
102
{ACAD_REACTORS
330
47
102
}
330
47
100
AcDbScale
 70
     0
300
1'-0" = 1'-0"
140
12.0
141
12.0
290
     0
  0
ENDSEC
  0
EOF
