  0
SECTION
  2
HEADER
  9
$ACADVER
  1
AC1015
  9
$ACADMAINTVER
 70
     6
  9
$DWGCODEPAGE
  3
DOS932
  9
$INSBASE
 10
0.0
 20
0.0
 30
0.0
  9
$EXTMIN
 10
-12.9305940098
 20
-12.9305940098
 30
0.0
  9
$EXTMAX
 10
12.9305940098
 20
12.9305940098
 30
0.0
  9
$LIMMIN
 10
0.0
 20
0.0
  9
$LIMMAX
 10
420.0
 20
297.0
  9
$ORTHOMODE
 70
     0
  9
$REGENMODE
 70
     1
  9
$FILLMODE
 70
     1
  9
$QTEXTMODE
 70
     0
  9
$MIRRTEXT
 70
     1
  9
$LTSCALE
 40
1.0
  9
$ATTMODE
 70
     1
  9
$TEXTSIZE
 40
3.5
  9
$TRACEWID
 40
1.0
  9
$TEXTSTYLE
  7
Standard
  9
$CLAYER
  8
0
  9
$CELTYPE
  6
ByLayer
  9
$CECOLOR
 62
   256
  9
$CELTSCALE
 40
1.0
  9
$DISPSILH
 70
     0
  9
$DIMSCALE
 40
1.0
  9
$DIMASZ
 40
3.302
  9
$DIMEXO
 40
1.0
  9
$DIMDLI
 40
3.75
  9
$DIMRND
 40
0.0
  9
$DIMDLE
 40
0.0
  9
$DIMEXE
 40
1.0
  9
$DIMTP
 40
0.0
  9
$DIMTM
 40
0.0
  9
$DIMTXT
 40
3.5
  9
$DIMCEN
 40
2.5
  9
$DIMTSZ
 40
0.0
  9
$DIMTOL
 70
     0
  9
$DIMLIM
 70
     0
  9
$DIMTIH
 70
     1
  9
$DIMTOH
 70
     1
  9
$DIMSE1
 70
     0
  9
$DIMSE2
 70
     0
  9
$DIMTAD
 70
     1
  9
$DIMZIN
 70
     0
  9
$DIMBLK
  1

  9
$DIMASO
 70
     1
  9
$DIMSHO
 70
     1
  9
$DIMPOST
  1

  9
$DIMAPOST
  1

  9
$DIMALT
 70
     0
  9
$DIMALTD
 70
     3
  9
$DIMALTF
 40
0.0393700787
  9
$DIMLFAC
 40
1.0
  9
$DIMTOFL
 70
     1
  9
$DIMTVP
 40
0.0
  9
$DIMTIX
 70
     0
  9
$DIMSOXD
 70
     0
  9
$DIMSAH
 70
     0
  9
$DIMBLK1
  1

  9
$DIMBLK2
  1

  9
$DIMSTYLE
  2
ISO-25
  9
$DIMCLRD
 70
     0
  9
$DIMCLRE
 70
     0
  9
$DIMCLRT
 70
     0
  9
$DIMTFAC
 40
1.0
  9
$DIMGAP
 40
1.524
  9
$DIMJUST
 70
     0
  9
$DIMSD1
 70
     0
  9
$DIMSD2
 70
     0
  9
$DIMTOLJ
 70
     0
  9
$DIMTZIN
 70
     0
  9
$DIMALTZ
 70
     0
  9
$DIMALTTZ
 70
     0
  9
$DIMUPT
 70
     0
  9
$DIMDEC
 70
     2
  9
$DIMTDEC
 70
     2
  9
$DIMALTU
 70
     2
  9
$DIMALTTD
 70
     3
  9
$DIMTXSTY
  7
Standard
  9
$DIMAUNIT
 70
     0
  9
$DIMADEC
 70
     2
  9
$DIMALTRND
 40
0.0
  9
$DIMAZIN
 70
     0
  9
$DIMDSEP
 70
    44
  9
$DIMATFIT
 70
     3
  9
$DIMFRAC
 70
     0
  9
$DIMLDRBLK
  1

  9
$DIMLUNIT
 70
     2
  9
$DIMLWD
 70
    -2
  9
$DIMLWE
 70
    -2
  9
$DIMTMOVE
 70
     0
  9
$LUNITS
 70
     2
  9
$LUPREC
 70
     2
  9
$SKETCHINC
 40
1.0
  9
$FILLETRAD
 40
10.0
  9
$AUNITS
 70
     0
  9
$AUPREC
 70
     2
  9
$MENU
  1
.
  9
$ELEVATION
 40
0.0
  9
$PELEVATION
 40
0.0
  9
$THICKNESS
 40
0.0
  9
$LIMCHECK
 70
     0
  9
$CHAMFERA
 40
0.0
  9
$CHAMFERB
 40
0.0
  9
$CHAMFERC
 40
0.0
  9
$CHAMFERD
 40
0.0
  9
$SKPOLY
 70
     0
  9
$TDCREATE
 40
2458882.958514456
  9
$TDUCREATE
 40
2458882.583514456
  9
$TDUPDATE
 40
2458882.958552998
  9
$TDUUPDATE
 40
2458882.583552998
  9
$TDINDWG
 40
0.0000000116
  9
$TDUSRTIMER
 40
0.0000000116
  9
$USRTIMER
 70
     1
  9
$ANGBASE
 50
0.0
  9
$ANGDIR
 70
     0
  9
$PDMODE
 70
     0
  9
$PDSIZE
 40
-1.0
  9
$PLINEWID
 40
0.0
  9
$SPLFRAME
 70
     0
  9
$SPLINETYPE
 70
     6
  9
$SPLINESEGS
 70
     8
  9
$HANDSEED
  5
10A
  9
$SURFTAB1
 70
     6
  9
$SURFTAB2
 70
     6
  9
$SURFTYPE
 70
     6
  9
$SURFU
 70
     6
  9
$SURFV
 70
     6
  9
$UCSBASE
  2

  9
$UCSNAME
  2

  9
$UCSORG
 10
0.0
 20
0.0
 30
0.0
  9
$UCSXDIR
 10
1.0
 20
0.0
 30
0.0
  9
$UCSYDIR
 10
0.0
 20
1.0
 30
0.0
  9
$UCSORTHOREF
  2

  9
$UCSORTHOVIEW
 70
     0
  9
$UCSORGTOP
 10
0.0
 20
0.0
 30
0.0
  9
$UCSORGBOTTOM
 10
0.0
 20
0.0
 30
0.0
  9
$UCSORGLEFT
 10
0.0
 20
0.0
 30
0.0
  9
$UCSORGRIGHT
 10
0.0
 20
0.0
 30
0.0
  9
$UCSORGFRONT
 10
0.0
 20
0.0
 30
0.0
  9
$UCSORGBACK
 10
0.0
 20
0.0
 30
0.0
  9
$PUCSBASE
  2

  9
$PUCSNAME
  2

  9
$PUCSORG
 10
0.0
 20
0.0
 30
0.0
  9
$PUCSXDIR
 10
1.0
 20
0.0
 30
0.0
  9
$PUCSYDIR
 10
0.0
 20
1.0
 30
0.0
  9
$PUCSORTHOREF
  2

  9
$PUCSORTHOVIEW
 70
     0
  9
$PUCSORGTOP
 10
0.0
 20
0.0
 30
0.0
  9
$PUCSORGBOTTOM
 10
0.0
 20
0.0
 30
0.0
  9
$PUCSORGLEFT
 10
0.0
 20
0.0
 30
0.0
  9
$PUCSORGRIGHT
 10
0.0
 20
0.0
 30
0.0
  9
$PUCSORGFRONT
 10
0.0
 20
0.0
 30
0.0
  9
$PUCSORGBACK
 10
0.0
 20
0.0
 30
0.0
  9
$USERI1
 70
     0
  9
$USERI2
 70
     0
  9
$USERI3
 70
     0
  9
$USERI4
 70
     0
  9
$USERI5
 70
     0
  9
$USERR1
 40
0.0
  9
$USERR2
 40
0.0
  9
$USERR3
 40
0.0
  9
$USERR4
 40
0.0
  9
$USERR5
 40
0.0
  9
$WORLDVIEW
 70
     1
  9
$SHADEDGE
 70
     3
  9
$SHADEDIF
 70
    70
  9
$TILEMODE
 70
     1
  9
$MAXACTVP
 70
    64
  9
$PINSBASE
 10
0.0
 20
0.0
 30
0.0
  9
$PLIMCHECK
 70
     0
  9
$PEXTMIN
 10
1.0000000000E+20
 20
1.0000000000E+20
 30
1.0000000000E+20
  9
$PEXTMAX
 10
-1.0000000000E+20
 20
-1.0000000000E+20
 30
-1.0000000000E+20
  9
$PLIMMIN
 10
0.0
 20
0.0
  9
$PLIMMAX
 10
420.0
 20
297.0
  9
$UNITMODE
 70
     0
  9
$VISRETAIN
 70
     1
  9
$PLINEGEN
 70
     0
  9
$PSLTSCALE
 70
     1
  9
$TREEDEPTH
 70
  3020
  9
$CMLSTYLE
  2
Standard
  9
$CMLJUST
 70
     0
  9
$CMLSCALE
 40
20.0
  9
$PROXYGRAPHICS
 70
     1
  9
$MEASUREMENT
 70
     1
  9
$CELWEIGHT
370
    -1
  9
$ENDCAPS
280
     0
  9
$JOINSTYLE
280
     0
  9
$LWDISPLAY
290
     1
  9
$INSUNITS
 70
     4
  9
$HYPERLINKBASE
  1

  9
$STYLESHEET
  1

  9
$XEDIT
290
     1
  9
$CEPSNTYPE
380
     0
  9
$PSTYLEMODE
290
     1
  9
$FINGERPRINTGUID
  2
{49AC5FE2-68C5-4957-94B1-10621D89D9A6}
  9
$VERSIONGUID
  2
{FAEB1C32-E019-11D5-929B-00C0DF256EC4}
  9
$EXTNAMES
290
     1
  9
$PSVPSCALE
 40
0.0
  9
$OLESTARTUP
290
     0
  0
ENDSEC
  0
SECTION
  2
CLASSES
  0
CLASS
  1
ACDBDICTIONARYWDFLT
  2
AcDbDictionaryWithDefault
  3
ObjectDBX Classes
 90
        0
280
     0
281
     0
  0
CLASS
  1
VISUALSTYLE
  2
AcDbVisualStyle
  3
ObjectDBX Classes
 90
     4095
280
     0
281
     0
  0
CLASS
  1
MATERIAL
  2
AcDbMaterial
  3
ObjectDBX Classes
 90
     1153
280
     0
281
     0
  0
CLASS
  1
SCALE
  2
AcDbScale
  3
ObjectDBX Classes
 90
     1153
280
     0
281
     0
  0
CLASS
  1
TABLESTYLE
  2
AcDbTableStyle
  3
ObjectDBX Classes
 90
     4095
280
     0
281
     0
  0
CLASS
  1
MLEADERSTYLE
  2
AcDbMLeaderStyle
  3
ACDB_MLEADERSTYLE_CLASS
 90
     4095
280
     0
281
     0
  0
CLASS
  1
SUN
  2
AcDbSun
  3
SCENEOE
 90
     1153
280
     0
281
     0
  0
CLASS
  1
ACDBPLACEHOLDER
  2
AcDbPlaceHolder
  3
ObjectDBX Classes
 90
        0
280
     0
281
     0
  0
CLASS
  1
LAYOUT
  2
AcDbLayout
  3
ObjectDBX Classes
 90
        0
280
     0
281
     0
  0
ENDSEC
  0
SECTION
  2
TABLES
  0
TABLE
  2
VPORT
  5
8
330
0
100
AcDbSymbolTable
 70
     1
  0
VPORT
  5
29
330
8
100
AcDbSymbolTableRecord
100
AcDbViewportTableRecord
  2
*Active
 70
     0
 10
0.0
 20
0.0
 11
1.0
 21
1.0
 12
0.0
 22
0.0
 13
0.0
 23
0.0
 14
10.0
 24
10.0
 15
10.0
 25
10.0
 16
0.0
 26
0.0
 36
1.0
 17
0.0
 27
0.0
 37
0.0
 40
26.37841178
 41
1.0
 42
50.0
 43
0.0
 44
0.0
 50
0.0
 51
0.0
 71
     0
 72
   100
 73
     1
 74
     3
 75
     0
 76
     0
 77
     0
 78
     0
281
     0
 65
     1
110
0.0
120
0.0
130
0.0
111
1.0
121
0.0
131
0.0
112
0.0
122
1.0
132
0.0
 79
     0
146
0.0
  0
ENDTAB
  0
TABLE
  2
LTYPE
  5
5
330
0
100
AcDbSymbolTable
 70
     6
  0
LTYPE
  5
14
330
5
100
AcDbSymbolTableRecord
100
AcDbLinetypeTableRecord
  2
ByBlock
 70
     0
  3

 72
    65
 73
     0
 40
0.0
  0
LTYPE
  5
15
330
5
100
AcDbSymbolTableRecord
100
AcDbLinetypeTableRecord
  2
ByLayer
 70
     0
  3

 72
    65
 73
     0
 40
0.0
  0
LTYPE
  5
16
330
5
100
AcDbSymbolTableRecord
100
AcDbLinetypeTableRecord
  2
Continuous
 70
     0
  3
Solid line
 72
    65
 73
     0
 40
0.0
  0
LTYPE
  5
6E
330
5
100
AcDbSymbolTableRecord
100
AcDbLinetypeTableRecord
  2
HIDDEN
 70
     0
  3
Hidden __ __ __ __ __ __ __ __ __ __ __ __ __ __
 72
    65
 73
     2
 40
1.905
 49
1.27
 74
     0
 49
-0.635
 74
     0
  0
LTYPE
  5
6F
330
5
100
AcDbSymbolTableRecord
100
AcDbLinetypeTableRecord
  2
PHANTOM
 70
     0
  3
Phantom ______  __  __  ______  __  __  ______
 72
    65
 73
     6
 40
12.7
 49
6.35
 74
     0
 49
-1.27
 74
     0
 49
1.27
 74
     0
 49
-1.27
 74
     0
 49
1.27
 74
     0
 49
-1.27
 74
     0
  0
LTYPE
  5
70
330
5
100
AcDbSymbolTableRecord
100
AcDbLinetypeTableRecord
  2
CENTER
 70
     0
  3
Center ____ _ ____ _ ____ _ ____ _ ____ _ ____
 72
    65
 73
     4
 40
10.16
 49
6.35
 74
     0
 49
-1.27
 74
     0
 49
1.27
 74
     0
 49
-1.27
 74
     0
  0
LTYPE
  5
71
330
5
100
AcDbSymbolTableRecord
100
AcDbLinetypeTableRecord
  2
CENTERX2
 70
     0
  3
Center (2x) ________  __  ________  __  _____
 72
    65
 73
     4
 40
20.32
 49
12.7
 74
     0
 49
-2.54
 74
     0
 49
2.54
 74
     0
 49
-2.54
 74
     0
  0
LTYPE
  5
72
330
5
100
AcDbSymbolTableRecord
100
AcDbLinetypeTableRecord
  2
DOT2
 70
     0
  3
Dot (.5x) ........................................
 72
    65
 73
     2
 40
0.635
 49
0.0
 74
     0
 49
-0.635
 74
     0
  0
ENDTAB
  0
TABLE
  2
LAYER
  5
2
330
0
100
AcDbSymbolTable
 70
     1
  0
LAYER
  5
10
330
2
100
AcDbSymbolTableRecord
100
AcDbLayerTableRecord
  2
0
 70
     0
 62
     7
  6
Continuous
370
    -3
390
F
  0
ENDTAB
  0
TABLE
  2
STYLE
  5
3
330
0
100
AcDbSymbolTable
 70
     2
  0
STYLE
  5
11
330
3
100
AcDbSymbolTableRecord
100
AcDbTextStyleTableRecord
  2
Standard
 70
     0
 40
0.0
 41
1.0
 50
0.0
 71
     0
 42
3.5
  3
txt
  4
bigfont
  0
STYLE
  5
108
330
3
100
AcDbSymbolTableRecord
100
AcDbTextStyleTableRecord
  2
SLDTEXTSTYLE0
 70
     0
 40
0.0
 41
0.7
 50
0.0
 71
     0
 42
3.5
  3
TXT
  4
bigfont
  0
ENDTAB
  0
TABLE
  2
VIEW
  5
6
330
0
100
AcDbSymbolTable
 70
     0
  0
ENDTAB
  0
TABLE
  2
UCS
  5
7
330
0
100
AcDbSymbolTable
 70
     0
  0
ENDTAB
  0
TABLE
  2
APPID
  5
9
330
0
100
AcDbSymbolTable
 70
     1
  0
APPID
  5
12
330
9
100
AcDbSymbolTableRecord
100
AcDbRegAppTableRecord
  2
ACAD
 70
     0
  0
ENDTAB
  0
TABLE
  2
DIMSTYLE
  5
A
330
0
100
AcDbSymbolTable
 70
     1
100
AcDbDimStyleTable
  0
DIMSTYLE
105
27
330
A
100
AcDbSymbolTableRecord
100
AcDbDimStyleTableRecord
  2
ISO-25
 70
     0
 41
2.5
 42
0.625
 43
3.75
 44
1.25
 73
     0
 74
     0
 77
     1
 78
     8
140
2.5
141
2.5
143
0.0393700787
147
0.625
171
     3
172
     1
178
     0
271
     2
272
     2
274
     3
278
    44
283
     0
284
     8
340
11
  0
ENDTAB
  0
TABLE
  2
BLOCK_RECORD
  5
1
330
0
100
AcDbSymbolTable
 70
     1
  0
BLOCK_RECORD
  5
1F
330
1
100
AcDbSymbolTableRecord
100
AcDbBlockTableRecord
  2
*Model_Space
340
22
  0
BLOCK_RECORD
  5
1B
330
1
100
AcDbSymbolTableRecord
100
AcDbBlockTableRecord
  2
*Paper_Space
340
1E
  0
BLOCK_RECORD
  5
23
330
1
100
AcDbSymbolTableRecord
100
AcDbBlockTableRecord
  2
*Paper_Space0
340
26
  0
ENDTAB
  0
ENDSEC
  0
SECTION
  2
BLOCKS
  0
BLOCK
  5
20
330
1F
100
AcDbEntity
  8
0
100
AcDbBlockBegin
  2
*Model_Space
 70
     0
 10
0.0
 20
0.0
 30
0.0
  3
*Model_Space
  1

  0
ENDBLK
  5
21
330
1F
100
AcDbEntity
  8
0
100
AcDbBlockEnd
  0
BLOCK
  5
1C
330
1B
100
AcDbEntity
 67
     1
  8
0
100
AcDbBlockBegin
  2
*Paper_Space
 70
     0
 10
0.0
 20
0.0
 30
0.0
  3
*Paper_Space
  1

  0
ENDBLK
  5
1D
330
1B
100
AcDbEntity
 67
     1
  8
0
100
AcDbBlockEnd
  0
BLOCK
  5
24
330
23
100
AcDbEntity
  8
0
100
AcDbBlockBegin
  2
*Paper_Space0
 70
     0
 10
0.0
 20
0.0
 30
0.0
  3
*Paper_Space0
  1

  0
ENDBLK
  5
25
330
23
100
AcDbEntity
  8
0
100
AcDbBlockEnd
  0
ENDSEC
  0
SECTION
  2
ENTITIES
  0
CIRCLE
  5
73
330
1F
100
AcDbEntity
  8
0
  6
Continuous
 62
     7
370
    25
100
AcDbCircle
 10
6.0
 20
0.0
 30
0.0
 40
1.525
  0
CIRCLE
  5
74
330
1F
100
AcDbEntity
  8
0
  6
Continuous
 62
     7
370
    25
100
AcDbCircle
 10
0.0
 20
-6.0
 30
0.0
 40
1.525
  0
CIRCLE
  5
75
330
1F
100
AcDbEntity
  8
0
  6
Continuous
 62
     7
370
    25
100
AcDbCircle
 10
-6.0
 20
0.0
 30
0.0
 40
1.525
  0
CIRCLE
  5
76
330
1F
100
AcDbEntity
  8
0
  6
Continuous
 62
     7
370
    25
100
AcDbCircle
 10
0.0
 20
6.0
 30
0.0
 40
1.525
  0
CIRCLE
  5
77
330
1F
100
AcDbEntity
  8
0
  6
Continuous
 62
     7
370
    25
100
AcDbCircle
 10
0.0
 20
0.0
 30
0.0
 40
3.05
  0
ARC
  5
78
330
1F
100
AcDbEntity
  8
0
  6
Continuous
 62
     7
370
    25
100
AcDbCircle
 10
0.0
 20
0.0
 30
0.0
 40
10.75
100
AcDbArc
 50
72.1039047256
 51
77.8960952744
  0
LINE
  5
79
330
1F
100
AcDbEntity
  8
0
  6
Continuous
 62
     7
370
    25
100
AcDbLine
 10
2.3644756064
 20
11.0256271936
 30
0.0
 11
2.2541158856
 21
10.5110162008
 31
0.0
  0
SPLINE
  5
7A
330
1F
100
AcDbEntity
  8
0
  6
Continuous
 62
     7
370
    25
100
AcDbSpline
210
0.0
220
0.0
230
1.0
 70
     8
 71
     4
 72
    15
 73
    10
 74
     0
 42
0.000000001
 43
0.00000001
 40
0.0
 40
0.0
 40
0.0
 40
0.0
 40
0.0
 40
0.0028020339056145
 40
0.005604067811229
 40
0.0106611581043112
 40
0.0157182483973935
 40
0.029959916154659
 40
0.0303120130717026
 40
0.0303120130717026
 40
0.0303120130717026
 40
0.0303120130717026
 40
0.0303120130717026
 10
2.364475606384478
 20
11.02562719356043
 30
0.0
 10
2.371372711477244
 20
11.06800176336756
 30
0.0
 10
2.381164777968089
 20
11.15316527057305
 30
0.0
 10
2.385347198299602
 20
11.31658881297306
 30
0.0
 10
2.372362640725806
 20
11.55692992089993
 30
0.0
 10
2.317334907614303
 20
11.96939113631196
 30
0.0
 10
2.224994698570522
 20
12.33707230277594
 30
0.0
 10
2.131690414548079
 20
12.62326973851345
 30
0.0
 10
2.052762475179442
 20
12.8321736669138
 30
0.0
 10
2.050852627607497
 20
12.83721167153659
 30
0.0
  0
ARC
  5
7B
330
1F
100
AcDbEntity
  8
0
  6
Continuous
 62
     7
370
    25
100
AcDbCircle
 10
0.0
 20
0.0
 30
0.0
 40
13.0
100
AcDbArc
 50
80.9232197182
 51
84.0767802818
  0
SPLINE
  5
7C
330
1F
100
AcDbEntity
  8
0
  6
Continuous
 62
     7
370
    25
100
AcDbSpline
210
0.0
220
0.0
230
1.0
 70
     8
 71
     4
 72
    15
 73
    10
 74
     0
 42
0.000000001
 43
0.00000001
 40
0.0
 40
0.0
 40
0.0
 40
0.0
 40
0.0
 40
0.0028020339056145
 40
0.005604067811229
 40
0.0106611581043112
 40
0.0157182483973935
 40
0.029959916154659
 40
0.0303120130717026
 40
0.0303120130717026
 40
0.0303120130717026
 40
0.0303120130717026
 40
0.0303120130717026
 10
0.5697342480562726
 20
11.26190937590772
 30
0.0
 10
0.5740395018146519
 20
11.3046251694164
 30
0.0
 10
0.5866230295109104
 20
11.38942117378228
 30
0.0
 10
0.6248802468875436
 20
11.54835868404651
 30
0.0
 10
0.6996272224435219
 20
11.77714971651967
 30
0.0
 10
0.8595327489328273
 20
12.16131443149066
 30
0.0
 10
1.043889430059532
 20
12.49256776128903
 30
0.0
 10
1.20808779472859
 20
12.74486433019095
 30
0.0
 10
1.338394645047276
 20
12.92622197594679
 30
0.0
 10
1.341543347686985
 20
12.93059400980004
 30
0.0
  0
LINE
  5
7D
330
1F
100
AcDbEntity
  8
0
  6
Continuous
 62
     7
370
    25
100
AcDbLine
 10
0.5697342481
 20
11.2619093759
 30
0.0
 11
0.5431424269
 21
10.73627013
 31
0.0
  0
ARC
  5
7E
330
1F
100
AcDbEntity
  8
0
  6
Continuous
 62
     7
370
    25
100
AcDbCircle
 10
0.0
 20
0.0
 30
0.0
 40
10.75
100
AcDbArc
 50
87.1039047256
 51
92.8960952744
  0
LINE
  5
7F
330
1F
100
AcDbEntity
  8
0
  6
Continuous
 62
     7
370
    25
100
AcDbLine
 10
-0.5697342481
 20
11.2619093759
 30
0.0
 11
-0.5431424269
 21
10.73627013
 31
0.0
  0
SPLINE
  5
80
330
1F
100
AcDbEntity
  8
0
  6
Continuous
 62
     7
370
    25
100
AcDbSpline
210
0.0
220
0.0
230
1.0
 70
     8
 71
     4
 72
    15
 73
    10
 74
     0
 42
0.000000001
 43
0.00000001
 40
0.0
 40
0.0
 40
0.0
 40
0.0
 40
0.0
 40
0.0028020339056145
 40
0.005604067811229
 40
0.0106611581043112
 40
0.0157182483973935
 40
0.029959916154659
 40
0.0303120130717026
 40
0.0303120130717026
 40
0.0303120130717026
 40
0.0303120130717026
 40
0.0303120130717026
 10
-0.5697342480562726
 20
11.26190937590772
 30
0.0
 10
-0.5740395018146519
 20
11.3046251694164
 30
0.0
 10
-0.5866230295109104
 20
11.38942117378228
 30
0.0
 10
-0.6248802468875436
 20
11.54835868404651
 30
0.0
 10
-0.6996272224435219
 20
11.77714971651967
 30
0.0
 10
-0.8595327489328273
 20
12.16131443149066
 30
0.0
 10
-1.043889430059532
 20
12.49256776128903
 30
0.0
 10
-1.208087794728589
 20
12.74486433019094
 30
0.0
 10
-1.338394645047275
 20
12.92622197594678
 30
0.0
 10
-1.341543347686984
 20
12.93059400980004
 30
0.0
  0
ARC
  5
81
330
1F
100
AcDbEntity
  8
0
  6
Continuous
 62
     7
370
    25
100
AcDbCircle
 10
0.0
 20
0.0
 30
0.0
 40
13.0
100
AcDbArc
 50
95.9232197182
 51
99.0767802818
  0
SPLINE
  5
82
330
1F
100
AcDbEntity
  8
0
  6
Continuous
 62
     7
370
    25
100
AcDbSpline
210
0.0
220
0.0
230
1.0
 70
     8
 71
     4
 72
    15
 73
    10
 74
     0
 42
0.000000001
 43
0.00000001
 40
0.0
 40
0.0
 40
0.0
 40
0.0
 40
0.0
 40
0.0028020339056145
 40
0.005604067811229
 40
0.0106611581043112
 40
0.0157182483973935
 40
0.029959916154659
 40
0.0303120130717026
 40
0.0303120130717026
 40
0.0303120130717026
 40
0.0303120130717026
 40
0.0303120130717026
 10
-2.364475606384632
 20
11.02562719356039
 30
0.0
 10
-2.371372711477398
 20
11.06800176336753
 30
0.0
 10
-2.381164777968245
 20
11.15316527057302
 30
0.0
 10
-2.38534719829976
 20
11.31658881297302
 30
0.0
 10
-2.372362640725968
 20
11.55692992089989
 30
0.0
 10
-2.31733490761447
 20
11.96939113631193
 30
0.0
 10
-2.224994698570693
 20
12.33707230277591
 30
0.0
 10
-2.131690414548255
 20
12.62326973851342
 30
0.0
 10
-2.05276247517962
 20
12.83217366691377
 30
0.0
 10
-2.050852627607676
 20
12.83721167153656
 30
0.0
  0
LINE
  5
83
330
1F
100
AcDbEntity
  8
0
  6
Continuous
 62
     7
370
    25
100
AcDbLine
 10
-2.3644756064
 20
11.0256271936
 30
0.0
 11
-2.2541158856
 21
10.5110162008
 31
0.0
  0
ARC
  5
84
330
1F
100
AcDbEntity
  8
0
  6
Continuous
 62
     7
370
    25
100
AcDbCircle
 10
0.0
 20
0.0
 30
0.0
 40
10.75
100
AcDbArc
 50
102.1039047256
 51
107.8960952744
  0
LINE
  5
85
330
1F
100
AcDbEntity
  8
0
  6
Continuous
 62
     7
370
    25
100
AcDbLine
 10
-3.465117655
 20
10.7307110455
 30
0.0
 11
-3.3033864805
 21
10.2298649923
 31
0.0
  0
SPLINE
  5
86
330
1F
100
AcDbEntity
  8
0
  6
Continuous
 62
     7
370
    25
100
AcDbSpline
210
0.0
220
0.0
230
1.0
 70
     8
 71
     4
 72
    15
 73
    10
 74
     0
 42
0.000000001
 43
0.00000001
 40
0.0
 40
0.0
 40
0.0
 40
0.0
 40
0.0
 40
0.0028020339056145
 40
0.005604067811229
 40
0.0106611581043112
 40
0.0157182483973935
 40
0.029959916154659
 40
0.0303120130717026
 40
0.0303120130717026
 40
0.0303120130717026
 40
0.0303120130717026
 40
0.0303120130717026
 10
-3.465117655022504
 20
10.73071104547214
 30
0.0
 10
-3.480331871703164
 20
10.77085705194594
 30
0.0
 10
-3.51443344696929
 20
10.84950684590669
 30
0.0
 10
-3.592523135912895
 20
10.9931269953673
 30
0.0
 10
-3.723938646592137
 20
11.19477622161877
 30
0.0
 10
-3.97782466908538
 20
11.52446424568565
 30
0.0
 10
-4.24163421914005
 20
11.79671537181466
 30
0.0
 10
-4.465536817254157
 20
11.99791747965009
 30
0.0
 10
-4.638342382015928
 20
12.13936961891085
 30
0.0
 10
-4.642515360841982
 20
12.14277773511259
 30
0.0
  0
ARC
  5
87
330
1F
100
AcDbEntity
  8
0
  6
Continuous
 62
     7
370
    25
100
AcDbCircle
 10
0.0
 20
0.0
 30
0.0
 40
13.0
100
AcDbArc
 50
110.9232197182
 51
114.0767802818
  0
SPLINE
  5
88
330
1F
100
AcDbEntity
  8
0
  6
Continuous
 62
     7
370
    25
100
AcDbSpline
210
0.0
220
0.0
230
1.0
 70
     8
 71
     4
 72
    15
 73
    10
 74
     0
 42
0.000000001
 43
0.00000001
 40
0.0
 40
0.0
 40
0.0
 40
0.0
 40
0.0
 40
0.0028020339056145
 40
0.005604067811229
 40
0.0106611581043112
 40
0.0157182483973935
 40
0.029959916154659
 40
0.0303120130717026
 40
0.0303120130717026
 40
0.0303120130717026
 40
0.0303120130717026
 40
0.0303120130717026
 10
-5.137550355731114
 20
10.03796673868237
 30
0.0
 10
-5.15517979336096
 20
10.07711232788289
 30
0.0
 10
-5.186680140889714
 20
10.15683958565128
 30
0.0
 10
-5.233017173895562
 20
10.31361211584267
 30
0.0
 10
-5.282679910444613
 20
10.54912444990049
 30
0.0
 10
-5.336280019784843
 20
10.96177361554763
 30
0.0
 10
-5.342249115470918
 20
11.34082575480456
 30
0.0
 10
-5.326197444858608
 20
11.64142017509579
 30
0.0
 10
-5.304027225073409
 20
11.86363392865023
 30
0.0
 10
-5.303486385525084
 20
11.86899457235321
 30
0.0
  0
LINE
  5
89
330
1F
100
AcDbEntity
  8
0
  6
Continuous
 62
     7
370
    25
100
AcDbLine
 10
-5.1375503557
 20
10.0379667387
 30
0.0
 11
-4.8977599255
 21
9.5694538879
 31
0.0
  0
ARC
  5
8A
330
1F
100
AcDbEntity
  8
0
  6
Continuous
 62
     7
370
    25
100
AcDbCircle
 10
0.0
 20
0.0
 30
0.0
 40
10.75
100
AcDbArc
 50
117.1039047256
 51
122.8960952744
  0
LINE
  5
8B
330
1F
100
AcDbEntity
  8
0
  6
Continuous
 62
     7
370
    25
100
AcDbLine
 10
-6.1243590202
 20
9.4682324906
 30
0.0
 11
-5.8385102045
 21
9.026311461
 31
0.0
  0
SPLINE
  5
8C
330
1F
100
AcDbEntity
  8
0
  6
Continuous
 62
     7
370
    25
100
AcDbSpline
210
0.0
220
0.0
230
1.0
 70
     8
 71
     4
 72
    15
 73
    10
 74
     0
 42
0.000000001
 43
0.00000001
 40
0.0
 40
0.0
 40
0.0
 40
0.0
 40
0.0
 40
0.0028020339056145
 40
0.005604067811229
 40
0.0106611581043112
 40
0.0157182483973935
 40
0.029959916154659
 40
0.0303120130717026
 40
0.0303120130717026
 40
0.0303120130717026
 40
0.0303120130717026
 40
0.0303120130717026
 10
-6.124359020176627
 20
9.468232490626095
 30
0.0
 10
-6.149445376055462
 20
9.503072826068232
 30
0.0
 10
-6.202741032892588
 20
9.57021655614037
 30
0.0
 10
-6.31534151015097
 20
9.688731868955127
 30
0.0
 10
-6.494469806075085
 20
9.849497227456968
 30
0.0
 10
-6.825034411705842
 20
10.1022408666148
 30
0.0
 10
-7.150318645818143
 20
10.29693632474502
 30
0.0
 10
-7.418666885332362
 20
10.4333323803672
 30
0.0
 10
-7.622194750873403
 20
10.52523928360295
 30
0.0
 10
-7.627107624274981
 20
10.52745122466622
 30
0.0
  0
ARC
  5
8D
330
1F
100
AcDbEntity
  8
0
  6
Continuous
 62
     7
370
    25
100
AcDbCircle
 10
0.0
 20
0.0
 30
0.0
 40
13.0
100
AcDbArc
 50
125.9232197182
 51
129.0767802818
  0
SPLINE
  5
8E
330
1F
100
AcDbEntity
  8
0
  6
Continuous
 62
     7
370
    25
100
AcDbSpline
210
0.0
220
0.0
230
1.0
 70
     8
 71
     4
 72
    15
 73
    10
 74
     0
 42
0.000000001
 43
0.00000001
 40
0.0
 40
0.0
 40
0.0
 40
0.0
 40
0.0
 40
0.0028020339056145
 40
0.005604067811229
 40
0.0106611581043112
 40
0.0157182483973935
 40
0.029959916154659
 40
0.0303120130717026
 40
0.0303120130717026
 40
0.0303120130717026
 40
0.0303120130717026
 40
0.0303120130717026
 10
-7.560509538537913
 20
8.366235439087502
 30
0.0
 10
-7.587669891664388
 20
8.399484340468534
 30
0.0
 10
-7.63873182360375
 20
8.468342067938446
 30
0.0
 10
-7.724065677060151
 20
8.607779797067534
 30
0.0
 10
-7.832991274307779
 20
8.822413580892798
 30
0.0
 10
-7.991566467226568
 20
9.207129338071173
 30
0.0
 10
-8.095438083635887
 20
9.571720673243966
 30
0.0
 10
-8.157732921259292
 20
9.866227065101835
 30
0.0
 10
-8.193831284897872
 20
10.08660714373122
 30
0.0
 10
-8.194696310694606
 20
10.09192510750491
 30
0.0
  0
LINE
  5
8F
330
1F
100
AcDbEntity
  8
0
  6
Continuous
 62
     7
370
    25
100
AcDbLine
 10
-7.5605095385
 20
8.3662354391
 30
0.0
 11
-7.2076297204
 21
7.9757491067
 31
0.0
  0
ARC
  5
90
330
1F
100
AcDbEntity
  8
0
  6
Continuous
 62
     7
370
    25
100
AcDbCircle
 10
0.0
 20
0.0
 30
0.0
 40
10.75
100
AcDbArc
 50
132.1039047256
 51
137.8960952744
  0
LINE
  5
91
330
1F
100
AcDbEntity
  8
0
  6
Continuous
 62
     7
370
    25
100
AcDbLine
 10
-8.3662354391
 20
7.5605095385
 30
0.0
 11
-7.9757491067
 21
7.2076297204
 31
0.0
  0
SPLINE
  5
92
330
1F
100
AcDbEntity
  8
0
  6
Continuous
 62
     7
370
    25
100
AcDbSpline
210
0.0
220
0.0
230
1.0
 70
     8
 71
     4
 72
    15
 73
    10
 74
     0
 42
0.000000001
 43
0.00000001
 40
0.0
 40
0.0
 40
0.0
 40
0.0
 40
0.0
 40
0.0028020339056145
 40
0.005604067811229
 40
0.0106611581043112
 40
0.0157182483973935
 40
0.029959916154659
 40
0.0303120130717026
 40
0.0303120130717026
 40
0.0303120130717026
 40
0.0303120130717026
 40
0.0303120130717026
 10
-8.36623543908753
 20
7.560509538537883
 30
0.0
 10
-8.399484340468561
 20
7.587669891664357
 30
0.0
 10
-8.46834206793847
 20
7.638731823603721
 30
0.0
 10
-8.607779797067563
 20
7.72406567706012
 30
0.0
 10
-8.822413580892825
 20
7.83299127430775
 30
0.0
 10
-9.207129338071201
 20
7.991566467226537
 30
0.0
 10
-9.571720673243995
 20
8.095438083635853
 30
0.0
 10
-9.866227065101867
 20
8.15773292125926
 30
0.0
 10
-10.08660714373125
 20
8.19383128489784
 30
0.0
 10
-10.09192510750494
 20
8.194696310694574
 30
0.0
  0
ARC
  5
93
330
1F
100
AcDbEntity
  8
0
  6
Continuous
 62
     7
370
    25
100
AcDbCircle
 10
0.0
 20
0.0
 30
0.0
 40
13.0
100
AcDbArc
 50
140.9232197182
 51
144.0767802818
  0
SPLINE
  5
94
330
1F
100
AcDbEntity
  8
0
  6
Continuous
 62
     7
370
    25
100
AcDbSpline
210
0.0
220
0.0
230
1.0
 70
     8
 71
     4
 72
    15
 73
    10
 74
     0
 42
0.000000001
 43
0.00000001
 40
0.0
 40
0.0
 40
0.0
 40
0.0
 40
0.0
 40
0.0028020339056145
 40
0.005604067811229
 40
0.0106611581043112
 40
0.0157182483973935
 40
0.029959916154659
 40
0.0303120130717026
 40
0.0303120130717026
 40
0.0303120130717026
 40
0.0303120130717026
 40
0.0303120130717026
 10
-9.468232490626116
 20
6.124359020176594
 30
0.0
 10
-9.503072826068253
 20
6.14944537605543
 30
0.0
 10
-9.570216556140393
 20
6.202741032892554
 30
0.0
 10
-9.688731868955152
 20
6.315341510150938
 30
0.0
 10
-9.849497227456991
 20
6.494469806075051
 30
0.0
 10
-10.10224086661482
 20
6.825034411705807
 30
0.0
 10
-10.29693632474505
 20
7.150318645818109
 30
0.0
 10
-10.43333238036722
 20
7.418666885332327
 30
0.0
 10
-10.52523928360298
 20
7.622194750873367
 30
0.0
 10
-10.52745122466625
 20
7.627107624274945
 30
0.0
  0
LINE
  5
95
330
1F
100
AcDbEntity
  8
0
  6
Continuous
 62
     7
370
    25
100
AcDbLine
 10
-9.4682324906
 20
6.1243590202
 30
0.0
 11
-9.026311461
 21
5.8385102045
 31
0.0
  0
ARC
  5
96
330
1F
100
AcDbEntity
  8
0
  6
Continuous
 62
     7
370
    25
100
AcDbCircle
 10
0.0
 20
0.0
 30
0.0
 40
10.75
100
AcDbArc
 50
147.1039047256
 51
152.8960952744
  0
LINE
  5
97
330
1F
100
AcDbEntity
  8
0
  6
Continuous
 62
     7
370
    25
100
AcDbLine
 10
-10.0379667387
 20
5.1375503557
 30
0.0
 11
-9.5694538879
 21
4.8977599255
 31
0.0
  0
SPLINE
  5
98
330
1F
100
AcDbEntity
  8
0
  6
Continuous
 62
     7
370
    25
100
AcDbSpline
210
0.0
220
0.0
230
1.0
 70
     8
 71
     4
 72
    15
 73
    10
 74
     0
 42
0.000000001
 43
0.00000001
 40
0.0
 40
0.0
 40
0.0
 40
0.0
 40
0.0
 40
0.0028020339056145
 40
0.005604067811229
 40
0.0106611581043112
 40
0.0157182483973935
 40
0.029959916154659
 40
0.0303120130717026
 40
0.0303120130717026
 40
0.0303120130717026
 40
0.0303120130717026
 40
0.0303120130717026
 10
-10.03796673868239
 20
5.137550355731079
 30
0.0
 10
-10.0771123278829
 20
5.155179793360925
 30
0.0
 10
-10.1568395856513
 20
5.186680140889679
 30
0.0
 10
-10.31361211584269
 20
5.233017173895526
 30
0.0
 10
-10.54912444990051
 20
5.282679910444577
 30
0.0
 10
-10.96177361554765
 20
5.336280019784804
 30
0.0
 10
-11.34082575480458
 20
5.342249115470878
 30
0.0
 10
-11.64142017509581
 20
5.326197444858566
 30
0.0
 10
-11.86363392865025
 20
5.304027225073368
 30
0.0
 10
-11.86899457235323
 20
5.303486385525043
 30
0.0
  0
ARC
  5
99
330
1F
100
AcDbEntity
  8
0
  6
Continuous
 62
     7
370
    25
100
AcDbCircle
 10
0.0
 20
0.0
 30
0.0
 40
13.0
100
AcDbArc
 50
155.9232197182
 51
159.0767802818
  0
SPLINE
  5
9A
330
1F
100
AcDbEntity
  8
0
  6
Continuous
 62
     7
370
    25
100
AcDbSpline
210
0.0
220
0.0
230
1.0
 70
     8
 71
     4
 72
    15
 73
    10
 74
     0
 42
0.000000001
 43
0.00000001
 40
0.0
 40
0.0
 40
0.0
 40
0.0
 40
0.0
 40
0.0028020339056145
 40
0.005604067811229
 40
0.0106611581043112
 40
0.0157182483973935
 40
0.029959916154659
 40
0.0303120130717026
 40
0.0303120130717026
 40
0.0303120130717026
 40
0.0303120130717026
 40
0.0303120130717026
 10
-10.73071104547215
 20
3.465117655022466
 30
0.0
 10
-10.77085705194595
 20
3.480331871703126
 30
0.0
 10
-10.84950684590671
 20
3.514433446969252
 30
0.0
 10
-10.99312699536731
 20
3.592523135912857
 30
0.0
 10
-11.19477622161878
 20
3.723938646592098
 30
0.0
 10
-11.52446424568566
 20
3.97782466908534
 30
0.0
 10
-11.79671537181468
 20
4.241634219140008
 30
0.0
 10
-11.99791747965011
 20
4.465536817254114
 30
0.0
 10
-12.13936961891086
 20
4.638342382015886
 30
0.0
 10
-12.14277773511261
 20
4.642515360841941
 30
0.0
  0
LINE
  5
9B
330
1F
100
AcDbEntity
  8
0
  6
Continuous
 62
     7
370
    25
100
AcDbLine
 10
-10.7307110455
 20
3.465117655
 30
0.0
 11
-10.2298649923
 21
3.3033864805
 31
0.0
  0
ARC
  5
9C
330
1F
100
AcDbEntity
  8
0
  6
Continuous
 62
     7
370
    25
100
AcDbCircle
 10
0.0
 20
0.0
 30
0.0
 40
10.75
100
AcDbArc
 50
162.1039047256
 51
167.8960952744
  0
LINE
  5
9D
330
1F
100
AcDbEntity
  8
0
  6
Continuous
 62
     7
370
    25
100
AcDbLine
 10
-11.0256271936
 20
2.3644756064
 30
0.0
 11
-10.5110162008
 21
2.2541158856
 31
0.0
  0
SPLINE
  5
9E
330
1F
100
AcDbEntity
  8
0
  6
Continuous
 62
     7
370
    25
100
AcDbSpline
210
0.0
220
0.0
230
1.0
 70
     8
 71
     4
 72
    15
 73
    10
 74
     0
 42
0.000000001
 43
0.00000001
 40
0.0
 40
0.0
 40
0.0
 40
0.0
 40
0.0
 40
0.0028020339056145
 40
0.005604067811229
 40
0.0106611581043112
 40
0.0157182483973935
 40
0.029959916154659
 40
0.0303120130717026
 40
0.0303120130717026
 40
0.0303120130717026
 40
0.0303120130717026
 40
0.0303120130717026
 10
-11.0256271935604
 20
2.364475606384593
 30
0.0
 10
-11.06800176336754
 20
2.37137271147736
 30
0.0
 10
-11.15316527057303
 20
2.381164777968206
 30
0.0
 10
-11.31658881297303
 20
2.385347198299721
 30
0.0
 10
-11.5569299208999
 20
2.372362640725927
 30
0.0
 10
-11.96939113631193
 20
2.317334907614427
 30
0.0
 10
-12.33707230277592
 20
2.22499469857065
 30
0.0
 10
-12.62326973851343
 20
2.13169041454821
 30
0.0
 10
-12.83217366691378
 20
2.052762475179575
 30
0.0
 10
-12.83721167153657
 20
2.050852627607631
 30
0.0
  0
ARC
  5
9F
330
1F
100
AcDbEntity
  8
0
  6
Continuous
 62
     7
370
    25
100
AcDbCircle
 10
0.0
 20
0.0
 30
0.0
 40
13.0
100
AcDbArc
 50
170.9232197182
 51
174.0767802818
  0
SPLINE
  5
A0
330
1F
100
AcDbEntity
  8
0
  6
Continuous
 62
     7
370
    25
100
AcDbSpline
210
0.0
220
0.0
230
1.0
 70
     8
 71
     4
 72
    15
 73
    10
 74
     0
 42
0.000000001
 43
0.00000001
 40
0.0
 40
0.0
 40
0.0
 40
0.0
 40
0.0
 40
0.0028020339056145
 40
0.005604067811229
 40
0.0106611581043112
 40
0.0157182483973935
 40
0.029959916154659
 40
0.0303120130717026
 40
0.0303120130717026
 40
0.0303120130717026
 40
0.0303120130717026
 40
0.0303120130717026
 10
-11.26190937590772
 20
0.5697342480562332
 30
0.0
 10
-11.3046251694164
 20
0.5740395018146125
 30
0.0
 10
-11.38942117378228
 20
0.5866230295108706
 30
0.0
 10
-11.54835868404651
 20
0.6248802468875032
 30
0.0
 10
-11.77714971651968
 20
0.6996272224434809
 30
0.0
 10
-12.16131443149066
 20
0.8595327489327848
 30
0.0
 10
-12.49256776128904
 20
1.043889430059489
 30
0.0
 10
-12.74486433019095
 20
1.208087794728545
 30
0.0
 10
-12.92622197594679
 20
1.338394645047231
 30
0.0
 10
-12.93059400980004
 20
1.34154334768694
 30
0.0
  0
LINE
  5
A1
330
1F
100
AcDbEntity
  8
0
  6
Continuous
 62
     7
370
    25
100
AcDbLine
 10
-11.2619093759
 20
0.5697342481
 30
0.0
 11
-10.73627013
 21
0.5431424269
 31
0.0
  0
ARC
  5
A2
330
1F
100
AcDbEntity
  8
0
  6
Continuous
 62
     7
370
    25
100
AcDbCircle
 10
0.0
 20
0.0
 30
0.0
 40
10.75
100
AcDbArc
 50
177.1039047256
 51
182.8960952744
  0
LINE
  5
A3
330
1F
100
AcDbEntity
  8
0
  6
Continuous
 62
     7
370
    25
100
AcDbLine
 10
-11.2619093759
 20
-0.5697342481
 30
0.0
 11
-10.73627013
 21
-0.5431424269
 31
0.0
  0
SPLINE
  5
A4
330
1F
100
AcDbEntity
  8
0
  6
Continuous
 62
     7
370
    25
100
AcDbSpline
210
0.0
220
0.0
230
1.0
 70
     8
 71
     4
 72
    15
 73
    10
 74
     0
 42
0.000000001
 43
0.00000001
 40
0.0
 40
0.0
 40
0.0
 40
0.0
 40
0.0
 40
0.0028020339056145
 40
0.005604067811229
 40
0.0106611581043112
 40
0.0157182483973935
 40
0.029959916154659
 40
0.0303120130717026
 40
0.0303120130717026
 40
0.0303120130717026
 40
0.0303120130717026
 40
0.0303120130717026
 10
-11.26190937590772
 20
-0.5697342480563119
 30
0.0
 10
-11.3046251694164
 20
-0.5740395018146914
 30
0.0
 10
-11.38942117378228
 20
-0.5866230295109502
 30
0.0
 10
-11.54835868404651
 20
-0.6248802468875839
 30
0.0
 10
-11.77714971651967
 20
-0.699627222443563
 30
0.0
 10
-12.16131443149066
 20
-0.8595327489328698
 30
0.0
 10
-12.49256776128903
 20
-1.043889430059575
 30
0.0
 10
-12.74486433019094
 20
-1.208087794728633
 30
0.0
 10
-12.92622197594678
 20
-1.33839464504732
 30
0.0
 10
-12.93059400980003
 20
-1.341543347687029
 30
0.0
  0
ARC
  5
A5
330
1F
100
AcDbEntity
  8
0
  6
Continuous
 62
     7
370
    25
100
AcDbCircle
 10
0.0
 20
0.0
 30
0.0
 40
13.0
100
AcDbArc
 50
185.9232197182
 51
189.0767802818
  0
SPLINE
  5
A6
330
1F
100
AcDbEntity
  8
0
  6
Continuous
 62
     7
370
    25
100
AcDbSpline
210
0.0
220
0.0
230
1.0
 70
     8
 71
     4
 72
    15
 73
    10
 74
     0
 42
0.000000001
 43
0.00000001
 40
0.0
 40
0.0
 40
0.0
 40
0.0
 40
0.0
 40
0.0028020339056145
 40
0.005604067811229
 40
0.0106611581043112
 40
0.0157182483973935
 40
0.029959916154659
 40
0.0303120130717026
 40
0.0303120130717026
 40
0.0303120130717026
 40
0.0303120130717026
 40
0.0303120130717026
 10
-11.02562719356039
 20
-2.36447560638467
 30
0.0
 10
-11.06800176336752
 20
-2.371372711477437
 30
0.0
 10
-11.15316527057301
 20
-2.381164777968283
 30
0.0
 10
-11.31658881297302
 20
-2.3853471982998
 30
0.0
 10
-11.55692992089989
 20
-2.372362640726008
 30
0.0
 10
-11.96939113631192
 20
-2.317334907614511
 30
0.0
 10
-12.3370723027759
 20
-2.224994698570736
 30
0.0
 10
-12.62326973851342
 20
-2.131690414548299
 30
0.0
 10
-12.83217366691377
 20
-2.052762475179664
 30
0.0
 10
-12.83721167153655
 20
-2.05085262760772
 30
0.0
  0
LINE
  5
A7
330
1F
100
AcDbEntity
  8
0
  6
Continuous
 62
     7
370
    25
100
AcDbLine
 10
-11.0256271936
 20
-2.3644756064
 30
0.0
 11
-10.5110162008
 21
-2.2541158856
 31
0.0
  0
ARC
  5
A8
330
1F
100
AcDbEntity
  8
0
  6
Continuous
 62
     7
370
    25
100
AcDbCircle
 10
0.0
 20
0.0
 30
0.0
 40
10.75
100
AcDbArc
 50
192.1039047256
 51
197.8960952744
  0
LINE
  5
A9
330
1F
100
AcDbEntity
  8
0
  6
Continuous
 62
     7
370
    25
100
AcDbLine
 10
-10.7307110455
 20
-3.465117655
 30
0.0
 11
-10.2298649923
 21
-3.3033864805
 31
0.0
  0
SPLINE
  5
AA
330
1F
100
AcDbEntity
  8
0
  6
Continuous
 62
     7
370
    25
100
AcDbSpline
210
0.0
220
0.0
230
1.0
 70
     8
 71
     4
 72
    15
 73
    10
 74
     0
 42
0.000000001
 43
0.00000001
 40
0.0
 40
0.0
 40
0.0
 40
0.0
 40
0.0
 40
0.0028020339056145
 40
0.005604067811229
 40
0.0106611581043112
 40
0.0157182483973935
 40
0.029959916154659
 40
0.0303120130717026
 40
0.0303120130717026
 40
0.0303120130717026
 40
0.0303120130717026
 40
0.0303120130717026
 10
-10.73071104547213
 20
-3.465117655022542
 30
0.0
 10
-10.77085705194593
 20
-3.480331871703202
 30
0.0
 10
-10.84950684590668
 20
-3.514433446969328
 30
0.0
 10
-10.99312699536729
 20
-3.592523135912934
 30
0.0
 10
-11.19477622161876
 20
-3.723938646592176
 30
0.0
 10
-11.52446424568563
 20
-3.977824669085421
 30
0.0
 10
-11.79671537181465
 20
-4.24163421914009
 30
0.0
 10
-11.99791747965008
 20
-4.465536817254199
 30
0.0
 10
-12.13936961891083
 20
-4.638342382015971
 30
0.0
 10
-12.14277773511258
 20
-4.642515360842023
 30
0.0
  0
ARC
  5
AB
330
1F
100
AcDbEntity
  8
0
  6
Continuous
 62
     7
370
    25
100
AcDbCircle
 10
0.0
 20
0.0
 30
0.0
 40
13.00000000000001
100
AcDbArc
 50
200.9232197182
 51
204.0767802818
  0
SPLINE
  5
AC
330
1F
100
AcDbEntity
  8
0
  6
Continuous
 62
     7
370
    25
100
AcDbSpline
210
0.0
220
0.0
230
1.0
 70
     8
 71
     4
 72
    15
 73
    10
 74
     0
 42
0.000000001
 43
0.00000001
 40
0.0
 40
0.0
 40
0.0
 40
0.0
 40
0.0
 40
0.0028020339056145
 40
0.005604067811229
 40
0.0106611581043112
 40
0.0157182483973935
 40
0.029959916154659
 40
0.0303120130717027
 40
0.0303120130717027
 40
0.0303120130717027
 40
0.0303120130717027
 40
0.0303120130717027
 10
-10.03796673868235
 20
-5.137550355731149
 30
0.0
 10
-10.07711232788287
 20
-5.155179793360996
 30
0.0
 10
-10.15683958565127
 20
-5.18668014088975
 30
0.0
 10
-10.31361211584266
 20
-5.2330171738956
 30
0.0
 10
-10.54912444990048
 20
-5.28267991044465
 30
0.0
 10
-10.96177361554761
 20
-5.336280019784882
 30
0.0
 10
-11.34082575480454
 20
-5.342249115470958
 30
0.0
 10
-11.64142017509578
 20
-5.326197444858647
 30
0.0
 10
-11.86363392865022
 20
-5.30402722507345
 30
0.0
 10
-11.86899457235319
 20
-5.303486385525126
 30
0.0
  0
LINE
  5
AD
330
1F
100
AcDbEntity
  8
0
  6
Continuous
 62
     7
370
    25
100
AcDbLine
 10
-10.0379667387
 20
-5.1375503557
 30
0.0
 11
-9.5694538879
 21
-4.8977599255
 31
0.0
  0
ARC
  5
AE
330
1F
100
AcDbEntity
  8
0
  6
Continuous
 62
     7
370
    25
100
AcDbCircle
 10
0.0
 20
0.0
 30
0.0
 40
10.75
100
AcDbArc
 50
207.1039047256
 51
212.8960952744
  0
LINE
  5
AF
330
1F
100
AcDbEntity
  8
0
  6
Continuous
 62
     7
370
    25
100
AcDbLine
 10
-9.4682324906
 20
-6.1243590202
 30
0.0
 11
-9.026311461
 21
-5.8385102045
 31
0.0
  0
SPLINE
  5
B0
330
1F
100
AcDbEntity
  8
0
  6
Continuous
 62
     7
370
    25
100
AcDbSpline
210
0.0
220
0.0
230
1.0
 70
     8
 71
     4
 72
    15
 73
    10
 74
     0
 42
0.000000001
 43
0.00000001
 40
0.0
 40
0.0
 40
0.0
 40
0.0
 40
0.0
 40
0.0028020339056145
 40
0.005604067811229
 40
0.0106611581043112
 40
0.0157182483973935
 40
0.029959916154659
 40
0.0303120130717026
 40
0.0303120130717026
 40
0.0303120130717026
 40
0.0303120130717026
 40
0.0303120130717026
 10
-9.468232490626075
 20
-6.124359020176661
 30
0.0
 10
-9.503072826068212
 20
-6.149445376055497
 30
0.0
 10
-9.57021655614035
 20
-6.202741032892622
 30
0.0
 10
-9.688731868955108
 20
-6.315341510151006
 30
0.0
 10
-9.849497227456949
 20
-6.494469806075121
 30
0.0
 10
-10.10224086661478
 20
-6.82503441170588
 30
0.0
 10
-10.296936324745
 20
-7.150318645818182
 30
0.0
 10
-10.43333238036717
 20
-7.4186668853324
 30
0.0
 10
-10.52523928360293
 20
-7.62219475087344
 30
0.0
 10
-10.52745122466619
 20
-7.627107624275017
 30
0.0
  0
ARC
  5
B1
330
1F
100
AcDbEntity
  8
0
  6
Continuous
 62
     7
370
    25
100
AcDbCircle
 10
0.0
 20
0.0
 30
0.0
 40
13.0
100
AcDbArc
 50
215.9232197182
 51
219.0767802818
  0
SPLINE
  5
B2
330
1F
100
AcDbEntity
  8
0
  6
Continuous
 62
     7
370
    25
100
AcDbSpline
210
0.0
220
0.0
230
1.0
 70
     8
 71
     4
 72
    15
 73
    10
 74
     0
 42
0.000000001
 43
0.00000001
 40
0.0
 40
0.0
 40
0.0
 40
0.0
 40
0.0
 40
0.0028020339056145
 40
0.005604067811229
 40
0.0106611581043112
 40
0.0157182483973935
 40
0.029959916154659
 40
0.0303120130717026
 40
0.0303120130717026
 40
0.0303120130717026
 40
0.0303120130717026
 40
0.0303120130717026
 10
-8.366235439087475
 20
-7.560509538537942
 30
0.0
 10
-8.399484340468508
 20
-7.587669891664416
 30
0.0
 10
-8.46834206793842
 20
-7.63873182360378
 30
0.0
 10
-8.607779797067506
 20
-7.724065677060181
 30
0.0
 10
-8.82241358089277
 20
-7.83299127430781
 30
0.0
 10
-9.207129338071145
 20
-7.991566467226601
 30
0.0
 10
-9.571720673243936
 20
-8.09543808363592
 30
0.0
 10
-9.866227065101807
 20
-8.157732921259326
 30
0.0
 10
-10.08660714373119
 20
-8.193831284897907
 30
0.0
 10
-10.09192510750488
 20
-8.194696310694642
 30
0.0
  0
LINE
  5
B3
330
1F
100
AcDbEntity
  8
0
  6
Continuous
 62
     7
370
    25
100
AcDbLine
 10
-8.3662354391
 20
-7.5605095385
 30
0.0
 11
-7.9757491067
 21
-7.2076297204
 31
0.0
  0
ARC
  5
B4
330
1F
100
AcDbEntity
  8
0
  6
Continuous
 62
     7
370
    25
100
AcDbCircle
 10
0.0
 20
0.0
 30
0.0
 40
10.75
100
AcDbArc
 50
222.1039047256
 51
227.8960952744
  0
LINE
  5
B5
330
1F
100
AcDbEntity
  8
0
  6
Continuous
 62
     7
370
    25
100
AcDbLine
 10
-7.5605095385
 20
-8.3662354391
 30
0.0
 11
-7.2076297204
 21
-7.9757491067
 31
0.0
  0
SPLINE
  5
B6
330
1F
100
AcDbEntity
  8
0
  6
Continuous
 62
     7
370
    25
100
AcDbSpline
210
0.0
220
0.0
230
1.0
 70
     8
 71
     4
 72
    15
 73
    10
 74
     0
 42
0.000000001
 43
0.00000001
 40
0.0
 40
0.0
 40
0.0
 40
0.0
 40
0.0
 40
0.0028020339056145
 40
0.005604067811229
 40
0.0106611581043112
 40
0.0157182483973935
 40
0.029959916154659
 40
0.0303120130717026
 40
0.0303120130717026
 40
0.0303120130717026
 40
0.0303120130717026
 40
0.0303120130717026
 10
-7.560509538537855
 20
-8.366235439087555
 30
0.0
 10
-7.587669891664328
 20
-8.399484340468588
 30
0.0
 10
-7.638731823603693
 20
-8.468342067938497
 30
0.0
 10
-7.72406567706009
 20
-8.607779797067588
 30
0.0
 10
-7.832991274307717
 20
-8.822413580892853
 30
0.0
 10
-7.991566467226504
 20
-9.207129338071226
 30
0.0
 10
-8.095438083635818
 20
-9.57172067324402
 30
0.0
 10
-8.157732921259225
 20
-9.86622706510189
 30
0.0
 10
-8.193831284897803
 20
-10.08660714373128
 30
0.0
 10
-8.194696310694537
 20
-10.09192510750497
 30
0.0
  0
ARC
  5
B7
330
1F
100
AcDbEntity
  8
0
  6
Continuous
 62
     7
370
    25
100
AcDbCircle
 10
0.0
 20
0.0
 30
0.0
 40
13.0
100
AcDbArc
 50
230.9232197182
 51
234.0767802818
  0
SPLINE
  5
B8
330
1F
100
AcDbEntity
  8
0
  6
Continuous
 62
     7
370
    25
100
AcDbSpline
210
0.0
220
0.0
230
1.0
 70
     8
 71
     4
 72
    15
 73
    10
 74
     0
 42
0.000000001
 43
0.00000001
 40
0.0
 40
0.0
 40
0.0
 40
0.0
 40
0.0
 40
0.0028020339056145
 40
0.005604067811229
 40
0.0106611581043112
 40
0.0157182483973935
 40
0.029959916154659
 40
0.0303120130717026
 40
0.0303120130717026
 40
0.0303120130717026
 40
0.0303120130717026
 40
0.0303120130717026
 10
-6.124359020176561
 20
-9.46823249062614
 30
0.0
 10
-6.149445376055396
 20
-9.503072826068276
 30
0.0
 10
-6.20274103289252
 20
-9.570216556140414
 30
0.0
 10
-6.315341510150904
 20
-9.688731868955173
 30
0.0
 10
-6.494469806075016
 20
-9.849497227457015
 30
0.0
 10
-6.825034411705771
 20
-10.10224086661485
 30
0.0
 10
-7.150318645818071
 20
-10.29693632474507
 30
0.0
 10
-7.418666885332289
 20
-10.43333238036725
 30
0.0
 10
-7.622194750873327
 20
-10.52523928360301
 30
0.0
 10
-7.627107624274904
 20
-10.52745122466628
 30
0.0
  0
LINE
  5
B9
330
1F
100
AcDbEntity
  8
0
  6
Continuous
 62
     7
370
    25
100
AcDbLine
 10
-6.1243590202
 20
-9.4682324906
 30
0.0
 11
-5.8385102045
 21
-9.026311461
 31
0.0
  0
ARC
  5
BA
330
1F
100
AcDbEntity
  8
0
  6
Continuous
 62
     7
370
    25
100
AcDbCircle
 10
0.0
 20
0.0
 30
0.0
 40
10.75
100
AcDbArc
 50
237.1039047256
 51
242.8960952744
  0
LINE
  5
BB
330
1F
100
AcDbEntity
  8
0
  6
Continuous
 62
     7
370
    25
100
AcDbLine
 10
-5.1375503557
 20
-10.0379667387
 30
0.0
 11
-4.8977599255
 21
-9.5694538879
 31
0.0
  0
SPLINE
  5
BC
330
1F
100
AcDbEntity
  8
0
  6
Continuous
 62
     7
370
    25
100
AcDbSpline
210
0.0
220
0.0
230
1.0
 70
     8
 71
     4
 72
    15
 73
    10
 74
     0
 42
0.000000001
 43
0.00000001
 40
0.0
 40
0.0
 40
0.0
 40
0.0
 40
0.0
 40
0.0028020339056145
 40
0.005604067811229
 40
0.0106611581043112
 40
0.0157182483973935
 40
0.029959916154659
 40
0.0303120130717026
 40
0.0303120130717026
 40
0.0303120130717026
 40
0.0303120130717026
 40
0.0303120130717026
 10
-5.137550355731043
 20
-10.0379667386824
 30
0.0
 10
-5.155179793360889
 20
-10.07711232788292
 30
0.0
 10
-5.186680140889644
 20
-10.15683958565132
 30
0.0
 10
-5.23301717389549
 20
-10.31361211584271
 30
0.0
 10
-5.282679910444538
 20
-10.54912444990053
 30
0.0
 10
-5.336280019784765
 20
-10.96177361554766
 30
0.0
 10
-5.342249115470838
 20
-11.34082575480459
 30
0.0
 10
-5.326197444858527
 20
-11.64142017509583
 30
0.0
 10
-5.304027225073328
 20
-11.86363392865027
 30
0.0
 10
-5.303486385525003
 20
-11.86899457235324
 30
0.0
  0
ARC
  5
BD
330
1F
100
AcDbEntity
  8
0
  6
Continuous
 62
     7
370
    25
100
AcDbCircle
 10
0.0
 20
0.0
 30
0.0
 40
13.0
100
AcDbArc
 50
245.9232197182
 51
249.0767802818
  0
SPLINE
  5
BE
330
1F
100
AcDbEntity
  8
0
  6
Continuous
 62
     7
370
    25
100
AcDbSpline
210
0.0
220
0.0
230
1.0
 70
     8
 71
     4
 72
    15
 73
    10
 74
     0
 42
0.000000001
 43
0.00000001
 40
0.0
 40
0.0
 40
0.0
 40
0.0
 40
0.0
 40
0.0028020339056145
 40
0.005604067811229
 40
0.0106611581043112
 40
0.0157182483973935
 40
0.029959916154659
 40
0.0303120130717026
 40
0.0303120130717026
 40
0.0303120130717026
 40
0.0303120130717026
 40
0.0303120130717026
 10
-3.465117655022429
 20
-10.73071104547216
 30
0.0
 10
-3.480331871703088
 20
-10.77085705194596
 30
0.0
 10
-3.514433446969214
 20
-10.84950684590672
 30
0.0
 10
-3.592523135912818
 20
-10.99312699536732
 30
0.0
 10
-3.723938646592058
 20
-11.1947762216188
 30
0.0
 10
-3.9778246690853
 20
-11.52446424568567
 30
0.0
 10
-4.241634219139966
 20
-11.79671537181469
 30
0.0
 10
-4.465536817254073
 20
-11.99791747965013
 30
0.0
 10
-4.638342382015843
 20
-12.13936961891088
 30
0.0
 10
-4.642515360841897
 20
-12.14277773511263
 30
0.0
  0
LINE
  5
BF
330
1F
100
AcDbEntity
  8
0
  6
Continuous
 62
     7
370
    25
100
AcDbLine
 10
-3.465117655
 20
-10.7307110455
 30
0.0
 11
-3.3033864805
 21
-10.2298649923
 31
0.0
  0
ARC
  5
C0
330
1F
100
AcDbEntity
  8
0
  6
Continuous
 62
     7
370
    25
100
AcDbCircle
 10
0.0
 20
0.0
 30
0.0
 40
10.75
100
AcDbArc
 50
252.1039047256
 51
257.8960952744
  0
LINE
  5
C1
330
1F
100
AcDbEntity
  8
0
  6
Continuous
 62
     7
370
    25
100
AcDbLine
 10
-2.3644756064
 20
-11.0256271936
 30
0.0
 11
-2.2541158856
 21
-10.5110162008
 31
0.0
  0
SPLINE
  5
C2
330
1F
100
AcDbEntity
  8
0
  6
Continuous
 62
     7
370
    25
100
AcDbSpline
210
0.0
220
0.0
230
1.0
 70
     8
 71
     4
 72
    15
 73
    10
 74
     0
 42
0.000000001
 43
0.00000001
 40
0.0
 40
0.0
 40
0.0
 40
0.0
 40
0.0
 40
0.0028020339056145
 40
0.005604067811229
 40
0.0106611581043112
 40
0.0157182483973935
 40
0.029959916154659
 40
0.0303120130717026
 40
0.0303120130717026
 40
0.0303120130717026
 40
0.0303120130717026
 40
0.0303120130717026
 10
-2.364475606384555
 20
-11.02562719356041
 30
0.0
 10
-2.371372711477321
 20
-11.06800176336755
 30
0.0
 10
-2.381164777968167
 20
-11.15316527057304
 30
0.0
 10
-2.385347198299681
 20
-11.31658881297304
 30
0.0
 10
-2.372362640725887
 20
-11.55692992089991
 30
0.0
 10
-2.317334907614386
 20
-11.96939113631194
 30
0.0
 10
-2.224994698570607
 20
-12.33707230277592
 30
0.0
 10
-2.131690414548166
 20
-12.62326973851344
 30
0.0
 10
-2.05276247517953
 20
-12.83217366691379
 30
0.0
 10
-2.050852627607586
 20
-12.83721167153658
 30
0.0
  0
ARC
  5
C3
330
1F
100
AcDbEntity
  8
0
  6
Continuous
 62
     7
370
    25
100
AcDbCircle
 10
0.0
 20
0.0
 30
0.0
 40
13.0
100
AcDbArc
 50
260.9232197182
 51
264.0767802818
  0
SPLINE
  5
C4
330
1F
100
AcDbEntity
  8
0
  6
Continuous
 62
     7
370
    25
100
AcDbSpline
210
0.0
220
0.0
230
1.0
 70
     8
 71
     4
 72
    15
 73
    10
 74
     0
 42
0.000000001
 43
0.00000001
 40
0.0
 40
0.0
 40
0.0
 40
0.0
 40
0.0
 40
0.0028020339056145
 40
0.005604067811229
 40
0.0106611581043112
 40
0.0157182483973935
 40
0.029959916154659
 40
0.0303120130717026
 40
0.0303120130717026
 40
0.0303120130717026
 40
0.0303120130717026
 40
0.0303120130717026
 10
-0.5697342480562726
 20
-11.26190937590772
 30
0.0
 10
-0.5740395018146519
 20
-11.3046251694164
 30
0.0
 10
-0.5866230295109104
 20
-11.38942117378228
 30
0.0
 10
-0.6248802468875436
 20
-11.54835868404651
 30
0.0
 10
-0.6996272224435219
 20
-11.77714971651967
 30
0.0
 10
-0.8595327489328273
 20
-12.16131443149066
 30
0.0
 10
-1.043889430059532
 20
-12.49256776128903
 30
0.0
 10
-1.20808779472859
 20
-12.74486433019095
 30
0.0
 10
-1.338394645047276
 20
-12.92622197594679
 30
0.0
 10
-1.341543347686985
 20
-12.93059400980004
 30
0.0
  0
LINE
  5
C5
330
1F
100
AcDbEntity
  8
0
  6
Continuous
 62
     7
370
    25
100
AcDbLine
 10
-0.5697342481
 20
-11.2619093759
 30
0.0
 11
-0.5431424269
 21
-10.73627013
 31
0.0
  0
ARC
  5
C6
330
1F
100
AcDbEntity
  8
0
  6
Continuous
 62
     7
370
    25
100
AcDbCircle
 10
0.0
 20
0.0
 30
0.0
 40
10.75
100
AcDbArc
 50
267.1039047256
 51
272.8960952744
  0
LINE
  5
C7
330
1F
100
AcDbEntity
  8
0
  6
Continuous
 62
     7
370
    25
100
AcDbLine
 10
0.5697342481
 20
-11.2619093759
 30
0.0
 11
0.5431424269
 21
-10.73627013
 31
0.0
  0
SPLINE
  5
C8
330
1F
100
AcDbEntity
  8
0
  6
Continuous
 62
     7
370
    25
100
AcDbSpline
210
0.0
220
0.0
230
1.0
 70
     8
 71
     4
 72
    15
 73
    10
 74
     0
 42
0.000000001
 43
0.00000001
 40
0.0
 40
0.0
 40
0.0
 40
0.0
 40
0.0
 40
0.0028020339056145
 40
0.005604067811229
 40
0.0106611581043112
 40
0.0157182483973935
 40
0.029959916154659
 40
0.0303120130717026
 40
0.0303120130717026
 40
0.0303120130717026
 40
0.0303120130717026
 40
0.0303120130717026
 10
0.5697342480562726
 20
-11.26190937590772
 30
0.0
 10
0.5740395018146519
 20
-11.3046251694164
 30
0.0
 10
0.5866230295109104
 20
-11.38942117378228
 30
0.0
 10
0.6248802468875436
 20
-11.54835868404651
 30
0.0
 10
0.6996272224435219
 20
-11.77714971651967
 30
0.0
 10
0.8595327489328273
 20
-12.16131443149066
 30
0.0
 10
1.043889430059532
 20
-12.49256776128903
 30
0.0
 10
1.208087794728589
 20
-12.74486433019094
 30
0.0
 10
1.338394645047275
 20
-12.92622197594678
 30
0.0
 10
1.341543347686984
 20
-12.93059400980004
 30
0.0
  0
ARC
  5
C9
330
1F
100
AcDbEntity
  8
0
  6
Continuous
 62
     7
370
    25
100
AcDbCircle
 10
0.0
 20
0.0
 30
0.0
 40
13.0
100
AcDbArc
 50
275.9232197182
 51
279.0767802818
  0
SPLINE
  5
CA
330
1F
100
AcDbEntity
  8
0
  6
Continuous
 62
     7
370
    25
100
AcDbSpline
210
0.0
220
0.0
230
1.0
 70
     8
 71
     4
 72
    15
 73
    10
 74
     0
 42
0.000000001
 43
0.00000001
 40
0.0
 40
0.0
 40
0.0
 40
0.0
 40
0.0
 40
0.0028020339056145
 40
0.005604067811229
 40
0.0106611581043112
 40
0.0157182483973935
 40
0.029959916154659
 40
0.0303120130717026
 40
0.0303120130717026
 40
0.0303120130717026
 40
0.0303120130717026
 40
0.0303120130717026
 10
2.364475606384708
 20
-11.02562719356038
 30
0.0
 10
2.371372711477475
 20
-11.06800176336751
 30
0.0
 10
2.381164777968322
 20
-11.153165270573
 30
0.0
 10
2.385347198299839
 20
-11.31658881297301
 30
0.0
 10
2.372362640726048
 20
-11.55692992089988
 30
0.0
 10
2.317334907614553
 20
-11.96939113631191
 30
0.0
 10
2.22499469857078
 20
-12.33707230277589
 30
0.0
 10
2.131690414548343
 20
-12.62326973851341
 30
0.0
 10
2.052762475179709
 20
-12.83217366691376
 30
0.0
 10
2.050852627607764
 20
-12.83721167153655
 30
0.0
  0
LINE
  5
CB
330
1F
100
AcDbEntity
  8
0
  6
Continuous
 62
     7
370
    25
100
AcDbLine
 10
2.3644756064
 20
-11.0256271936
 30
0.0
 11
2.2541158856
 21
-10.5110162008
 31
0.0
  0
ARC
  5
CC
330
1F
100
AcDbEntity
  8
0
  6
Continuous
 62
     7
370
    25
100
AcDbCircle
 10
0.0
 20
0.0
 30
0.0
 40
10.75
100
AcDbArc
 50
282.1039047256
 51
287.8960952744
  0
LINE
  5
CD
330
1F
100
AcDbEntity
  8
0
  6
Continuous
 62
     7
370
    25
100
AcDbLine
 10
3.465117655
 20
-10.7307110455
 30
0.0
 11
3.3033864805
 21
-10.2298649923
 31
0.0
  0
SPLINE
  5
CE
330
1F
100
AcDbEntity
  8
0
  6
Continuous
 62
     7
370
    25
100
AcDbSpline
210
0.0
220
0.0
230
1.0
 70
     8
 71
     4
 72
    15
 73
    10
 74
     0
 42
0.000000001
 43
0.00000001
 40
0.0
 40
0.0
 40
0.0
 40
0.0
 40
0.0
 40
0.0028020339056145
 40
0.005604067811229
 40
0.0106611581043112
 40
0.0157182483973935
 40
0.029959916154659
 40
0.0303120130717026
 40
0.0303120130717026
 40
0.0303120130717026
 40
0.0303120130717026
 40
0.0303120130717026
 10
3.465117655022579
 20
-10.73071104547211
 30
0.0
 10
3.480331871703239
 20
-10.77085705194591
 30
0.0
 10
3.514433446969365
 20
-10.84950684590667
 30
0.0
 10
3.592523135912971
 20
-10.99312699536727
 30
0.0
 10
3.723938646592214
 20
-11.19477622161874
 30
0.0
 10
3.97782466908546
 20
-11.52446424568562
 30
0.0
 10
4.24163421914013
 20
-11.79671537181463
 30
0.0
 10
4.465536817254239
 20
-11.99791747965006
 30
0.0
 10
4.638342382016011
 20
-12.13936961891081
 30
0.0
 10
4.642515360842064
 20
-12.14277773511256
 30
0.0
  0
ARC
  5
CF
330
1F
100
AcDbEntity
  8
0
  6
Continuous
 62
     7
370
    25
100
AcDbCircle
 10
0.0
 20
0.0
 30
0.0
 40
13.0
100
AcDbArc
 50
290.9232197182
 51
294.0767802818
  0
SPLINE
  5
D0
330
1F
100
AcDbEntity
  8
0
  6
Continuous
 62
     7
370
    25
100
AcDbSpline
210
0.0
220
0.0
230
1.0
 70
     8
 71
     4
 72
    15
 73
    10
 74
     0
 42
0.000000001
 43
0.00000001
 40
0.0
 40
0.0
 40
0.0
 40
0.0
 40
0.0
 40
0.0028020339056145
 40
0.005604067811229
 40
0.0106611581043112
 40
0.0157182483973935
 40
0.029959916154659
 40
0.0303120130717026
 40
0.0303120130717026
 40
0.0303120130717026
 40
0.0303120130717026
 40
0.0303120130717026
 10
5.137550355731184
 20
-10.03796673868233
 30
0.0
 10
5.155179793361031
 20
-10.07711232788285
 30
0.0
 10
5.186680140889786
 20
-10.15683958565125
 30
0.0
 10
5.233017173895635
 20
-10.31361211584264
 30
0.0
 10
5.282679910444687
 20
-10.54912444990046
 30
0.0
 10
5.33628001978492
 20
-10.96177361554759
 30
0.0
 10
5.342249115470997
 20
-11.34082575480452
 30
0.0
 10
5.326197444858688
 20
-11.64142017509575
 30
0.0
 10
5.304027225073492
 20
-11.8636339286502
 30
0.0
 10
5.303486385525168
 20
-11.86899457235317
 30
0.0
  0
LINE
  5
D1
330
1F
100
AcDbEntity
  8
0
  6
Continuous
 62
     7
370
    25
100
AcDbLine
 10
5.1375503557
 20
-10.0379667387
 30
0.0
 11
4.8977599255
 21
-9.5694538879
 31
0.0
  0
ARC
  5
D2
330
1F
100
AcDbEntity
  8
0
  6
Continuous
 62
     7
370
    25
100
AcDbCircle
 10
0.0
 20
0.0
 30
0.0
 40
10.75
100
AcDbArc
 50
297.1039047256
 51
302.8960952744
  0
LINE
  5
D3
330
1F
100
AcDbEntity
  8
0
  6
Continuous
 62
     7
370
    25
100
AcDbLine
 10
6.1243590202
 20
-9.4682324906
 30
0.0
 11
5.8385102045
 21
-9.026311461
 31
0.0
  0
SPLINE
  5
D4
330
1F
100
AcDbEntity
  8
0
  6
Continuous
 62
     7
370
    25
100
AcDbSpline
210
0.0
220
0.0
230
1.0
 70
     8
 71
     4
 72
    15
 73
    10
 74
     0
 42
0.000000001
 43
0.00000001
 40
0.0
 40
0.0
 40
0.0
 40
0.0
 40
0.0
 40
0.0028020339056145
 40
0.005604067811229
 40
0.0106611581043112
 40
0.0157182483973935
 40
0.029959916154659
 40
0.0303120130717026
 40
0.0303120130717026
 40
0.0303120130717026
 40
0.0303120130717026
 40
0.0303120130717026
 10
6.124359020176694
 20
-9.468232490626052
 30
0.0
 10
6.149445376055531
 20
-9.50307282606819
 30
0.0
 10
6.202741032892654
 20
-9.570216556140327
 30
0.0
 10
6.31534151015104
 20
-9.688731868955085
 30
0.0
 10
6.494469806075154
 20
-9.849497227456924
 30
0.0
 10
6.825034411705914
 20
-10.10224086661475
 30
0.0
 10
7.150318645818217
 20
-10.29693632474497
 30
0.0
 10
7.418666885332437
 20
-10.43333238036715
 30
0.0
 10
7.622194750873477
 20
-10.5252392836029
 30
0.0
 10
7.627107624275054
 20
-10.52745122466617
 30
0.0
  0
ARC
  5
D5
330
1F
100
AcDbEntity
  8
0
  6
Continuous
 62
     7
370
    25
100
AcDbCircle
 10
0.0
 20
0.0
 30
0.0
 40
13.0
100
AcDbArc
 50
305.9232197182
 51
309.0767802818
  0
SPLINE
  5
D6
330
1F
100
AcDbEntity
  8
0
  6
Continuous
 62
     7
370
    25
100
AcDbSpline
210
0.0
220
0.0
230
1.0
 70
     8
 71
     4
 72
    15
 73
    10
 74
     0
 42
0.000000001
 43
0.00000001
 40
0.0
 40
0.0
 40
0.0
 40
0.0
 40
0.0
 40
0.0028020339056145
 40
0.005604067811229
 40
0.0106611581043112
 40
0.0157182483973935
 40
0.029959916154659
 40
0.0303120130717026
 40
0.0303120130717026
 40
0.0303120130717026
 40
0.0303120130717026
 40
0.0303120130717026
 10
7.560509538537971
 20
-8.36623543908745
 30
0.0
 10
7.587669891664445
 20
-8.399484340468481
 30
0.0
 10
7.63873182360381
 20
-8.46834206793839
 30
0.0
 10
7.72406567706021
 20
-8.607779797067481
 30
0.0
 10
7.832991274307841
 20
-8.822413580892743
 30
0.0
 10
7.991566467226633
 20
-9.207129338071116
 30
0.0
 10
8.095438083635953
 20
-9.57172067324391
 30
0.0
 10
8.157732921259361
 20
-9.86622706510178
 30
0.0
 10
8.193831284897943
 20
-10.08660714373116
 30
0.0
 10
8.194696310694676
 20
-10.09192510750485
 30
0.0
  0
LINE
  5
D7
330
1F
100
AcDbEntity
  8
0
  6
Continuous
 62
     7
370
    25
100
AcDbLine
 10
7.5605095385
 20
-8.3662354391
 30
0.0
 11
7.2076297204
 21
-7.9757491067
 31
0.0
  0
ARC
  5
D8
330
1F
100
AcDbEntity
  8
0
  6
Continuous
 62
     7
370
    25
100
AcDbCircle
 10
0.0
 20
0.0
 30
0.0
 40
10.75
100
AcDbArc
 50
312.1039047256
 51
317.8960952744
  0
LINE
  5
D9
330
1F
100
AcDbEntity
  8
0
  6
Continuous
 62
     7
370
    25
100
AcDbLine
 10
8.3662354391
 20
-7.5605095385
 30
0.0
 11
7.9757491067
 21
-7.2076297204
 31
0.0
  0
SPLINE
  5
DA
330
1F
100
AcDbEntity
  8
0
  6
Continuous
 62
     7
370
    25
100
AcDbSpline
210
0.0
220
0.0
230
1.0
 70
     8
 71
     4
 72
    15
 73
    10
 74
     0
 42
0.000000001
 43
0.00000001
 40
0.0
 40
0.0
 40
0.0
 40
0.0
 40
0.0
 40
0.0028020339056145
 40
0.005604067811229
 40
0.0106611581043112
 40
0.0157182483973935
 40
0.029959916154659
 40
0.0303120130717026
 40
0.0303120130717026
 40
0.0303120130717026
 40
0.0303120130717026
 40
0.0303120130717026
 10
8.366235439087582
 20
-7.560509538537826
 30
0.0
 10
8.399484340468614
 20
-7.5876698916643
 30
0.0
 10
8.468342067938524
 20
-7.638731823603663
 30
0.0
 10
8.607779797067614
 20
-7.72406567706006
 30
0.0
 10
8.82241358089288
 20
-7.832991274307687
 30
0.0
 10
9.207129338071255
 20
-7.991566467226473
 30
0.0
 10
9.57172067324405
 20
-8.095438083635786
 30
0.0
 10
9.86622706510192
 20
-8.15773292125919
 30
0.0
 10
10.08660714373131
 20
-8.193831284897767
 30
0.0
 10
10.091925107505
 20
-8.194696310694502
 30
0.0
  0
ARC
  5
DB
330
1F
100
AcDbEntity
  8
0
  6
Continuous
 62
     7
370
    25
100
AcDbCircle
 10
0.0
 20
0.0
 30
0.0
 40
13.0
100
AcDbArc
 50
320.9232197182
 51
324.0767802818
  0
SPLINE
  5
DC
330
1F
100
AcDbEntity
  8
0
  6
Continuous
 62
     7
370
    25
100
AcDbSpline
210
0.0
220
0.0
230
1.0
 70
     8
 71
     4
 72
    15
 73
    10
 74
     0
 42
0.000000001
 43
0.00000001
 40
0.0
 40
0.0
 40
0.0
 40
0.0
 40
0.0
 40
0.0028020339056145
 40
0.005604067811229
 40
0.0106611581043112
 40
0.0157182483973935
 40
0.029959916154659
 40
0.0303120130717026
 40
0.0303120130717026
 40
0.0303120130717026
 40
0.0303120130717026
 40
0.0303120130717026
 10
9.468232490626157
 20
-6.124359020176528
 30
0.0
 10
9.503072826068296
 20
-6.149445376055364
 30
0.0
 10
9.570216556140435
 20
-6.202741032892487
 30
0.0
 10
9.688731868955195
 20
-6.31534151015087
 30
0.0
 10
9.849497227457038
 20
-6.494469806074982
 30
0.0
 10
10.10224086661487
 20
-6.825034411705736
 30
0.0
 10
10.2969363247451
 20
-7.150318645818036
 30
0.0
 10
10.43333238036727
 20
-7.418666885332253
 30
0.0
 10
10.52523928360303
 20
-7.622194750873291
 30
0.0
 10
10.5274512246663
 20
-7.627107624274868
 30
0.0
  0
LINE
  5
DD
330
1F
100
AcDbEntity
  8
0
  6
Continuous
 62
     7
370
    25
100
AcDbLine
 10
9.4682324906
 20
-6.1243590202
 30
0.0
 11
9.026311461
 21
-5.8385102045
 31
0.0
  0
ARC
  5
DE
330
1F
100
AcDbEntity
  8
0
  6
Continuous
 62
     7
370
    25
100
AcDbCircle
 10
0.0
 20
0.0
 30
0.0
 40
10.75
100
AcDbArc
 50
327.1039047256
 51
332.8960952744
  0
LINE
  5
DF
330
1F
100
AcDbEntity
  8
0
  6
Continuous
 62
     7
370
    25
100
AcDbLine
 10
10.0379667387
 20
-5.1375503557
 30
0.0
 11
9.5694538879
 21
-4.8977599255
 31
0.0
  0
SPLINE
  5
E0
330
1F
100
AcDbEntity
  8
0
  6
Continuous
 62
     7
370
    25
100
AcDbSpline
210
0.0
220
0.0
230
1.0
 70
     8
 71
     4
 72
    15
 73
    10
 74
     0
 42
0.000000001
 43
0.00000001
 40
0.0
 40
0.0
 40
0.0
 40
0.0
 40
0.0
 40
0.0028020339056145
 40
0.005604067811229
 40
0.0106611581043112
 40
0.0157182483973935
 40
0.029959916154659
 40
0.0303120130717026
 40
0.0303120130717026
 40
0.0303120130717026
 40
0.0303120130717026
 40
0.0303120130717026
 10
10.03796673868242
 20
-5.137550355731008
 30
0.0
 10
10.07711232788294
 20
-5.155179793360854
 30
0.0
 10
10.15683958565134
 20
-5.186680140889608
 30
0.0
 10
10.31361211584273
 20
-5.233017173895455
 30
0.0
 10
10.54912444990055
 20
-5.282679910444503
 30
0.0
 10
10.96177361554768
 20
-5.336280019784728
 30
0.0
 10
11.34082575480461
 20
-5.342249115470798
 30
0.0
 10
11.64142017509584
 20
-5.326197444858486
 30
0.0
 10
11.86363392865028
 20
-5.304027225073286
 30
0.0
 10
11.86899457235326
 20
-5.303486385524962
 30
0.0
  0
ARC
  5
E1
330
1F
100
AcDbEntity
  8
0
  6
Continuous
 62
     7
370
    25
100
AcDbCircle
 10
0.0
 20
0.0
 30
0.0
 40
13.0
100
AcDbArc
 50
335.9232197182
 51
339.0767802818
  0
SPLINE
  5
E2
330
1F
100
AcDbEntity
  8
0
  6
Continuous
 62
     7
370
    25
100
AcDbSpline
210
0.0
220
0.0
230
1.0
 70
     8
 71
     4
 72
    15
 73
    10
 74
     0
 42
0.000000001
 43
0.00000001
 40
0.0
 40
0.0
 40
0.0
 40
0.0
 40
0.0
 40
0.0028020339056145
 40
0.005604067811229
 40
0.0106611581043112
 40
0.0157182483973935
 40
0.029959916154659
 40
0.0303120130717026
 40
0.0303120130717026
 40
0.0303120130717026
 40
0.0303120130717026
 40
0.0303120130717026
 10
10.73071104547218
 20
-3.465117655022391
 30
0.0
 10
10.77085705194597
 20
-3.480331871703051
 30
0.0
 10
10.84950684590673
 20
-3.514433446969176
 30
0.0
 10
10.99312699536734
 20
-3.59252313591278
 30
0.0
 10
11.19477622161881
 20
-3.723938646592019
 30
0.0
 10
11.52446424568569
 20
-3.977824669085259
 30
0.0
 10
11.79671537181471
 20
-4.241634219139924
 30
0.0
 10
11.99791747965014
 20
-4.465536817254029
 30
0.0
 10
12.1393696189109
 20
-4.638342382015799
 30
0.0
 10
12.14277773511264
 20
-4.642515360841854
 30
0.0
  0
LINE
  5
E3
330
1F
100
AcDbEntity
  8
0
  6
Continuous
 62
     7
370
    25
100
AcDbLine
 10
10.7307110455
 20
-3.465117655
 30
0.0
 11
10.2298649923
 21
-3.3033864805
 31
0.0
  0
ARC
  5
E4
330
1F
100
AcDbEntity
  8
0
  6
Continuous
 62
     7
370
    25
100
AcDbCircle
 10
0.0
 20
0.0
 30
0.0
 40
10.75
100
AcDbArc
 50
342.1039047256
 51
347.8960952744
  0
LINE
  5
E5
330
1F
100
AcDbEntity
  8
0
  6
Continuous
 62
     7
370
    25
100
AcDbLine
 10
11.0256271936
 20
-2.3644756064
 30
0.0
 11
10.5110162008
 21
-2.2541158856
 31
0.0
  0
SPLINE
  5
E6
330
1F
100
AcDbEntity
  8
0
  6
Continuous
 62
     7
370
    25
100
AcDbSpline
210
0.0
220
0.0
230
1.0
 70
     8
 71
     4
 72
    15
 73
    10
 74
     0
 42
0.000000001
 43
0.00000001
 40
0.0
 40
0.0
 40
0.0
 40
0.0
 40
0.0
 40
0.0028020339056145
 40
0.005604067811229
 40
0.0106611581043112
 40
0.0157182483973935
 40
0.029959916154659
 40
0.0303120130717026
 40
0.0303120130717026
 40
0.0303120130717026
 40
0.0303120130717026
 40
0.0303120130717026
 10
11.02562719356042
 20
-2.364475606384516
 30
0.0
 10
11.06800176336755
 20
-2.371372711477282
 30
0.0
 10
11.15316527057304
 20
-2.381164777968127
 30
0.0
 10
11.31658881297305
 20
-2.385347198299642
 30
0.0
 10
11.55692992089992
 20
-2.372362640725846
 30
0.0
 10
11.96939113631195
 20
-2.317334907614344
 30
0.0
 10
12.33707230277593
 20
-2.224994698570563
 30
0.0
 10
12.62326973851344
 20
-2.131690414548122
 30
0.0
 10
12.83217366691379
 20
-2.052762475179485
 30
0.0
 10
12.83721167153658
 20
-2.050852627607541
 30
0.0
  0
ARC
  5
E7
330
1F
100
AcDbEntity
  8
0
  6
Continuous
 62
     7
370
    25
100
AcDbCircle
 10
0.0
 20
0.0
 30
0.0
 40
13.0
100
AcDbArc
 50
350.9232197182
 51
354.0767802818
  0
SPLINE
  5
E8
330
1F
100
AcDbEntity
  8
0
  6
Continuous
 62
     7
370
    25
100
AcDbSpline
210
0.0
220
0.0
230
1.0
 70
     8
 71
     4
 72
    15
 73
    10
 74
     0
 42
0.000000001
 43
0.00000001
 40
0.0
 40
0.0
 40
0.0
 40
0.0
 40
0.0
 40
0.0028020339056145
 40
0.005604067811229
 40
0.0106611581043112
 40
0.0157182483973935
 40
0.029959916154659
 40
0.0303120130717026
 40
0.0303120130717026
 40
0.0303120130717026
 40
0.0303120130717026
 40
0.0303120130717026
 10
11.26190937590772
 20
-0.5697342480561546
 30
0.0
 10
11.3046251694164
 20
-0.5740395018145336
 30
0.0
 10
11.38942117378229
 20
-0.5866230295107911
 30
0.0
 10
11.54835868404652
 20
-0.6248802468874226
 30
0.0
 10
11.77714971651968
 20
-0.6996272224433985
 30
0.0
 10
12.16131443149067
 20
-0.8595327489326999
 30
0.0
 10
12.49256776128905
 20
-1.043889430059401
 30
0.0
 10
12.74486433019096
 20
-1.208087794728456
 30
0.0
 10
12.9262219759468
 20
-1.33839464504714
 30
0.0
 10
12.93059400980006
 20
-1.341543347686849
 30
0.0
  0
LINE
  5
E9
330
1F
100
AcDbEntity
  8
0
  6
Continuous
 62
     7
370
    25
100
AcDbLine
 10
11.2619093759
 20
-0.5697342481
 30
0.0
 11
10.73627013
 21
-0.5431424269
 31
0.0
  0
ARC
  5
EA
330
1F
100
AcDbEntity
  8
0
  6
Continuous
 62
     7
370
    25
100
AcDbCircle
 10
0.0
 20
0.0
 30
0.0
 40
10.75
100
AcDbArc
 50
357.1039047256
 51
2.8960952744
  0
LINE
  5
EB
330
1F
100
AcDbEntity
  8
0
  6
Continuous
 62
     7
370
    25
100
AcDbLine
 10
11.2619093759
 20
0.5697342481
 30
0.0
 11
10.73627013
 21
0.5431424269
 31
0.0
  0
SPLINE
  5
EC
330
1F
100
AcDbEntity
  8
0
  6
Continuous
 62
     7
370
    25
100
AcDbSpline
210
0.0
220
0.0
230
1.0
 70
     8
 71
     4
 72
    15
 73
    10
 74
     0
 42
0.000000001
 43
0.00000001
 40
0.0
 40
0.0
 40
0.0
 40
0.0
 40
0.0
 40
0.0028020339056145
 40
0.005604067811229
 40
0.0106611581043112
 40
0.0157182483973935
 40
0.029959916154659
 40
0.0303120130717026
 40
0.0303120130717026
 40
0.0303120130717026
 40
0.0303120130717026
 40
0.0303120130717026
 10
11.26190937590771
 20
0.5697342480563905
 30
0.0
 10
11.3046251694164
 20
0.5740395018147704
 30
0.0
 10
11.38942117378227
 20
0.5866230295110296
 30
0.0
 10
11.5483586840465
 20
0.6248802468876645
 30
0.0
 10
11.77714971651967
 20
0.6996272224436453
 30
0.0
 10
12.16131443149065
 20
0.8595327489329547
 30
0.0
 10
12.49256776128902
 20
1.043889430059662
 30
0.0
 10
12.74486433019093
 20
1.208087794728722
 30
0.0
 10
12.92622197594677
 20
1.338394645047411
 30
0.0
 10
12.93059400980002
 20
1.341543347687119
 30
0.0
  0
ARC
  5
ED
330
1F
100
AcDbEntity
  8
0
  6
Continuous
 62
     7
370
    25
100
AcDbCircle
 10
0.0
 20
0.0
 30
0.0
 40
13.0
100
AcDbArc
 50
5.9232197182
 51
9.0767802818
  0
SPLINE
  5
EE
330
1F
100
AcDbEntity
  8
0
  6
Continuous
 62
     7
370
    25
100
AcDbSpline
210
0.0
220
0.0
230
1.0
 70
     8
 71
     4
 72
    15
 73
    10
 74
     0
 42
0.000000001
 43
0.00000001
 40
0.0
 40
0.0
 40
0.0
 40
0.0
 40
0.0
 40
0.0028020339056145
 40
0.005604067811229
 40
0.0106611581043112
 40
0.0157182483973935
 40
0.029959916154659
 40
0.0303120130717026
 40
0.0303120130717026
 40
0.0303120130717026
 40
0.0303120130717026
 40
0.0303120130717026
 10
11.02562719356037
 20
2.364475606384747
 30
0.0
 10
11.0680017633675
 20
2.371372711477515
 30
0.0
 10
11.15316527057299
 20
2.381164777968361
 30
0.0
 10
11.316588812973
 20
2.385347198299879
 30
0.0
 10
11.55692992089987
 20
2.372362640726088
 30
0.0
 10
11.9693911363119
 20
2.317334907614594
 30
0.0
 10
12.33707230277589
 20
2.224994698570823
 30
0.0
 10
12.6232697385134
 20
2.131690414548387
 30
0.0
 10
12.83217366691375
 20
2.052762475179755
 30
0.0
 10
12.83721167153654
 20
2.050852627607811
 30
0.0
  0
LINE
  5
EF
330
1F
100
AcDbEntity
  8
0
  6
Continuous
 62
     7
370
    25
100
AcDbLine
 10
11.0256271936
 20
2.3644756064
 30
0.0
 11
10.5110162008
 21
2.2541158856
 31
0.0
  0
ARC
  5
F0
330
1F
100
AcDbEntity
  8
0
  6
Continuous
 62
     7
370
    25
100
AcDbCircle
 10
0.0
 20
0.0
 30
0.0
 40
10.75
100
AcDbArc
 50
12.1039047256
 51
17.8960952744
  0
LINE
  5
F1
330
1F
100
AcDbEntity
  8
0
  6
Continuous
 62
     7
370
    25
100
AcDbLine
 10
10.7307110455
 20
3.465117655
 30
0.0
 11
10.2298649923
 21
3.3033864805
 31
0.0
  0
SPLINE
  5
F2
330
1F
100
AcDbEntity
  8
0
  6
Continuous
 62
     7
370
    25
100
AcDbSpline
210
0.0
220
0.0
230
1.0
 70
     8
 71
     4
 72
    15
 73
    10
 74
     0
 42
0.000000001
 43
0.00000001
 40
0.0
 40
0.0
 40
0.0
 40
0.0
 40
0.0
 40
0.0028020339056145
 40
0.005604067811229
 40
0.0106611581043112
 40
0.0157182483973935
 40
0.029959916154659
 40
0.0303120130717026
 40
0.0303120130717026
 40
0.0303120130717026
 40
0.0303120130717026
 40
0.0303120130717026
 10
10.7307110454721
 20
3.465117655022616
 30
0.0
 10
10.7708570519459
 20
3.480331871703277
 30
0.0
 10
10.84950684590666
 20
3.514433446969403
 30
0.0
 10
10.99312699536726
 20
3.59252313591301
 30
0.0
 10
11.19477622161873
 20
3.723938646592253
 30
0.0
 10
11.5244642456856
 20
3.977824669085501
 30
0.0
 10
11.79671537181462
 20
4.241634219140172
 30
0.0
 10
11.99791747965005
 20
4.465536817254281
 30
0.0
 10
12.13936961891079
 20
4.638342382016054
 30
0.0
 10
12.14277773511254
 20
4.642515360842109
 30
0.0
  0
ARC
  5
F3
330
1F
100
AcDbEntity
  8
0
  6
Continuous
 62
     7
370
    25
100
AcDbCircle
 10
0.0
 20
0.0
 30
0.0
 40
13.0
100
AcDbArc
 50
20.9232197182
 51
24.0767802818
  0
SPLINE
  5
F4
330
1F
100
AcDbEntity
  8
0
  6
Continuous
 62
     7
370
    25
100
AcDbSpline
210
0.0
220
0.0
230
1.0
 70
     8
 71
     4
 72
    15
 73
    10
 74
     0
 42
0.000000001
 43
0.00000001
 40
0.0
 40
0.0
 40
0.0
 40
0.0
 40
0.0
 40
0.0028020339056145
 40
0.005604067811229
 40
0.0106611581043112
 40
0.0157182483973935
 40
0.029959916154659
 40
0.0303120130717026
 40
0.0303120130717026
 40
0.0303120130717026
 40
0.0303120130717026
 40
0.0303120130717026
 10
10.03796673868231
 20
5.137550355731219
 30
0.0
 10
10.07711232788283
 20
5.155179793361065
 30
0.0
 10
10.15683958565123
 20
5.186680140889822
 30
0.0
 10
10.31361211584262
 20
5.233017173895671
 30
0.0
 10
10.54912444990044
 20
5.282679910444723
 30
0.0
 10
10.96177361554757
 20
5.336280019784958
 30
0.0
 10
11.3408257548045
 20
5.342249115471037
 30
0.0
 10
11.64142017509573
 20
5.326197444858729
 30
0.0
 10
11.86363392865018
 20
5.304027225073535
 30
0.0
 10
11.86899457235315
 20
5.303486385525211
 30
0.0
  0
LINE
  5
F5
330
1F
100
AcDbEntity
  8
0
  6
Continuous
 62
     7
370
    25
100
AcDbLine
 10
10.0379667387
 20
5.1375503557
 30
0.0
 11
9.5694538879
 21
4.8977599255
 31
0.0
  0
ARC
  5
F6
330
1F
100
AcDbEntity
  8
0
  6
Continuous
 62
     7
370
    25
100
AcDbCircle
 10
0.0
 20
0.0
 30
0.0
 40
10.75
100
AcDbArc
 50
27.1039047256
 51
32.8960952744
  0
LINE
  5
F7
330
1F
100
AcDbEntity
  8
0
  6
Continuous
 62
     7
370
    25
100
AcDbLine
 10
9.4682324906
 20
6.1243590202
 30
0.0
 11
9.026311461
 21
5.8385102045
 31
0.0
  0
SPLINE
  5
F8
330
1F
100
AcDbEntity
  8
0
  6
Continuous
 62
     7
370
    25
100
AcDbSpline
210
0.0
220
0.0
230
1.0
 70
     8
 71
     4
 72
    15
 73
    10
 74
     0
 42
0.000000001
 43
0.00000001
 40
0.0
 40
0.0
 40
0.0
 40
0.0
 40
0.0
 40
0.0028020339056145
 40
0.005604067811229
 40
0.0106611581043112
 40
0.0157182483973935
 40
0.029959916154659
 40
0.0303120130717026
 40
0.0303120130717026
 40
0.0303120130717026
 40
0.0303120130717026
 40
0.0303120130717026
 10
9.468232490626031
 20
6.124359020176727
 30
0.0
 10
9.503072826068168
 20
6.149445376055564
 30
0.0
 10
9.570216556140306
 20
6.202741032892688
 30
0.0
 10
9.688731868955061
 20
6.315341510151073
 30
0.0
 10
9.8494972274569
 20
6.494469806075188
 30
0.0
 10
10.10224086661473
 20
6.825034411705949
 30
0.0
 10
10.29693632474495
 20
7.150318645818251
 30
0.0
 10
10.43333238036712
 20
7.418666885332471
 30
0.0
 10
10.52523928360287
 20
7.622194750873511
 30
0.0
 10
10.52745122466614
 20
7.627107624275088
 30
0.0
  0
ARC
  5
F9
330
1F
100
AcDbEntity
  8
0
  6
Continuous
 62
     7
370
    25
100
AcDbCircle
 10
0.0
 20
0.0
 30
0.0
 40
13.0
100
AcDbArc
 50
35.9232197182
 51
39.0767802818
  0
SPLINE
  5
FA
330
1F
100
AcDbEntity
  8
0
  6
Continuous
 62
     7
370
    25
100
AcDbSpline
210
0.0
220
0.0
230
1.0
 70
     8
 71
     4
 72
    15
 73
    10
 74
     0
 42
0.000000001
 43
0.00000001
 40
0.0
 40
0.0
 40
0.0
 40
0.0
 40
0.0
 40
0.0028020339056145
 40
0.005604067811229
 40
0.0106611581043112
 40
0.0157182483973935
 40
0.029959916154659
 40
0.0303120130717026
 40
0.0303120130717026
 40
0.0303120130717026
 40
0.0303120130717026
 40
0.0303120130717026
 10
8.366235439087424
 20
7.560509538538001
 30
0.0
 10
8.399484340468456
 20
7.587669891664475
 30
0.0
 10
8.468342067938366
 20
7.63873182360384
 30
0.0
 10
8.607779797067453
 20
7.72406567706024
 30
0.0
 10
8.822413580892714
 20
7.83299127430787
 30
0.0
 10
9.207129338071088
 20
7.991566467226664
 30
0.0
 10
9.571720673243881
 20
8.095438083635983
 30
0.0
 10
9.866227065101752
 20
8.157732921259393
 30
0.0
 10
10.08660714373114
 20
8.193831284897977
 30
0.0
 10
10.09192510750483
 20
8.194696310694711
 30
0.0
  0
LINE
  5
FB
330
1F
100
AcDbEntity
  8
0
  6
Continuous
 62
     7
370
    25
100
AcDbLine
 10
8.3662354391
 20
7.5605095385
 30
0.0
 11
7.9757491067
 21
7.2076297204
 31
0.0
  0
ARC
  5
FC
330
1F
100
AcDbEntity
  8
0
  6
Continuous
 62
     7
370
    25
100
AcDbCircle
 10
0.0
 20
0.0
 30
0.0
 40
10.75
100
AcDbArc
 50
42.1039047256
 51
47.8960952744
  0
LINE
  5
FD
330
1F
100
AcDbEntity
  8
0
  6
Continuous
 62
     7
370
    25
100
AcDbLine
 10
7.5605095385
 20
8.3662354391
 30
0.0
 11
7.2076297204
 21
7.9757491067
 31
0.0
  0
SPLINE
  5
FE
330
1F
100
AcDbEntity
  8
0
  6
Continuous
 62
     7
370
    25
100
AcDbSpline
210
0.0
220
0.0
230
1.0
 70
     8
 71
     4
 72
    15
 73
    10
 74
     0
 42
0.000000001
 43
0.00000001
 40
0.0
 40
0.0
 40
0.0
 40
0.0
 40
0.0
 40
0.0028020339056145
 40
0.005604067811229
 40
0.0106611581043112
 40
0.0157182483973935
 40
0.029959916154659
 40
0.0303120130717026
 40
0.0303120130717026
 40
0.0303120130717026
 40
0.0303120130717026
 40
0.0303120130717026
 10
7.560509538537796
 20
8.366235439087609
 30
0.0
 10
7.58766989166427
 20
8.39948434046864
 30
0.0
 10
7.638731823603633
 20
8.46834206793855
 30
0.0
 10
7.724065677060031
 20
8.607779797067641
 30
0.0
 10
7.832991274307656
 20
8.822413580892906
 30
0.0
 10
7.991566467226442
 20
9.207129338071283
 30
0.0
 10
8.095438083635752
 20
9.571720673244076
 30
0.0
 10
8.157732921259155
 20
9.866227065101947
 30
0.0
 10
8.193831284897733
 20
10.08660714373133
 30
0.0
 10
8.194696310694466
 20
10.09192510750502
 30
0.0
  0
ARC
  5
FF
330
1F
100
AcDbEntity
  8
0
  6
Continuous
 62
     7
370
    25
100
AcDbCircle
 10
0.0
 20
0.0
 30
0.0
 40
13.0
100
AcDbArc
 50
50.9232197182
 51
54.0767802818
  0
SPLINE
  5
100
330
1F
100
AcDbEntity
  8
0
  6
Continuous
 62
     7
370
    25
100
AcDbSpline
210
0.0
220
0.0
230
1.0
 70
     8
 71
     4
 72
    15
 73
    10
 74
     0
 42
0.000000001
 43
0.00000001
 40
0.0
 40
0.0
 40
0.0
 40
0.0
 40
0.0
 40
0.0028020339056145
 40
0.005604067811229
 40
0.0106611581043112
 40
0.0157182483973935
 40
0.029959916154659
 40
0.0303120130717026
 40
0.0303120130717026
 40
0.0303120130717026
 40
0.0303120130717026
 40
0.0303120130717026
 10
6.124359020176495
 20
9.46823249062618
 30
0.0
 10
6.14944537605533
 20
9.503072826068317
 30
0.0
 10
6.202741032892453
 20
9.570216556140457
 30
0.0
 10
6.315341510150835
 20
9.688731868955218
 30
0.0
 10
6.494469806074948
 20
9.84949722745706
 30
0.0
 10
6.8250344117057
 20
10.10224086661489
 30
0.0
 10
7.150318645817999
 20
10.29693632474512
 30
0.0
 10
7.418666885332218
 20
10.4333323803673
 30
0.0
 10
7.622194750873256
 20
10.52523928360306
 30
0.0
 10
7.627107624274834
 20
10.52745122466633
 30
0.0
  0
LINE
  5
101
330
1F
100
AcDbEntity
  8
0
  6
Continuous
 62
     7
370
    25
100
AcDbLine
 10
6.1243590202
 20
9.4682324906
 30
0.0
 11
5.8385102045
 21
9.026311461
 31
0.0
  0
ARC
  5
102
330
1F
100
AcDbEntity
  8
0
  6
Continuous
 62
     7
370
    25
100
AcDbCircle
 10
0.0
 20
0.0
 30
0.0
 40
10.75
100
AcDbArc
 50
57.1039047256
 51
62.8960952744
  0
LINE
  5
103
330
1F
100
AcDbEntity
  8
0
  6
Continuous
 62
     7
370
    25
100
AcDbLine
 10
5.1375503557
 20
10.0379667387
 30
0.0
 11
4.8977599255
 21
9.5694538879
 31
0.0
  0
SPLINE
  5
104
330
1F
100
AcDbEntity
  8
0
  6
Continuous
 62
     7
370
    25
100
AcDbSpline
210
0.0
220
0.0
230
1.0
 70
     8
 71
     4
 72
    15
 73
    10
 74
     0
 42
0.000000001
 43
0.00000001
 40
0.0
 40
0.0
 40
0.0
 40
0.0
 40
0.0
 40
0.0028020339056145
 40
0.005604067811229
 40
0.0106611581043112
 40
0.0157182483973935
 40
0.029959916154659
 40
0.0303120130717026
 40
0.0303120130717026
 40
0.0303120130717026
 40
0.0303120130717026
 40
0.0303120130717026
 10
5.137550355730974
 20
10.03796673868244
 30
0.0
 10
5.155179793360818
 20
10.07711232788296
 30
0.0
 10
5.186680140889573
 20
10.15683958565135
 30
0.0
 10
5.233017173895418
 20
10.31361211584275
 30
0.0
 10
5.282679910444465
 20
10.54912444990057
 30
0.0
 10
5.336280019784689
 20
10.9617736155477
 30
0.0
 10
5.342249115470759
 20
11.34082575480463
 30
0.0
 10
5.326197444858445
 20
11.64142017509587
 30
0.0
 10
5.304027225073244
 20
11.86363392865031
 30
0.0
 10
5.30348638552492
 20
11.86899457235328
 30
0.0
  0
ARC
  5
105
330
1F
100
AcDbEntity
  8
0
  6
Continuous
 62
     7
370
    25
100
AcDbCircle
 10
0.0
 20
0.0
 30
0.0
 40
13.0
100
AcDbArc
 50
65.9232197182
 51
69.0767802818
  0
SPLINE
  5
106
330
1F
100
AcDbEntity
  8
0
  6
Continuous
 62
     7
370
    25
100
AcDbSpline
210
0.0
220
0.0
230
1.0
 70
     8
 71
     4
 72
    15
 73
    10
 74
     0
 42
0.000000001
 43
0.00000001
 40
0.0
 40
0.0
 40
0.0
 40
0.0
 40
0.0
 40
0.0028020339056145
 40
0.005604067811229
 40
0.0106611581043112
 40
0.0157182483973935
 40
0.029959916154659
 40
0.0303120130717027
 40
0.0303120130717027
 40
0.0303120130717027
 40
0.0303120130717027
 40
0.0303120130717027
 10
3.465117655022354
 20
10.73071104547219
 30
0.0
 10
3.480331871703014
 20
10.77085705194599
 30
0.0
 10
3.514433446969139
 20
10.84950684590674
 30
0.0
 10
3.592523135912742
 20
10.99312699536735
 30
0.0
 10
3.72393864659198
 20
11.19477622161882
 30
0.0
 10
3.977824669085219
 20
11.5244642456857
 30
0.0
 10
4.241634219139884
 20
11.79671537181472
 30
0.0
 10
4.465536817253989
 20
11.99791747965016
 30
0.0
 10
4.638342382015759
 20
12.13936961891091
 30
0.0
 10
4.642515360841814
 20
12.14277773511266
 30
0.0
  0
LINE
  5
107
330
1F
100
AcDbEntity
  8
0
  6
Continuous
 62
     7
370
    25
100
AcDbLine
 10
3.465117655
 20
10.7307110455
 30
0.0
 11
3.3033864805
 21
10.2298649923
 31
0.0
  0
MTEXT
  5
109
330
1F
100
AcDbEntity
  8
0
  6
Continuous
 62
     7
100
AcDbMText
 10
-12.9305940098
 20
-21.2005904015
 30
0.0
 40
4.83362
 41
0.0
 71
     1
 72
     1
  1
SOLIDWORKS pi (pIgp)
  7
SLDTEXTSTYLE0
 73
     1
 44
1.0
  0
ENDSEC
  0
SECTION
  2
OBJECTS
  0
DICTIONARY
  5
C
330
0
100
AcDbDictionary
281
     1
  3
ACAD_GROUP
350
D
  3
ACAD_LAYOUT
350
1A
  3
ACAD_MLINESTYLE
350
17
  3
ACAD_PLOTSETTINGS
350
19
  3
ACAD_PLOTSTYLENAME
350
E
  3
ACAD_SCALELIST
350
47
  0
DICTIONARY
  5
D
102
{ACAD_REACTORS
330
C
102
}
330
C
100
AcDbDictionary
281
     1
  0
DICTIONARY
  5
1A
102
{ACAD_REACTORS
330
C
102
}
330
C
100
AcDbDictionary
281
     1
  3
Layout1
350
1E
  3
Layout2
350
26
  3
Model
350
22
  0
DICTIONARY
  5
17
102
{ACAD_REACTORS
330
C
102
}
330
C
100
AcDbDictionary
281
     1
  3
Standard
350
18
  0
DICTIONARY
  5
19
102
{ACAD_REACTORS
330
C
102
}
330
C
100
AcDbDictionary
281
     1
  0
ACDBDICTIONARYWDFLT
  5
E
102
{ACAD_REACTORS
330
C
102
}
330
C
100
AcDbDictionary
281
     1
  3
Normal
350
F
100
AcDbDictionaryWithDefault
340
F
  0
DICTIONARY
  5
47
102
{ACAD_REACTORS
330
C
102
}
330
C
100
AcDbDictionary
281
     1
  3
A0
350
48
  3
A1
350
49
  3
A2
350
4A
  3
A3
350
4B
  3
A4
350
4C
  3
A5
350
4D
  3
A6
350
4E
  3
A7
350
4F
  3
A8
350
50
  3
A9
350
51
  3
B0
350
52
  3
B1
350
53
  3
B2
350
54
  3
B3
350
55
  3
B4
350
56
  3
B5
350
57
  3
B6
350
58
  3
B7
350
59
  3
B8
350
5A
  3
B9
350
5B
  3
C0
350
5C
  3
C1
350
5D
  3
C2
350
5E
  3
C3
350
5F
  3
C4
350
60
  3
C5
350
61
  3
C6
350
62
  3
C7
350
63
  3
C8
350
64
  3
C9
350
65
  3
D0
350
66
  3
D1
350
67
  3
D2
350
68
  0
LAYOUT
  5
1E
102
{ACAD_REACTORS
330
1A
102
}
330
1A
100
AcDbPlotSettings
  1

  2
none_device
  4

  6

 40
0.0
 41
0.0
 42
0.0
 43
0.0
 44
0.0
 45
0.0
 46
0.0
 47
0.0
 48
0.0
 49
0.0
140
0.0
141
0.0
142
1.0
143
1.0
 70
   688
 72
     1
 73
     0
 74
     5
  7

 75
    16
147
1.0
148
0.0
149
0.0
100
AcDbLayout
  1
Layout1
 70
     1
 71
     1
 10
0.0
 20
0.0
 11
420.0
 21
297.0
 12
0.0
 22
0.0
 32
0.0
 14
1.0000000000E+20
 24
1.0000000000E+20
 34
1.0000000000E+20
 15
-1.0000000000E+20
 25
-1.0000000000E+20
 35
-1.0000000000E+20
146
0.0
 13
0.0
 23
0.0
 33
0.0
 16
1.0
 26
0.0
 36
0.0
 17
0.0
 27
1.0
 37
0.0
 76
     0
330
1B
  0
LAYOUT
  5
26
102
{ACAD_REACTORS
330
1A
102
}
330
1A
100
AcDbPlotSettings
  1

  2
none_device
  4

  6

 40
0.0
 41
0.0
 42
0.0
 43
0.0
 44
0.0
 45
0.0
 46
0.0
 47
0.0
 48
0.0
 49
0.0
140
0.0
141
0.0
142
1.0
143
1.0
 70
   688
 72
     1
 73
     0
 74
     5
  7

 75
    16
147
1.0
148
0.0
149
0.0
100
AcDbLayout
  1
Layout2
 70
     1
 71
     2
 10
0.0
 20
0.0
 11
0.0
 21
0.0
 12
0.0
 22
0.0
 32
0.0
 14
0.0
 24
0.0
 34
0.0
 15
0.0
 25
0.0
 35
0.0
146
0.0
 13
0.0
 23
0.0
 33
0.0
 16
1.0
 26
0.0
 36
0.0
 17
0.0
 27
1.0
 37
0.0
 76
     0
330
23
  0
LAYOUT
  5
22
102
{ACAD_REACTORS
330
1A
102
}
330
1A
100
AcDbPlotSettings
  1

  2
none_device
  4
ANSI_A_(11.00_x_8.50_Inches)
  6

 40
6.35
 41
19.05
 42
6.35000508
 43
19.05000254
 44
279.4
 45
215.9
 46
133.34999746
 47
88.89999873
 48
0.0
 49
0.0
140
0.0
141
0.0
142
0.3253910839
143
1.0
 70
  1696
 72
     0
 73
     0
 74
     0
  7

 75
     0
147
0.0179189148
148
-1300.4909072572
149
0.0
100
AcDbLayout
  1
Model
 70
     1
 71
     0
 10
0.0
 20
0.0
 11
420.0
 21
297.0
 12
0.0
 22
0.0
 32
0.0
 14
-12.9305940098
 24
-12.9305940098
 34
0.0
 15
12.9305940098
 25
12.9305940098
 35
0.0
146
0.0
 13
0.0
 23
0.0
 33
0.0
 16
1.0
 26
0.0
 36
0.0
 17
0.0
 27
1.0
 37
0.0
 76
     0
330
1F
331
29
  0
MLINESTYLE
  5
18
102
{ACAD_REACTORS
330
17
102
}
330
17
100
AcDbMlineStyle
  2
Standard
 70
     0
  3

 62
   256
 51
90.0
 52
90.0
 71
     2
 49
0.5
 62
   256
  6
BYLAYER
 49
-0.5
 62
   256
  6
BYLAYER
  0
ACDBPLACEHOLDER
  5
F
102
{ACAD_REACTORS
330
E
102
}
330
E
  0
SCALE
  5
48
102
{ACAD_REACTORS
330
47
102
}
330
47
100
AcDbScale
 70
     0
300
1:1
140
1.0
141
1.0
290
     1
  0
SCALE
  5
49
102
{ACAD_REACTORS
330
47
102
}
330
47
100
AcDbScale
 70
     0
300
1:2
140
1.0
141
2.0
290
     0
  0
SCALE
  5
4A
102
{ACAD_REACTORS
330
47
102
}
330
47
100
AcDbScale
 70
     0
300
1:4
140
1.0
141
4.0
290
     0
  0
SCALE
  5
4B
102
{ACAD_REACTORS
330
47
102
}
330
47
100
AcDbScale
 70
     0
300
1:5
140
1.0
141
5.0
290
     0
  0
SCALE
  5
4C
102
{ACAD_REACTORS
330
47
102
}
330
47
100
AcDbScale
 70
     0
300
1:8
140
1.0
141
8.0
290
     0
  0
SCALE
  5
4D
102
{ACAD_REACTORS
330
47
102
}
330
47
100
AcDbScale
 70
     0
300
1:10
140
1.0
141
10.0
290
     0
  0
SCALE
  5
4E
102
{ACAD_REACTORS
330
47
102
}
330
47
100
AcDbScale
 70
     0
300
1:16
140
1.0
141
16.0
290
     0
  0
SCALE
  5
4F
102
{ACAD_REACTORS
330
47
102
}
330
47
100
AcDbScale
 70
     0
300
1:20
140
1.0
141
20.0
290
     0
  0
SCALE
  5
50
102
{ACAD_REACTORS
330
47
102
}
330
47
100
AcDbScale
 70
     0
300
1:30
140
1.0
141
30.0
290
     0
  0
SCALE
  5
51
102
{ACAD_REACTORS
330
47
102
}
330
47
100
AcDbScale
 70
     0
300
1:40
140
1.0
141
40.0
290
     0
  0
SCALE
  5
52
102
{ACAD_REACTORS
330
47
102
}
330
47
100
AcDbScale
 70
     0
300
1:50
140
1.0
141
50.0
290
     0
  0
SCALE
  5
53
102
{ACAD_REACTORS
330
47
102
}
330
47
100
AcDbScale
 70
     0
300
1:100
140
1.0
141
100.0
290
     0
  0
SCALE
  5
54
102
{ACAD_REACTORS
330
47
102
}
330
47
100
AcDbScale
 70
     0
300
2:1
140
2.0
141
1.0
290
     0
  0
SCALE
  5
55
102
{ACAD_REACTORS
330
47
102
}
330
47
100
AcDbScale
 70
     0
300
4:1
140
4.0
141
1.0
290
     0
  0
SCALE
  5
56
102
{ACAD_REACTORS
330
47
102
}
330
47
100
AcDbScale
 70
     0
300
8:1
140
8.0
141
1.0
290
     0
  0
SCALE
  5
57
102
{ACAD_REACTORS
330
47
102
}
330
47
100
AcDbScale
 70
     0
300
10:1
140
10.0
141
1.0
290
     0
  0
SCALE
  5
58
102
{ACAD_REACTORS
330
47
102
}
330
47
100
AcDbScale
 70
     0
300
100:1
140
100.0
141
1.0
290
     0
  0
SCALE
  5
59
102
{ACAD_REACTORS
330
47
102
}
330
47
100
AcDbScale
 70
     0
300
1/128" = 1'-0"
140
0.0078125
141
12.0
290
     0
  0
SCALE
  5
5A
102
{ACAD_REACTORS
330
47
102
}
330
47
100
AcDbScale
 70
     0
300
1/64" = 1'-0"
140
0.015625
141
12.0
290
     0
  0
SCALE
  5
5B
102
{ACAD_REACTORS
330
47
102
}
330
47
100
AcDbScale
 70
     0
300
1/32" = 1'-0"
140
0.03125
141
12.0
290
     0
  0
SCALE
  5
5C
102
{ACAD_REACTORS
330
47
102
}
330
47
100
AcDbScale
 70
     0
300
1/16" = 1'-0"
140
0.0625
141
12.0
290
     0
  0
SCALE
  5
5D
102
{ACAD_REACTORS
330
47
102
}
330
47
100
AcDbScale
 70
     0
300
3/32" = 1'-0"
140
0.09375
141
12.0
290
     0
  0
SCALE
  5
5E
102
{ACAD_REACTORS
330
47
102
}
330
47
100
AcDbScale
 70
     0
300
1/8" = 1'-0"
140
0.125
141
12.0
290
     0
  0
SCALE
  5
5F
102
{ACAD_REACTORS
330
47
102
}
330
47
100
AcDbScale
 70
     0
300
3/16" = 1'-0"
140
0.1875
141
12.0
290
     0
  0
SCALE
  5
60
102
{ACAD_REACTORS
330
47
102
}
330
47
100
AcDbScale
 70
     0
300
1/4" = 1'-0"
140
0.25
141
12.0
290
     0
  0
SCALE
  5
61
102
{ACAD_REACTORS
330
47
102
}
330
47
100
AcDbScale
 70
     0
300
3/8" = 1'-0"
140
0.375
141
12.0
290
     0
  0
SCALE
  5
62
102
{ACAD_REACTORS
330
47
102
}
330
47
100
AcDbScale
 70
     0
300
1/2" = 1'-0"
140
0.5
141
12.0
290
     0
  0
SCALE
  5
63
102
{ACAD_REACTORS
330
47
102
}
330
47
100
AcDbScale
 70
     0
300
3/4" = 1'-0"
140
0.75
141
12.0
290
     0
  0
SCALE
  5
64
102
{ACAD_REACTORS
330
47
102
}
330
47
100
AcDbScale
 70
     0
300
1" = 1'-0"
140
1.0
141
12.0
290
     0
  0
SCALE
  5
65
102
{ACAD_REACTORS
330
47
102
}
330
47
100
AcDbScale
 70
     0
300
1-1/2" = 1'-0"
140
1.5
141
12.0
290
     0
  0
SCALE
  5
66
102
{ACAD_REACTORS
330
47
102
}
330
47
100
AcDbScale
 70
     0
300
3" = 1'-0"
140
3.0
141
12.0
290
     0
  0
SCALE
  5
67
102
{ACAD_REACTORS
330
47
102
}
330
47
100
AcDbScale
 70
     0
300
6" = 1'-0"
140
6.0
141
12.0
290
     0
  0
SCALE
  5
68
102
{ACAD_REACTORS
330
47
102
}
330
47
100
AcDbScale
 70
     0
300
1'-0" = 1'-0"
140
12.0
141
12.0
290
     0
  0
ENDSEC
  0
EOF
