  0
SECTION
  2
HEADER
  9
$ACADVER
  1
AC1015
  9
$ACADMAINTVER
 70
     6
  9
$DWGCODEPAGE
  3
DOS932
  9
$INSBASE
 10
0.0
 20
0.0
 30
0.0
  9
$EXTMIN
 10
-24.9687680902
 20
-24.9687680902
 30
0.0
  9
$EXTMAX
 10
24.9687680902
 20
24.9687680902
 30
0.0
  9
$LIMMIN
 10
0.0
 20
0.0
  9
$LIMMAX
 10
420.0
 20
297.0
  9
$ORTHOMODE
 70
     0
  9
$REGENMODE
 70
     1
  9
$FILLMODE
 70
     1
  9
$QTEXTMODE
 70
     0
  9
$MIRRTEXT
 70
     1
  9
$LTSCALE
 40
1.0
  9
$ATTMODE
 70
     1
  9
$TEXTSIZE
 40
3.5
  9
$TRACEWID
 40
1.0
  9
$TEXTSTYLE
  7
Standard
  9
$CLAYER
  8
0
  9
$CELTYPE
  6
ByLayer
  9
$CECOLOR
 62
   256
  9
$CELTSCALE
 40
1.0
  9
$DISPSILH
 70
     0
  9
$DIMSCALE
 40
1.0
  9
$DIMASZ
 40
3.302
  9
$DIMEXO
 40
1.0
  9
$DIMDLI
 40
3.75
  9
$DIMRND
 40
0.0
  9
$DIMDLE
 40
0.0
  9
$DIMEXE
 40
1.0
  9
$DIMTP
 40
0.0
  9
$DIMTM
 40
0.0
  9
$DIMTXT
 40
3.5
  9
$DIMCEN
 40
2.5
  9
$DIMTSZ
 40
0.0
  9
$DIMTOL
 70
     0
  9
$DIMLIM
 70
     0
  9
$DIMTIH
 70
     1
  9
$DIMTOH
 70
     1
  9
$DIMSE1
 70
     0
  9
$DIMSE2
 70
     0
  9
$DIMTAD
 70
     1
  9
$DIMZIN
 70
     0
  9
$DIMBLK
  1

  9
$DIMASO
 70
     1
  9
$DIMSHO
 70
     1
  9
$DIMPOST
  1

  9
$DIMAPOST
  1

  9
$DIMALT
 70
     0
  9
$DIMALTD
 70
     3
  9
$DIMALTF
 40
0.0393700787
  9
$DIMLFAC
 40
1.0
  9
$DIMTOFL
 70
     1
  9
$DIMTVP
 40
0.0
  9
$DIMTIX
 70
     0
  9
$DIMSOXD
 70
     0
  9
$DIMSAH
 70
     0
  9
$DIMBLK1
  1

  9
$DIMBLK2
  1

  9
$DIMSTYLE
  2
ISO-25
  9
$DIMCLRD
 70
     0
  9
$DIMCLRE
 70
     0
  9
$DIMCLRT
 70
     0
  9
$DIMTFAC
 40
1.0
  9
$DIMGAP
 40
1.524
  9
$DIMJUST
 70
     0
  9
$DIMSD1
 70
     0
  9
$DIMSD2
 70
     0
  9
$DIMTOLJ
 70
     0
  9
$DIMTZIN
 70
     0
  9
$DIMALTZ
 70
     0
  9
$DIMALTTZ
 70
     0
  9
$DIMUPT
 70
     0
  9
$DIMDEC
 70
     2
  9
$DIMTDEC
 70
     2
  9
$DIMALTU
 70
     2
  9
$DIMALTTD
 70
     3
  9
$DIMTXSTY
  7
Standard
  9
$DIMAUNIT
 70
     0
  9
$DIMADEC
 70
     2
  9
$DIMALTRND
 40
0.0
  9
$DIMAZIN
 70
     0
  9
$DIMDSEP
 70
    44
  9
$DIMATFIT
 70
     3
  9
$DIMFRAC
 70
     0
  9
$DIMLDRBLK
  1

  9
$DIMLUNIT
 70
     2
  9
$DIMLWD
 70
    -2
  9
$DIMLWE
 70
    -2
  9
$DIMTMOVE
 70
     0
  9
$LUNITS
 70
     2
  9
$LUPREC
 70
     2
  9
$SKETCHINC
 40
1.0
  9
$FILLETRAD
 40
10.0
  9
$AUNITS
 70
     0
  9
$AUPREC
 70
     2
  9
$MENU
  1
.
  9
$ELEVATION
 40
0.0
  9
$PELEVATION
 40
0.0
  9
$THICKNESS
 40
0.0
  9
$LIMCHECK
 70
     0
  9
$CHAMFERA
 40
0.0
  9
$CHAMFERB
 40
0.0
  9
$CHAMFERC
 40
0.0
  9
$CHAMFERD
 40
0.0
  9
$SKPOLY
 70
     0
  9
$TDCREATE
 40
2458935.079815069
  9
$TDUCREATE
 40
2458934.704815069
  9
$TDUPDATE
 40
2458935.079829502
  9
$TDUUPDATE
 40
2458934.704829502
  9
$TDINDWG
 40
0.0000000116
  9
$TDUSRTIMER
 40
0.0000000116
  9
$USRTIMER
 70
     1
  9
$ANGBASE
 50
0.0
  9
$ANGDIR
 70
     0
  9
$PDMODE
 70
     0
  9
$PDSIZE
 40
-1.0
  9
$PLINEWID
 40
0.0
  9
$SPLFRAME
 70
     0
  9
$SPLINETYPE
 70
     6
  9
$SPLINESEGS
 70
     8
  9
$HANDSEED
  5
1DA
  9
$SURFTAB1
 70
     6
  9
$SURFTAB2
 70
     6
  9
$SURFTYPE
 70
     6
  9
$SURFU
 70
     6
  9
$SURFV
 70
     6
  9
$UCSBASE
  2

  9
$UCSNAME
  2

  9
$UCSORG
 10
0.0
 20
0.0
 30
0.0
  9
$UCSXDIR
 10
1.0
 20
0.0
 30
0.0
  9
$UCSYDIR
 10
0.0
 20
1.0
 30
0.0
  9
$UCSORTHOREF
  2

  9
$UCSORTHOVIEW
 70
     0
  9
$UCSORGTOP
 10
0.0
 20
0.0
 30
0.0
  9
$UCSORGBOTTOM
 10
0.0
 20
0.0
 30
0.0
  9
$UCSORGLEFT
 10
0.0
 20
0.0
 30
0.0
  9
$UCSORGRIGHT
 10
0.0
 20
0.0
 30
0.0
  9
$UCSORGFRONT
 10
0.0
 20
0.0
 30
0.0
  9
$UCSORGBACK
 10
0.0
 20
0.0
 30
0.0
  9
$PUCSBASE
  2

  9
$PUCSNAME
  2

  9
$PUCSORG
 10
0.0
 20
0.0
 30
0.0
  9
$PUCSXDIR
 10
1.0
 20
0.0
 30
0.0
  9
$PUCSYDIR
 10
0.0
 20
1.0
 30
0.0
  9
$PUCSORTHOREF
  2

  9
$PUCSORTHOVIEW
 70
     0
  9
$PUCSORGTOP
 10
0.0
 20
0.0
 30
0.0
  9
$PUCSORGBOTTOM
 10
0.0
 20
0.0
 30
0.0
  9
$PUCSORGLEFT
 10
0.0
 20
0.0
 30
0.0
  9
$PUCSORGRIGHT
 10
0.0
 20
0.0
 30
0.0
  9
$PUCSORGFRONT
 10
0.0
 20
0.0
 30
0.0
  9
$PUCSORGBACK
 10
0.0
 20
0.0
 30
0.0
  9
$USERI1
 70
     0
  9
$USERI2
 70
     0
  9
$USERI3
 70
     0
  9
$USERI4
 70
     0
  9
$USERI5
 70
     0
  9
$USERR1
 40
0.0
  9
$USERR2
 40
0.0
  9
$USERR3
 40
0.0
  9
$USERR4
 40
0.0
  9
$USERR5
 40
0.0
  9
$WORLDVIEW
 70
     1
  9
$SHADEDGE
 70
     3
  9
$SHADEDIF
 70
    70
  9
$TILEMODE
 70
     1
  9
$MAXACTVP
 70
    64
  9
$PINSBASE
 10
0.0
 20
0.0
 30
0.0
  9
$PLIMCHECK
 70
     0
  9
$PEXTMIN
 10
1.0000000000E+20
 20
1.0000000000E+20
 30
1.0000000000E+20
  9
$PEXTMAX
 10
-1.0000000000E+20
 20
-1.0000000000E+20
 30
-1.0000000000E+20
  9
$PLIMMIN
 10
0.0
 20
0.0
  9
$PLIMMAX
 10
420.0
 20
297.0
  9
$UNITMODE
 70
     0
  9
$VISRETAIN
 70
     1
  9
$PLINEGEN
 70
     0
  9
$PSLTSCALE
 70
     1
  9
$TREEDEPTH
 70
  3020
  9
$CMLSTYLE
  2
Standard
  9
$CMLJUST
 70
     0
  9
$CMLSCALE
 40
20.0
  9
$PROXYGRAPHICS
 70
     1
  9
$MEASUREMENT
 70
     1
  9
$CELWEIGHT
370
    -1
  9
$ENDCAPS
280
     0
  9
$JOINSTYLE
280
     0
  9
$LWDISPLAY
290
     1
  9
$INSUNITS
 70
     4
  9
$HYPERLINKBASE
  1

  9
$STYLESHEET
  1

  9
$XEDIT
290
     1
  9
$CEPSNTYPE
380
     0
  9
$PSTYLEMODE
290
     1
  9
$FINGERPRINTGUID
  2
{69524BAD-1492-4820-9068-FA1F1149F86E}
  9
$VERSIONGUID
  2
{FAEB1C32-E019-11D5-929B-00C0DF256EC4}
  9
$EXTNAMES
290
     1
  9
$PSVPSCALE
 40
0.0
  9
$OLESTARTUP
290
     0
  0
ENDSEC
  0
SECTION
  2
CLASSES
  0
CLASS
  1
ACDBDICTIONARYWDFLT
  2
AcDbDictionaryWithDefault
  3
ObjectDBX Classes
 90
        0
280
     0
281
     0
  0
CLASS
  1
VISUALSTYLE
  2
AcDbVisualStyle
  3
ObjectDBX Classes
 90
     4095
280
     0
281
     0
  0
CLASS
  1
MATERIAL
  2
AcDbMaterial
  3
ObjectDBX Classes
 90
     1153
280
     0
281
     0
  0
CLASS
  1
SCALE
  2
AcDbScale
  3
ObjectDBX Classes
 90
     1153
280
     0
281
     0
  0
CLASS
  1
TABLESTYLE
  2
AcDbTableStyle
  3
ObjectDBX Classes
 90
     4095
280
     0
281
     0
  0
CLASS
  1
MLEADERSTYLE
  2
AcDbMLeaderStyle
  3
ACDB_MLEADERSTYLE_CLASS
 90
     4095
280
     0
281
     0
  0
CLASS
  1
SUN
  2
AcDbSun
  3
SCENEOE
 90
     1153
280
     0
281
     0
  0
CLASS
  1
ACDBPLACEHOLDER
  2
AcDbPlaceHolder
  3
ObjectDBX Classes
 90
        0
280
     0
281
     0
  0
CLASS
  1
LAYOUT
  2
AcDbLayout
  3
ObjectDBX Classes
 90
        0
280
     0
281
     0
  0
ENDSEC
  0
SECTION
  2
TABLES
  0
TABLE
  2
VPORT
  5
8
330
0
100
AcDbSymbolTable
 70
     1
  0
VPORT
  5
29
330
8
100
AcDbSymbolTableRecord
100
AcDbViewportTableRecord
  2
*Active
 70
     0
 10
0.0
 20
0.0
 11
1.0
 21
1.0
 12
0.0
 22
0.0
 13
0.0
 23
0.0
 14
10.0
 24
10.0
 15
10.0
 25
10.0
 16
0.0
 26
0.0
 36
1.0
 17
0.0
 27
0.0
 37
0.0
 40
50.936286904
 41
1.0
 42
50.0
 43
0.0
 44
0.0
 50
0.0
 51
0.0
 71
     0
 72
   100
 73
     1
 74
     3
 75
     0
 76
     0
 77
     0
 78
     0
281
     0
 65
     1
110
0.0
120
0.0
130
0.0
111
1.0
121
0.0
131
0.0
112
0.0
122
1.0
132
0.0
 79
     0
146
0.0
  0
ENDTAB
  0
TABLE
  2
LTYPE
  5
5
330
0
100
AcDbSymbolTable
 70
     6
  0
LTYPE
  5
14
330
5
100
AcDbSymbolTableRecord
100
AcDbLinetypeTableRecord
  2
ByBlock
 70
     0
  3

 72
    65
 73
     0
 40
0.0
  0
LTYPE
  5
15
330
5
100
AcDbSymbolTableRecord
100
AcDbLinetypeTableRecord
  2
ByLayer
 70
     0
  3

 72
    65
 73
     0
 40
0.0
  0
LTYPE
  5
16
330
5
100
AcDbSymbolTableRecord
100
AcDbLinetypeTableRecord
  2
Continuous
 70
     0
  3
Solid line
 72
    65
 73
     0
 40
0.0
  0
LTYPE
  5
6E
330
5
100
AcDbSymbolTableRecord
100
AcDbLinetypeTableRecord
  2
HIDDEN
 70
     0
  3
Hidden __ __ __ __ __ __ __ __ __ __ __ __ __ __
 72
    65
 73
     2
 40
1.905
 49
1.27
 74
     0
 49
-0.635
 74
     0
  0
LTYPE
  5
6F
330
5
100
AcDbSymbolTableRecord
100
AcDbLinetypeTableRecord
  2
PHANTOM
 70
     0
  3
Phantom ______  __  __  ______  __  __  ______
 72
    65
 73
     6
 40
12.7
 49
6.35
 74
     0
 49
-1.27
 74
     0
 49
1.27
 74
     0
 49
-1.27
 74
     0
 49
1.27
 74
     0
 49
-1.27
 74
     0
  0
LTYPE
  5
70
330
5
100
AcDbSymbolTableRecord
100
AcDbLinetypeTableRecord
  2
CENTER
 70
     0
  3
Center ____ _ ____ _ ____ _ ____ _ ____ _ ____
 72
    65
 73
     4
 40
10.16
 49
6.35
 74
     0
 49
-1.27
 74
     0
 49
1.27
 74
     0
 49
-1.27
 74
     0
  0
LTYPE
  5
71
330
5
100
AcDbSymbolTableRecord
100
AcDbLinetypeTableRecord
  2
CENTERX2
 70
     0
  3
Center (2x) ________  __  ________  __  _____
 72
    65
 73
     4
 40
20.32
 49
12.7
 74
     0
 49
-2.54
 74
     0
 49
2.54
 74
     0
 49
-2.54
 74
     0
  0
LTYPE
  5
72
330
5
100
AcDbSymbolTableRecord
100
AcDbLinetypeTableRecord
  2
DOT2
 70
     0
  3
Dot (.5x) ........................................
 72
    65
 73
     2
 40
0.635
 49
0.0
 74
     0
 49
-0.635
 74
     0
  0
ENDTAB
  0
TABLE
  2
LAYER
  5
2
330
0
100
AcDbSymbolTable
 70
     1
  0
LAYER
  5
10
330
2
100
AcDbSymbolTableRecord
100
AcDbLayerTableRecord
  2
0
 70
     0
 62
     7
  6
Continuous
370
    -3
390
F
  0
ENDTAB
  0
TABLE
  2
STYLE
  5
3
330
0
100
AcDbSymbolTable
 70
     2
  0
STYLE
  5
11
330
3
100
AcDbSymbolTableRecord
100
AcDbTextStyleTableRecord
  2
Standard
 70
     0
 40
0.0
 41
1.0
 50
0.0
 71
     0
 42
3.5
  3
txt
  4
bigfont
  0
STYLE
  5
1D8
330
3
100
AcDbSymbolTableRecord
100
AcDbTextStyleTableRecord
  2
SLDTEXTSTYLE0
 70
     0
 40
0.0
 41
0.7
 50
0.0
 71
     0
 42
3.5
  3
TXT
  4
bigfont
  0
ENDTAB
  0
TABLE
  2
VIEW
  5
6
330
0
100
AcDbSymbolTable
 70
     0
  0
ENDTAB
  0
TABLE
  2
UCS
  5
7
330
0
100
AcDbSymbolTable
 70
     0
  0
ENDTAB
  0
TABLE
  2
APPID
  5
9
330
0
100
AcDbSymbolTable
 70
     1
  0
APPID
  5
12
330
9
100
AcDbSymbolTableRecord
100
AcDbRegAppTableRecord
  2
ACAD
 70
     0
  0
ENDTAB
  0
TABLE
  2
DIMSTYLE
  5
A
330
0
100
AcDbSymbolTable
 70
     1
100
AcDbDimStyleTable
  0
DIMSTYLE
105
27
330
A
100
AcDbSymbolTableRecord
100
AcDbDimStyleTableRecord
  2
ISO-25
 70
     0
 41
2.5
 42
0.625
 43
3.75
 44
1.25
 73
     0
 74
     0
 77
     1
 78
     8
140
2.5
141
2.5
143
0.0393700787
147
0.625
171
     3
172
     1
178
     0
271
     2
272
     2
274
     3
278
    44
283
     0
284
     8
340
11
  0
ENDTAB
  0
TABLE
  2
BLOCK_RECORD
  5
1
330
0
100
AcDbSymbolTable
 70
     1
  0
BLOCK_RECORD
  5
1F
330
1
100
AcDbSymbolTableRecord
100
AcDbBlockTableRecord
  2
*Model_Space
340
22
  0
BLOCK_RECORD
  5
1B
330
1
100
AcDbSymbolTableRecord
100
AcDbBlockTableRecord
  2
*Paper_Space
340
1E
  0
BLOCK_RECORD
  5
23
330
1
100
AcDbSymbolTableRecord
100
AcDbBlockTableRecord
  2
*Paper_Space0
340
26
  0
ENDTAB
  0
ENDSEC
  0
SECTION
  2
BLOCKS
  0
BLOCK
  5
20
330
1F
100
AcDbEntity
  8
0
100
AcDbBlockBegin
  2
*Model_Space
 70
     0
 10
0.0
 20
0.0
 30
0.0
  3
*Model_Space
  1

  0
ENDBLK
  5
21
330
1F
100
AcDbEntity
  8
0
100
AcDbBlockEnd
  0
BLOCK
  5
1C
330
1B
100
AcDbEntity
 67
     1
  8
0
100
AcDbBlockBegin
  2
*Paper_Space
 70
     0
 10
0.0
 20
0.0
 30
0.0
  3
*Paper_Space
  1

  0
ENDBLK
  5
1D
330
1B
100
AcDbEntity
 67
     1
  8
0
100
AcDbBlockEnd
  0
BLOCK
  5
24
330
23
100
AcDbEntity
  8
0
100
AcDbBlockBegin
  2
*Paper_Space0
 70
     0
 10
0.0
 20
0.0
 30
0.0
  3
*Paper_Space0
  1

  0
ENDBLK
  5
25
330
23
100
AcDbEntity
  8
0
100
AcDbBlockEnd
  0
ENDSEC
  0
SECTION
  2
ENTITIES
  0
ARC
  5
73
330
1F
100
AcDbEntity
  8
0
  6
Continuous
 62
     7
370
    25
100
AcDbCircle
 10
0.0
 20
0.0
 30
0.0
 40
10.0
100
AcDbArc
 50
64.4712206345
 51
70.5287793655
  0
ARC
  5
74
330
1F
100
AcDbEntity
  8
0
  6
Continuous
 62
     7
370
    25
100
AcDbCircle
 10
4.0
 20
11.313708499
 30
0.0
 40
1.999999999999998
100
AcDbArc
 50
180.0
 51
250.5287793655
  0
LINE
  5
75
330
1F
100
AcDbEntity
  8
0
  6
Continuous
 62
     7
370
    25
100
AcDbLine
 10
2.0
 20
16.2653773396
 30
0.0
 11
2.0
 21
11.313708499
 31
0.0
  0
ARC
  5
76
330
1F
100
AcDbEntity
  8
0
  6
Continuous
 62
     7
370
    25
100
AcDbCircle
 10
4.0
 20
16.2653773396
 30
0.0
 40
2.000000000000005
100
AcDbArc
 50
76.1839215247
 51
180.0
  0
ARC
  5
77
330
1F
100
AcDbEntity
  8
0
  6
Continuous
 62
     7
370
    25
100
AcDbCircle
 10
0.0
 20
0.0
 30
0.0
 40
18.75
100
AcDbArc
 50
58.8160784753
 51
76.1839215247
  0
ARC
  5
78
330
1F
100
AcDbEntity
  8
0
  6
Continuous
 62
     7
370
    25
100
AcDbCircle
 10
8.6729314907
 20
14.3297857401
 30
0.0
 40
2.000000000000004
100
AcDbArc
 50
315.0
 51
58.8160784753
  0
LINE
  5
79
330
1F
100
AcDbEntity
  8
0
  6
Continuous
 62
     7
370
    25
100
AcDbLine
 10
6.5857864376
 20
9.4142135624
 30
0.0
 11
10.087145053
 21
12.9155721778
 31
0.0
  0
ARC
  5
7A
330
1F
100
AcDbEntity
  8
0
  6
Continuous
 62
     7
370
    25
100
AcDbCircle
 10
5.1715728753
 20
10.8284271247
 30
0.0
 40
2.0
100
AcDbArc
 50
244.4712206345
 51
315.0
  0
ARC
  5
7B
330
1F
100
AcDbEntity
  8
0
  6
Continuous
 62
     7
370
    25
100
AcDbCircle
 10
0.0
 20
0.0
 30
0.0
 40
10.0
100
AcDbArc
 50
109.4712206345
 51
115.5287793655
  0
ARC
  5
7C
330
1F
100
AcDbEntity
  8
0
  6
Continuous
 62
     7
370
    25
100
AcDbCircle
 10
-5.1715728753
 20
10.8284271247
 30
0.0
 40
2.0
100
AcDbArc
 50
225.0
 51
295.5287793655
  0
LINE
  5
7D
330
1F
100
AcDbEntity
  8
0
  6
Continuous
 62
     7
370
    25
100
AcDbLine
 10
-10.087145053
 20
12.9155721778
 30
0.0
 11
-6.5857864376
 21
9.4142135624
 31
0.0
  0
ARC
  5
7E
330
1F
100
AcDbEntity
  8
0
  6
Continuous
 62
     7
370
    25
100
AcDbCircle
 10
-8.6729314907
 20
14.3297857401
 30
0.0
 40
2.000000000000008
100
AcDbArc
 50
121.1839215247
 51
225.0
  0
ARC
  5
7F
330
1F
100
AcDbEntity
  8
0
  6
Continuous
 62
     7
370
    25
100
AcDbCircle
 10
0.0
 20
0.0
 30
0.0
 40
18.75
100
AcDbArc
 50
103.8160784753
 51
121.1839215247
  0
ARC
  5
80
330
1F
100
AcDbEntity
  8
0
  6
Continuous
 62
     7
370
    25
100
AcDbCircle
 10
-4.0
 20
16.2653773396
 30
0.0
 40
2.000000000000006
100
AcDbArc
 50
0.0
 51
103.8160784753
  0
LINE
  5
81
330
1F
100
AcDbEntity
  8
0
  6
Continuous
 62
     7
370
    25
100
AcDbLine
 10
-2.0
 20
11.313708499
 30
0.0
 11
-2.0
 21
16.2653773396
 31
0.0
  0
ARC
  5
82
330
1F
100
AcDbEntity
  8
0
  6
Continuous
 62
     7
370
    25
100
AcDbCircle
 10
-4.0
 20
11.313708499
 30
0.0
 40
1.999999999999998
100
AcDbArc
 50
289.4712206345
 51
0.0
  0
ARC
  5
83
330
1F
100
AcDbEntity
  8
0
  6
Continuous
 62
     7
370
    25
100
AcDbCircle
 10
0.0
 20
0.0
 30
0.0
 40
10.0
100
AcDbArc
 50
154.4712206345
 51
160.5287793655
  0
ARC
  5
84
330
1F
100
AcDbEntity
  8
0
  6
Continuous
 62
     7
370
    25
100
AcDbCircle
 10
-11.313708499
 20
4.0
 30
0.0
 40
1.999999999999997
100
AcDbArc
 50
270.0
 51
340.5287793655
  0
LINE
  5
85
330
1F
100
AcDbEntity
  8
0
  6
Continuous
 62
     7
370
    25
100
AcDbLine
 10
-16.2653773396
 20
2.0
 30
0.0
 11
-11.313708499
 21
2.0
 31
0.0
  0
ARC
  5
86
330
1F
100
AcDbEntity
  8
0
  6
Continuous
 62
     7
370
    25
100
AcDbCircle
 10
-16.2653773396
 20
4.0
 30
0.0
 40
2.000000000000002
100
AcDbArc
 50
166.1839215247
 51
270.0
  0
ARC
  5
87
330
1F
100
AcDbEntity
  8
0
  6
Continuous
 62
     7
370
    25
100
AcDbCircle
 10
0.0
 20
0.0
 30
0.0
 40
18.75
100
AcDbArc
 50
148.8160784753
 51
166.1839215247
  0
ARC
  5
88
330
1F
100
AcDbEntity
  8
0
  6
Continuous
 62
     7
370
    25
100
AcDbCircle
 10
-14.3297857401
 20
8.6729314907
 30
0.0
 40
2.000000000000004
100
AcDbArc
 50
45.0
 51
148.8160784753
  0
LINE
  5
89
330
1F
100
AcDbEntity
  8
0
  6
Continuous
 62
     7
370
    25
100
AcDbLine
 10
-9.4142135624
 20
6.5857864376
 30
0.0
 11
-12.9155721778
 21
10.087145053
 31
0.0
  0
ARC
  5
8A
330
1F
100
AcDbEntity
  8
0
  6
Continuous
 62
     7
370
    25
100
AcDbCircle
 10
-10.8284271247
 20
5.1715728753
 30
0.0
 40
2.0
100
AcDbArc
 50
334.4712206345
 51
45.0
  0
ARC
  5
8B
330
1F
100
AcDbEntity
  8
0
  6
Continuous
 62
     7
370
    25
100
AcDbCircle
 10
0.0
 20
0.0
 30
0.0
 40
10.0
100
AcDbArc
 50
199.4712206345
 51
205.5287793655
  0
ARC
  5
8C
330
1F
100
AcDbEntity
  8
0
  6
Continuous
 62
     7
370
    25
100
AcDbCircle
 10
-10.8284271247
 20
-5.1715728753
 30
0.0
 40
1.999999999999999
100
AcDbArc
 50
315.0
 51
25.5287793655
  0
LINE
  5
8D
330
1F
100
AcDbEntity
  8
0
  6
Continuous
 62
     7
370
    25
100
AcDbLine
 10
-12.9155721778
 20
-10.087145053
 30
0.0
 11
-9.4142135624
 21
-6.5857864376
 31
0.0
  0
ARC
  5
8E
330
1F
100
AcDbEntity
  8
0
  6
Continuous
 62
     7
370
    25
100
AcDbCircle
 10
-14.3297857401
 20
-8.6729314907
 30
0.0
 40
2.0
100
AcDbArc
 50
211.1839215247
 51
315.0
  0
ARC
  5
8F
330
1F
100
AcDbEntity
  8
0
  6
Continuous
 62
     7
370
    25
100
AcDbCircle
 10
0.0
 20
0.0
 30
0.0
 40
18.75
100
AcDbArc
 50
193.8160784753
 51
211.1839215247
  0
ARC
  5
90
330
1F
100
AcDbEntity
  8
0
  6
Continuous
 62
     7
370
    25
100
AcDbCircle
 10
-16.2653773396
 20
-4.0
 30
0.0
 40
1.999999999999998
100
AcDbArc
 50
90.0
 51
193.8160784753
  0
LINE
  5
91
330
1F
100
AcDbEntity
  8
0
  6
Continuous
 62
     7
370
    25
100
AcDbLine
 10
-11.313708499
 20
-2.0
 30
0.0
 11
-16.2653773396
 21
-2.0
 31
0.0
  0
ARC
  5
92
330
1F
100
AcDbEntity
  8
0
  6
Continuous
 62
     7
370
    25
100
AcDbCircle
 10
-11.313708499
 20
-4.0
 30
0.0
 40
1.999999999999998
100
AcDbArc
 50
19.4712206345
 51
90.0
  0
ARC
  5
93
330
1F
100
AcDbEntity
  8
0
  6
Continuous
 62
     7
370
    25
100
AcDbCircle
 10
0.0
 20
0.0
 30
0.0
 40
9.999999999999998
100
AcDbArc
 50
289.4712206345
 51
295.5287793655
  0
ARC
  5
94
330
1F
100
AcDbEntity
  8
0
  6
Continuous
 62
     7
370
    25
100
AcDbCircle
 10
5.1715728753
 20
-10.8284271247
 30
0.0
 40
2.000000000000001
100
AcDbArc
 50
45.0
 51
115.5287793655
  0
LINE
  5
95
330
1F
100
AcDbEntity
  8
0
  6
Continuous
 62
     7
370
    25
100
AcDbLine
 10
10.087145053
 20
-12.9155721778
 30
0.0
 11
6.5857864376
 21
-9.4142135624
 31
0.0
  0
ARC
  5
96
330
1F
100
AcDbEntity
  8
0
  6
Continuous
 62
     7
370
    25
100
AcDbCircle
 10
8.6729314907
 20
-14.3297857401
 30
0.0
 40
2.000000000000009
100
AcDbArc
 50
301.1839215247
 51
45.0
  0
ARC
  5
97
330
1F
100
AcDbEntity
  8
0
  6
Continuous
 62
     7
370
    25
100
AcDbCircle
 10
0.0
 20
0.0
 30
0.0
 40
18.75
100
AcDbArc
 50
283.8160784753
 51
301.1839215247
  0
ARC
  5
98
330
1F
100
AcDbEntity
  8
0
  6
Continuous
 62
     7
370
    25
100
AcDbCircle
 10
4.0
 20
-16.2653773396
 30
0.0
 40
2.000000000000006
100
AcDbArc
 50
180.0
 51
283.8160784753
  0
LINE
  5
99
330
1F
100
AcDbEntity
  8
0
  6
Continuous
 62
     7
370
    25
100
AcDbLine
 10
2.0
 20
-11.313708499
 30
0.0
 11
2.0
 21
-16.2653773396
 31
0.0
  0
ARC
  5
9A
330
1F
100
AcDbEntity
  8
0
  6
Continuous
 62
     7
370
    25
100
AcDbCircle
 10
4.0
 20
-11.313708499
 30
0.0
 40
1.999999999999998
100
AcDbArc
 50
109.4712206345
 51
180.0
  0
ARC
  5
9B
330
1F
100
AcDbEntity
  8
0
  6
Continuous
 62
     7
370
    25
100
AcDbCircle
 10
0.0
 20
0.0
 30
0.0
 40
10.0
100
AcDbArc
 50
334.4712206345
 51
340.5287793655
  0
ARC
  5
9C
330
1F
100
AcDbEntity
  8
0
  6
Continuous
 62
     7
370
    25
100
AcDbCircle
 10
11.313708499
 20
-4.0
 30
0.0
 40
1.999999999999998
100
AcDbArc
 50
90.0
 51
160.5287793655
  0
LINE
  5
9D
330
1F
100
AcDbEntity
  8
0
  6
Continuous
 62
     7
370
    25
100
AcDbLine
 10
16.2653773396
 20
-2.0
 30
0.0
 11
11.313708499
 21
-2.0
 31
0.0
  0
ARC
  5
9E
330
1F
100
AcDbEntity
  8
0
  6
Continuous
 62
     7
370
    25
100
AcDbCircle
 10
16.2653773396
 20
-4.0
 30
0.0
 40
2.000000000000005
100
AcDbArc
 50
346.1839215247
 51
90.0
  0
ARC
  5
9F
330
1F
100
AcDbEntity
  8
0
  6
Continuous
 62
     7
370
    25
100
AcDbCircle
 10
0.0
 20
0.0
 30
0.0
 40
18.75
100
AcDbArc
 50
328.8160784753
 51
346.1839215247
  0
ARC
  5
A0
330
1F
100
AcDbEntity
  8
0
  6
Continuous
 62
     7
370
    25
100
AcDbCircle
 10
14.3297857401
 20
-8.6729314907
 30
0.0
 40
2.000000000000002
100
AcDbArc
 50
225.0
 51
328.8160784753
  0
LINE
  5
A1
330
1F
100
AcDbEntity
  8
0
  6
Continuous
 62
     7
370
    25
100
AcDbLine
 10
9.4142135624
 20
-6.5857864376
 30
0.0
 11
12.9155721778
 21
-10.087145053
 31
0.0
  0
ARC
  5
A2
330
1F
100
AcDbEntity
  8
0
  6
Continuous
 62
     7
370
    25
100
AcDbCircle
 10
10.8284271247
 20
-5.1715728753
 30
0.0
 40
1.999999999999999
100
AcDbArc
 50
154.4712206345
 51
225.0
  0
ARC
  5
A3
330
1F
100
AcDbEntity
  8
0
  6
Continuous
 62
     7
370
    25
100
AcDbCircle
 10
0.0
 20
0.0
 30
0.0
 40
10.0
100
AcDbArc
 50
19.4712206345
 51
25.5287793655
  0
ARC
  5
A4
330
1F
100
AcDbEntity
  8
0
  6
Continuous
 62
     7
370
    25
100
AcDbCircle
 10
10.8284271247
 20
5.1715728753
 30
0.0
 40
2.0
100
AcDbArc
 50
135.0
 51
205.5287793655
  0
LINE
  5
A5
330
1F
100
AcDbEntity
  8
0
  6
Continuous
 62
     7
370
    25
100
AcDbLine
 10
12.9155721778
 20
10.087145053
 30
0.0
 11
9.4142135624
 21
6.5857864376
 31
0.0
  0
ARC
  5
A6
330
1F
100
AcDbEntity
  8
0
  6
Continuous
 62
     7
370
    25
100
AcDbCircle
 10
14.3297857401
 20
8.6729314907
 30
0.0
 40
2.000000000000002
100
AcDbArc
 50
31.1839215247
 51
135.0
  0
ARC
  5
A7
330
1F
100
AcDbEntity
  8
0
  6
Continuous
 62
     7
370
    25
100
AcDbCircle
 10
0.0
 20
0.0
 30
0.0
 40
18.75
100
AcDbArc
 50
13.8160784753
 51
31.1839215247
  0
ARC
  5
A8
330
1F
100
AcDbEntity
  8
0
  6
Continuous
 62
     7
370
    25
100
AcDbCircle
 10
16.2653773396
 20
4.0
 30
0.0
 40
2.000000000000002
100
AcDbArc
 50
270.0
 51
13.8160784753
  0
LINE
  5
A9
330
1F
100
AcDbEntity
  8
0
  6
Continuous
 62
     7
370
    25
100
AcDbLine
 10
11.313708499
 20
2.0
 30
0.0
 11
16.2653773396
 21
2.0
 31
0.0
  0
ARC
  5
AA
330
1F
100
AcDbEntity
  8
0
  6
Continuous
 62
     7
370
    25
100
AcDbCircle
 10
11.313708499
 20
4.0
 30
0.0
 40
1.999999999999998
100
AcDbArc
 50
199.4712206345
 51
270.0
  0
ARC
  5
AB
330
1F
100
AcDbEntity
  8
0
  6
Continuous
 62
     7
370
    25
100
AcDbCircle
 10
0.0
 20
0.0
 30
0.0
 40
10.0
100
AcDbArc
 50
244.4712206345
 51
250.5287793655
  0
ARC
  5
AC
330
1F
100
AcDbEntity
  8
0
  6
Continuous
 62
     7
370
    25
100
AcDbCircle
 10
-4.0
 20
-11.313708499
 30
0.0
 40
1.999999999999998
100
AcDbArc
 50
0.0
 51
70.5287793655
  0
LINE
  5
AD
330
1F
100
AcDbEntity
  8
0
  6
Continuous
 62
     7
370
    25
100
AcDbLine
 10
-2.0
 20
-16.2653773396
 30
0.0
 11
-2.0
 21
-11.313708499
 31
0.0
  0
ARC
  5
AE
330
1F
100
AcDbEntity
  8
0
  6
Continuous
 62
     7
370
    25
100
AcDbCircle
 10
-4.0
 20
-16.2653773396
 30
0.0
 40
2.000000000000005
100
AcDbArc
 50
256.1839215247
 51
0.0
  0
ARC
  5
AF
330
1F
100
AcDbEntity
  8
0
  6
Continuous
 62
     7
370
    25
100
AcDbCircle
 10
0.0
 20
0.0
 30
0.0
 40
18.75
100
AcDbArc
 50
238.8160784753
 51
256.1839215247
  0
ARC
  5
B0
330
1F
100
AcDbEntity
  8
0
  6
Continuous
 62
     7
370
    25
100
AcDbCircle
 10
-8.6729314907
 20
-14.3297857401
 30
0.0
 40
2.000000000000006
100
AcDbArc
 50
135.0
 51
238.8160784753
  0
LINE
  5
B1
330
1F
100
AcDbEntity
  8
0
  6
Continuous
 62
     7
370
    25
100
AcDbLine
 10
-6.5857864376
 20
-9.4142135624
 30
0.0
 11
-10.087145053
 21
-12.9155721778
 31
0.0
  0
ARC
  5
B2
330
1F
100
AcDbEntity
  8
0
  6
Continuous
 62
     7
370
    25
100
AcDbCircle
 10
-5.1715728753
 20
-10.8284271247
 30
0.0
 40
2.0
100
AcDbArc
 50
64.4712206345
 51
135.0
  0
CIRCLE
  5
B3
330
1F
100
AcDbEntity
  8
0
  6
Continuous
 62
     7
370
    25
100
AcDbCircle
 10
0.0
 20
6.0
 30
0.0
 40
1.525
  0
CIRCLE
  5
B4
330
1F
100
AcDbEntity
  8
0
  6
Continuous
 62
     7
370
    25
100
AcDbCircle
 10
-6.0
 20
0.0
 30
0.0
 40
1.525
  0
CIRCLE
  5
B5
330
1F
100
AcDbEntity
  8
0
  6
Continuous
 62
     7
370
    25
100
AcDbCircle
 10
0.0
 20
-6.0
 30
0.0
 40
1.525
  0
CIRCLE
  5
B6
330
1F
100
AcDbEntity
  8
0
  6
Continuous
 62
     7
370
    25
100
AcDbCircle
 10
6.0
 20
0.0
 30
0.0
 40
1.525
  0
CIRCLE
  5
B7
330
1F
100
AcDbEntity
  8
0
  6
Continuous
 62
     7
370
    25
100
AcDbCircle
 10
0.0
 20
0.0
 30
0.0
 40
3.025
  0
LINE
  5
B8
330
1F
100
AcDbEntity
  8
0
  6
Continuous
 62
     7
370
    25
100
AcDbLine
 10
2.5670749285
 20
22.6047036325
 30
0.0
 11
2.5497580994
 21
22.6066634786
 31
0.0
  0
SPLINE
  5
B9
330
1F
100
AcDbEntity
  8
0
  6
Continuous
 62
     7
370
    25
100
AcDbSpline
210
0.0
220
0.0
230
1.0
 70
     8
 71
     4
 72
    15
 73
    10
 74
     0
 42
0.000000001
 43
0.00000001
 40
0.0016193182508102
 40
0.0016193182508102
 40
0.0016193182508102
 40
0.0016193182508102
 40
0.0016193182508102
 40
0.0028020339056145
 40
0.005604067811229
 40
0.0081326129577701
 40
0.0106611581043112
 40
0.0157182483973935
 40
0.0210760269348499
 40
0.0210760269348499
 40
0.0210760269348499
 40
0.0210760269348499
 40
0.0210760269348499
 10
2.549758099391041
 20
22.60666347859829
 30
0.0
 10
2.549055521798669
 20
22.64285380564638
 30
0.0
 10
2.544551617579696
 20
22.76476519850804
 30
0.0
 10
2.528629510657639
 20
22.96356760560535
 30
0.0
 10
2.491638213060344
 20
23.23798101557043
 30
0.0
 10
2.418869606472965
 20
23.62665434872147
 30
0.0
 10
2.305191899288644
 20
24.08667131649108
 30
0.0
 10
2.186924723512063
 20
24.46502387965756
 30
0.0
 10
2.079097986095089
 20
24.76505572121247
 30
0.0
 10
2.020517914905785
 20
24.91821637588744
 30
0.0
  0
ARC
  5
BA
330
1F
100
AcDbEntity
  8
0
  6
Continuous
 62
     7
370
    25
100
AcDbCircle
 10
0.0
 20
0.0
 30
0.0
 40
25.0
100
AcDbArc
 50
85.3642579013
 51
87.1357420987
  0
SPLINE
  5
BB
330
1F
100
AcDbEntity
  8
0
  6
Continuous
 62
     7
370
    25
100
AcDbSpline
210
0.0
220
0.0
230
1.0
 70
     8
 71
     4
 72
    15
 73
    10
 74
     0
 42
0.000000001
 43
0.00000001
 40
0.0016193182508102
 40
0.0016193182508102
 40
0.0016193182508102
 40
0.0016193182508102
 40
0.0016193182508102
 40
0.0028020339056145
 40
0.005604067811229
 40
0.0081326129577701
 40
0.0106611581043112
 40
0.0157182483973935
 40
0.0210760269348498
 40
0.0210760269348498
 40
0.0210760269348498
 40
0.0210760269348498
 40
0.0210760269348498
 10
0.4228171372737391
 20
22.74607055445902
 30
0.0
 10
0.4282374898021976
 20
22.7818595634644
 30
0.0
 10
0.4486154923946916
 20
22.9021401099922
 30
0.0
 10
0.4903503046873994
 20
23.09716348294892
 30
0.0
 10
0.5628432741026452
 20
23.36440091493021
 30
0.0
 10
0.6857213853667097
 20
23.74025088470483
 30
0.0
 10
0.8584708271669376
 20
24.1814944252857
 30
0.0
 10
1.025111130246633
 20
24.54117316570598
 30
0.0
 10
1.171177408800324
 20
24.82456397980957
 30
0.0
 10
1.249247796412523
 20
24.9687680902194
 30
0.0
  0
LINE
  5
BC
330
1F
100
AcDbEntity
  8
0
  6
Continuous
 62
     7
370
    25
100
AcDbLine
 10
0.4228171373
 20
22.7460705545
 30
0.0
 11
0.4053926448
 21
22.7463877748
 31
0.0
  0
SPLINE
  5
BD
330
1F
100
AcDbEntity
  8
0
  6
Continuous
 62
     7
370
    25
100
AcDbSpline
210
0.0
220
0.0
230
1.0
 70
     8
 71
     3
 72
     8
 73
     4
 74
     0
 42
0.000000001
 43
0.00000001
 40
0.0
 40
0.0
 40
0.0
 40
0.0
 40
1.0
 40
1.0
 40
1.0
 40
1.0
 10
-0.4053926448002025
 20
22.74638777484332
 30
0.0
 10
-0.1351594909142359
 20
22.75120394759352
 30
0.0
 10
0.1351594909141478
 20
22.75120394759352
 30
0.0
 10
0.4053926448001144
 20
22.74638777484332
 30
0.0
  0
LINE
  5
BE
330
1F
100
AcDbEntity
  8
0
  6
Continuous
 62
     7
370
    25
100
AcDbLine
 10
-0.4053926448
 20
22.7463877748
 30
0.0
 11
-0.4228171373
 21
22.7460705545
 31
0.0
  0
SPLINE
  5
BF
330
1F
100
AcDbEntity
  8
0
  6
Continuous
 62
     7
370
    25
100
AcDbSpline
210
0.0
220
0.0
230
1.0
 70
     8
 71
     4
 72
    15
 73
    10
 74
     0
 42
0.000000001
 43
0.00000001
 40
0.0016193182508103
 40
0.0016193182508103
 40
0.0016193182508103
 40
0.0016193182508103
 40
0.0016193182508103
 40
0.0028020339056145
 40
0.005604067811229
 40
0.0081326129577701
 40
0.0106611581043112
 40
0.0157182483973935
 40
0.0210760269348499
 40
0.0210760269348499
 40
0.0210760269348499
 40
0.0210760269348499
 40
0.0210760269348499
 10
-0.4228171372737397
 20
22.74607055445902
 30
0.0
 10
-0.428237489802198
 20
22.78185956346441
 30
0.0
 10
-0.448615492394692
 20
22.9021401099922
 30
0.0
 10
-0.4903503046873997
 20
23.09716348294892
 30
0.0
 10
-0.5628432741026452
 20
23.36440091493021
 30
0.0
 10
-0.6857213853667097
 20
23.74025088470483
 30
0.0
 10
-0.8584708271669377
 20
24.1814944252857
 30
0.0
 10
-1.025111130246633
 20
24.54117316570599
 30
0.0
 10
-1.171177408800324
 20
24.82456397980958
 30
0.0
 10
-1.249247796412523
 20
24.9687680902194
 30
0.0
  0
ARC
  5
C0
330
1F
100
AcDbEntity
  8
0
  6
Continuous
 62
     7
370
    25
100
AcDbCircle
 10
0.0
 20
0.0
 30
0.0
 40
25.00000000000001
100
AcDbArc
 50
92.8642579013
 51
94.6357420987
  0
SPLINE
  5
C1
330
1F
100
AcDbEntity
  8
0
  6
Continuous
 62
     7
370
    25
100
AcDbSpline
210
0.0
220
0.0
230
1.0
 70
     8
 71
     4
 72
    15
 73
    10
 74
     0
 42
0.000000001
 43
0.00000001
 40
0.0016193182508102
 40
0.0016193182508102
 40
0.0016193182508102
 40
0.0016193182508102
 40
0.0016193182508102
 40
0.0028020339056145
 40
0.005604067811229
 40
0.0081326129577701
 40
0.0106611581043112
 40
0.0157182483973935
 40
0.0210760269348498
 40
0.0210760269348498
 40
0.0210760269348498
 40
0.0210760269348498
 40
0.0210760269348498
 10
-2.549758099391346
 20
22.60666347859826
 30
0.0
 10
-2.549055521798974
 20
22.64285380564634
 30
0.0
 10
-2.544551617580003
 20
22.764765198508
 30
0.0
 10
-2.528629510657949
 20
22.96356760560531
 30
0.0
 10
-2.491638213060658
 20
23.2379810155704
 30
0.0
 10
-2.418869606473284
 20
23.62665434872143
 30
0.0
 10
-2.30519189928897
 20
24.08667131649105
 30
0.0
 10
-2.186924723512396
 20
24.46502387965753
 30
0.0
 10
-2.079097986095426
 20
24.76505572121244
 30
0.0
 10
-2.020517914906124
 20
24.91821637588741
 30
0.0
  0
LINE
  5
C2
330
1F
100
AcDbEntity
  8
0
  6
Continuous
 62
     7
370
    25
100
AcDbLine
 10
-2.5497580994
 20
22.6066634786
 30
0.0
 11
-2.5670749285
 21
22.6047036325
 31
0.0
  0
SPLINE
  5
C3
330
1F
100
AcDbEntity
  8
0
  6
Continuous
 62
     7
370
    25
100
AcDbSpline
210
0.0
220
0.0
230
1.0
 70
    24
 71
     3
 72
     8
 73
     4
 74
     0
 42
0.000000001
 43
0.00000001
 40
0.0
 40
0.0
 40
0.0
 40
0.0
 40
1.0
 40
1.0
 40
1.0
 40
1.0
 10
-2.567074928485228
 20
22.60470363246425
 30
0.0
 10
-2.835024564835798
 20
22.56942739361106
 30
0.0
 10
-3.102974201186368
 20
22.53415115475788
 30
0.0
 10
-3.370923837536937
 20
22.49887491590469
 30
0.0
  0
LINE
  5
C4
330
1F
100
AcDbEntity
  8
0
  6
Continuous
 62
     7
370
    25
100
AcDbLine
 10
-3.3709238375
 20
22.4988749159
 30
0.0
 11
-3.3881578555
 21
22.4962860567
 31
0.0
  0
SPLINE
  5
C5
330
1F
100
AcDbEntity
  8
0
  6
Continuous
 62
     7
370
    25
100
AcDbSpline
210
0.0
220
0.0
230
1.0
 70
     8
 71
     4
 72
    15
 73
    10
 74
     0
 42
0.000000001
 43
0.00000001
 40
0.0016193182508458
 40
0.0016193182508458
 40
0.0016193182508458
 40
0.0016193182508458
 40
0.0016193182508458
 40
0.0028020339056145
 40
0.005604067811229
 40
0.0081326129577701
 40
0.0106611581043112
 40
0.0157182483973935
 40
0.0210760269348498
 40
0.0210760269348498
 40
0.0210760269348498
 40
0.0210760269348498
 40
0.0210760269348498
 10
-3.388157855494223
 20
22.49628605673499
 30
0.0
 10
-3.398203239223952
 20
22.53106138782996
 30
0.0
 10
-3.43410666691553
 20
22.64765305452365
 30
0.0
 10
-3.500940090369178
 20
22.83556048935675
 30
0.0
 10
-3.607694356796415
 20
23.09104943679983
 30
0.0
 10
-3.778579494185194
 20
23.44764514600988
 30
0.0
 10
-4.007444879756939
 20
23.86256546008685
 30
0.0
 10
-4.219607048352642
 20
24.19741617479056
 30
0.0
 10
-4.401413633519776
 20
24.45931706604273
 30
0.0
 10
-4.497638531577627
 20
24.59209725987737
 30
0.0
  0
ARC
  5
C6
330
1F
100
AcDbEntity
  8
0
  6
Continuous
 62
     7
370
    25
100
AcDbCircle
 10
0.0
 20
0.0
 30
0.0
 40
25.00000000000001
100
AcDbArc
 50
100.3642579013
 51
102.1357420987
  0
SPLINE
  5
C7
330
1F
100
AcDbEntity
  8
0
  6
Continuous
 62
     7
370
    25
100
AcDbSpline
210
0.0
220
0.0
230
1.0
 70
     8
 71
     4
 72
    15
 73
    10
 74
     0
 42
0.000000001
 43
0.00000001
 40
0.0016193182508109
 40
0.0016193182508109
 40
0.0016193182508109
 40
0.0016193182508109
 40
0.0016193182508109
 40
0.0028020339056145
 40
0.005604067811229
 40
0.0081326129577701
 40
0.0106611581043112
 40
0.0157182483973935
 40
0.0210760269348499
 40
0.0210760269348499
 40
0.0210760269348499
 40
0.0210760269348499
 40
0.0210760269348499
 10
-5.478706268049356
 20
22.08045012286752
 30
0.0
 10
-5.482733486690464
 20
22.11642254142863
 30
0.0
 10
-5.494180743894916
 20
22.23787884289206
 30
0.0
 10
-5.504343774007393
 20
22.43705871982607
 30
0.0
 10
-5.503487079585871
 20
22.71395281824865
 30
0.0
 10
-5.482073068709168
 20
23.10879920628529
 30
0.0
 10
-5.429412153228104
 20
23.57971858338431
 30
0.0
 10
-5.361541688922044
 20
23.97027125204206
 30
0.0
 10
-5.293799438014217
 20
24.28181049305474
 30
0.0
 10
-5.255712004507325
 20
24.44130707072921
 30
0.0
  0
LINE
  5
C8
330
1F
100
AcDbEntity
  8
0
  6
Continuous
 62
     7
370
    25
100
AcDbLine
 10
-5.478706268
 20
22.0804501229
 30
0.0
 11
-5.495619138
 21
22.0762467437
 31
0.0
  0
SPLINE
  5
C9
330
1F
100
AcDbEntity
  8
0
  6
Continuous
 62
     7
370
    25
100
AcDbSpline
210
0.0
220
0.0
230
1.0
 70
    24
 71
     3
 72
     8
 73
     4
 74
     0
 42
0.000000001
 43
0.00000001
 40
0.0
 40
0.0
 40
0.0
 40
0.0
 40
1.0
 40
1.0
 40
1.0
 40
1.0
 10
-5.495619138016554
 20
22.07624674372584
 30
0.0
 10
-5.756671954950042
 20
22.00629785224665
 30
0.0
 10
-6.017724771883531
 20
21.93634896076745
 30
0.0
 10
-6.278777588817019
 20
21.86640006928825
 30
0.0
  0
LINE
  5
CA
330
1F
100
AcDbEntity
  8
0
  6
Continuous
 62
     7
370
    25
100
AcDbLine
 10
-6.2787775888
 20
21.8664000693
 30
0.0
 11
-6.2955262534
 21
21.8615838674
 31
0.0
  0
SPLINE
  5
CB
330
1F
100
AcDbEntity
  8
0
  6
Continuous
 62
     7
370
    25
100
AcDbSpline
210
0.0
220
0.0
230
1.0
 70
     8
 71
     4
 72
    15
 73
    10
 74
     0
 42
0.000000001
 43
0.00000001
 40
0.0016193182508458
 40
0.0016193182508458
 40
0.0016193182508458
 40
0.0016193182508458
 40
0.0016193182508458
 40
0.0028020339056145
 40
0.005604067811229
 40
0.0081326129577701
 40
0.0106611581043112
 40
0.0157182483973935
 40
0.0210760269348498
 40
0.0210760269348498
 40
0.0210760269348498
 40
0.0210760269348498
 40
0.0210760269348498
 10
-6.295526253431722
 20
21.8615838674271
 30
0.0
 10
-6.310024789062108
 20
21.89475050505613
 30
0.0
 10
-6.360839324250747
 20
22.00565837617437
 30
0.0
 10
-6.451627820460486
 20
22.18323472457714
 30
0.0
 10
-6.590816788803556
 20
22.4226037007574
 30
0.0
 10
-6.806785060238016
 20
22.7538436979513
 30
0.0
 10
-7.087850439380672
 20
23.13534138391287
 30
0.0
 10
-7.341904319965243
 20
23.43963468433326
 30
0.0
 10
-7.556340450667303
 20
23.67556445587205
 30
0.0
 10
-7.669073424486453
 20
23.79464882720137
 30
0.0
  0
ARC
  5
CC
330
1F
100
AcDbEntity
  8
0
  6
Continuous
 62
     7
370
    25
100
AcDbCircle
 10
0.0
 20
0.0
 30
0.0
 40
25.00000000000001
100
AcDbArc
 50
107.8642579013
 51
109.6357420987
  0
SPLINE
  5
CD
330
1F
100
AcDbEntity
  8
0
  6
Continuous
 62
     7
370
    25
100
AcDbSpline
210
0.0
220
0.0
230
1.0
 70
     8
 71
     4
 72
    15
 73
    10
 74
     0
 42
0.000000001
 43
0.00000001
 40
0.0016193182508108
 40
0.0016193182508108
 40
0.0016193182508108
 40
0.0016193182508108
 40
0.0016193182508108
 40
0.0028020339056145
 40
0.005604067811229
 40
0.0081326129577701
 40
0.0106611581043112
 40
0.0157182483973935
 40
0.0210760269348498
 40
0.0210760269348498
 40
0.0210760269348498
 40
0.0210760269348498
 40
0.0210760269348498
 10
-8.313912253476694
 20
21.17643414367711
 30
0.0
 10
-8.322600361523778
 20
21.21157315569625
 30
0.0
 10
-8.349802914407109
 20
21.33049621476937
 30
0.0
 10
-8.385877189291167
 20
21.52664553862267
 30
0.0
 10
-8.421169756324485
 20
21.80128259070921
 30
0.0
 10
-8.451476740821638
 20
22.19554610246004
 30
0.0
 10
-8.46073365990807
 20
22.66931032778278
 30
0.0
 10
-8.44442118953405
 20
23.06538063748942
 30
0.0
 10
-8.417922513830101
 20
23.38309675517115
 30
0.0
 10
-8.400979404552753
 20
23.5462002251803
 30
0.0
  0
LINE
  5
CE
330
1F
100
AcDbEntity
  8
0
  6
Continuous
 62
     7
370
    25
100
AcDbLine
 10
-8.3139122535
 20
21.1764341437
 30
0.0
 11
-8.3301317804
 21
21.1700591525
 31
0.0
  0
SPLINE
  5
CF
330
1F
100
AcDbEntity
  8
0
  6
Continuous
 62
     7
370
    25
100
AcDbSpline
210
0.0
220
0.0
230
1.0
 70
    24
 71
     3
 72
     8
 73
     4
 74
     0
 42
0.000000001
 43
0.00000001
 40
0.0
 40
0.0
 40
0.0
 40
0.0
 40
1.0
 40
1.0
 40
1.0
 40
1.0
 10
-8.330131780422937
 20
21.17005915251037
 30
0.0
 10
-8.579821091863638
 20
21.06663445333203
 30
0.0
 10
-8.82951040330434
 20
20.96320975415369
 30
0.0
 10
-9.079199714745041
 20
20.85978505497535
 30
0.0
  0
LINE
  5
D0
330
1F
100
AcDbEntity
  8
0
  6
Continuous
 62
     7
370
    25
100
AcDbLine
 10
-9.0791997147
 20
20.859785055
 30
0.0
 11
-9.0951764517
 21
20.852823917
 31
0.0
  0
SPLINE
  5
D1
330
1F
100
AcDbEntity
  8
0
  6
Continuous
 62
     7
370
    25
100
AcDbSpline
210
0.0
220
0.0
230
1.0
 70
     8
 71
     4
 72
    15
 73
    10
 74
     0
 42
0.000000001
 43
0.00000001
 40
0.0016193182508102
 40
0.0016193182508102
 40
0.0016193182508102
 40
0.0016193182508102
 40
0.0016193182508102
 40
0.0028020339056145
 40
0.005604067811229
 40
0.0081326129577701
 40
0.0106611581043112
 40
0.0157182483973935
 40
0.0210760269348498
 40
0.0210760269348498
 40
0.0210760269348498
 40
0.0210760269348498
 40
0.0210760269348498
 10
-9.09517645172112
 20
20.85282391696764
 30
0.0
 10
-9.113880065288285
 20
20.88381437076636
 30
0.0
 10
-9.178736257188957
 20
20.98714078188582
 30
0.0
 10
-9.291926409813886
 20
21.15134766330457
 30
0.0
 10
-9.461168518234631
 20
21.3705009986748
 30
0.0
 10
-9.718524646712813
 20
21.67071767566348
 30
0.0
 10
-10.0469809128632
 20
22.01226520233169
 30
0.0
 10
-10.3385795731028
 20
22.28079454573253
 30
0.0
 10
-10.58197618769054
 20
22.48671637375483
 30
0.0
 10
-10.70928834483346
 20
22.59006735596895
 30
0.0
  0
ARC
  5
D2
330
1F
100
AcDbEntity
  8
0
  6
Continuous
 62
     7
370
    25
100
AcDbCircle
 10
0.0
 20
0.0
 30
0.0
 40
25.00000000000001
100
AcDbArc
 50
115.3642579013
 51
117.1357420987
  0
SPLINE
  5
D3
330
1F
100
AcDbEntity
  8
0
  6
Continuous
 62
     7
370
    25
100
AcDbSpline
210
0.0
220
0.0
230
1.0
 70
     8
 71
     4
 72
    15
 73
    10
 74
     0
 42
0.000000001
 43
0.00000001
 40
0.0016193182508109
 40
0.0016193182508109
 40
0.0016193182508109
 40
0.0016193182508109
 40
0.0016193182508109
 40
0.0028020339056145
 40
0.005604067811229
 40
0.0081326129577701
 40
0.0106611581043112
 40
0.0157182483973935
 40
0.0210760269348498
 40
0.0210760269348498
 40
0.0210760269348498
 40
0.0210760269348498
 40
0.0210760269348498
 10
-11.00686489519509
 20
19.91008350507164
 30
0.0
 10
-11.02006523671067
 20
19.94378787231078
 30
0.0
 10
-11.06255764205107
 20
20.05814288248116
 30
0.0
 10
-11.12392592086176
 20
20.24790548393974
 30
0.0
 10
-11.19476388374303
 20
20.51558637358525
 30
0.0
 10
-11.27627330270661
 20
20.90252105105372
 30
0.0
 10
-11.34728966790847
 20
21.37102388735266
 30
0.0
 10
-11.38281430235725
 20
21.76583496529766
 30
0.0
 10
-11.3980126015453
 20
22.08429174878736
 30
0.0
 10
-11.40250371779475
 20
22.24821136553851
 30
0.0
  0
LINE
  5
D4
330
1F
100
AcDbEntity
  8
0
  6
Continuous
 62
     7
370
    25
100
AcDbLine
 10
-11.0068648952
 20
19.9100835051
 30
0.0
 11
-11.0221135585
 21
19.9016459797
 31
0.0
  0
SPLINE
  5
D5
330
1F
100
AcDbEntity
  8
0
  6
Continuous
 62
     7
370
    25
100
AcDbSpline
210
0.0
220
0.0
230
1.0
 70
    24
 71
     3
 72
     8
 73
     4
 74
     0
 42
0.000000001
 43
0.00000001
 40
0.0
 40
0.0
 40
0.0
 40
0.0
 40
1.0
 40
1.0
 40
1.0
 40
1.0
 10
-11.02211355851743
 20
19.90164597974615
 30
0.0
 10
-11.25616711112029
 20
19.7665150981461
 30
0.0
 10
-11.49022066372316
 20
19.63138421654605
 30
0.0
 10
-11.72427421632602
 20
19.49625333494599
 30
0.0
  0
LINE
  5
D6
330
1F
100
AcDbEntity
  8
0
  6
Continuous
 62
     7
370
    25
100
AcDbLine
 10
-11.7242742163
 20
19.4962533349
 30
0.0
 11
-11.7392056593
 21
19.4872663678
 31
0.0
  0
SPLINE
  5
D7
330
1F
100
AcDbEntity
  8
0
  6
Continuous
 62
     7
370
    25
100
AcDbSpline
210
0.0
220
0.0
230
1.0
 70
     8
 71
     4
 72
    15
 73
    10
 74
     0
 42
0.000000001
 43
0.00000001
 40
0.0016193182508458
 40
0.0016193182508458
 40
0.0016193182508458
 40
0.0016193182508458
 40
0.0016193182508458
 40
0.0028020339056145
 40
0.005604067811229
 40
0.0081326129577701
 40
0.0106611581043112
 40
0.0157182483973935
 40
0.0210760269348498
 40
0.0210760269348498
 40
0.0210760269348498
 40
0.0210760269348498
 40
0.0210760269348498
 10
-11.73920565926672
 20
19.48726636780122
 30
0.0
 10
-11.7617943267559
 20
19.51555038251105
 30
0.0
 10
-11.83958246794265
 20
19.60952739008804
 30
0.0
 10
-11.97323756208798
 20
19.75755517925309
 30
0.0
 10
-12.16963703118723
 20
19.95274309948261
 30
0.0
 10
-12.46397758199827
 20
20.21679966568701
 30
0.0
 10
-12.83420475737728
 20
20.51255306018572
 30
0.0
 10
-13.15835886334878
 20
20.74072383505102
 30
0.0
 10
-13.42655137826432
 20
20.91311433998704
 30
0.0
 10
-13.5662643724247
 20
20.99896356912598
 30
0.0
  0
ARC
  5
D8
330
1F
100
AcDbEntity
  8
0
  6
Continuous
 62
     7
370
    25
100
AcDbCircle
 10
0.0
 20
0.0
 30
0.0
 40
25.0
100
AcDbArc
 50
122.8642579013
 51
124.6357420987
  0
SPLINE
  5
D9
330
1F
100
AcDbEntity
  8
0
  6
Continuous
 62
     7
370
    25
100
AcDbSpline
210
0.0
220
0.0
230
1.0
 70
     8
 71
     4
 72
    15
 73
    10
 74
     0
 42
0.000000001
 43
0.00000001
 40
0.0016193182508109
 40
0.0016193182508109
 40
0.0016193182508109
 40
0.0016193182508109
 40
0.0016193182508109
 40
0.0028020339056145
 40
0.005604067811229
 40
0.0081326129577701
 40
0.0106611581043112
 40
0.0157182483973935
 40
0.0210760269348499
 40
0.0210760269348499
 40
0.0210760269348499
 40
0.0210760269348499
 40
0.0210760269348499
 10
-13.51148702687722
 20
18.30306581757636
 30
0.0
 10
-13.52897374035813
 20
18.33475884896744
 30
0.0
 10
-13.58602894131911
 20
18.44258916430585
 30
0.0
 10
-13.67164119579149
 20
18.62271815264663
 30
0.0
 10
-13.77681249733581
 20
18.87886278561413
 30
0.0
 10
-13.90812970200867
 20
19.25184806919019
 30
0.0
 10
-14.03969040362789
 20
19.70707330304272
 30
0.0
 10
-14.12644430655478
 20
20.09386982222014
 30
0.0
 10
-14.18307953352195
 20
20.40761838765941
 30
0.0
 10
-14.208928031054
 20
20.56954944106284
 30
0.0
  0
LINE
  5
DA
330
1F
100
AcDbEntity
  8
0
  6
Continuous
 62
     7
370
    25
100
AcDbLine
 10
-13.5114870269
 20
18.3030658176
 30
0.0
 11
-13.5255039177
 21
18.2927101265
 31
0.0
  0
SPLINE
  5
DB
330
1F
100
AcDbEntity
  8
0
  6
Continuous
 62
     7
370
    25
100
AcDbSpline
210
0.0
220
0.0
230
1.0
 70
    24
 71
     3
 72
     8
 73
     4
 74
     0
 42
0.000000001
 43
0.00000001
 40
0.0
 40
0.0
 40
0.0
 40
0.0
 40
1.0
 40
1.0
 40
1.0
 40
1.0
 10
-13.52550391771847
 20
18.29271012648978
 30
0.0
 10
-13.73991699030638
 20
18.12818518931759
 30
0.0
 10
-13.95433006289429
 20
17.9636602521454
 30
0.0
 10
-14.1687431354822
 20
17.7991353149732
 30
0.0
  0
LINE
  5
DC
330
1F
100
AcDbEntity
  8
0
  6
Continuous
 62
     7
370
    25
100
AcDbLine
 10
-14.1687431355
 20
17.799135315
 30
0.0
 11
-14.1823738033
 21
17.7882762882
 31
0.0
  0
SPLINE
  5
DD
330
1F
100
AcDbEntity
  8
0
  6
Continuous
 62
     7
370
    25
100
AcDbSpline
210
0.0
220
0.0
230
1.0
 70
     8
 71
     4
 72
    15
 73
    10
 74
     0
 42
0.000000001
 43
0.00000001
 40
0.0016193182508103
 40
0.0016193182508103
 40
0.0016193182508103
 40
0.0016193182508103
 40
0.0016193182508103
 40
0.0028020339056145
 40
0.005604067811229
 40
0.0081326129577701
 40
0.0106611581043112
 40
0.0157182483973935
 40
0.0210760269348498
 40
0.0210760269348498
 40
0.0210760269348498
 40
0.0210760269348498
 40
0.0210760269348498
 10
-14.18237380325418
 20
17.78827628818402
 30
0.0
 10
-14.20846102630312
 20
17.8133699164732
 30
0.0
 10
-14.29785014011454
 20
17.89638954785453
 30
0.0
 10
-14.44968330006463
 20
18.02570544825388
 30
0.0
 10
-14.66987968047539
 20
18.19358823391278
 30
0.0
 10
-14.9961684051883
 20
18.41696660827483
 30
0.0
 10
-15.40183180017883
 20
18.66186544802583
 30
0.0
 10
-15.75299498525656
 20
18.84577358913676
 30
0.0
 10
-16.04139455221268
 20
18.98168312165136
 30
0.0
 10
-16.19111785532467
 20
19.04856169360266
 30
0.0
  0
ARC
  5
DE
330
1F
100
AcDbEntity
  8
0
  6
Continuous
 62
     7
370
    25
100
AcDbCircle
 10
0.0
 20
0.0
 30
0.0
 40
25.00000000000001
100
AcDbArc
 50
130.3642579013
 51
132.1357420987
  0
SPLINE
  5
DF
330
1F
100
AcDbEntity
  8
0
  6
Continuous
 62
     7
370
    25
100
AcDbSpline
210
0.0
220
0.0
230
1.0
 70
     8
 71
     4
 72
    15
 73
    10
 74
     0
 42
0.000000001
 43
0.00000001
 40
0.0016193182508108
 40
0.0016193182508108
 40
0.0016193182508108
 40
0.0016193182508108
 40
0.0016193182508108
 40
0.0028020339056145
 40
0.005604067811229
 40
0.0081326129577701
 40
0.0106611581043112
 40
0.0157182483973935
 40
0.0210760269348499
 40
0.0210760269348499
 40
0.0210760269348499
 40
0.0210760269348499
 40
0.0210760269348499
 10
-15.78492386943756
 20
16.38287759937381
 30
0.0
 10
-15.8063977523679
 20
16.41201701836274
 30
0.0
 10
-15.87703951864233
 20
16.51147763227754
 30
0.0
 10
-15.98543089936617
 20
16.67889095056882
 30
0.0
 10
-16.12313602944514
 20
16.91911662117152
 30
0.0
 10
-16.30201414604732
 20
17.27177062924213
 30
0.0
 10
-16.49186814400368
 20
17.70592923068476
 30
0.0
 10
-16.62836693207687
 20
18.07809299541121
 30
0.0
 10
-16.7254700423875
 20
18.38176501785783
 30
0.0
 10
-16.77223364624281
 20
18.53893682269404
 30
0.0
  0
LINE
  5
E0
330
1F
100
AcDbEntity
  8
0
  6
Continuous
 62
     7
370
    25
100
AcDbLine
 10
-15.7849238694
 20
16.3828775994
 30
0.0
 11
-15.7974691549
 21
16.3707809313
 31
0.0
  0
SPLINE
  5
E1
330
1F
100
AcDbEntity
  8
0
  6
Continuous
 62
     7
370
    25
100
AcDbSpline
210
0.0
220
0.0
230
1.0
 70
    24
 71
     3
 72
     8
 73
     4
 74
     0
 42
0.000000001
 43
0.00000001
 40
0.0
 40
0.0
 40
0.0
 40
0.0
 40
1.0
 40
1.0
 40
1.0
 40
1.0
 10
-15.79746915490922
 20
16.37078093127179
 30
0.0
 10
-15.98857308036342
 20
16.17967700581759
 30
0.0
 10
-16.17967700581761
 20
15.98857308036339
 30
0.0
 10
-16.37078093127181
 20
15.79746915490919
 30
0.0
  0
LINE
  5
E2
330
1F
100
AcDbEntity
  8
0
  6
Continuous
 62
     7
370
    25
100
AcDbLine
 10
-16.3707809313
 20
15.7974691549
 30
0.0
 11
-16.3828775994
 21
15.7849238694
 31
0.0
  0
SPLINE
  5
E3
330
1F
100
AcDbEntity
  8
0
  6
Continuous
 62
     7
370
    25
100
AcDbSpline
210
0.0
220
0.0
230
1.0
 70
     8
 71
     4
 72
    15
 73
    10
 74
     0
 42
0.000000001
 43
0.00000001
 40
0.0016193182508102
 40
0.0016193182508102
 40
0.0016193182508102
 40
0.0016193182508102
 40
0.0016193182508102
 40
0.0028020339056145
 40
0.005604067811229
 40
0.0081326129577701
 40
0.0106611581043112
 40
0.0157182483973935
 40
0.0210760269348498
 40
0.0210760269348498
 40
0.0210760269348498
 40
0.0210760269348498
 40
0.0210760269348498
 10
-16.38287759937379
 20
15.78492386943745
 30
0.0
 10
-16.41201701836275
 20
15.80639775236781
 30
0.0
 10
-16.51147763227757
 20
15.87703951864225
 30
0.0
 10
-16.67889095056885
 20
15.9854308993661
 30
0.0
 10
-16.91911662117158
 20
16.12313602944508
 30
0.0
 10
-17.27177062924218
 20
16.30201414604726
 30
0.0
 10
-17.70592923068481
 20
16.49186814400362
 30
0.0
 10
-18.07809299541126
 20
16.62836693207681
 30
0.0
 10
-18.38176501785788
 20
16.72547004238743
 30
0.0
 10
-18.53893682269409
 20
16.77223364624274
 30
0.0
  0
ARC
  5
E4
330
1F
100
AcDbEntity
  8
0
  6
Continuous
 62
     7
370
    25
100
AcDbCircle
 10
0.0
 20
0.0
 30
0.0
 40
25.0
100
AcDbArc
 50
137.8642579013
 51
139.6357420987
  0
SPLINE
  5
E5
330
1F
100
AcDbEntity
  8
0
  6
Continuous
 62
     7
370
    25
100
AcDbSpline
210
0.0
220
0.0
230
1.0
 70
     8
 71
     4
 72
    15
 73
    10
 74
     0
 42
0.000000001
 43
0.00000001
 40
0.0016193182508102
 40
0.0016193182508102
 40
0.0016193182508102
 40
0.0016193182508102
 40
0.0016193182508102
 40
0.0028020339056145
 40
0.005604067811229
 40
0.0081326129577701
 40
0.0106611581043112
 40
0.0157182483973935
 40
0.0210760269348498
 40
0.0210760269348498
 40
0.0210760269348498
 40
0.0210760269348498
 40
0.0210760269348498
 10
-17.78827628818406
 20
14.18237380325412
 30
0.0
 10
-17.81336991647325
 20
14.20846102630305
 30
0.0
 10
-17.89638954785457
 20
14.29785014011448
 30
0.0
 10
-18.02570544825393
 20
14.44968330006456
 30
0.0
 10
-18.19358823391283
 20
14.66987968047533
 30
0.0
 10
-18.41696660827488
 20
14.99616840518823
 30
0.0
 10
-18.66186544802588
 20
15.40183180017877
 30
0.0
 10
-18.84577358913681
 20
15.75299498525649
 30
0.0
 10
-18.98168312165142
 20
16.04139455221262
 30
0.0
 10
-19.04856169360271
 20
16.19111785532461
 30
0.0
  0
LINE
  5
E6
330
1F
100
AcDbEntity
  8
0
  6
Continuous
 62
     7
370
    25
100
AcDbLine
 10
-17.7882762882
 20
14.1823738033
 30
0.0
 11
-17.799135315
 21
14.1687431355
 31
0.0
  0
SPLINE
  5
E7
330
1F
100
AcDbEntity
  8
0
  6
Continuous
 62
     7
370
    25
100
AcDbSpline
210
0.0
220
0.0
230
1.0
 70
    24
 71
     3
 72
     8
 73
     4
 74
     0
 42
0.000000001
 43
0.00000001
 40
0.0
 40
0.0
 40
0.0
 40
0.0
 40
1.0
 40
1.0
 40
1.0
 40
1.0
 10
-17.79913531497355
 20
14.16874313548174
 30
0.0
 10
-17.96366025214574
 20
13.95433006289383
 30
0.0
 10
-18.12818518931794
 20
13.73991699030593
 30
0.0
 10
-18.29271012649013
 20
13.52550391771802
 30
0.0
  0
LINE
  5
E8
330
1F
100
AcDbEntity
  8
0
  6
Continuous
 62
     7
370
    25
100
AcDbLine
 10
-18.2927101265
 20
13.5255039177
 30
0.0
 11
-18.3030658176
 21
13.5114870269
 31
0.0
  0
SPLINE
  5
E9
330
1F
100
AcDbEntity
  8
0
  6
Continuous
 62
     7
370
    25
100
AcDbSpline
210
0.0
220
0.0
230
1.0
 70
     8
 71
     4
 72
    15
 73
    10
 74
     0
 42
0.000000001
 43
0.00000001
 40
0.0016193182508102
 40
0.0016193182508102
 40
0.0016193182508102
 40
0.0016193182508102
 40
0.0016193182508102
 40
0.0028020339056145
 40
0.005604067811229
 40
0.0081326129577701
 40
0.0106611581043112
 40
0.0157182483973935
 40
0.0210760269348499
 40
0.0210760269348499
 40
0.0210760269348499
 40
0.0210760269348499
 40
0.0210760269348499
 10
-18.30306581757633
 20
13.51148702687712
 30
0.0
 10
-18.33475884896743
 20
13.52897374035804
 30
0.0
 10
-18.44258916430586
 20
13.58602894131903
 30
0.0
 10
-18.62271815264666
 20
13.67164119579141
 30
0.0
 10
-18.87886278561417
 20
13.77681249733575
 30
0.0
 10
-19.25184806919023
 20
13.90812970200861
 30
0.0
 10
-19.70707330304276
 20
14.03969040362782
 30
0.0
 10
-20.09386982222018
 20
14.12644430655471
 30
0.0
 10
-20.40761838765944
 20
14.18307953352187
 30
0.0
 10
-20.56954944106287
 20
14.20892803105392
 30
0.0
  0
ARC
  5
EA
330
1F
100
AcDbEntity
  8
0
  6
Continuous
 62
     7
370
    25
100
AcDbCircle
 10
0.0
 20
0.0
 30
0.0
 40
25.0
100
AcDbArc
 50
145.3642579013
 51
147.1357420987
  0
SPLINE
  5
EB
330
1F
100
AcDbEntity
  8
0
  6
Continuous
 62
     7
370
    25
100
AcDbSpline
210
0.0
220
0.0
230
1.0
 70
     8
 71
     4
 72
    15
 73
    10
 74
     0
 42
0.000000001
 43
0.00000001
 40
0.0016193182508102
 40
0.0016193182508102
 40
0.0016193182508102
 40
0.0016193182508102
 40
0.0016193182508102
 40
0.0028020339056145
 40
0.005604067811229
 40
0.0081326129577701
 40
0.0106611581043112
 40
0.0157182483973935
 40
0.0210760269348499
 40
0.0210760269348499
 40
0.0210760269348499
 40
0.0210760269348499
 40
0.0210760269348499
 10
-19.48726636779786
 20
11.73920565926393
 30
0.0
 10
-19.51555038250856
 20
11.76179432675374
 30
0.0
 10
-19.60952739008647
 20
11.83958246794112
 30
0.0
 10
-19.75755517925236
 20
11.97323756208714
 30
0.0
 10
-19.95274309948265
 20
12.16963703118716
 30
0.0
 10
-20.21679966568706
 20
12.4639775819982
 30
0.0
 10
-20.51255306018576
 20
12.83420475737721
 30
0.0
 10
-20.74072383505107
 20
13.15835886334871
 30
0.0
 10
-20.91311433998709
 20
13.42655137826425
 30
0.0
 10
-20.99896356912604
 20
13.56626437242463
 30
0.0
  0
LINE
  5
EC
330
1F
100
AcDbEntity
  8
0
  6
Continuous
 62
     7
370
    25
100
AcDbLine
 10
-19.4872663678
 20
11.7392056593
 30
0.0
 11
-19.4962533349
 21
11.7242742163
 31
0.0
  0
SPLINE
  5
ED
330
1F
100
AcDbEntity
  8
0
  6
Continuous
 62
     7
370
    25
100
AcDbSpline
210
0.0
220
0.0
230
1.0
 70
    24
 71
     3
 72
     8
 73
     4
 74
     0
 42
0.000000001
 43
0.00000001
 40
0.0
 40
0.0
 40
0.0
 40
0.0
 40
1.0
 40
1.0
 40
1.0
 40
1.0
 10
-19.49625333494608
 20
11.72427421632588
 30
0.0
 10
-19.63138421654613
 20
11.49022066372301
 30
0.0
 10
-19.76651509814618
 20
11.25616711112015
 30
0.0
 10
-19.90164597974624
 20
11.02211355851728
 30
0.0
  0
LINE
  5
EE
330
1F
100
AcDbEntity
  8
0
  6
Continuous
 62
     7
370
    25
100
AcDbLine
 10
-19.9016459797
 20
11.0221135585
 30
0.0
 11
-19.9100835051
 21
11.0068648952
 31
0.0
  0
SPLINE
  5
EF
330
1F
100
AcDbEntity
  8
0
  6
Continuous
 62
     7
370
    25
100
AcDbSpline
210
0.0
220
0.0
230
1.0
 70
     8
 71
     4
 72
    15
 73
    10
 74
     0
 42
0.000000001
 43
0.00000001
 40
0.0016193182508102
 40
0.0016193182508102
 40
0.0016193182508102
 40
0.0016193182508102
 40
0.0016193182508102
 40
0.0028020339056145
 40
0.005604067811229
 40
0.0081326129577701
 40
0.0106611581043112
 40
0.0157182483973935
 40
0.0210760269348498
 40
0.0210760269348498
 40
0.0210760269348498
 40
0.0210760269348498
 40
0.0210760269348498
 10
-19.9100835050716
 20
11.00686489519499
 30
0.0
 10
-19.94378787231077
 20
11.02006523671058
 30
0.0
 10
-20.05814288248115
 20
11.06255764205099
 30
0.0
 10
-20.24790548393976
 20
11.12392592086169
 30
0.0
 10
-20.51558637358529
 20
11.19476388374296
 30
0.0
 10
-20.90252105105376
 20
11.27627330270654
 30
0.0
 10
-21.3710238873527
 20
11.34728966790839
 30
0.0
 10
-21.76583496529769
 20
11.38281430235718
 30
0.0
 10
-22.0842917487874
 20
11.39801260154522
 30
0.0
 10
-22.24821136553854
 20
11.40250371779468
 30
0.0
  0
ARC
  5
F0
330
1F
100
AcDbEntity
  8
0
  6
Continuous
 62
     7
370
    25
100
AcDbCircle
 10
0.0
 20
0.0
 30
0.0
 40
25.0
100
AcDbArc
 50
152.8642579013
 51
154.6357420987
  0
SPLINE
  5
F1
330
1F
100
AcDbEntity
  8
0
  6
Continuous
 62
     7
370
    25
100
AcDbSpline
210
0.0
220
0.0
230
1.0
 70
     8
 71
     4
 72
    15
 73
    10
 74
     0
 42
0.000000001
 43
0.00000001
 40
0.0016193182508102
 40
0.0016193182508102
 40
0.0016193182508102
 40
0.0016193182508102
 40
0.0016193182508102
 40
0.0028020339056145
 40
0.005604067811229
 40
0.0081326129577701
 40
0.0106611581043112
 40
0.0157182483973935
 40
0.0210760269348499
 40
0.0210760269348499
 40
0.0210760269348499
 40
0.0210760269348499
 40
0.0210760269348499
 10
-20.85282391696767
 20
9.095176451721047
 30
0.0
 10
-20.88381437076639
 20
9.113880065288212
 30
0.0
 10
-20.98714078188585
 20
9.178736257188884
 30
0.0
 10
-21.15134766330459
 20
9.291926409813811
 30
0.0
 10
-21.37050099867482
 20
9.461168518234555
 30
0.0
 10
-21.67071767566351
 20
9.718524646712735
 30
0.0
 10
-22.01226520233172
 20
10.04698091286313
 30
0.0
 10
-22.28079454573257
 20
10.33857957310272
 30
0.0
 10
-22.48671637375486
 20
10.58197618769047
 30
0.0
 10
-22.59006735596899
 20
10.70928834483339
 30
0.0
  0
LINE
  5
F2
330
1F
100
AcDbEntity
  8
0
  6
Continuous
 62
     7
370
    25
100
AcDbLine
 10
-20.852823917
 20
9.0951764517
 30
0.0
 11
-20.859785055
 21
9.0791997147
 31
0.0
  0
SPLINE
  5
F3
330
1F
100
AcDbEntity
  8
0
  6
Continuous
 62
     7
370
    25
100
AcDbSpline
210
0.0
220
0.0
230
1.0
 70
    24
 71
     3
 72
     8
 73
     4
 74
     0
 42
0.000000001
 43
0.00000001
 40
0.0
 40
0.0
 40
0.0
 40
0.0
 40
1.0
 40
1.0
 40
1.0
 40
1.0
 10
-20.85978505497506
 20
9.079199714745748
 30
0.0
 10
-20.96320975415351
 20
8.829510403304758
 30
0.0
 10
-21.06663445333197
 20
8.579821091863769
 30
0.0
 10
-21.17005915251042
 20
8.33013178042278
 30
0.0
  0
LINE
  5
F4
330
1F
100
AcDbEntity
  8
0
  6
Continuous
 62
     7
370
    25
100
AcDbLine
 10
-21.1700591525
 20
8.3301317804
 30
0.0
 11
-21.1764341437
 21
8.3139122535
 31
0.0
  0
SPLINE
  5
F5
330
1F
100
AcDbEntity
  8
0
  6
Continuous
 62
     7
370
    25
100
AcDbSpline
210
0.0
220
0.0
230
1.0
 70
     8
 71
     4
 72
    15
 73
    10
 74
     0
 42
0.000000001
 43
0.00000001
 40
0.0016193182508459
 40
0.0016193182508459
 40
0.0016193182508459
 40
0.0016193182508459
 40
0.0016193182508459
 40
0.0028020339056145
 40
0.005604067811229
 40
0.0081326129577701
 40
0.0106611581043112
 40
0.0157182483973935
 40
0.0210760269348499
 40
0.0210760269348499
 40
0.0210760269348499
 40
0.0210760269348499
 40
0.0210760269348499
 10
-21.1764341436813
 20
8.313912253477648
 30
0.0
 10
-21.21157315569942
 20
8.322600361524417
 30
0.0
 10
-21.33049621477151
 20
8.34980291440742
 30
0.0
 10
-21.52664553862376
 20
8.385877189291227
 30
0.0
 10
-21.80128259070923
 20
8.421169756324405
 30
0.0
 10
-22.19554610246006
 20
8.451476740821557
 30
0.0
 10
-22.66931032778281
 20
8.460733659907987
 30
0.0
 10
-23.06538063748944
 20
8.444421189533966
 30
0.0
 10
-23.38309675517118
 20
8.417922513830014
 30
0.0
 10
-23.54620022518032
 20
8.400979404552668
 30
0.0
  0
ARC
  5
F6
330
1F
100
AcDbEntity
  8
0
  6
Continuous
 62
     7
370
    25
100
AcDbCircle
 10
0.0
 20
0.0
 30
0.0
 40
25.00000000000001
100
AcDbArc
 50
160.3642579013
 51
162.1357420987
  0
SPLINE
  5
F7
330
1F
100
AcDbEntity
  8
0
  6
Continuous
 62
     7
370
    25
100
AcDbSpline
210
0.0
220
0.0
230
1.0
 70
     8
 71
     4
 72
    15
 73
    10
 74
     0
 42
0.000000001
 43
0.00000001
 40
0.0016193182508102
 40
0.0016193182508102
 40
0.0016193182508102
 40
0.0016193182508102
 40
0.0016193182508102
 40
0.0028020339056145
 40
0.005604067811229
 40
0.0081326129577701
 40
0.0106611581043112
 40
0.0157182483973935
 40
0.0210760269348499
 40
0.0210760269348499
 40
0.0210760269348499
 40
0.0210760269348499
 40
0.0210760269348499
 10
-21.86158386742312
 20
6.295526253429898
 30
0.0
 10
-21.89475050505318
 20
6.310024789060669
 30
0.0
 10
-22.00565837617246
 20
6.360839324249675
 30
0.0
 10
-22.18323472457623
 20
6.451627820459859
 30
0.0
 10
-22.42260370075743
 20
6.590816788803477
 30
0.0
 10
-22.75384369795133
 20
6.806785060237935
 30
0.0
 10
-23.13534138391289
 20
7.087850439380592
 30
0.0
 10
-23.43963468433329
 20
7.341904319965162
 30
0.0
 10
-23.67556445587208
 20
7.556340450667224
 30
0.0
 10
-23.7946488272014
 20
7.669073424486374
 30
0.0
  0
LINE
  5
F8
330
1F
100
AcDbEntity
  8
0
  6
Continuous
 62
     7
370
    25
100
AcDbLine
 10
-21.8615838674
 20
6.2955262534
 30
0.0
 11
-21.8664000693
 21
6.2787775888
 31
0.0
  0
SPLINE
  5
F9
330
1F
100
AcDbEntity
  8
0
  6
Continuous
 62
     7
370
    25
100
AcDbSpline
210
0.0
220
0.0
230
1.0
 70
    24
 71
     3
 72
     8
 73
     4
 74
     0
 42
0.000000001
 43
0.00000001
 40
0.0
 40
0.0
 40
0.0
 40
0.0
 40
1.0
 40
1.0
 40
1.0
 40
1.0
 10
-21.86640006928837
 20
6.278777588816598
 30
0.0
 10
-21.93634896076753
 20
6.017724771883239
 30
0.0
 10
-22.0062978522467
 20
5.75667195494988
 30
0.0
 10
-22.07624674372586
 20
5.495619138016521
 30
0.0
  0
LINE
  5
FA
330
1F
100
AcDbEntity
  8
0
  6
Continuous
 62
     7
370
    25
100
AcDbLine
 10
-22.0762467437
 20
5.495619138
 30
0.0
 11
-22.0804501229
 21
5.478706268
 31
0.0
  0
SPLINE
  5
FB
330
1F
100
AcDbEntity
  8
0
  6
Continuous
 62
     7
370
    25
100
AcDbSpline
210
0.0
220
0.0
230
1.0
 70
     8
 71
     4
 72
    15
 73
    10
 74
     0
 42
0.000000001
 43
0.00000001
 40
0.0016193182508102
 40
0.0016193182508102
 40
0.0016193182508102
 40
0.0016193182508102
 40
0.0016193182508102
 40
0.0028020339056145
 40
0.005604067811229
 40
0.0081326129577701
 40
0.0106611581043112
 40
0.0157182483973935
 40
0.0210760269348499
 40
0.0210760269348499
 40
0.0210760269348499
 40
0.0210760269348499
 40
0.0210760269348499
 10
-22.08045012286746
 20
5.478706268049269
 30
0.0
 10
-22.11642254142859
 20
5.48273348669038
 30
0.0
 10
-22.23787884289204
 20
5.494180743894836
 30
0.0
 10
-22.43705871982607
 20
5.504343774007314
 30
0.0
 10
-22.71395281824867
 20
5.503487079585793
 30
0.0
 10
-23.1087992062853
 20
5.482073068709088
 30
0.0
 10
-23.57971858338432
 20
5.429412153228022
 30
0.0
 10
-23.97027125204208
 20
5.36154168892196
 30
0.0
 10
-24.28181049305476
 20
5.293799438014132
 30
0.0
 10
-24.44130707072922
 20
5.25571200450724
 30
0.0
  0
ARC
  5
FC
330
1F
100
AcDbEntity
  8
0
  6
Continuous
 62
     7
370
    25
100
AcDbCircle
 10
0.0
 20
0.0
 30
0.0
 40
25.0
100
AcDbArc
 50
167.8642579013
 51
169.6357420987
  0
SPLINE
  5
FD
330
1F
100
AcDbEntity
  8
0
  6
Continuous
 62
     7
370
    25
100
AcDbSpline
210
0.0
220
0.0
230
1.0
 70
     8
 71
     4
 72
    15
 73
    10
 74
     0
 42
0.000000001
 43
0.00000001
 40
0.0016193182508103
 40
0.0016193182508103
 40
0.0016193182508103
 40
0.0016193182508103
 40
0.0016193182508103
 40
0.0028020339056145
 40
0.005604067811229
 40
0.0081326129577701
 40
0.0106611581043112
 40
0.0157182483973935
 40
0.0210760269348498
 40
0.0210760269348498
 40
0.0210760269348498
 40
0.0210760269348498
 40
0.0210760269348498
 10
-22.49628605673082
 20
3.388157855492935
 30
0.0
 10
-22.53106138782685
 20
3.398203239222913
 30
0.0
 10
-22.64765305452161
 20
3.434106666914722
 30
0.0
 10
-22.83556048935575
 20
3.500940090368679
 30
0.0
 10
-23.09104943679984
 20
3.607694356796335
 30
0.0
 10
-23.4476451460099
 20
3.778579494185112
 30
0.0
 10
-23.86256546008687
 20
4.007444879756854
 30
0.0
 10
-24.19741617479058
 20
4.219607048352557
 30
0.0
 10
-24.45931706604275
 20
4.401413633519691
 30
0.0
 10
-24.59209725987739
 20
4.49763853157754
 30
0.0
  0
LINE
  5
FE
330
1F
100
AcDbEntity
  8
0
  6
Continuous
 62
     7
370
    25
100
AcDbLine
 10
-22.4962860567
 20
3.3881578555
 30
0.0
 11
-22.4988749159
 21
3.3709238375
 31
0.0
  0
SPLINE
  5
FF
330
1F
100
AcDbEntity
  8
0
  6
Continuous
 62
     7
370
    25
100
AcDbSpline
210
0.0
220
0.0
230
1.0
 70
    24
 71
     3
 72
     8
 73
     4
 74
     0
 42
0.000000001
 43
0.00000001
 40
0.0
 40
0.0
 40
0.0
 40
0.0
 40
1.0
 40
1.0
 40
1.0
 40
1.0
 10
-22.49887491590471
 20
3.37092383753677
 30
0.0
 10
-22.5341511547579
 20
3.1029742011862
 30
0.0
 10
-22.56942739361108
 20
2.83502456483563
 30
0.0
 10
-22.60470363246427
 20
2.56707492848506
 30
0.0
  0
LINE
  5
100
330
1F
100
AcDbEntity
  8
0
  6
Continuous
 62
     7
370
    25
100
AcDbLine
 10
-22.6047036325
 20
2.5670749285
 30
0.0
 11
-22.6066634786
 21
2.5497580994
 31
0.0
  0
SPLINE
  5
101
330
1F
100
AcDbEntity
  8
0
  6
Continuous
 62
     7
370
    25
100
AcDbSpline
210
0.0
220
0.0
230
1.0
 70
     8
 71
     4
 72
    15
 73
    10
 74
     0
 42
0.000000001
 43
0.00000001
 40
0.0016193182508459
 40
0.0016193182508459
 40
0.0016193182508459
 40
0.0016193182508459
 40
0.0016193182508459
 40
0.0028020339056145
 40
0.005604067811229
 40
0.0081326129577701
 40
0.0106611581043112
 40
0.0157182483973935
 40
0.0210760269348499
 40
0.0210760269348499
 40
0.0210760269348499
 40
0.0210760269348499
 40
0.0210760269348499
 10
-22.60666347860263
 20
2.549758099391182
 30
0.0
 10
-22.64285380564963
 20
2.549055521798774
 30
0.0
 10
-22.76476519851019
 20
2.544551617579749
 30
0.0
 10
-22.96356760560641
 20
2.528629510657723
 30
0.0
 10
-23.23798101557041
 20
2.491638213060577
 30
0.0
 10
-23.62665434872144
 20
2.418869606473202
 30
0.0
 10
-24.08667131649106
 20
2.305191899288885
 30
0.0
 10
-24.46502387965754
 20
2.186924723512309
 30
0.0
 10
-24.76505572121244
 20
2.079097986095337
 30
0.0
 10
-24.91821637588741
 20
2.020517914906035
 30
0.0
  0
ARC
  5
102
330
1F
100
AcDbEntity
  8
0
  6
Continuous
 62
     7
370
    25
100
AcDbCircle
 10
0.0
 20
0.0
 30
0.0
 40
25.0
100
AcDbArc
 50
175.3642579013
 51
177.1357420987
  0
SPLINE
  5
103
330
1F
100
AcDbEntity
  8
0
  6
Continuous
 62
     7
370
    25
100
AcDbSpline
210
0.0
220
0.0
230
1.0
 70
     8
 71
     4
 72
    15
 73
    10
 74
     0
 42
0.000000001
 43
0.00000001
 40
0.0016193182508102
 40
0.0016193182508102
 40
0.0016193182508102
 40
0.0016193182508102
 40
0.0016193182508102
 40
0.0028020339056145
 40
0.005604067811229
 40
0.0081326129577701
 40
0.0106611581043112
 40
0.0157182483973935
 40
0.0210760269348499
 40
0.0210760269348499
 40
0.0210760269348499
 40
0.0210760269348499
 40
0.0210760269348499
 10
-22.74607055445901
 20
0.4228171372736586
 30
0.0
 10
-22.7818595634644
 20
0.428237489802117
 30
0.0
 10
-22.9021401099922
 20
0.4486154923946109
 30
0.0
 10
-23.09716348294892
 20
0.4903503046873184
 30
0.0
 10
-23.36440091493021
 20
0.5628432741025637
 30
0.0
 10
-23.74025088470484
 20
0.6857213853666267
 30
0.0
 10
-24.18149442528571
 20
0.8584708271668535
 30
0.0
 10
-24.54117316570599
 20
1.025111130246548
 30
0.0
 10
-24.82456397980958
 20
1.171177408800238
 30
0.0
 10
-24.96876809021941
 20
1.249247796412437
 30
0.0
  0
LINE
  5
104
330
1F
100
AcDbEntity
  8
0
  6
Continuous
 62
     7
370
    25
100
AcDbLine
 10
-22.7460705545
 20
0.4228171373
 30
0.0
 11
-22.7463877748
 21
0.4053926448
 31
0.0
  0
SPLINE
  5
105
330
1F
100
AcDbEntity
  8
0
  6
Continuous
 62
     7
370
    25
100
AcDbSpline
210
0.0
220
0.0
230
1.0
 70
    24
 71
     3
 72
     8
 73
     4
 74
     0
 42
0.000000001
 43
0.00000001
 40
0.0
 40
0.0
 40
0.0
 40
0.0
 40
1.0
 40
1.0
 40
1.0
 40
1.0
 10
-22.74638777484332
 20
0.4053926448000335
 30
0.0
 10
-22.74638777484332
 20
0.1351308815999283
 30
0.0
 10
-22.74638777484332
 20
-0.1351308816001768
 30
0.0
 10
-22.74638777484332
 20
-0.4053926448002819
 30
0.0
  0
LINE
  5
106
330
1F
100
AcDbEntity
  8
0
  6
Continuous
 62
     7
370
    25
100
AcDbLine
 10
-22.7463877748
 20
-0.4053926448
 30
0.0
 11
-22.7460705545
 21
-0.4228171373
 31
0.0
  0
SPLINE
  5
107
330
1F
100
AcDbEntity
  8
0
  6
Continuous
 62
     7
370
    25
100
AcDbSpline
210
0.0
220
0.0
230
1.0
 70
     8
 71
     4
 72
    15
 73
    10
 74
     0
 42
0.000000001
 43
0.00000001
 40
0.0016193182508102
 40
0.0016193182508102
 40
0.0016193182508102
 40
0.0016193182508102
 40
0.0016193182508102
 40
0.0028020339056145
 40
0.005604067811229
 40
0.0081326129577701
 40
0.0106611581043112
 40
0.0157182483973935
 40
0.0210760269348498
 40
0.0210760269348498
 40
0.0210760269348498
 40
0.0210760269348498
 40
0.0210760269348498
 10
-22.74607055445902
 20
-0.4228171372738185
 30
0.0
 10
-22.7818595634644
 20
-0.4282374898022771
 30
0.0
 10
-22.9021401099922
 20
-0.4486154923947716
 30
0.0
 10
-23.09716348294892
 20
-0.4903503046874802
 30
0.0
 10
-23.36440091493021
 20
-0.5628432741027268
 30
0.0
 10
-23.74025088470483
 20
-0.6857213853667926
 30
0.0
 10
-24.1814944252857
 20
-0.858470827167022
 30
0.0
 10
-24.54117316570598
 20
-1.025111130246719
 30
0.0
 10
-24.82456397980957
 20
-1.17117740880041
 30
0.0
 10
-24.96876809021939
 20
-1.24924779641261
 30
0.0
  0
ARC
  5
108
330
1F
100
AcDbEntity
  8
0
  6
Continuous
 62
     7
370
    25
100
AcDbCircle
 10
0.0
 20
0.0
 30
0.0
 40
25.00000000000001
100
AcDbArc
 50
182.8642579013
 51
184.6357420987
  0
SPLINE
  5
109
330
1F
100
AcDbEntity
  8
0
  6
Continuous
 62
     7
370
    25
100
AcDbSpline
210
0.0
220
0.0
230
1.0
 70
     8
 71
     4
 72
    15
 73
    10
 74
     0
 42
0.000000001
 43
0.00000001
 40
0.0016193182508102
 40
0.0016193182508102
 40
0.0016193182508102
 40
0.0016193182508102
 40
0.0016193182508102
 40
0.0028020339056145
 40
0.005604067811229
 40
0.0081326129577701
 40
0.0106611581043112
 40
0.0157182483973935
 40
0.0210760269348499
 40
0.0210760269348499
 40
0.0210760269348499
 40
0.0210760269348499
 40
0.0210760269348499
 10
-22.60666347859825
 20
-2.549758099391426
 30
0.0
 10
-22.64285380564633
 20
-2.549055521799054
 30
0.0
 10
-22.76476519850799
 20
-2.544551617580083
 30
0.0
 10
-22.96356760560531
 20
-2.52862951065803
 30
0.0
 10
-23.23798101557039
 20
-2.49163821306074
 30
0.0
 10
-23.62665434872143
 20
-2.418869606473367
 30
0.0
 10
-24.08667131649105
 20
-2.305191899289054
 30
0.0
 10
-24.46502387965753
 20
-2.18692472351248
 30
0.0
 10
-24.76505572121244
 20
-2.079097986095511
 30
0.0
 10
-24.9182163758874
 20
-2.020517914906209
 30
0.0
  0
LINE
  5
10A
330
1F
100
AcDbEntity
  8
0
  6
Continuous
 62
     7
370
    25
100
AcDbLine
 10
-22.6066634786
 20
-2.5497580994
 30
0.0
 11
-22.6047036325
 21
-2.5670749285
 31
0.0
  0
SPLINE
  5
10B
330
1F
100
AcDbEntity
  8
0
  6
Continuous
 62
     7
370
    25
100
AcDbSpline
210
0.0
220
0.0
230
1.0
 70
    24
 71
     3
 72
     8
 73
     4
 74
     0
 42
0.000000001
 43
0.00000001
 40
0.0
 40
0.0
 40
0.0
 40
0.0
 40
1.0
 40
1.0
 40
1.0
 40
1.0
 10
-22.60470363246424
 20
-2.567074928485308
 30
0.0
 10
-22.56942739361106
 20
-2.835024564835833
 30
0.0
 10
-22.53415115475788
 20
-3.102974201186358
 30
0.0
 10
-22.4988749159047
 20
-3.370923837536884
 30
0.0
  0
LINE
  5
10C
330
1F
100
AcDbEntity
  8
0
  6
Continuous
 62
     7
370
    25
100
AcDbLine
 10
-22.4988749159
 20
-3.3709238375
 30
0.0
 11
-22.4962860567
 21
-3.3881578555
 31
0.0
  0
SPLINE
  5
10D
330
1F
100
AcDbEntity
  8
0
  6
Continuous
 62
     7
370
    25
100
AcDbSpline
210
0.0
220
0.0
230
1.0
 70
     8
 71
     4
 72
    15
 73
    10
 74
     0
 42
0.000000001
 43
0.00000001
 40
0.0016193182508102
 40
0.0016193182508102
 40
0.0016193182508102
 40
0.0016193182508102
 40
0.0016193182508102
 40
0.0028020339056145
 40
0.005604067811229
 40
0.0081326129577701
 40
0.0106611581043112
 40
0.0157182483973935
 40
0.0210760269348499
 40
0.0210760269348499
 40
0.0210760269348499
 40
0.0210760269348499
 40
0.0210760269348499
 10
-22.4962860567308
 20
-3.388157855493091
 30
0.0
 10
-22.53106138782682
 20
-3.398203239223069
 30
0.0
 10
-22.64765305452158
 20
-3.434106666914879
 30
0.0
 10
-22.83556048935572
 20
-3.500940090368838
 30
0.0
 10
-23.09104943679981
 20
-3.607694356796496
 30
0.0
 10
-23.44764514600987
 20
-3.778579494185276
 30
0.0
 10
-23.86256546008684
 20
-4.007444879757023
 30
0.0
 10
-24.19741617479054
 20
-4.219607048352727
 30
0.0
 10
-24.45931706604272
 20
-4.401413633519863
 30
0.0
 10
-24.59209725987736
 20
-4.497638531577715
 30
0.0
  0
ARC
  5
10E
330
1F
100
AcDbEntity
  8
0
  6
Continuous
 62
     7
370
    25
100
AcDbCircle
 10
0.0
 20
0.0
 30
0.0
 40
25.00000000000001
100
AcDbArc
 50
190.3642579013
 51
192.1357420987
  0
SPLINE
  5
10F
330
1F
100
AcDbEntity
  8
0
  6
Continuous
 62
     7
370
    25
100
AcDbSpline
210
0.0
220
0.0
230
1.0
 70
     8
 71
     4
 72
    15
 73
    10
 74
     0
 42
0.000000001
 43
0.00000001
 40
0.0016193182508108
 40
0.0016193182508108
 40
0.0016193182508108
 40
0.0016193182508108
 40
0.0016193182508108
 40
0.0028020339056145
 40
0.005604067811229
 40
0.0081326129577701
 40
0.0106611581043112
 40
0.0157182483973935
 40
0.0210760269348499
 40
0.0210760269348499
 40
0.0210760269348499
 40
0.0210760269348499
 40
0.0210760269348499
 10
-22.08045012286749
 20
-5.478706268049431
 30
0.0
 10
-22.11642254142861
 20
-5.482733486690538
 30
0.0
 10
-22.23787884289204
 20
-5.494180743894994
 30
0.0
 10
-22.43705871982606
 20
-5.504343774007472
 30
0.0
 10
-22.71395281824863
 20
-5.50348707958595
 30
0.0
 10
-23.10879920628527
 20
-5.48207306870925
 30
0.0
 10
-23.57971858338429
 20
-5.429412153228187
 30
0.0
 10
-23.97027125204205
 20
-5.361541688922127
 30
0.0
 10
-24.28181049305473
 20
-5.293799438014302
 30
0.0
 10
-24.4413070707292
 20
-5.255712004507411
 30
0.0
  0
LINE
  5
110
330
1F
100
AcDbEntity
  8
0
  6
Continuous
 62
     7
370
    25
100
AcDbLine
 10
-22.0804501229
 20
-5.478706268
 30
0.0
 11
-22.0762467437
 21
-5.495619138
 31
0.0
  0
SPLINE
  5
111
330
1F
100
AcDbEntity
  8
0
  6
Continuous
 62
     7
370
    25
100
AcDbSpline
210
0.0
220
0.0
230
1.0
 70
    24
 71
     3
 72
     8
 73
     4
 74
     0
 42
0.000000001
 43
0.00000001
 40
0.0
 40
0.0
 40
0.0
 40
0.0
 40
1.0
 40
1.0
 40
1.0
 40
1.0
 10
-22.07624674372583
 20
-5.495619138016631
 30
0.0
 10
-22.0062978522467
 20
-5.756671954949861
 30
0.0
 10
-21.93634896076757
 20
-6.017724771883091
 30
0.0
 10
-21.86640006928844
 20
-6.278777588816321
 30
0.0
  0
LINE
  5
112
330
1F
100
AcDbEntity
  8
0
  6
Continuous
 62
     7
370
    25
100
AcDbLine
 10
-21.8664000693
 20
-6.2787775888
 30
0.0
 11
-21.8615838674
 21
-6.2955262534
 31
0.0
  0
SPLINE
  5
113
330
1F
100
AcDbEntity
  8
0
  6
Continuous
 62
     7
370
    25
100
AcDbSpline
210
0.0
220
0.0
230
1.0
 70
     8
 71
     4
 72
    15
 73
    10
 74
     0
 42
0.000000001
 43
0.00000001
 40
0.0016193182508101
 40
0.0016193182508101
 40
0.0016193182508101
 40
0.0016193182508101
 40
0.0016193182508101
 40
0.0028020339056145
 40
0.005604067811229
 40
0.0081326129577701
 40
0.0106611581043112
 40
0.0157182483973935
 40
0.0210760269348498
 40
0.0210760269348498
 40
0.0210760269348498
 40
0.0210760269348498
 40
0.0210760269348498
 10
-21.86158386742307
 20
-6.295526253430047
 30
0.0
 10
-21.89475050505314
 20
-6.310024789060819
 30
0.0
 10
-22.00565837617241
 20
-6.360839324249829
 30
0.0
 10
-22.18323472457618
 20
-6.451627820460015
 30
0.0
 10
-22.42260370075738
 20
-6.590816788803634
 30
0.0
 10
-22.75384369795129
 20
-6.806785060238096
 30
0.0
 10
-23.13534138391284
 20
-7.087850439380754
 30
0.0
 10
-23.43963468433324
 20
-7.341904319965326
 30
0.0
 10
-23.67556445587203
 20
-7.556340450667386
 30
0.0
 10
-23.79464882720135
 20
-7.669073424486538
 30
0.0
  0
ARC
  5
114
330
1F
100
AcDbEntity
  8
0
  6
Continuous
 62
     7
370
    25
100
AcDbCircle
 10
0.0
 20
0.0
 30
0.0
 40
25.00000000000001
100
AcDbArc
 50
197.8642579013
 51
199.6357420987
  0
SPLINE
  5
115
330
1F
100
AcDbEntity
  8
0
  6
Continuous
 62
     7
370
    25
100
AcDbSpline
210
0.0
220
0.0
230
1.0
 70
     8
 71
     4
 72
    15
 73
    10
 74
     0
 42
0.000000001
 43
0.00000001
 40
0.0016193182508102
 40
0.0016193182508102
 40
0.0016193182508102
 40
0.0016193182508102
 40
0.0016193182508102
 40
0.0028020339056145
 40
0.005604067811229
 40
0.0081326129577701
 40
0.0106611581043112
 40
0.0157182483973935
 40
0.0210760269348499
 40
0.0210760269348499
 40
0.0210760269348499
 40
0.0210760269348499
 40
0.0210760269348499
 10
-21.17643414367701
 20
-8.313912253476747
 30
0.0
 10
-21.21157315569617
 20
-8.322600361523838
 30
0.0
 10
-21.33049621476931
 20
-8.349802914407176
 30
0.0
 10
-21.52664553862262
 20
-8.38587718929124
 30
0.0
 10
-21.80128259070918
 20
-8.421169756324561
 30
0.0
 10
-22.19554610246001
 20
-8.451476740821715
 30
0.0
 10
-22.66931032778275
 20
-8.460733659908147
 30
0.0
 10
-23.06538063748939
 20
-8.444421189534129
 30
0.0
 10
-23.38309675517113
 20
-8.417922513830181
 30
0.0
 10
-23.54620022518028
 20
-8.400979404552835
 30
0.0
  0
LINE
  5
116
330
1F
100
AcDbEntity
  8
0
  6
Continuous
 62
     7
370
    25
100
AcDbLine
 10
-21.1764341437
 20
-8.3139122535
 30
0.0
 11
-21.1700591525
 21
-8.3301317804
 31
0.0
  0
SPLINE
  5
117
330
1F
100
AcDbEntity
  8
0
  6
Continuous
 62
     7
370
    25
100
AcDbSpline
210
0.0
220
0.0
230
1.0
 70
    24
 71
     3
 72
     8
 73
     4
 74
     0
 42
0.000000001
 43
0.00000001
 40
0.0
 40
0.0
 40
0.0
 40
0.0
 40
1.0
 40
1.0
 40
1.0
 40
1.0
 10
-21.17005915251034
 20
-8.330131780423013
 30
0.0
 10
-21.06663445333196
 20
-8.579821091863796
 30
0.0
 10
-20.96320975415359
 20
-8.829510403304578
 30
0.0
 10
-20.85978505497522
 20
-9.079199714745359
 30
0.0
  0
LINE
  5
118
330
1F
100
AcDbEntity
  8
0
  6
Continuous
 62
     7
370
    25
100
AcDbLine
 10
-20.859785055
 20
-9.0791997147
 30
0.0
 11
-20.852823917
 21
-9.0951764517
 31
0.0
  0
SPLINE
  5
119
330
1F
100
AcDbEntity
  8
0
  6
Continuous
 62
     7
370
    25
100
AcDbSpline
210
0.0
220
0.0
230
1.0
 70
     8
 71
     4
 72
    15
 73
    10
 74
     0
 42
0.000000001
 43
0.00000001
 40
0.0016193182508458
 40
0.0016193182508458
 40
0.0016193182508458
 40
0.0016193182508458
 40
0.0016193182508458
 40
0.0028020339056145
 40
0.005604067811229
 40
0.0081326129577701
 40
0.0106611581043112
 40
0.0157182483973935
 40
0.0210760269348498
 40
0.0210760269348498
 40
0.0210760269348498
 40
0.0210760269348498
 40
0.0210760269348498
 10
-20.85282391697134
 20
-9.095176451723443
 30
0.0
 10
-20.8838143707691
 20
-9.113880065290097
 30
0.0
 10
-20.98714078188758
 20
-9.178736257190268
 30
0.0
 10
-21.1513476633054
 20
-9.291926409814625
 30
0.0
 10
-21.37050099867476
 20
-9.461168518234707
 30
0.0
 10
-21.67071767566344
 20
-9.71852464671289
 30
0.0
 10
-22.01226520233166
 20
-10.04698091286328
 30
0.0
 10
-22.2807945457325
 20
-10.33857957310288
 30
0.0
 10
-22.4867163737548
 20
-10.58197618769062
 30
0.0
 10
-22.59006735596892
 20
-10.70928834483354
 30
0.0
  0
ARC
  5
11A
330
1F
100
AcDbEntity
  8
0
  6
Continuous
 62
     7
370
    25
100
AcDbCircle
 10
0.0
 20
0.0
 30
0.0
 40
25.00000000000001
100
AcDbArc
 50
205.3642579013
 51
207.1357420987
  0
SPLINE
  5
11B
330
1F
100
AcDbEntity
  8
0
  6
Continuous
 62
     7
370
    25
100
AcDbSpline
210
0.0
220
0.0
230
1.0
 70
     8
 71
     4
 72
    15
 73
    10
 74
     0
 42
0.000000001
 43
0.00000001
 40
0.0016193182508102
 40
0.0016193182508102
 40
0.0016193182508102
 40
0.0016193182508102
 40
0.0016193182508102
 40
0.0028020339056145
 40
0.005604067811229
 40
0.0081326129577701
 40
0.0106611581043112
 40
0.0157182483973935
 40
0.0210760269348499
 40
0.0210760269348499
 40
0.0210760269348499
 40
0.0210760269348499
 40
0.0210760269348499
 10
-19.91008350507152
 20
-11.00686489519513
 30
0.0
 10
-19.94378787231069
 20
-11.02006523671071
 30
0.0
 10
-20.05814288248108
 20
-11.06255764205113
 30
0.0
 10
-20.24790548393968
 20
-11.12392592086183
 30
0.0
 10
-20.51558637358522
 20
-11.1947638837431
 30
0.0
 10
-20.90252105105369
 20
-11.27627330270668
 30
0.0
 10
-21.37102388735262
 20
-11.34728966790854
 30
0.0
 10
-21.76583496529762
 20
-11.38281430235733
 30
0.0
 10
-22.08429174878733
 20
-11.39801260154538
 30
0.0
 10
-22.24821136553848
 20
-11.40250371779483
 30
0.0
  0
LINE
  5
11C
330
1F
100
AcDbEntity
  8
0
  6
Continuous
 62
     7
370
    25
100
AcDbLine
 10
-19.9100835051
 20
-11.0068648952
 30
0.0
 11
-19.9016459797
 21
-11.0221135585
 31
0.0
  0
SPLINE
  5
11D
330
1F
100
AcDbEntity
  8
0
  6
Continuous
 62
     7
370
    25
100
AcDbSpline
210
0.0
220
0.0
230
1.0
 70
    24
 71
     3
 72
     8
 73
     4
 74
     0
 42
0.000000001
 43
0.00000001
 40
0.0
 40
0.0
 40
0.0
 40
0.0
 40
1.0
 40
1.0
 40
1.0
 40
1.0
 10
-19.90164597974611
 20
-11.02211355851749
 30
0.0
 10
-19.76651509814617
 20
-11.25616711112017
 30
0.0
 10
-19.63138421654623
 20
-11.49022066372284
 30
0.0
 10
-19.49625333494629
 20
-11.72427421632551
 30
0.0
  0
LINE
  5
11E
330
1F
100
AcDbEntity
  8
0
  6
Continuous
 62
     7
370
    25
100
AcDbLine
 10
-19.4962533349
 20
-11.7242742163
 30
0.0
 11
-19.4872663678
 21
-11.7392056593
 31
0.0
  0
SPLINE
  5
11F
330
1F
100
AcDbEntity
  8
0
  6
Continuous
 62
     7
370
    25
100
AcDbSpline
210
0.0
220
0.0
230
1.0
 70
     8
 71
     4
 72
    15
 73
    10
 74
     0
 42
0.000000001
 43
0.00000001
 40
0.0016193182508458
 40
0.0016193182508458
 40
0.0016193182508458
 40
0.0016193182508458
 40
0.0016193182508458
 40
0.0028020339056145
 40
0.005604067811229
 40
0.0081326129577701
 40
0.0106611581043112
 40
0.0157182483973935
 40
0.0210760269348498
 40
0.0210760269348498
 40
0.0210760269348498
 40
0.0210760269348498
 40
0.0210760269348498
 10
-19.48726636780119
 20
-11.73920565926679
 30
0.0
 10
-19.51555038251101
 20
-11.76179432675597
 30
0.0
 10
-19.609527390088
 20
-11.83958246794272
 30
0.0
 10
-19.75755517925305
 20
-11.97323756208806
 30
0.0
 10
-19.95274309948257
 20
-12.1696370311873
 30
0.0
 10
-20.21679966568697
 20
-12.46397758199834
 30
0.0
 10
-20.51255306018567
 20
-12.83420475737735
 30
0.0
 10
-20.74072383505098
 20
-13.15835886334885
 30
0.0
 10
-20.91311433998699
 20
-13.4265513782644
 30
0.0
 10
-20.99896356912594
 20
-13.56626437242477
 30
0.0
  0
ARC
  5
120
330
1F
100
AcDbEntity
  8
0
  6
Continuous
 62
     7
370
    25
100
AcDbCircle
 10
0.0
 20
0.0
 30
0.0
 40
25.00000000000001
100
AcDbArc
 50
212.8642579013
 51
214.6357420987
  0
SPLINE
  5
121
330
1F
100
AcDbEntity
  8
0
  6
Continuous
 62
     7
370
    25
100
AcDbSpline
210
0.0
220
0.0
230
1.0
 70
     8
 71
     4
 72
    15
 73
    10
 74
     0
 42
0.000000001
 43
0.00000001
 40
0.0016193182508108
 40
0.0016193182508108
 40
0.0016193182508108
 40
0.0016193182508108
 40
0.0016193182508108
 40
0.0028020339056145
 40
0.005604067811229
 40
0.0081326129577701
 40
0.0106611581043112
 40
0.0157182483973935
 40
0.0210760269348499
 40
0.0210760269348499
 40
0.0210760269348499
 40
0.0210760269348499
 40
0.0210760269348499
 10
-18.30306581757631
 20
-13.51148702687728
 30
0.0
 10
-18.33475884896739
 20
-13.52897374035819
 30
0.0
 10
-18.4425891643058
 20
-13.58602894131917
 30
0.0
 10
-18.62271815264658
 20
-13.67164119579155
 30
0.0
 10
-18.87886278561408
 20
-13.77681249733588
 30
0.0
 10
-19.25184806919014
 20
-13.90812970200874
 30
0.0
 10
-19.70707330304267
 20
-14.03969040362796
 30
0.0
 10
-20.09386982222008
 20
-14.12644430655485
 30
0.0
 10
-20.40761838765935
 20
-14.18307953352202
 30
0.0
 10
-20.56954944106278
 20
-14.20892803105407
 30
0.0
  0
LINE
  5
122
330
1F
100
AcDbEntity
  8
0
  6
Continuous
 62
     7
370
    25
100
AcDbLine
 10
-18.3030658176
 20
-13.5114870269
 30
0.0
 11
-18.2927101265
 21
-13.5255039177
 31
0.0
  0
SPLINE
  5
123
330
1F
100
AcDbEntity
  8
0
  6
Continuous
 62
     7
370
    25
100
AcDbSpline
210
0.0
220
0.0
230
1.0
 70
    24
 71
     3
 72
     8
 73
     4
 74
     0
 42
0.000000001
 43
0.00000001
 40
0.0
 40
0.0
 40
0.0
 40
0.0
 40
1.0
 40
1.0
 40
1.0
 40
1.0
 10
-18.29271012648974
 20
-13.52550391771854
 30
0.0
 10
-18.12818518931763
 20
-13.73991699030634
 30
0.0
 10
-17.96366025214552
 20
-13.95433006289414
 30
0.0
 10
-17.7991353149734
 20
-14.16874313548194
 30
0.0
  0
LINE
  5
124
330
1F
100
AcDbEntity
  8
0
  6
Continuous
 62
     7
370
    25
100
AcDbLine
 10
-17.799135315
 20
-14.1687431355
 30
0.0
 11
-17.7882762882
 21
-14.1823738033
 31
0.0
  0
SPLINE
  5
125
330
1F
100
AcDbEntity
  8
0
  6
Continuous
 62
     7
370
    25
100
AcDbSpline
210
0.0
220
0.0
230
1.0
 70
     8
 71
     4
 72
    15
 73
    10
 74
     0
 42
0.000000001
 43
0.00000001
 40
0.0016193182508102
 40
0.0016193182508102
 40
0.0016193182508102
 40
0.0016193182508102
 40
0.0016193182508102
 40
0.0028020339056145
 40
0.005604067811229
 40
0.0081326129577701
 40
0.0106611581043112
 40
0.0157182483973935
 40
0.0210760269348499
 40
0.0210760269348499
 40
0.0210760269348499
 40
0.0210760269348499
 40
0.0210760269348499
 10
-17.78827628818397
 20
-14.18237380325424
 30
0.0
 10
-17.81336991647315
 20
-14.20846102630318
 30
0.0
 10
-17.89638954785448
 20
-14.2978501401146
 30
0.0
 10
-18.02570544825383
 20
-14.44968330006469
 30
0.0
 10
-18.19358823391273
 20
-14.66987968047545
 30
0.0
 10
-18.41696660827477
 20
-14.99616840518836
 30
0.0
 10
-18.66186544802577
 20
-15.4018318001789
 30
0.0
 10
-18.84577358913671
 20
-15.75299498525663
 30
0.0
 10
-18.98168312165131
 20
-16.04139455221275
 30
0.0
 10
-19.0485616936026
 20
-16.19111785532474
 30
0.0
  0
ARC
  5
126
330
1F
100
AcDbEntity
  8
0
  6
Continuous
 62
     7
370
    25
100
AcDbCircle
 10
0.0
 20
0.0
 30
0.0
 40
25.0
100
AcDbArc
 50
220.3642579013
 51
222.1357420987
  0
SPLINE
  5
127
330
1F
100
AcDbEntity
  8
0
  6
Continuous
 62
     7
370
    25
100
AcDbSpline
210
0.0
220
0.0
230
1.0
 70
     8
 71
     4
 72
    15
 73
    10
 74
     0
 42
0.000000001
 43
0.00000001
 40
0.0016193182508102
 40
0.0016193182508102
 40
0.0016193182508102
 40
0.0016193182508102
 40
0.0016193182508102
 40
0.0028020339056145
 40
0.005604067811229
 40
0.0081326129577701
 40
0.0106611581043112
 40
0.0157182483973935
 40
0.0210760269348499
 40
0.0210760269348499
 40
0.0210760269348499
 40
0.0210760269348499
 40
0.0210760269348499
 10
-16.38287759937368
 20
-15.78492386943756
 30
0.0
 10
-16.41201701836264
 20
-15.80639775236793
 30
0.0
 10
-16.51147763227745
 20
-15.87703951864236
 30
0.0
 10
-16.67889095056874
 20
-15.98543089936621
 30
0.0
 10
-16.91911662117146
 20
-16.1231360294452
 30
0.0
 10
-17.27177062924207
 20
-16.30201414604738
 30
0.0
 10
-17.7059292306847
 20
-16.49186814400374
 30
0.0
 10
-18.07809299541115
 20
-16.62836693207693
 30
0.0
 10
-18.38176501785777
 20
-16.72547004238756
 30
0.0
 10
-18.53893682269398
 20
-16.77223364624287
 30
0.0
  0
LINE
  5
128
330
1F
100
AcDbEntity
  8
0
  6
Continuous
 62
     7
370
    25
100
AcDbLine
 10
-16.3828775994
 20
-15.7849238694
 30
0.0
 11
-16.3707809313
 21
-15.7974691549
 31
0.0
  0
SPLINE
  5
129
330
1F
100
AcDbEntity
  8
0
  6
Continuous
 62
     7
370
    25
100
AcDbSpline
210
0.0
220
0.0
230
1.0
 70
    24
 71
     3
 72
     8
 73
     4
 74
     0
 42
0.000000001
 43
0.00000001
 40
0.0
 40
0.0
 40
0.0
 40
0.0
 40
1.0
 40
1.0
 40
1.0
 40
1.0
 10
-16.37078093127172
 20
-15.79746915490927
 30
0.0
 10
-16.17967700581753
 20
-15.98857308036347
 30
0.0
 10
-15.98857308036333
 20
-16.17967700581767
 30
0.0
 10
-15.79746915490914
 20
-16.37078093127186
 30
0.0
  0
LINE
  5
12A
330
1F
100
AcDbEntity
  8
0
  6
Continuous
 62
     7
370
    25
100
AcDbLine
 10
-15.7974691549
 20
-16.3707809313
 30
0.0
 11
-15.7849238694
 21
-16.3828775994
 31
0.0
  0
SPLINE
  5
12B
330
1F
100
AcDbEntity
  8
0
  6
Continuous
 62
     7
370
    25
100
AcDbSpline
210
0.0
220
0.0
230
1.0
 70
     8
 71
     4
 72
    15
 73
    10
 74
     0
 42
0.000000001
 43
0.00000001
 40
0.0016193182508102
 40
0.0016193182508102
 40
0.0016193182508102
 40
0.0016193182508102
 40
0.0016193182508102
 40
0.0028020339056145
 40
0.005604067811229
 40
0.0081326129577701
 40
0.0106611581043112
 40
0.0157182483973935
 40
0.0210760269348498
 40
0.0210760269348498
 40
0.0210760269348498
 40
0.0210760269348498
 40
0.0210760269348498
 10
-15.7849238694374
 20
-16.38287759937385
 30
0.0
 10
-15.80639775236776
 20
-16.41201701836281
 30
0.0
 10
-15.87703951864219
 20
-16.51147763227762
 30
0.0
 10
-15.98543089936604
 20
-16.67889095056891
 30
0.0
 10
-16.12313602944502
 20
-16.91911662117163
 30
0.0
 10
-16.3020141460472
 20
-17.27177062924224
 30
0.0
 10
-16.49186814400355
 20
-17.70592923068487
 30
0.0
 10
-16.62836693207674
 20
-18.07809299541132
 30
0.0
 10
-16.72547004238736
 20
-18.38176501785794
 30
0.0
 10
-16.77223364624268
 20
-18.53893682269415
 30
0.0
  0
ARC
  5
12C
330
1F
100
AcDbEntity
  8
0
  6
Continuous
 62
     7
370
    25
100
AcDbCircle
 10
0.0
 20
0.0
 30
0.0
 40
25.0
100
AcDbArc
 50
227.8642579013
 51
229.6357420987
  0
SPLINE
  5
12D
330
1F
100
AcDbEntity
  8
0
  6
Continuous
 62
     7
370
    25
100
AcDbSpline
210
0.0
220
0.0
230
1.0
 70
     8
 71
     4
 72
    15
 73
    10
 74
     0
 42
0.000000001
 43
0.00000001
 40
0.001619318250811
 40
0.001619318250811
 40
0.001619318250811
 40
0.001619318250811
 40
0.001619318250811
 40
0.0028020339056145
 40
0.005604067811229
 40
0.0081326129577701
 40
0.0106611581043112
 40
0.0157182483973935
 40
0.0210760269348499
 40
0.0210760269348499
 40
0.0210760269348499
 40
0.0210760269348499
 40
0.0210760269348499
 10
-14.18237380325412
 20
-17.78827628818417
 30
0.0
 10
-14.20846102630304
 20
-17.81336991647334
 30
0.0
 10
-14.29785014011445
 20
-17.89638954785465
 30
0.0
 10
-14.44968330006452
 20
-18.02570544825399
 30
0.0
 10
-14.66987968047526
 20
-18.19358823391288
 30
0.0
 10
-14.99616840518817
 20
-18.41696660827493
 30
0.0
 10
-15.4018318001787
 20
-18.66186544802594
 30
0.0
 10
-15.75299498525643
 20
-18.84577358913687
 30
0.0
 10
-16.04139455221256
 20
-18.98168312165147
 30
0.0
 10
-16.19111785532454
 20
-19.04856169360277
 30
0.0
  0
LINE
  5
12E
330
1F
100
AcDbEntity
  8
0
  6
Continuous
 62
     7
370
    25
100
AcDbLine
 10
-14.1823738033
 20
-17.7882762882
 30
0.0
 11
-14.1687431355
 21
-17.799135315
 31
0.0
  0
SPLINE
  5
12F
330
1F
100
AcDbEntity
  8
0
  6
Continuous
 62
     7
370
    25
100
AcDbSpline
210
0.0
220
0.0
230
1.0
 70
    24
 71
     3
 72
     8
 73
     4
 74
     0
 42
0.000000001
 43
0.00000001
 40
0.0
 40
0.0
 40
0.0
 40
0.0
 40
1.0
 40
1.0
 40
1.0
 40
1.0
 10
-14.16874313548168
 20
-17.7991353149736
 30
0.0
 10
-13.95433006289381
 20
-17.96366025214576
 30
0.0
 10
-13.73991699030593
 20
-18.12818518931793
 30
0.0
 10
-13.52550391771806
 20
-18.2927101264901
 30
0.0
  0
LINE
  5
130
330
1F
100
AcDbEntity
  8
0
  6
Continuous
 62
     7
370
    25
100
AcDbLine
 10
-13.5255039177
 20
-18.2927101265
 30
0.0
 11
-13.5114870269
 21
-18.3030658176
 31
0.0
  0
SPLINE
  5
131
330
1F
100
AcDbEntity
  8
0
  6
Continuous
 62
     7
370
    25
100
AcDbSpline
210
0.0
220
0.0
230
1.0
 70
     8
 71
     4
 72
    15
 73
    10
 74
     0
 42
0.000000001
 43
0.00000001
 40
0.0016193182508102
 40
0.0016193182508102
 40
0.0016193182508102
 40
0.0016193182508102
 40
0.0016193182508102
 40
0.0028020339056145
 40
0.005604067811229
 40
0.0081326129577701
 40
0.0106611581043112
 40
0.0157182483973935
 40
0.0210760269348498
 40
0.0210760269348498
 40
0.0210760269348498
 40
0.0210760269348498
 40
0.0210760269348498
 10
-13.51148702687705
 20
-18.30306581757637
 30
0.0
 10
-13.52897374035797
 20
-18.33475884896747
 30
0.0
 10
-13.58602894131896
 20
-18.4425891643059
 30
0.0
 10
-13.67164119579135
 20
-18.6227181526467
 30
0.0
 10
-13.77681249733568
 20
-18.87886278561422
 30
0.0
 10
-13.90812970200854
 20
-19.25184806919028
 30
0.0
 10
-14.03969040362776
 20
-19.70707330304282
 30
0.0
 10
-14.12644430655464
 20
-20.09386982222023
 30
0.0
 10
-14.1830795335218
 20
-20.40761838765949
 30
0.0
 10
-14.20892803105385
 20
-20.56954944106293
 30
0.0
  0
ARC
  5
132
330
1F
100
AcDbEntity
  8
0
  6
Continuous
 62
     7
370
    25
100
AcDbCircle
 10
0.0
 20
0.0
 30
0.0
 40
25.0
100
AcDbArc
 50
235.3642579013
 51
237.1357420987
  0
SPLINE
  5
133
330
1F
100
AcDbEntity
  8
0
  6
Continuous
 62
     7
370
    25
100
AcDbSpline
210
0.0
220
0.0
230
1.0
 70
     8
 71
     4
 72
    15
 73
    10
 74
     0
 42
0.000000001
 43
0.00000001
 40
0.0016193182508108
 40
0.0016193182508108
 40
0.0016193182508108
 40
0.0016193182508108
 40
0.0016193182508108
 40
0.0028020339056145
 40
0.005604067811229
 40
0.0081326129577701
 40
0.0106611581043112
 40
0.0157182483973935
 40
0.0210760269348498
 40
0.0210760269348498
 40
0.0210760269348498
 40
0.0210760269348498
 40
0.0210760269348498
 10
-11.73920565926391
 20
-19.48726636779796
 30
0.0
 10
-11.76179432675371
 20
-19.51555038250865
 30
0.0
 10
-11.83958246794108
 20
-19.60952739008653
 30
0.0
 10
-11.97323756208709
 20
-19.75755517925241
 30
0.0
 10
-12.16963703118709
 20
-19.9527430994827
 30
0.0
 10
-12.46397758199813
 20
-20.21679966568709
 30
0.0
 10
-12.83420475737714
 20
-20.51255306018581
 30
0.0
 10
-13.15835886334863
 20
-20.74072383505112
 30
0.0
 10
-13.42655137826418
 20
-20.91311433998714
 30
0.0
 10
-13.56626437242455
 20
-20.99896356912608
 30
0.0
  0
LINE
  5
134
330
1F
100
AcDbEntity
  8
0
  6
Continuous
 62
     7
370
    25
100
AcDbLine
 10
-11.7392056593
 20
-19.4872663678
 30
0.0
 11
-11.7242742163
 21
-19.4962533349
 31
0.0
  0
SPLINE
  5
135
330
1F
100
AcDbEntity
  8
0
  6
Continuous
 62
     7
370
    25
100
AcDbSpline
210
0.0
220
0.0
230
1.0
 70
    24
 71
     3
 72
     8
 73
     4
 74
     0
 42
0.000000001
 43
0.00000001
 40
0.0
 40
0.0
 40
0.0
 40
0.0
 40
1.0
 40
1.0
 40
1.0
 40
1.0
 10
-11.72427421632581
 20
-19.49625333494613
 30
0.0
 10
-11.49022066372298
 20
-19.63138421654616
 30
0.0
 10
-11.25616711112016
 20
-19.76651509814618
 30
0.0
 10
-11.02211355851733
 20
-19.90164597974621
 30
0.0
  0
LINE
  5
136
330
1F
100
AcDbEntity
  8
0
  6
Continuous
 62
     7
370
    25
100
AcDbLine
 10
-11.0221135585
 20
-19.9016459797
 30
0.0
 11
-11.0068648952
 21
-19.9100835051
 31
0.0
  0
SPLINE
  5
137
330
1F
100
AcDbEntity
  8
0
  6
Continuous
 62
     7
370
    25
100
AcDbSpline
210
0.0
220
0.0
230
1.0
 70
     8
 71
     4
 72
    15
 73
    10
 74
     0
 42
0.000000001
 43
0.00000001
 40
0.0016193182508103
 40
0.0016193182508103
 40
0.0016193182508103
 40
0.0016193182508103
 40
0.0016193182508103
 40
0.0028020339056145
 40
0.005604067811229
 40
0.0081326129577701
 40
0.0106611581043112
 40
0.0157182483973935
 40
0.0210760269348499
 40
0.0210760269348499
 40
0.0210760269348499
 40
0.0210760269348499
 40
0.0210760269348499
 10
-11.00686489519492
 20
-19.91008350507164
 30
0.0
 10
-11.02006523671051
 20
-19.94378787231081
 30
0.0
 10
-11.06255764205092
 20
-20.05814288248119
 30
0.0
 10
-11.12392592086162
 20
-20.2479054839398
 30
0.0
 10
-11.19476388374289
 20
-20.51558637358533
 30
0.0
 10
-11.27627330270646
 20
-20.9025210510538
 30
0.0
 10
-11.34728966790832
 20
-21.37102388735273
 30
0.0
 10
-11.3828143023571
 20
-21.76583496529774
 30
0.0
 10
-11.39801260154514
 20
-22.08429174878744
 30
0.0
 10
-11.40250371779459
 20
-22.24821136553859
 30
0.0
  0
ARC
  5
138
330
1F
100
AcDbEntity
  8
0
  6
Continuous
 62
     7
370
    25
100
AcDbCircle
 10
0.0
 20
0.0
 30
0.0
 40
25.0
100
AcDbArc
 50
242.8642579013
 51
244.6357420987
  0
SPLINE
  5
139
330
1F
100
AcDbEntity
  8
0
  6
Continuous
 62
     7
370
    25
100
AcDbSpline
210
0.0
220
0.0
230
1.0
 70
     8
 71
     4
 72
    15
 73
    10
 74
     0
 42
0.000000001
 43
0.00000001
 40
0.0016193182508103
 40
0.0016193182508103
 40
0.0016193182508103
 40
0.0016193182508103
 40
0.0016193182508103
 40
0.0028020339056145
 40
0.005604067811229
 40
0.0081326129577701
 40
0.0106611581043112
 40
0.0157182483973935
 40
0.0210760269348499
 40
0.0210760269348499
 40
0.0210760269348499
 40
0.0210760269348499
 40
0.0210760269348499
 10
-9.095176451720977
 20
-20.85282391696771
 30
0.0
 10
-9.113880065288143
 20
-20.88381437076643
 30
0.0
 10
-9.178736257188811
 20
-20.98714078188589
 30
0.0
 10
-9.291926409813737
 20
-21.15134766330463
 30
0.0
 10
-9.46116851823448
 20
-21.37050099867486
 30
0.0
 10
-9.718524646712659
 20
-21.67071767566354
 30
0.0
 10
-10.04698091286305
 20
-22.01226520233176
 30
0.0
 10
-10.33857957310264
 20
-22.2807945457326
 30
0.0
 10
-10.58197618769039
 20
-22.48671637375491
 30
0.0
 10
-10.70928834483331
 20
-22.59006735596904
 30
0.0
  0
LINE
  5
13A
330
1F
100
AcDbEntity
  8
0
  6
Continuous
 62
     7
370
    25
100
AcDbLine
 10
-9.0951764517
 20
-20.852823917
 30
0.0
 11
-9.0791997147
 21
-20.859785055
 31
0.0
  0
SPLINE
  5
13B
330
1F
100
AcDbEntity
  8
0
  6
Continuous
 62
     7
370
    25
100
AcDbSpline
210
0.0
220
0.0
230
1.0
 70
    24
 71
     3
 72
     8
 73
     4
 74
     0
 42
0.000000001
 43
0.00000001
 40
0.0
 40
0.0
 40
0.0
 40
0.0
 40
1.0
 40
1.0
 40
1.0
 40
1.0
 10
-9.079199714745673
 20
-20.85978505497508
 30
0.0
 10
-8.829510403304601
 20
-20.96320975415357
 30
0.0
 10
-8.57982109186353
 20
-21.06663445333206
 30
0.0
 10
-8.330131780422457
 20
-21.17005915251055
 30
0.0
  0
LINE
  5
13C
330
1F
100
AcDbEntity
  8
0
  6
Continuous
 62
     7
370
    25
100
AcDbLine
 10
-8.3301317804
 20
-21.1700591525
 30
0.0
 11
-8.3139122535
 21
-21.1764341437
 31
0.0
  0
SPLINE
  5
13D
330
1F
100
AcDbEntity
  8
0
  6
Continuous
 62
     7
370
    25
100
AcDbSpline
210
0.0
220
0.0
230
1.0
 70
     8
 71
     4
 72
    15
 73
    10
 74
     0
 42
0.000000001
 43
0.00000001
 40
0.0016193182508459
 40
0.0016193182508459
 40
0.0016193182508459
 40
0.0016193182508459
 40
0.0016193182508459
 40
0.0028020339056145
 40
0.005604067811229
 40
0.0081326129577701
 40
0.0106611581043112
 40
0.0157182483973935
 40
0.0210760269348498
 40
0.0210760269348498
 40
0.0210760269348498
 40
0.0210760269348498
 40
0.0210760269348498
 10
-8.313912253477572
 20
-21.17643414368132
 30
0.0
 10
-8.322600361524344
 20
-21.21157315569944
 30
0.0
 10
-8.349802914407345
 20
-21.33049621477154
 30
0.0
 10
-8.38587718929115
 20
-21.52664553862379
 30
0.0
 10
-8.42116975632433
 20
-21.80128259070926
 30
0.0
 10
-8.45147674082148
 20
-22.19554610246009
 30
0.0
 10
-8.460733659907909
 20
-22.66931032778283
 30
0.0
 10
-8.444421189533886
 20
-23.06538063748946
 30
0.0
 10
-8.417922513829934
 20
-23.3830967551712
 30
0.0
 10
-8.400979404552588
 20
-23.54620022518035
 30
0.0
  0
ARC
  5
13E
330
1F
100
AcDbEntity
  8
0
  6
Continuous
 62
     7
370
    25
100
AcDbCircle
 10
0.0
 20
0.0
 30
0.0
 40
25.00000000000001
100
AcDbArc
 50
250.3642579013
 51
252.1357420987
  0
SPLINE
  5
13F
330
1F
100
AcDbEntity
  8
0
  6
Continuous
 62
     7
370
    25
100
AcDbSpline
210
0.0
220
0.0
230
1.0
 70
     8
 71
     4
 72
    15
 73
    10
 74
     0
 42
0.000000001
 43
0.00000001
 40
0.0016193182508102
 40
0.0016193182508102
 40
0.0016193182508102
 40
0.0016193182508102
 40
0.0016193182508102
 40
0.0028020339056145
 40
0.005604067811229
 40
0.0081326129577701
 40
0.0106611581043112
 40
0.0157182483973935
 40
0.0210760269348499
 40
0.0210760269348499
 40
0.0210760269348499
 40
0.0210760269348499
 40
0.0210760269348499
 10
-6.295526253429821
 20
-21.86158386742313
 30
0.0
 10
-6.310024789060591
 20
-21.8947505050532
 30
0.0
 10
-6.360839324249598
 20
-22.00565837617248
 30
0.0
 10
-6.451627820459783
 20
-22.18323472457625
 30
0.0
 10
-6.590816788803399
 20
-22.42260370075745
 30
0.0
 10
-6.806785060237856
 20
-22.75384369795136
 30
0.0
 10
-7.087850439380511
 20
-23.13534138391292
 30
0.0
 10
-7.341904319965082
 20
-23.43963468433331
 30
0.0
 10
-7.556340450667141
 20
-23.67556445587211
 30
0.0
 10
-7.669073424486292
 20
-23.79464882720143
 30
0.0
  0
LINE
  5
140
330
1F
100
AcDbEntity
  8
0
  6
Continuous
 62
     7
370
    25
100
AcDbLine
 10
-6.2955262534
 20
-21.8615838674
 30
0.0
 11
-6.2787775888
 21
-21.8664000693
 31
0.0
  0
SPLINE
  5
141
330
1F
100
AcDbEntity
  8
0
  6
Continuous
 62
     7
370
    25
100
AcDbSpline
210
0.0
220
0.0
230
1.0
 70
    24
 71
     3
 72
     8
 73
     4
 74
     0
 42
0.000000001
 43
0.00000001
 40
0.0
 40
0.0
 40
0.0
 40
0.0
 40
1.0
 40
1.0
 40
1.0
 40
1.0
 10
-6.278777588816522
 20
-21.86640006928839
 30
0.0
 10
-6.017724771883119
 20
-21.93634896076756
 30
0.0
 10
-5.756671954949717
 20
-22.00629785224674
 30
0.0
 10
-5.495619138016314
 20
-22.07624674372591
 30
0.0
  0
LINE
  5
142
330
1F
100
AcDbEntity
  8
0
  6
Continuous
 62
     7
370
    25
100
AcDbLine
 10
-5.495619138
 20
-22.0762467437
 30
0.0
 11
-5.478706268
 21
-22.0804501229
 31
0.0
  0
SPLINE
  5
143
330
1F
100
AcDbEntity
  8
0
  6
Continuous
 62
     7
370
    25
100
AcDbSpline
210
0.0
220
0.0
230
1.0
 70
     8
 71
     4
 72
    15
 73
    10
 74
     0
 42
0.000000001
 43
0.00000001
 40
0.0016193182508102
 40
0.0016193182508102
 40
0.0016193182508102
 40
0.0016193182508102
 40
0.0016193182508102
 40
0.0028020339056145
 40
0.005604067811229
 40
0.0081326129577701
 40
0.0106611581043112
 40
0.0157182483973935
 40
0.0210760269348499
 40
0.0210760269348499
 40
0.0210760269348499
 40
0.0210760269348499
 40
0.0210760269348499
 10
-5.478706268049192
 20
-22.08045012286748
 30
0.0
 10
-5.482733486690303
 20
-22.11642254142861
 30
0.0
 10
-5.494180743894758
 20
-22.23787884289206
 30
0.0
 10
-5.504343774007235
 20
-22.43705871982609
 30
0.0
 10
-5.503487079585713
 20
-22.71395281824869
 30
0.0
 10
-5.482073068709007
 20
-23.10879920628533
 30
0.0
 10
-5.429412153227939
 20
-23.57971858338434
 30
0.0
 10
-5.361541688921876
 20
-23.9702712520421
 30
0.0
 10
-5.293799438014047
 20
-24.28181049305478
 30
0.0
 10
-5.255712004507155
 20
-24.44130707072924
 30
0.0
  0
ARC
  5
144
330
1F
100
AcDbEntity
  8
0
  6
Continuous
 62
     7
370
    25
100
AcDbCircle
 10
0.0
 20
0.0
 30
0.0
 40
25.00000000000001
100
AcDbArc
 50
257.8642579013
 51
259.6357420987
  0
SPLINE
  5
145
330
1F
100
AcDbEntity
  8
0
  6
Continuous
 62
     7
370
    25
100
AcDbSpline
210
0.0
220
0.0
230
1.0
 70
     8
 71
     4
 72
    15
 73
    10
 74
     0
 42
0.000000001
 43
0.00000001
 40
0.0016193182508109
 40
0.0016193182508109
 40
0.0016193182508109
 40
0.0016193182508109
 40
0.0016193182508109
 40
0.0028020339056145
 40
0.005604067811229
 40
0.0081326129577701
 40
0.0106611581043112
 40
0.0157182483973935
 40
0.0210760269348499
 40
0.0210760269348499
 40
0.0210760269348499
 40
0.0210760269348499
 40
0.0210760269348499
 10
-3.388157855492879
 20
-22.49628605673091
 30
0.0
 10
-3.398203239222851
 20
-22.53106138782691
 30
0.0
 10
-3.434106666914656
 20
-22.64765305452166
 30
0.0
 10
-3.500940090368607
 20
-22.83556048935578
 30
0.0
 10
-3.607694356796255
 20
-23.09104943679985
 30
0.0
 10
-3.778579494185031
 20
-23.44764514600991
 30
0.0
 10
-4.007444879756774
 20
-23.86256546008688
 30
0.0
 10
-4.219607048352473
 20
-24.19741617479059
 30
0.0
 10
-4.401413633519606
 20
-24.45931706604276
 30
0.0
 10
-4.497638531577456
 20
-24.59209725987741
 30
0.0
  0
LINE
  5
146
330
1F
100
AcDbEntity
  8
0
  6
Continuous
 62
     7
370
    25
100
AcDbLine
 10
-3.3881578555
 20
-22.4962860567
 30
0.0
 11
-3.3709238375
 21
-22.4988749159
 31
0.0
  0
SPLINE
  5
147
330
1F
100
AcDbEntity
  8
0
  6
Continuous
 62
     7
370
    25
100
AcDbSpline
210
0.0
220
0.0
230
1.0
 70
    24
 71
     3
 72
     8
 73
     4
 74
     0
 42
0.000000001
 43
0.00000001
 40
0.0
 40
0.0
 40
0.0
 40
0.0
 40
1.0
 40
1.0
 40
1.0
 40
1.0
 10
-3.370923837536692
 20
-22.49887491590473
 30
0.0
 10
-3.102974201186122
 20
-22.53415115475791
 30
0.0
 10
-2.835024564835552
 20
-22.56942739361109
 30
0.0
 10
-2.567074928484982
 20
-22.60470363246428
 30
0.0
  0
LINE
  5
148
330
1F
100
AcDbEntity
  8
0
  6
Continuous
 62
     7
370
    25
100
AcDbLine
 10
-2.5670749285
 20
-22.6047036325
 30
0.0
 11
-2.5497580994
 21
-22.6066634786
 31
0.0
  0
SPLINE
  5
149
330
1F
100
AcDbEntity
  8
0
  6
Continuous
 62
     7
370
    25
100
AcDbSpline
210
0.0
220
0.0
230
1.0
 70
     8
 71
     4
 72
    15
 73
    10
 74
     0
 42
0.000000001
 43
0.00000001
 40
0.0016193182508458
 40
0.0016193182508458
 40
0.0016193182508458
 40
0.0016193182508458
 40
0.0016193182508458
 40
0.0028020339056145
 40
0.005604067811229
 40
0.0081326129577701
 40
0.0106611581043112
 40
0.0157182483973935
 40
0.0210760269348498
 40
0.0210760269348498
 40
0.0210760269348498
 40
0.0210760269348498
 40
0.0210760269348498
 10
-2.549758099391104
 20
-22.60666347860263
 30
0.0
 10
-2.549055521798695
 20
-22.64285380564963
 30
0.0
 10
-2.54455161757967
 20
-22.76476519851019
 30
0.0
 10
-2.528629510657643
 20
-22.96356760560641
 30
0.0
 10
-2.491638213060496
 20
-23.23798101557042
 30
0.0
 10
-2.41886960647312
 20
-23.62665434872145
 30
0.0
 10
-2.305191899288802
 20
-24.08667131649106
 30
0.0
 10
-2.186924723512225
 20
-24.46502387965754
 30
0.0
 10
-2.079097986095253
 20
-24.76505572121246
 30
0.0
 10
-2.02051791490595
 20
-24.91821637588743
 30
0.0
  0
ARC
  5
14A
330
1F
100
AcDbEntity
  8
0
  6
Continuous
 62
     7
370
    25
100
AcDbCircle
 10
0.0
 20
0.0
 30
0.0
 40
25.0
100
AcDbArc
 50
265.3642579013
 51
267.1357420987
  0
SPLINE
  5
14B
330
1F
100
AcDbEntity
  8
0
  6
Continuous
 62
     7
370
    25
100
AcDbSpline
210
0.0
220
0.0
230
1.0
 70
     8
 71
     4
 72
    15
 73
    10
 74
     0
 42
0.000000001
 43
0.00000001
 40
0.0016193182508102
 40
0.0016193182508102
 40
0.0016193182508102
 40
0.0016193182508102
 40
0.0016193182508102
 40
0.0028020339056145
 40
0.005604067811229
 40
0.0081326129577701
 40
0.0106611581043112
 40
0.0157182483973935
 40
0.0210760269348498
 40
0.0210760269348498
 40
0.0210760269348498
 40
0.0210760269348498
 40
0.0210760269348498
 10
-0.4228171372737381
 20
-22.74607055445901
 30
0.0
 10
-0.4282374898021966
 20
-22.7818595634644
 30
0.0
 10
-0.4486154923946908
 20
-22.9021401099922
 30
0.0
 10
-0.490350304687399
 20
-23.09716348294892
 30
0.0
 10
-0.5628432741026452
 20
-23.36440091493021
 30
0.0
 10
-0.6857213853667097
 20
-23.74025088470483
 30
0.0
 10
-0.8584708271669376
 20
-24.1814944252857
 30
0.0
 10
-1.025111130246633
 20
-24.54117316570598
 30
0.0
 10
-1.171177408800324
 20
-24.82456397980957
 30
0.0
 10
-1.249247796412523
 20
-24.9687680902194
 30
0.0
  0
LINE
  5
14C
330
1F
100
AcDbEntity
  8
0
  6
Continuous
 62
     7
370
    25
100
AcDbLine
 10
-0.4228171373
 20
-22.7460705545
 30
0.0
 11
-0.4053926448
 21
-22.7463877748
 31
0.0
  0
SPLINE
  5
14D
330
1F
100
AcDbEntity
  8
0
  6
Continuous
 62
     7
370
    25
100
AcDbSpline
210
0.0
220
0.0
230
1.0
 70
    24
 71
     3
 72
     8
 73
     4
 74
     0
 42
0.000000001
 43
0.00000001
 40
0.0
 40
0.0
 40
0.0
 40
0.0
 40
1.0
 40
1.0
 40
1.0
 40
1.0
 10
-0.4053926448001128
 20
-22.74638777484332
 30
0.0
 10
-0.1351308816000077
 20
-22.74638777484332
 30
0.0
 10
0.1351308816000975
 20
-22.74638777484332
 30
0.0
 10
0.4053926448002026
 20
-22.74638777484332
 30
0.0
  0
LINE
  5
14E
330
1F
100
AcDbEntity
  8
0
  6
Continuous
 62
     7
370
    25
100
AcDbLine
 10
0.4053926448
 20
-22.7463877748
 30
0.0
 11
0.4228171373
 21
-22.7460705545
 31
0.0
  0
SPLINE
  5
14F
330
1F
100
AcDbEntity
  8
0
  6
Continuous
 62
     7
370
    25
100
AcDbSpline
210
0.0
220
0.0
230
1.0
 70
     8
 71
     4
 72
    15
 73
    10
 74
     0
 42
0.000000001
 43
0.00000001
 40
0.0016193182508103
 40
0.0016193182508103
 40
0.0016193182508103
 40
0.0016193182508103
 40
0.0016193182508103
 40
0.0028020339056145
 40
0.005604067811229
 40
0.0081326129577701
 40
0.0106611581043112
 40
0.0157182483973935
 40
0.0210760269348499
 40
0.0210760269348499
 40
0.0210760269348499
 40
0.0210760269348499
 40
0.0210760269348499
 10
0.4228171372737397
 20
-22.74607055445902
 30
0.0
 10
0.428237489802198
 20
-22.78185956346441
 30
0.0
 10
0.448615492394692
 20
-22.9021401099922
 30
0.0
 10
0.4903503046873997
 20
-23.09716348294892
 30
0.0
 10
0.5628432741026452
 20
-23.36440091493021
 30
0.0
 10
0.6857213853667097
 20
-23.74025088470483
 30
0.0
 10
0.8584708271669377
 20
-24.1814944252857
 30
0.0
 10
1.025111130246633
 20
-24.54117316570599
 30
0.0
 10
1.171177408800324
 20
-24.82456397980958
 30
0.0
 10
1.249247796412523
 20
-24.9687680902194
 30
0.0
  0
ARC
  5
150
330
1F
100
AcDbEntity
  8
0
  6
Continuous
 62
     7
370
    25
100
AcDbCircle
 10
0.0
 20
0.0
 30
0.0
 40
25.0
100
AcDbArc
 50
272.8642579013
 51
274.6357420987
  0
SPLINE
  5
151
330
1F
100
AcDbEntity
  8
0
  6
Continuous
 62
     7
370
    25
100
AcDbSpline
210
0.0
220
0.0
230
1.0
 70
     8
 71
     4
 72
    15
 73
    10
 74
     0
 42
0.000000001
 43
0.00000001
 40
0.0016193182508101
 40
0.0016193182508101
 40
0.0016193182508101
 40
0.0016193182508101
 40
0.0016193182508101
 40
0.0028020339056145
 40
0.005604067811229
 40
0.0081326129577701
 40
0.0106611581043112
 40
0.0157182483973935
 40
0.0210760269348499
 40
0.0210760269348499
 40
0.0210760269348499
 40
0.0210760269348499
 40
0.0210760269348499
 10
2.549758099391504
 20
-22.60666347859823
 30
0.0
 10
2.549055521799132
 20
-22.64285380564631
 30
0.0
 10
2.544551617580162
 20
-22.76476519850798
 30
0.0
 10
2.528629510658109
 20
-22.9635676056053
 30
0.0
 10
2.49163821306082
 20
-23.23798101557038
 30
0.0
 10
2.418869606473449
 20
-23.62665434872142
 30
0.0
 10
2.305191899289137
 20
-24.08667131649104
 30
0.0
 10
2.186924723512565
 20
-24.46502387965752
 30
0.0
 10
2.079097986095596
 20
-24.76505572121243
 30
0.0
 10
2.020517914906296
 20
-24.9182163758874
 30
0.0
  0
LINE
  5
152
330
1F
100
AcDbEntity
  8
0
  6
Continuous
 62
     7
370
    25
100
AcDbLine
 10
2.5497580994
 20
-22.6066634786
 30
0.0
 11
2.5670749285
 21
-22.6047036325
 31
0.0
  0
SPLINE
  5
153
330
1F
100
AcDbEntity
  8
0
  6
Continuous
 62
     7
370
    25
100
AcDbSpline
210
0.0
220
0.0
230
1.0
 70
    24
 71
     3
 72
     8
 73
     4
 74
     0
 42
0.000000001
 43
0.00000001
 40
0.0
 40
0.0
 40
0.0
 40
0.0
 40
1.0
 40
1.0
 40
1.0
 40
1.0
 10
2.567074928485386
 20
-22.60470363246424
 30
0.0
 10
2.835024564835867
 20
-22.56942739361106
 30
0.0
 10
3.102974201186349
 20
-22.53415115475788
 30
0.0
 10
3.37092383753683
 20
-22.4988749159047
 30
0.0
  0
LINE
  5
154
330
1F
100
AcDbEntity
  8
0
  6
Continuous
 62
     7
370
    25
100
AcDbLine
 10
3.3709238375
 20
-22.4988749159
 30
0.0
 11
3.3881578555
 21
-22.4962860567
 31
0.0
  0
SPLINE
  5
155
330
1F
100
AcDbEntity
  8
0
  6
Continuous
 62
     7
370
    25
100
AcDbSpline
210
0.0
220
0.0
230
1.0
 70
     8
 71
     4
 72
    15
 73
    10
 74
     0
 42
0.000000001
 43
0.00000001
 40
0.0016193182508458
 40
0.0016193182508458
 40
0.0016193182508458
 40
0.0016193182508458
 40
0.0016193182508458
 40
0.0028020339056145
 40
0.005604067811229
 40
0.0081326129577701
 40
0.0106611581043112
 40
0.0157182483973935
 40
0.0210760269348498
 40
0.0210760269348498
 40
0.0210760269348498
 40
0.0210760269348498
 40
0.0210760269348498
 10
3.388157855494379
 20
-22.49628605673497
 30
0.0
 10
3.398203239224109
 20
-22.53106138782993
 30
0.0
 10
3.434106666915689
 20
-22.64765305452362
 30
0.0
 10
3.500940090369338
 20
-22.83556048935672
 30
0.0
 10
3.607694356796577
 20
-23.0910494367998
 30
0.0
 10
3.778579494185357
 20
-23.44764514600986
 30
0.0
 10
4.007444879757106
 20
-23.86256546008682
 30
0.0
 10
4.21960704835281
 20
-24.19741617479053
 30
0.0
 10
4.401413633519946
 20
-24.4593170660427
 30
0.0
 10
4.497638531577797
 20
-24.59209725987734
 30
0.0
  0
ARC
  5
156
330
1F
100
AcDbEntity
  8
0
  6
Continuous
 62
     7
370
    25
100
AcDbCircle
 10
0.0
 20
0.0
 30
0.0
 40
25.0
100
AcDbArc
 50
280.3642579013
 51
282.1357420987
  0
SPLINE
  5
157
330
1F
100
AcDbEntity
  8
0
  6
Continuous
 62
     7
370
    25
100
AcDbSpline
210
0.0
220
0.0
230
1.0
 70
     8
 71
     4
 72
    15
 73
    10
 74
     0
 42
0.000000001
 43
0.00000001
 40
0.0016193182508103
 40
0.0016193182508103
 40
0.0016193182508103
 40
0.0016193182508103
 40
0.0016193182508103
 40
0.0028020339056145
 40
0.005604067811229
 40
0.0081326129577701
 40
0.0106611581043112
 40
0.0157182483973935
 40
0.0210760269348499
 40
0.0210760269348499
 40
0.0210760269348499
 40
0.0210760269348499
 40
0.0210760269348499
 10
5.4787062680495
 20
-22.0804501228674
 30
0.0
 10
5.482733486690612
 20
-22.11642254142854
 30
0.0
 10
5.494180743895069
 20
-22.23787884289198
 30
0.0
 10
5.504343774007549
 20
-22.43705871982601
 30
0.0
 10
5.503487079586029
 20
-22.71395281824861
 30
0.0
 10
5.48207306870933
 20
-23.10879920628524
 30
0.0
 10
5.429412153228268
 20
-23.57971858338427
 30
0.0
 10
5.361541688922212
 20
-23.97027125204202
 30
0.0
 10
5.293799438014388
 20
-24.28181049305471
 30
0.0
 10
5.255712004507497
 20
-24.44130707072917
 30
0.0
  0
LINE
  5
158
330
1F
100
AcDbEntity
  8
0
  6
Continuous
 62
     7
370
    25
100
AcDbLine
 10
5.478706268
 20
-22.0804501229
 30
0.0
 11
5.495619138
 21
-22.0762467437
 31
0.0
  0
SPLINE
  5
159
330
1F
100
AcDbEntity
  8
0
  6
Continuous
 62
     7
370
    25
100
AcDbSpline
210
0.0
220
0.0
230
1.0
 70
    24
 71
     3
 72
     8
 73
     4
 74
     0
 42
0.000000001
 43
0.00000001
 40
0.0
 40
0.0
 40
0.0
 40
0.0
 40
1.0
 40
1.0
 40
1.0
 40
1.0
 10
5.495619138016708
 20
-22.07624674372581
 30
0.0
 10
5.75667195495011
 20
-22.00629785224663
 30
0.0
 10
6.017724771883511
 20
-21.93634896076745
 30
0.0
 10
6.278777588816914
 20
-21.86640006928828
 30
0.0
  0
LINE
  5
15A
330
1F
100
AcDbEntity
  8
0
  6
Continuous
 62
     7
370
    25
100
AcDbLine
 10
6.2787775888
 20
-21.8664000693
 30
0.0
 11
6.2955262534
 21
-21.8615838674
 31
0.0
  0
SPLINE
  5
15B
330
1F
100
AcDbEntity
  8
0
  6
Continuous
 62
     7
370
    25
100
AcDbSpline
210
0.0
220
0.0
230
1.0
 70
     8
 71
     4
 72
    15
 73
    10
 74
     0
 42
0.000000001
 43
0.00000001
 40
0.0016193182508102
 40
0.0016193182508102
 40
0.0016193182508102
 40
0.0016193182508102
 40
0.0016193182508102
 40
0.0028020339056145
 40
0.005604067811229
 40
0.0081326129577701
 40
0.0106611581043112
 40
0.0157182483973935
 40
0.0210760269348498
 40
0.0210760269348498
 40
0.0210760269348498
 40
0.0210760269348498
 40
0.0210760269348498
 10
6.295526253430129
 20
-21.86158386742305
 30
0.0
 10
6.3100247890609
 20
-21.89475050505312
 30
0.0
 10
6.360839324249907
 20
-22.00565837617239
 30
0.0
 10
6.451627820460093
 20
-22.18323472457616
 30
0.0
 10
6.590816788803711
 20
-22.42260370075735
 30
0.0
 10
6.806785060238174
 20
-22.75384369795125
 30
0.0
 10
7.087850439380832
 20
-23.13534138391282
 30
0.0
 10
7.341904319965405
 20
-23.4396346843332
 30
0.0
 10
7.556340450667467
 20
-23.675564455872
 30
0.0
 10
7.669073424486618
 20
-23.79464882720132
 30
0.0
  0
ARC
  5
15C
330
1F
100
AcDbEntity
  8
0
  6
Continuous
 62
     7
370
    25
100
AcDbCircle
 10
0.0
 20
0.0
 30
0.0
 40
25.0
100
AcDbArc
 50
287.8642579013
 51
289.6357420987
  0
SPLINE
  5
15D
330
1F
100
AcDbEntity
  8
0
  6
Continuous
 62
     7
370
    25
100
AcDbSpline
210
0.0
220
0.0
230
1.0
 70
     8
 71
     4
 72
    15
 73
    10
 74
     0
 42
0.000000001
 43
0.00000001
 40
0.0016193182508103
 40
0.0016193182508103
 40
0.0016193182508103
 40
0.0016193182508103
 40
0.0016193182508103
 40
0.0028020339056145
 40
0.005604067811229
 40
0.0081326129577701
 40
0.0106611581043112
 40
0.0157182483973935
 40
0.0210760269348499
 40
0.0210760269348499
 40
0.0210760269348499
 40
0.0210760269348499
 40
0.0210760269348499
 10
8.313912253476822
 20
-21.17643414367698
 30
0.0
 10
8.32260036152391
 20
-21.21157315569613
 30
0.0
 10
8.349802914407249
 20
-21.33049621476927
 30
0.0
 10
8.385877189291312
 20
-21.52664553862259
 30
0.0
 10
8.421169756324636
 20
-21.80128259070914
 30
0.0
 10
8.451476740821791
 20
-22.19554610245997
 30
0.0
 10
8.460733659908227
 20
-22.66931032778271
 30
0.0
 10
8.444421189534209
 20
-23.06538063748935
 30
0.0
 10
8.417922513830261
 20
-23.38309675517109
 30
0.0
 10
8.400979404552915
 20
-23.54620022518024
 30
0.0
  0
LINE
  5
15E
330
1F
100
AcDbEntity
  8
0
  6
Continuous
 62
     7
370
    25
100
AcDbLine
 10
8.3139122535
 20
-21.1764341437
 30
0.0
 11
8.3301317804
 21
-21.1700591525
 31
0.0
  0
SPLINE
  5
15F
330
1F
100
AcDbEntity
  8
0
  6
Continuous
 62
     7
370
    25
100
AcDbSpline
210
0.0
220
0.0
230
1.0
 70
    24
 71
     3
 72
     8
 73
     4
 74
     0
 42
0.000000001
 43
0.00000001
 40
0.0
 40
0.0
 40
0.0
 40
0.0
 40
1.0
 40
1.0
 40
1.0
 40
1.0
 10
8.330131780423084
 20
-21.17005915251031
 30
0.0
 10
8.579821091864073
 20
-21.06663445333184
 30
0.0
 10
8.829510403305061
 20
-20.96320975415339
 30
0.0
 10
9.07919971474605
 20
-20.85978505497492
 30
0.0
  0
LINE
  5
160
330
1F
100
AcDbEntity
  8
0
  6
Continuous
 62
     7
370
    25
100
AcDbLine
 10
9.0791997147
 20
-20.859785055
 30
0.0
 11
9.0951764517
 21
-20.852823917
 31
0.0
  0
SPLINE
  5
161
330
1F
100
AcDbEntity
  8
0
  6
Continuous
 62
     7
370
    25
100
AcDbSpline
210
0.0
220
0.0
230
1.0
 70
     8
 71
     4
 72
    15
 73
    10
 74
     0
 42
0.000000001
 43
0.00000001
 40
0.0016193182508102
 40
0.0016193182508102
 40
0.0016193182508102
 40
0.0016193182508102
 40
0.0016193182508102
 40
0.0028020339056145
 40
0.005604067811229
 40
0.0081326129577701
 40
0.0106611581043112
 40
0.0157182483973935
 40
0.0210760269348499
 40
0.0210760269348499
 40
0.0210760269348499
 40
0.0210760269348499
 40
0.0210760269348499
 10
9.095176451721267
 20
-20.85282391696758
 30
0.0
 10
9.113880065288432
 20
-20.8838143707663
 30
0.0
 10
9.178736257189104
 20
-20.98714078188576
 30
0.0
 10
9.291926409814034
 20
-21.1513476633045
 30
0.0
 10
9.461168518234778
 20
-21.37050099867472
 30
0.0
 10
9.718524646712963
 20
-21.67071767566341
 30
0.0
 10
10.04698091286336
 20
-22.01226520233162
 30
0.0
 10
10.33857957310295
 20
-22.28079454573247
 30
0.0
 10
10.5819761876907
 20
-22.48671637375476
 30
0.0
 10
10.70928834483362
 20
-22.59006735596888
 30
0.0
  0
ARC
  5
162
330
1F
100
AcDbEntity
  8
0
  6
Continuous
 62
     7
370
    25
100
AcDbCircle
 10
0.0
 20
0.0
 30
0.0
 40
25.00000000000001
100
AcDbArc
 50
295.3642579013
 51
297.1357420987
  0
SPLINE
  5
163
330
1F
100
AcDbEntity
  8
0
  6
Continuous
 62
     7
370
    25
100
AcDbSpline
210
0.0
220
0.0
230
1.0
 70
     8
 71
     4
 72
    15
 73
    10
 74
     0
 42
0.000000001
 43
0.00000001
 40
0.0016193182508101
 40
0.0016193182508101
 40
0.0016193182508101
 40
0.0016193182508101
 40
0.0016193182508101
 40
0.0028020339056145
 40
0.005604067811229
 40
0.0081326129577701
 40
0.0106611581043112
 40
0.0157182483973935
 40
0.0210760269348499
 40
0.0210760269348499
 40
0.0210760269348499
 40
0.0210760269348499
 40
0.0210760269348499
 10
11.00686489519519
 20
-19.91008350507147
 30
0.0
 10
11.02006523671078
 20
-19.94378787231063
 30
0.0
 10
11.06255764205119
 20
-20.05814288248103
 30
0.0
 10
11.1239259208619
 20
-20.24790548393964
 30
0.0
 10
11.19476388374318
 20
-20.51558637358518
 30
0.0
 10
11.27627330270676
 20
-20.90252105105364
 30
0.0
 10
11.34728966790862
 20
-21.37102388735258
 30
0.0
 10
11.38281430235741
 20
-21.76583496529758
 30
0.0
 10
11.39801260154545
 20
-22.08429174878729
 30
0.0
 10
11.40250371779491
 20
-22.24821136553845
 30
0.0
  0
LINE
  5
164
330
1F
100
AcDbEntity
  8
0
  6
Continuous
 62
     7
370
    25
100
AcDbLine
 10
11.0068648952
 20
-19.9100835051
 30
0.0
 11
11.0221135585
 21
-19.9016459797
 31
0.0
  0
SPLINE
  5
165
330
1F
100
AcDbEntity
  8
0
  6
Continuous
 62
     7
370
    25
100
AcDbSpline
210
0.0
220
0.0
230
1.0
 70
    24
 71
     3
 72
     8
 73
     4
 74
     0
 42
0.000000001
 43
0.00000001
 40
0.0
 40
0.0
 40
0.0
 40
0.0
 40
1.0
 40
1.0
 40
1.0
 40
1.0
 10
11.02211355851757
 20
-19.90164597974608
 30
0.0
 10
11.25616711112036
 20
-19.76651509814607
 30
0.0
 10
11.49022066372314
 20
-19.63138421654606
 30
0.0
 10
11.72427421632593
 20
-19.49625333494605
 30
0.0
  0
LINE
  5
166
330
1F
100
AcDbEntity
  8
0
  6
Continuous
 62
     7
370
    25
100
AcDbLine
 10
11.7242742163
 20
-19.4962533349
 30
0.0
 11
11.7392056593
 21
-19.4872663678
 31
0.0
  0
SPLINE
  5
167
330
1F
100
AcDbEntity
  8
0
  6
Continuous
 62
     7
370
    25
100
AcDbSpline
210
0.0
220
0.0
230
1.0
 70
     8
 71
     4
 72
    15
 73
    10
 74
     0
 42
0.000000001
 43
0.00000001
 40
0.0016193182508103
 40
0.0016193182508103
 40
0.0016193182508103
 40
0.0016193182508103
 40
0.0016193182508103
 40
0.0028020339056145
 40
0.005604067811229
 40
0.0081326129577701
 40
0.0106611581043112
 40
0.0157182483973935
 40
0.0210760269348499
 40
0.0210760269348499
 40
0.0210760269348499
 40
0.0210760269348499
 40
0.0210760269348499
 10
11.73920565926415
 20
-19.48726636779774
 30
0.0
 10
11.76179432675395
 20
-19.51555038250845
 30
0.0
 10
11.83958246794133
 20
-19.60952739008634
 30
0.0
 10
11.97323756208735
 20
-19.75755517925223
 30
0.0
 10
12.16963703118737
 20
-19.95274309948253
 30
0.0
 10
12.46397758199841
 20
-20.21679966568692
 30
0.0
 10
12.83420475737743
 20
-20.51255306018563
 30
0.0
 10
13.15835886334893
 20
-20.74072383505093
 30
0.0
 10
13.42655137826447
 20
-20.91311433998694
 30
0.0
 10
13.56626437242485
 20
-20.99896356912589
 30
0.0
  0
ARC
  5
168
330
1F
100
AcDbEntity
  8
0
  6
Continuous
 62
     7
370
    25
100
AcDbCircle
 10
0.0
 20
0.0
 30
0.0
 40
25.0
100
AcDbArc
 50
302.8642579013
 51
304.6357420987
  0
SPLINE
  5
169
330
1F
100
AcDbEntity
  8
0
  6
Continuous
 62
     7
370
    25
100
AcDbSpline
210
0.0
220
0.0
230
1.0
 70
     8
 71
     4
 72
    15
 73
    10
 74
     0
 42
0.000000001
 43
0.00000001
 40
0.0016193182508103
 40
0.0016193182508103
 40
0.0016193182508103
 40
0.0016193182508103
 40
0.0016193182508103
 40
0.0028020339056145
 40
0.005604067811229
 40
0.0081326129577701
 40
0.0106611581043112
 40
0.0157182483973935
 40
0.0210760269348499
 40
0.0210760269348499
 40
0.0210760269348499
 40
0.0210760269348499
 40
0.0210760269348499
 10
13.51148702687731
 20
-18.3030658175762
 30
0.0
 10
13.52897374035823
 20
-18.33475884896729
 30
0.0
 10
13.58602894131922
 20
-18.44258916430572
 30
0.0
 10
13.67164119579161
 20
-18.62271815264651
 30
0.0
 10
13.77681249733595
 20
-18.87886278561403
 30
0.0
 10
13.90812970200881
 20
-19.25184806919009
 30
0.0
 10
14.03969040362803
 20
-19.70707330304262
 30
0.0
 10
14.12644430655492
 20
-20.09386982222004
 30
0.0
 10
14.18307953352209
 20
-20.4076183876593
 30
0.0
 10
14.20892803105414
 20
-20.56954944106273
 30
0.0
  0
LINE
  5
16A
330
1F
100
AcDbEntity
  8
0
  6
Continuous
 62
     7
370
    25
100
AcDbLine
 10
13.5114870269
 20
-18.3030658176
 30
0.0
 11
13.5255039177
 21
-18.2927101265
 31
0.0
  0
SPLINE
  5
16B
330
1F
100
AcDbEntity
  8
0
  6
Continuous
 62
     7
370
    25
100
AcDbSpline
210
0.0
220
0.0
230
1.0
 70
    24
 71
     3
 72
     8
 73
     4
 74
     0
 42
0.000000001
 43
0.00000001
 40
0.0
 40
0.0
 40
0.0
 40
0.0
 40
1.0
 40
1.0
 40
1.0
 40
1.0
 10
13.5255039177186
 20
-18.29271012648969
 30
0.0
 10
13.7399169903064
 20
-18.12818518931758
 30
0.0
 10
13.9543300628942
 20
-17.96366025214546
 30
0.0
 10
14.16874313548201
 20
-17.79913531497335
 30
0.0
  0
LINE
  5
16C
330
1F
100
AcDbEntity
  8
0
  6
Continuous
 62
     7
370
    25
100
AcDbLine
 10
14.1687431355
 20
-17.799135315
 30
0.0
 11
14.1823738033
 21
-17.7882762882
 31
0.0
  0
SPLINE
  5
16D
330
1F
100
AcDbEntity
  8
0
  6
Continuous
 62
     7
370
    25
100
AcDbSpline
210
0.0
220
0.0
230
1.0
 70
     8
 71
     4
 72
    15
 73
    10
 74
     0
 42
0.000000001
 43
0.00000001
 40
0.0016193182508102
 40
0.0016193182508102
 40
0.0016193182508102
 40
0.0016193182508102
 40
0.0016193182508102
 40
0.0028020339056145
 40
0.005604067811229
 40
0.0081326129577701
 40
0.0106611581043112
 40
0.0157182483973935
 40
0.0210760269348498
 40
0.0210760269348498
 40
0.0210760269348498
 40
0.0210760269348498
 40
0.0210760269348498
 10
14.1823738032543
 20
-17.78827628818391
 30
0.0
 10
14.20846102630324
 20
-17.8133699164731
 30
0.0
 10
14.29785014011467
 20
-17.89638954785442
 30
0.0
 10
14.44968330006475
 20
-18.02570544825378
 30
0.0
 10
14.66987968047552
 20
-18.19358823391268
 30
0.0
 10
14.99616840518843
 20
-18.41696660827473
 30
0.0
 10
15.40183180017896
 20
-18.66186544802572
 30
0.0
 10
15.75299498525669
 20
-18.84577358913665
 30
0.0
 10
16.04139455221282
 20
-18.98168312165125
 30
0.0
 10
16.1911178553248
 20
-19.04856169360255
 30
0.0
  0
ARC
  5
16E
330
1F
100
AcDbEntity
  8
0
  6
Continuous
 62
     7
370
    25
100
AcDbCircle
 10
0.0
 20
0.0
 30
0.0
 40
25.00000000000001
100
AcDbArc
 50
310.3642579013
 51
312.1357420987
  0
SPLINE
  5
16F
330
1F
100
AcDbEntity
  8
0
  6
Continuous
 62
     7
370
    25
100
AcDbSpline
210
0.0
220
0.0
230
1.0
 70
     8
 71
     4
 72
    15
 73
    10
 74
     0
 42
0.000000001
 43
0.00000001
 40
0.0016193182508103
 40
0.0016193182508103
 40
0.0016193182508103
 40
0.0016193182508103
 40
0.0016193182508103
 40
0.0028020339056145
 40
0.005604067811229
 40
0.0081326129577701
 40
0.0106611581043112
 40
0.0157182483973935
 40
0.0210760269348498
 40
0.0210760269348498
 40
0.0210760269348498
 40
0.0210760269348498
 40
0.0210760269348498
 10
15.78492386943763
 20
-16.38287759937364
 30
0.0
 10
15.80639775236799
 20
-16.41201701836259
 30
0.0
 10
15.87703951864243
 20
-16.5114776322774
 30
0.0
 10
15.98543089936628
 20
-16.67889095056869
 30
0.0
 10
16.12313602944526
 20
-16.91911662117141
 30
0.0
 10
16.30201414604743
 20
-17.27177062924201
 30
0.0
 10
16.4918681440038
 20
-17.70592923068464
 30
0.0
 10
16.62836693207699
 20
-18.07809299541109
 30
0.0
 10
16.72547004238762
 20
-18.38176501785771
 30
0.0
 10
16.77223364624293
 20
-18.53893682269392
 30
0.0
  0
LINE
  5
170
330
1F
100
AcDbEntity
  8
0
  6
Continuous
 62
     7
370
    25
100
AcDbLine
 10
15.7849238694
 20
-16.3828775994
 30
0.0
 11
15.7974691549
 21
-16.3707809313
 31
0.0
  0
SPLINE
  5
171
330
1F
100
AcDbEntity
  8
0
  6
Continuous
 62
     7
370
    25
100
AcDbSpline
210
0.0
220
0.0
230
1.0
 70
    24
 71
     3
 72
     8
 73
     4
 74
     0
 42
0.000000001
 43
0.00000001
 40
0.0
 40
0.0
 40
0.0
 40
0.0
 40
1.0
 40
1.0
 40
1.0
 40
1.0
 10
15.79746915490933
 20
-16.37078093127167
 30
0.0
 10
15.98857308036353
 20
-16.17967700581748
 30
0.0
 10
16.17967700581772
 20
-15.98857308036328
 30
0.0
 10
16.37078093127192
 20
-15.79746915490908
 30
0.0
  0
LINE
  5
172
330
1F
100
AcDbEntity
  8
0
  6
Continuous
 62
     7
370
    25
100
AcDbLine
 10
16.3707809313
 20
-15.7974691549
 30
0.0
 11
16.3828775994
 21
-15.7849238694
 31
0.0
  0
SPLINE
  5
173
330
1F
100
AcDbEntity
  8
0
  6
Continuous
 62
     7
370
    25
100
AcDbSpline
210
0.0
220
0.0
230
1.0
 70
     8
 71
     4
 72
    15
 73
    10
 74
     0
 42
0.000000001
 43
0.00000001
 40
0.0016193182508102
 40
0.0016193182508102
 40
0.0016193182508102
 40
0.0016193182508102
 40
0.0016193182508102
 40
0.0028020339056145
 40
0.005604067811229
 40
0.0081326129577701
 40
0.0106611581043112
 40
0.0157182483973935
 40
0.0210760269348498
 40
0.0210760269348498
 40
0.0210760269348498
 40
0.0210760269348498
 40
0.0210760269348498
 10
16.38287759937391
 20
-15.78492386943734
 30
0.0
 10
16.41201701836286
 20
-15.8063977523677
 30
0.0
 10
16.51147763227767
 20
-15.87703951864213
 30
0.0
 10
16.67889095056897
 20
-15.98543089936598
 30
0.0
 10
16.91911662117169
 20
-16.12313602944496
 30
0.0
 10
17.2717706292423
 20
-16.30201414604714
 30
0.0
 10
17.70592923068492
 20
-16.49186814400349
 30
0.0
 10
18.07809299541137
 20
-16.62836693207667
 30
0.0
 10
18.381765017858
 20
-16.7254700423873
 30
0.0
 10
18.53893682269421
 20
-16.77223364624261
 30
0.0
  0
ARC
  5
174
330
1F
100
AcDbEntity
  8
0
  6
Continuous
 62
     7
370
    25
100
AcDbCircle
 10
0.0
 20
0.0
 30
0.0
 40
25.00000000000001
100
AcDbArc
 50
317.8642579013
 51
319.6357420987
  0
SPLINE
  5
175
330
1F
100
AcDbEntity
  8
0
  6
Continuous
 62
     7
370
    25
100
AcDbSpline
210
0.0
220
0.0
230
1.0
 70
     8
 71
     4
 72
    15
 73
    10
 74
     0
 42
0.000000001
 43
0.00000001
 40
0.0016193182508102
 40
0.0016193182508102
 40
0.0016193182508102
 40
0.0016193182508102
 40
0.0016193182508102
 40
0.0028020339056145
 40
0.005604067811229
 40
0.0081326129577701
 40
0.0106611581043112
 40
0.0157182483973935
 40
0.0210760269348499
 40
0.0210760269348499
 40
0.0210760269348499
 40
0.0210760269348499
 40
0.0210760269348499
 10
17.78827628818415
 20
-14.182373803254
 30
0.0
 10
17.81336991647334
 20
-14.20846102630294
 30
0.0
 10
17.89638954785467
 20
-14.29785014011436
 30
0.0
 10
18.02570544825403
 20
-14.44968330006444
 30
0.0
 10
18.19358823391293
 20
-14.66987968047521
 30
0.0
 10
18.41696660827498
 20
-14.99616840518811
 30
0.0
 10
18.66186544802598
 20
-15.40183180017865
 30
0.0
 10
18.84577358913692
 20
-15.75299498525638
 30
0.0
 10
18.98168312165153
 20
-16.0413945522125
 30
0.0
 10
19.04856169360282
 20
-16.19111785532449
 30
0.0
  0
LINE
  5
176
330
1F
100
AcDbEntity
  8
0
  6
Continuous
 62
     7
370
    25
100
AcDbLine
 10
17.7882762882
 20
-14.1823738033
 30
0.0
 11
17.799135315
 21
-14.1687431355
 31
0.0
  0
SPLINE
  5
177
330
1F
100
AcDbEntity
  8
0
  6
Continuous
 62
     7
370
    25
100
AcDbSpline
210
0.0
220
0.0
230
1.0
 70
    24
 71
     3
 72
     8
 73
     4
 74
     0
 42
0.000000001
 43
0.00000001
 40
0.0
 40
0.0
 40
0.0
 40
0.0
 40
1.0
 40
1.0
 40
1.0
 40
1.0
 10
17.79913531497365
 20
-14.16874313548163
 30
0.0
 10
17.96366025214573
 20
-13.95433006289387
 30
0.0
 10
18.12818518931782
 20
-13.7399169903061
 30
0.0
 10
18.2927101264899
 20
-13.52550391771833
 30
0.0
  0
LINE
  5
178
330
1F
100
AcDbEntity
  8
0
  6
Continuous
 62
     7
370
    25
100
AcDbLine
 10
18.2927101265
 20
-13.5255039177
 30
0.0
 11
18.3030658176
 21
-13.5114870269
 31
0.0
  0
SPLINE
  5
179
330
1F
100
AcDbEntity
  8
0
  6
Continuous
 62
     7
370
    25
100
AcDbSpline
210
0.0
220
0.0
230
1.0
 70
     8
 71
     4
 72
    15
 73
    10
 74
     0
 42
0.000000001
 43
0.00000001
 40
0.0016193182508102
 40
0.0016193182508102
 40
0.0016193182508102
 40
0.0016193182508102
 40
0.0016193182508102
 40
0.0028020339056145
 40
0.005604067811229
 40
0.0081326129577701
 40
0.0106611581043112
 40
0.0157182483973935
 40
0.0210760269348498
 40
0.0210760269348498
 40
0.0210760269348498
 40
0.0210760269348498
 40
0.0210760269348498
 10
18.30306581757642
 20
-13.511487026877
 30
0.0
 10
18.33475884896752
 20
-13.52897374035792
 30
0.0
 10
18.44258916430595
 20
-13.58602894131891
 30
0.0
 10
18.62271815264675
 20
-13.67164119579129
 30
0.0
 10
18.87886278561426
 20
-13.77681249733562
 30
0.0
 10
19.25184806919033
 20
-13.90812970200848
 30
0.0
 10
19.70707330304286
 20
-14.0396904036277
 30
0.0
 10
20.09386982222027
 20
-14.12644430655458
 30
0.0
 10
20.40761838765954
 20
-14.18307953352175
 30
0.0
 10
20.56954944106296
 20
-14.20892803105379
 30
0.0
  0
ARC
  5
17A
330
1F
100
AcDbEntity
  8
0
  6
Continuous
 62
     7
370
    25
100
AcDbCircle
 10
0.0
 20
0.0
 30
0.0
 40
25.0
100
AcDbArc
 50
325.3642579013
 51
327.1357420987
  0
SPLINE
  5
17B
330
1F
100
AcDbEntity
  8
0
  6
Continuous
 62
     7
370
    25
100
AcDbSpline
210
0.0
220
0.0
230
1.0
 70
     8
 71
     4
 72
    15
 73
    10
 74
     0
 42
0.000000001
 43
0.00000001
 40
0.0016193182508103
 40
0.0016193182508103
 40
0.0016193182508103
 40
0.0016193182508103
 40
0.0016193182508103
 40
0.0028020339056145
 40
0.005604067811229
 40
0.0081326129577701
 40
0.0106611581043112
 40
0.0157182483973935
 40
0.0210760269348499
 40
0.0210760269348499
 40
0.0210760269348499
 40
0.0210760269348499
 40
0.0210760269348499
 10
19.48726636779794
 20
-11.7392056592638
 30
0.0
 10
19.51555038250865
 20
-11.76179432675361
 30
0.0
 10
19.60952739008655
 20
-11.83958246794099
 30
0.0
 10
19.75755517925245
 20
-11.97323756208701
 30
0.0
 10
19.95274309948273
 20
-12.16963703118702
 30
0.0
 10
20.21679966568714
 20
-12.46397758199806
 30
0.0
 10
20.51255306018585
 20
-12.83420475737707
 30
0.0
 10
20.74072383505116
 20
-13.15835886334856
 30
0.0
 10
20.91311433998718
 20
-13.42655137826411
 30
0.0
 10
20.99896356912613
 20
-13.56626437242448
 30
0.0
  0
LINE
  5
17C
330
1F
100
AcDbEntity
  8
0
  6
Continuous
 62
     7
370
    25
100
AcDbLine
 10
19.4872663678
 20
-11.7392056593
 30
0.0
 11
19.4962533349
 21
-11.7242742163
 31
0.0
  0
SPLINE
  5
17D
330
1F
100
AcDbEntity
  8
0
  6
Continuous
 62
     7
370
    25
100
AcDbSpline
210
0.0
220
0.0
230
1.0
 70
    24
 71
     3
 72
     8
 73
     4
 74
     0
 42
0.000000001
 43
0.00000001
 40
0.0
 40
0.0
 40
0.0
 40
0.0
 40
1.0
 40
1.0
 40
1.0
 40
1.0
 10
19.49625333494616
 20
-11.72427421632574
 30
0.0
 10
19.63138421654626
 20
-11.4902206637228
 30
0.0
 10
19.76651509814635
 20
-11.25616711111985
 30
0.0
 10
19.90164597974644
 20
-11.02211355851691
 30
0.0
  0
LINE
  5
17E
330
1F
100
AcDbEntity
  8
0
  6
Continuous
 62
     7
370
    25
100
AcDbLine
 10
19.9016459797
 20
-11.0221135585
 30
0.0
 11
19.9100835051
 21
-11.0068648952
 31
0.0
  0
SPLINE
  5
17F
330
1F
100
AcDbEntity
  8
0
  6
Continuous
 62
     7
370
    25
100
AcDbSpline
210
0.0
220
0.0
230
1.0
 70
     8
 71
     4
 72
    15
 73
    10
 74
     0
 42
0.000000001
 43
0.00000001
 40
0.0016193182508102
 40
0.0016193182508102
 40
0.0016193182508102
 40
0.0016193182508102
 40
0.0016193182508102
 40
0.0028020339056145
 40
0.005604067811229
 40
0.0081326129577701
 40
0.0106611581043112
 40
0.0157182483973935
 40
0.0210760269348498
 40
0.0210760269348498
 40
0.0210760269348498
 40
0.0210760269348498
 40
0.0210760269348498
 10
19.91008350507168
 20
-11.00686489519485
 30
0.0
 10
19.94378787231084
 20
-11.02006523671044
 30
0.0
 10
20.05814288248123
 20
-11.06255764205085
 30
0.0
 10
20.24790548393983
 20
-11.12392592086155
 30
0.0
 10
20.51558637358537
 20
-11.19476388374282
 30
0.0
 10
20.90252105105384
 20
-11.27627330270639
 30
0.0
 10
21.37102388735277
 20
-11.34728966790825
 30
0.0
 10
21.76583496529777
 20
-11.38281430235703
 30
0.0
 10
22.08429174878748
 20
-11.39801260154507
 30
0.0
 10
22.24821136553863
 20
-11.40250371779452
 30
0.0
  0
ARC
  5
180
330
1F
100
AcDbEntity
  8
0
  6
Continuous
 62
     7
370
    25
100
AcDbCircle
 10
0.0
 20
0.0
 30
0.0
 40
25.00000000000001
100
AcDbArc
 50
332.8642579013
 51
334.6357420987
  0
SPLINE
  5
181
330
1F
100
AcDbEntity
  8
0
  6
Continuous
 62
     7
370
    25
100
AcDbSpline
210
0.0
220
0.0
230
1.0
 70
     8
 71
     4
 72
    15
 73
    10
 74
     0
 42
0.000000001
 43
0.00000001
 40
0.0016193182508102
 40
0.0016193182508102
 40
0.0016193182508102
 40
0.0016193182508102
 40
0.0016193182508102
 40
0.0028020339056145
 40
0.005604067811229
 40
0.0081326129577701
 40
0.0106611581043112
 40
0.0157182483973935
 40
0.0210760269348499
 40
0.0210760269348499
 40
0.0210760269348499
 40
0.0210760269348499
 40
0.0210760269348499
 10
20.85282391696774
 20
-9.09517645172089
 30
0.0
 10
20.88381437076645
 20
-9.113880065288056
 30
0.0
 10
20.98714078188592
 20
-9.178736257188724
 30
0.0
 10
21.15134766330467
 20
-9.291926409813653
 30
0.0
 10
21.3705009986749
 20
-9.461168518234397
 30
0.0
 10
21.67071767566358
 20
-9.718524646712575
 30
0.0
 10
22.0122652023318
 20
-10.04698091286297
 30
0.0
 10
22.28079454573265
 20
-10.33857957310256
 30
0.0
 10
22.48671637375495
 20
-10.5819761876903
 30
0.0
 10
22.59006735596908
 20
-10.70928834483322
 30
0.0
  0
LINE
  5
182
330
1F
100
AcDbEntity
  8
0
  6
Continuous
 62
     7
370
    25
100
AcDbLine
 10
20.852823917
 20
-9.0951764517
 30
0.0
 11
20.859785055
 21
-9.0791997147
 31
0.0
  0
SPLINE
  5
183
330
1F
100
AcDbEntity
  8
0
  6
Continuous
 62
     7
370
    25
100
AcDbSpline
210
0.0
220
0.0
230
1.0
 70
    24
 71
     3
 72
     8
 73
     4
 74
     0
 42
0.000000001
 43
0.00000001
 40
0.0
 40
0.0
 40
0.0
 40
0.0
 40
1.0
 40
1.0
 40
1.0
 40
1.0
 10
20.85978505497512
 20
-9.079199714745593
 30
0.0
 10
20.96320975415358
 20
-8.829510403304603
 30
0.0
 10
21.06663445333203
 20
-8.579821091863614
 30
0.0
 10
21.17005915251049
 20
-8.330131780422624
 30
0.0
  0
LINE
  5
184
330
1F
100
AcDbEntity
  8
0
  6
Continuous
 62
     7
370
    25
100
AcDbLine
 10
21.1700591525
 20
-8.3301317804
 30
0.0
 11
21.1764341437
 21
-8.3139122535
 31
0.0
  0
SPLINE
  5
185
330
1F
100
AcDbEntity
  8
0
  6
Continuous
 62
     7
370
    25
100
AcDbSpline
210
0.0
220
0.0
230
1.0
 70
     8
 71
     4
 72
    15
 73
    10
 74
     0
 42
0.000000001
 43
0.00000001
 40
0.0016193182508103
 40
0.0016193182508103
 40
0.0016193182508103
 40
0.0016193182508103
 40
0.0016193182508103
 40
0.0028020339056145
 40
0.005604067811229
 40
0.0081326129577701
 40
0.0106611581043112
 40
0.0157182483973935
 40
0.0210760269348499
 40
0.0210760269348499
 40
0.0210760269348499
 40
0.0210760269348499
 40
0.0210760269348499
 10
21.17643414367713
 20
-8.313912253476445
 30
0.0
 10
21.21157315569629
 20
-8.322600361523532
 30
0.0
 10
21.33049621476943
 20
-8.349802914406869
 30
0.0
 10
21.52664553862274
 20
-8.385877189290929
 30
0.0
 10
21.8012825907093
 20
-8.421169756324243
 30
0.0
 10
22.19554610246012
 20
-8.451476740821393
 30
0.0
 10
22.66931032778286
 20
-8.46073365990782
 30
0.0
 10
23.0653806374895
 20
-8.444421189533795
 30
0.0
 10
23.38309675517124
 20
-8.417922513829845
 30
0.0
 10
23.54620022518039
 20
-8.400979404552496
 30
0.0
  0
ARC
  5
186
330
1F
100
AcDbEntity
  8
0
  6
Continuous
 62
     7
370
    25
100
AcDbCircle
 10
0.0
 20
0.0
 30
0.0
 40
25.00000000000001
100
AcDbArc
 50
340.3642579013
 51
342.1357420987
  0
SPLINE
  5
187
330
1F
100
AcDbEntity
  8
0
  6
Continuous
 62
     7
370
    25
100
AcDbSpline
210
0.0
220
0.0
230
1.0
 70
     8
 71
     4
 72
    15
 73
    10
 74
     0
 42
0.000000001
 43
0.00000001
 40
0.0016193182508103
 40
0.0016193182508103
 40
0.0016193182508103
 40
0.0016193182508103
 40
0.0016193182508103
 40
0.0028020339056145
 40
0.005604067811229
 40
0.0081326129577701
 40
0.0106611581043112
 40
0.0157182483973935
 40
0.0210760269348499
 40
0.0210760269348499
 40
0.0210760269348499
 40
0.0210760269348499
 40
0.0210760269348499
 10
21.86158386742317
 20
-6.295526253429749
 30
0.0
 10
21.89475050505323
 20
-6.310024789060518
 30
0.0
 10
22.0056583761725
 20
-6.360839324249524
 30
0.0
 10
22.18323472457627
 20
-6.451627820459706
 30
0.0
 10
22.42260370075747
 20
-6.59081678880332
 30
0.0
 10
22.75384369795138
 20
-6.806785060237777
 30
0.0
 10
23.13534138391294
 20
-7.087850439380429
 30
0.0
 10
23.43963468433334
 20
-7.341904319964999
 30
0.0
 10
23.67556445587214
 20
-7.556340450667055
 30
0.0
 10
23.79464882720146
 20
-7.669073424486206
 30
0.0
  0
LINE
  5
188
330
1F
100
AcDbEntity
  8
0
  6
Continuous
 62
     7
370
    25
100
AcDbLine
 10
21.8615838674
 20
-6.2955262534
 30
0.0
 11
21.8664000693
 21
-6.2787775888
 31
0.0
  0
SPLINE
  5
189
330
1F
100
AcDbEntity
  8
0
  6
Continuous
 62
     7
370
    25
100
AcDbSpline
210
0.0
220
0.0
230
1.0
 70
    24
 71
     3
 72
     8
 73
     4
 74
     0
 42
0.000000001
 43
0.00000001
 40
0.0
 40
0.0
 40
0.0
 40
0.0
 40
1.0
 40
1.0
 40
1.0
 40
1.0
 10
21.86640006928841
 20
-6.278777588816446
 30
0.0
 10
21.93634896076759
 20
-6.017724771883043
 30
0.0
 10
22.00629785224676
 20
-5.756671954949639
 30
0.0
 10
22.07624674372593
 20
-5.495619138016235
 30
0.0
  0
LINE
  5
18A
330
1F
100
AcDbEntity
  8
0
  6
Continuous
 62
     7
370
    25
100
AcDbLine
 10
22.0762467437
 20
-5.495619138
 30
0.0
 11
22.0804501229
 21
-5.478706268
 31
0.0
  0
SPLINE
  5
18B
330
1F
100
AcDbEntity
  8
0
  6
Continuous
 62
     7
370
    25
100
AcDbSpline
210
0.0
220
0.0
230
1.0
 70
     8
 71
     4
 72
    15
 73
    10
 74
     0
 42
0.000000001
 43
0.00000001
 40
0.0016193182508102
 40
0.0016193182508102
 40
0.0016193182508102
 40
0.0016193182508102
 40
0.0016193182508102
 40
0.0028020339056145
 40
0.005604067811229
 40
0.0081326129577701
 40
0.0106611581043112
 40
0.0157182483973935
 40
0.0210760269348499
 40
0.0210760269348499
 40
0.0210760269348499
 40
0.0210760269348499
 40
0.0210760269348499
 10
22.0804501228675
 20
-5.478706268049114
 30
0.0
 10
22.11642254142863
 20
-5.482733486690225
 30
0.0
 10
22.23787884289208
 20
-5.494180743894682
 30
0.0
 10
22.43705871982611
 20
-5.504343774007158
 30
0.0
 10
22.71395281824871
 20
-5.503487079585632
 30
0.0
 10
23.10879920628535
 20
-5.482073068708925
 30
0.0
 10
23.57971858338436
 20
-5.429412153227855
 30
0.0
 10
23.97027125204211
 20
-5.361541688921792
 30
0.0
 10
24.2818104930548
 20
-5.293799438013962
 30
0.0
 10
24.44130707072927
 20
-5.255712004507069
 30
0.0
  0
ARC
  5
18C
330
1F
100
AcDbEntity
  8
0
  6
Continuous
 62
     7
370
    25
100
AcDbCircle
 10
0.0
 20
0.0
 30
0.0
 40
25.00000000000001
100
AcDbArc
 50
347.8642579013
 51
349.6357420987
  0
SPLINE
  5
18D
330
1F
100
AcDbEntity
  8
0
  6
Continuous
 62
     7
370
    25
100
AcDbSpline
210
0.0
220
0.0
230
1.0
 70
     8
 71
     4
 72
    15
 73
    10
 74
     0
 42
0.000000001
 43
0.00000001
 40
0.0016193182508102
 40
0.0016193182508102
 40
0.0016193182508102
 40
0.0016193182508102
 40
0.0016193182508102
 40
0.0028020339056145
 40
0.005604067811229
 40
0.0081326129577701
 40
0.0106611581043112
 40
0.0157182483973935
 40
0.0210760269348499
 40
0.0210760269348499
 40
0.0210760269348499
 40
0.0210760269348499
 40
0.0210760269348499
 10
22.49628605673084
 20
-3.388157855492786
 30
0.0
 10
22.53106138782686
 20
-3.398203239222763
 30
0.0
 10
22.64765305452163
 20
-3.434106666914573
 30
0.0
 10
22.83556048935577
 20
-3.500940090368529
 30
0.0
 10
23.09104943679986
 20
-3.607694356796185
 30
0.0
 10
23.44764514600993
 20
-3.778579494184959
 30
0.0
 10
23.86256546008689
 20
-4.007444879756701
 30
0.0
 10
24.1974161747906
 20
-4.2196070483524
 30
0.0
 10
24.45931706604278
 20
-4.401413633519532
 30
0.0
 10
24.59209725987743
 20
-4.497638531577382
 30
0.0
  0
LINE
  5
18E
330
1F
100
AcDbEntity
  8
0
  6
Continuous
 62
     7
370
    25
100
AcDbLine
 10
22.4962860567
 20
-3.3881578555
 30
0.0
 11
22.4988749159
 21
-3.3709238375
 31
0.0
  0
SPLINE
  5
18F
330
1F
100
AcDbEntity
  8
0
  6
Continuous
 62
     7
370
    25
100
AcDbSpline
210
0.0
220
0.0
230
1.0
 70
    24
 71
     3
 72
     8
 73
     4
 74
     0
 42
0.000000001
 43
0.00000001
 40
0.0
 40
0.0
 40
0.0
 40
0.0
 40
1.0
 40
1.0
 40
1.0
 40
1.0
 10
22.49887491590473
 20
-3.370923837536623
 30
0.0
 10
22.53415115475792
 20
-3.102974201186052
 30
0.0
 10
22.5694273936111
 20
-2.835024564835483
 30
0.0
 10
22.60470363246429
 20
-2.567074928484912
 30
0.0
  0
LINE
  5
190
330
1F
100
AcDbEntity
  8
0
  6
Continuous
 62
     7
370
    25
100
AcDbLine
 10
22.6047036325
 20
-2.5670749285
 30
0.0
 11
22.6066634786
 21
-2.5497580994
 31
0.0
  0
SPLINE
  5
191
330
1F
100
AcDbEntity
  8
0
  6
Continuous
 62
     7
370
    25
100
AcDbSpline
210
0.0
220
0.0
230
1.0
 70
     8
 71
     4
 72
    15
 73
    10
 74
     0
 42
0.000000001
 43
0.00000001
 40
0.0016193182508101
 40
0.0016193182508101
 40
0.0016193182508101
 40
0.0016193182508101
 40
0.0016193182508101
 40
0.0028020339056145
 40
0.005604067811229
 40
0.0081326129577701
 40
0.0106611581043112
 40
0.0157182483973935
 40
0.0210760269348498
 40
0.0210760269348498
 40
0.0210760269348498
 40
0.0210760269348498
 40
0.0210760269348498
 10
22.60666347859826
 20
-2.54975809939112
 30
0.0
 10
22.64285380564636
 20
-2.549055521798747
 30
0.0
 10
22.76476519850803
 20
-2.544551617579776
 30
0.0
 10
22.96356760560534
 20
-2.528629510657719
 30
0.0
 10
23.23798101557043
 20
-2.491638213060425
 30
0.0
 10
23.62665434872146
 20
-2.418869606473048
 30
0.0
 10
24.08667131649107
 20
-2.305191899288729
 30
0.0
 10
24.46502387965755
 20
-2.18692472351215
 30
0.0
 10
24.76505572121246
 20
-2.079097986095177
 30
0.0
 10
24.91821637588743
 20
-2.020517914905874
 30
0.0
  0
ARC
  5
192
330
1F
100
AcDbEntity
  8
0
  6
Continuous
 62
     7
370
    25
100
AcDbCircle
 10
0.0
 20
0.0
 30
0.0
 40
25.0
100
AcDbArc
 50
355.3642579013
 51
357.1357420987
  0
SPLINE
  5
193
330
1F
100
AcDbEntity
  8
0
  6
Continuous
 62
     7
370
    25
100
AcDbSpline
210
0.0
220
0.0
230
1.0
 70
     8
 71
     4
 72
    15
 73
    10
 74
     0
 42
0.000000001
 43
0.00000001
 40
0.0016193182508101
 40
0.0016193182508101
 40
0.0016193182508101
 40
0.0016193182508101
 40
0.0016193182508101
 40
0.0028020339056145
 40
0.005604067811229
 40
0.0081326129577701
 40
0.0106611581043112
 40
0.0157182483973935
 40
0.0210760269348499
 40
0.0210760269348499
 40
0.0210760269348499
 40
0.0210760269348499
 40
0.0210760269348499
 10
22.74607055445901
 20
-0.4228171372734993
 30
0.0
 10
22.7818595634644
 20
-0.4282374898019575
 30
0.0
 10
22.9021401099922
 20
-0.4486154923944506
 30
0.0
 10
23.09716348294892
 20
-0.4903503046871568
 30
0.0
 10
23.36440091493022
 20
-0.5628432741024005
 30
0.0
 10
23.74025088470484
 20
-0.685721385366461
 30
0.0
 10
24.18149442528571
 20
-0.8584708271666848
 30
0.0
 10
24.541173165706
 20
-1.025111130246377
 30
0.0
 10
24.82456397980959
 20
-1.171177408800066
 30
0.0
 10
24.96876809021942
 20
-1.249247796412264
 30
0.0
  0
LINE
  5
194
330
1F
100
AcDbEntity
  8
0
  6
Continuous
 62
     7
370
    25
100
AcDbLine
 10
22.7460705545
 20
-0.4228171373
 30
0.0
 11
22.7463877748
 21
-0.4053926448
 31
0.0
  0
SPLINE
  5
195
330
1F
100
AcDbEntity
  8
0
  6
Continuous
 62
     7
370
    25
100
AcDbSpline
210
0.0
220
0.0
230
1.0
 70
    24
 71
     3
 72
     8
 73
     4
 74
     0
 42
0.000000001
 43
0.00000001
 40
0.0
 40
0.0
 40
0.0
 40
0.0
 40
1.0
 40
1.0
 40
1.0
 40
1.0
 10
22.74638777484333
 20
-0.4053926447998745
 30
0.0
 10
22.74638777484333
 20
-0.1351308815997694
 30
0.0
 10
22.74638777484333
 20
0.1351308816003357
 30
0.0
 10
22.74638777484333
 20
0.4053926448004408
 30
0.0
  0
LINE
  5
196
330
1F
100
AcDbEntity
  8
0
  6
Continuous
 62
     7
370
    25
100
AcDbLine
 10
22.7463877748
 20
0.4053926448
 30
0.0
 11
22.7460705545
 21
0.4228171373
 31
0.0
  0
SPLINE
  5
197
330
1F
100
AcDbEntity
  8
0
  6
Continuous
 62
     7
370
    25
100
AcDbSpline
210
0.0
220
0.0
230
1.0
 70
     8
 71
     4
 72
    15
 73
    10
 74
     0
 42
0.000000001
 43
0.00000001
 40
0.0016193182508458
 40
0.0016193182508458
 40
0.0016193182508458
 40
0.0016193182508458
 40
0.0016193182508458
 40
0.0028020339056145
 40
0.005604067811229
 40
0.0081326129577701
 40
0.0106611581043112
 40
0.0157182483973935
 40
0.0210760269348499
 40
0.0210760269348499
 40
0.0210760269348499
 40
0.0210760269348499
 40
0.0210760269348499
 10
22.74607055446332
 20
0.4228171372746296
 30
0.0
 10
22.78185956346762
 20
0.428237489802982
 30
0.0
 10
22.90214010999432
 20
0.4486154923953874
 30
0.0
 10
23.09716348294997
 20
0.4903503046879267
 30
0.0
 10
23.3644009149302
 20
0.5628432741028899
 30
0.0
 10
23.74025088470482
 20
0.6857213853669585
 30
0.0
 10
24.18149442528569
 20
0.8584708271671909
 30
0.0
 10
24.54117316570597
 20
1.02511113024689
 30
0.0
 10
24.82456397980956
 20
1.171177408800584
 30
0.0
 10
24.96876809021938
 20
1.249247796412785
 30
0.0
  0
ARC
  5
198
330
1F
100
AcDbEntity
  8
0
  6
Continuous
 62
     7
370
    25
100
AcDbCircle
 10
0.0
 20
0.0
 30
0.0
 40
25.0
100
AcDbArc
 50
2.8642579013
 51
4.6357420987
  0
SPLINE
  5
199
330
1F
100
AcDbEntity
  8
0
  6
Continuous
 62
     7
370
    25
100
AcDbSpline
210
0.0
220
0.0
230
1.0
 70
     8
 71
     4
 72
    15
 73
    10
 74
     0
 42
0.000000001
 43
0.00000001
 40
0.0016193182508102
 40
0.0016193182508102
 40
0.0016193182508102
 40
0.0016193182508102
 40
0.0016193182508102
 40
0.0028020339056145
 40
0.005604067811229
 40
0.0081326129577701
 40
0.0106611581043112
 40
0.0157182483973935
 40
0.0210760269348499
 40
0.0210760269348499
 40
0.0210760269348499
 40
0.0210760269348499
 40
0.0210760269348499
 10
22.60666347859823
 20
2.549758099391593
 30
0.0
 10
22.64285380564631
 20
2.549055521799222
 30
0.0
 10
22.76476519850798
 20
2.544551617580253
 30
0.0
 10
22.96356760560529
 20
2.5286295106582
 30
0.0
 10
23.23798101557037
 20
2.491638213060912
 30
0.0
 10
23.62665434872141
 20
2.418869606473543
 30
0.0
 10
24.08667131649102
 20
2.305191899289232
 30
0.0
 10
24.46502387965751
 20
2.186924723512661
 30
0.0
 10
24.76505572121242
 20
2.079097986095694
 30
0.0
 10
24.9182163758874
 20
2.020517914906393
 30
0.0
  0
LINE
  5
19A
330
1F
100
AcDbEntity
  8
0
  6
Continuous
 62
     7
370
    25
100
AcDbLine
 10
22.6066634786
 20
2.5497580994
 30
0.0
 11
22.6047036325
 21
2.5670749285
 31
0.0
  0
SPLINE
  5
19B
330
1F
100
AcDbEntity
  8
0
  6
Continuous
 62
     7
370
    25
100
AcDbSpline
210
0.0
220
0.0
230
1.0
 70
    24
 71
     3
 72
     8
 73
     4
 74
     0
 42
0.000000001
 43
0.00000001
 40
0.0
 40
0.0
 40
0.0
 40
0.0
 40
1.0
 40
1.0
 40
1.0
 40
1.0
 10
22.60470363246421
 20
2.567074928485474
 30
0.0
 10
22.56942739361101
 20
2.835024564836176
 30
0.0
 10
22.5341511547578
 20
3.102974201186878
 30
0.0
 10
22.49887491590459
 20
3.37092383753758
 30
0.0
  0
LINE
  5
19C
330
1F
100
AcDbEntity
  8
0
  6
Continuous
 62
     7
370
    25
100
AcDbLine
 10
22.4988749159
 20
3.3709238375
 30
0.0
 11
22.4962860567
 21
3.3881578555
 31
0.0
  0
SPLINE
  5
19D
330
1F
100
AcDbEntity
  8
0
  6
Continuous
 62
     7
370
    25
100
AcDbSpline
210
0.0
220
0.0
230
1.0
 70
     8
 71
     4
 72
    15
 73
    10
 74
     0
 42
0.000000001
 43
0.00000001
 40
0.0016193182508102
 40
0.0016193182508102
 40
0.0016193182508102
 40
0.0016193182508102
 40
0.0016193182508102
 40
0.0028020339056145
 40
0.005604067811229
 40
0.0081326129577701
 40
0.0106611581043112
 40
0.0157182483973935
 40
0.0210760269348498
 40
0.0210760269348498
 40
0.0210760269348498
 40
0.0210760269348498
 40
0.0210760269348498
 10
22.49628605673077
 20
3.38815785549326
 30
0.0
 10
22.53106138782679
 20
3.398203239223237
 30
0.0
 10
22.64765305452156
 20
3.434106666915048
 30
0.0
 10
22.8355604893557
 20
3.500940090369008
 30
0.0
 10
23.09104943679979
 20
3.607694356796668
 30
0.0
 10
23.44764514600985
 20
3.77857949418545
 30
0.0
 10
23.86256546008681
 20
4.007444879757199
 30
0.0
 10
24.19741617479051
 20
4.219607048352906
 30
0.0
 10
24.45931706604268
 20
4.401413633520041
 30
0.0
 10
24.59209725987732
 20
4.497638531577893
 30
0.0
  0
ARC
  5
19E
330
1F
100
AcDbEntity
  8
0
  6
Continuous
 62
     7
370
    25
100
AcDbCircle
 10
0.0
 20
0.0
 30
0.0
 40
25.0
100
AcDbArc
 50
10.3642579013
 51
12.1357420987
  0
SPLINE
  5
19F
330
1F
100
AcDbEntity
  8
0
  6
Continuous
 62
     7
370
    25
100
AcDbSpline
210
0.0
220
0.0
230
1.0
 70
     8
 71
     4
 72
    15
 73
    10
 74
     0
 42
0.000000001
 43
0.00000001
 40
0.0016193182508102
 40
0.0016193182508102
 40
0.0016193182508102
 40
0.0016193182508102
 40
0.0016193182508102
 40
0.0028020339056145
 40
0.005604067811229
 40
0.0081326129577701
 40
0.0106611581043112
 40
0.0157182483973935
 40
0.0210760269348499
 40
0.0210760269348499
 40
0.0210760269348499
 40
0.0210760269348499
 40
0.0210760269348499
 10
22.08045012286738
 20
5.478706268049578
 30
0.0
 10
22.11642254142852
 20
5.482733486690689
 30
0.0
 10
22.23787884289196
 20
5.494180743895147
 30
0.0
 10
22.43705871982599
 20
5.504343774007628
 30
0.0
 10
22.71395281824859
 20
5.503487079586109
 30
0.0
 10
23.10879920628523
 20
5.48207306870941
 30
0.0
 10
23.57971858338425
 20
5.42941215322835
 30
0.0
 10
23.970271252042
 20
5.361541688922294
 30
0.0
 10
24.28181049305469
 20
5.293799438014471
 30
0.0
 10
24.44130707072916
 20
5.255712004507581
 30
0.0
  0
LINE
  5
1A0
330
1F
100
AcDbEntity
  8
0
  6
Continuous
 62
     7
370
    25
100
AcDbLine
 10
22.0804501229
 20
5.478706268
 30
0.0
 11
22.0762467437
 21
5.495619138
 31
0.0
  0
SPLINE
  5
1A1
330
1F
100
AcDbEntity
  8
0
  6
Continuous
 62
     7
370
    25
100
AcDbSpline
210
0.0
220
0.0
230
1.0
 70
    24
 71
     3
 72
     8
 73
     4
 74
     0
 42
0.000000001
 43
0.00000001
 40
0.0
 40
0.0
 40
0.0
 40
0.0
 40
1.0
 40
1.0
 40
1.0
 40
1.0
 10
22.07624674372579
 20
5.495619138016786
 30
0.0
 10
22.00629785224661
 20
5.756671954950187
 30
0.0
 10
21.93634896076744
 20
6.017724771883588
 30
0.0
 10
21.86640006928826
 20
6.27877758881699
 30
0.0
  0
LINE
  5
1A2
330
1F
100
AcDbEntity
  8
0
  6
Continuous
 62
     7
370
    25
100
AcDbLine
 10
21.8664000693
 20
6.2787775888
 30
0.0
 11
21.8615838674
 21
6.2955262534
 31
0.0
  0
SPLINE
  5
1A3
330
1F
100
AcDbEntity
  8
0
  6
Continuous
 62
     7
370
    25
100
AcDbSpline
210
0.0
220
0.0
230
1.0
 70
     8
 71
     4
 72
    15
 73
    10
 74
     0
 42
0.000000001
 43
0.00000001
 40
0.0016193182508102
 40
0.0016193182508102
 40
0.0016193182508102
 40
0.0016193182508102
 40
0.0016193182508102
 40
0.0028020339056145
 40
0.005604067811229
 40
0.0081326129577701
 40
0.0106611581043112
 40
0.0157182483973935
 40
0.0210760269348499
 40
0.0210760269348499
 40
0.0210760269348499
 40
0.0210760269348499
 40
0.0210760269348499
 10
21.86158386742303
 20
6.295526253430203
 30
0.0
 10
21.89475050505309
 20
6.310024789060973
 30
0.0
 10
22.00565837617236
 20
6.360839324249984
 30
0.0
 10
22.18323472457613
 20
6.45162782046017
 30
0.0
 10
22.42260370075733
 20
6.59081678880379
 30
0.0
 10
22.75384369795123
 20
6.806785060238253
 30
0.0
 10
23.1353413839128
 20
7.087850439380914
 30
0.0
 10
23.43963468433319
 20
7.34190431996549
 30
0.0
 10
23.67556445587197
 20
7.556340450667552
 30
0.0
 10
23.79464882720129
 20
7.669073424486704
 30
0.0
  0
ARC
  5
1A4
330
1F
100
AcDbEntity
  8
0
  6
Continuous
 62
     7
370
    25
100
AcDbCircle
 10
0.0
 20
0.0
 30
0.0
 40
25.00000000000001
100
AcDbArc
 50
17.8642579013
 51
19.6357420987
  0
SPLINE
  5
1A5
330
1F
100
AcDbEntity
  8
0
  6
Continuous
 62
     7
370
    25
100
AcDbSpline
210
0.0
220
0.0
230
1.0
 70
     8
 71
     4
 72
    15
 73
    10
 74
     0
 42
0.000000001
 43
0.00000001
 40
0.0016193182508101
 40
0.0016193182508101
 40
0.0016193182508101
 40
0.0016193182508101
 40
0.0016193182508101
 40
0.0028020339056145
 40
0.005604067811229
 40
0.0081326129577701
 40
0.0106611581043112
 40
0.0157182483973935
 40
0.0210760269348499
 40
0.0210760269348499
 40
0.0210760269348499
 40
0.0210760269348499
 40
0.0210760269348499
 10
21.17643414367694
 20
8.313912253476884
 30
0.0
 10
21.2115731556961
 20
8.322600361523971
 30
0.0
 10
21.33049621476924
 20
8.349802914407311
 30
0.0
 10
21.52664553862256
 20
8.385877189291378
 30
0.0
 10
21.80128259070912
 20
8.421169756324701
 30
0.0
 10
22.19554610245995
 20
8.451476740821859
 30
0.0
 10
22.66931032778269
 20
8.460733659908295
 30
0.0
 10
23.06538063748933
 20
8.444421189534276
 30
0.0
 10
23.38309675517107
 20
8.417922513830332
 30
0.0
 10
23.54620022518021
 20
8.400979404552986
 30
0.0
  0
LINE
  5
1A6
330
1F
100
AcDbEntity
  8
0
  6
Continuous
 62
     7
370
    25
100
AcDbLine
 10
21.1764341437
 20
8.3139122535
 30
0.0
 11
21.1700591525
 21
8.3301317804
 31
0.0
  0
SPLINE
  5
1A7
330
1F
100
AcDbEntity
  8
0
  6
Continuous
 62
     7
370
    25
100
AcDbSpline
210
0.0
220
0.0
230
1.0
 70
    24
 71
     3
 72
     8
 73
     4
 74
     0
 42
0.000000001
 43
0.00000001
 40
0.0
 40
0.0
 40
0.0
 40
0.0
 40
1.0
 40
1.0
 40
1.0
 40
1.0
 10
21.17005915251028
 20
8.330131780423152
 30
0.0
 10
21.06663445333186
 20
8.579821091864057
 30
0.0
 10
20.96320975415343
 20
8.829510403304962
 30
0.0
 10
20.85978505497501
 20
9.079199714745867
 30
0.0
  0
LINE
  5
1A8
330
1F
100
AcDbEntity
  8
0
  6
Continuous
 62
     7
370
    25
100
AcDbLine
 10
20.859785055
 20
9.0791997147
 30
0.0
 11
20.852823917
 21
9.0951764517
 31
0.0
  0
SPLINE
  5
1A9
330
1F
100
AcDbEntity
  8
0
  6
Continuous
 62
     7
370
    25
100
AcDbSpline
210
0.0
220
0.0
230
1.0
 70
     8
 71
     4
 72
    15
 73
    10
 74
     0
 42
0.000000001
 43
0.00000001
 40
0.0016193182508102
 40
0.0016193182508102
 40
0.0016193182508102
 40
0.0016193182508102
 40
0.0016193182508102
 40
0.0028020339056145
 40
0.005604067811229
 40
0.0081326129577701
 40
0.0106611581043112
 40
0.0157182483973935
 40
0.0210760269348499
 40
0.0210760269348499
 40
0.0210760269348499
 40
0.0210760269348499
 40
0.0210760269348499
 10
20.85282391696754
 20
9.095176451721327
 30
0.0
 10
20.88381437076627
 20
9.113880065288495
 30
0.0
 10
20.98714078188573
 20
9.178736257189163
 30
0.0
 10
21.15134766330447
 20
9.291926409814096
 30
0.0
 10
21.3705009986747
 20
9.461168518234844
 30
0.0
 10
21.67071767566338
 20
9.718524646713027
 30
0.0
 10
22.01226520233159
 20
10.04698091286342
 30
0.0
 10
22.28079454573243
 20
10.33857957310302
 30
0.0
 10
22.48671637375472
 20
10.58197618769077
 30
0.0
 10
22.59006735596885
 20
10.70928834483369
 30
0.0
  0
ARC
  5
1AA
330
1F
100
AcDbEntity
  8
0
  6
Continuous
 62
     7
370
    25
100
AcDbCircle
 10
0.0
 20
0.0
 30
0.0
 40
25.0
100
AcDbArc
 50
25.3642579013
 51
27.1357420987
  0
SPLINE
  5
1AB
330
1F
100
AcDbEntity
  8
0
  6
Continuous
 62
     7
370
    25
100
AcDbSpline
210
0.0
220
0.0
230
1.0
 70
     8
 71
     4
 72
    15
 73
    10
 74
     0
 42
0.000000001
 43
0.00000001
 40
0.0016193182508109
 40
0.0016193182508109
 40
0.0016193182508109
 40
0.0016193182508109
 40
0.0016193182508109
 40
0.0028020339056145
 40
0.005604067811229
 40
0.0081326129577701
 40
0.0106611581043112
 40
0.0157182483973935
 40
0.0210760269348499
 40
0.0210760269348499
 40
0.0210760269348499
 40
0.0210760269348499
 40
0.0210760269348499
 10
19.91008350507153
 20
11.0068648951953
 30
0.0
 10
19.94378787231067
 20
11.02006523671088
 30
0.0
 10
20.05814288248104
 20
11.06255764205128
 30
0.0
 10
20.24790548393962
 20
11.12392592086197
 30
0.0
 10
20.51558637358514
 20
11.19476388374325
 30
0.0
 10
20.9025210510536
 20
11.27627330270683
 30
0.0
 10
21.37102388735254
 20
11.34728966790869
 30
0.0
 10
21.76583496529754
 20
11.38281430235748
 30
0.0
 10
22.08429174878725
 20
11.39801260154553
 30
0.0
 10
22.2482113655384
 20
11.40250371779499
 30
0.0
  0
LINE
  5
1AC
330
1F
100
AcDbEntity
  8
0
  6
Continuous
 62
     7
370
    25
100
AcDbLine
 10
19.9100835051
 20
11.0068648952
 30
0.0
 11
19.9016459797
 21
11.0221135585
 31
0.0
  0
SPLINE
  5
1AD
330
1F
100
AcDbEntity
  8
0
  6
Continuous
 62
     7
370
    25
100
AcDbSpline
210
0.0
220
0.0
230
1.0
 70
    24
 71
     3
 72
     8
 73
     4
 74
     0
 42
0.000000001
 43
0.00000001
 40
0.0
 40
0.0
 40
0.0
 40
0.0
 40
1.0
 40
1.0
 40
1.0
 40
1.0
 10
19.90164597974604
 20
11.02211355851764
 30
0.0
 10
19.76651509814598
 20
11.2561671111205
 30
0.0
 10
19.63138421654592
 20
11.49022066372336
 30
0.0
 10
19.49625333494587
 20
11.72427421632623
 30
0.0
  0
LINE
  5
1AE
330
1F
100
AcDbEntity
  8
0
  6
Continuous
 62
     7
370
    25
100
AcDbLine
 10
19.4962533349
 20
11.7242742163
 30
0.0
 11
19.4872663678
 21
11.7392056593
 31
0.0
  0
SPLINE
  5
1AF
330
1F
100
AcDbEntity
  8
0
  6
Continuous
 62
     7
370
    25
100
AcDbSpline
210
0.0
220
0.0
230
1.0
 70
     8
 71
     4
 72
    15
 73
    10
 74
     0
 42
0.000000001
 43
0.00000001
 40
0.0016193182508103
 40
0.0016193182508103
 40
0.0016193182508103
 40
0.0016193182508103
 40
0.0016193182508103
 40
0.0028020339056145
 40
0.005604067811229
 40
0.0081326129577701
 40
0.0106611581043112
 40
0.0157182483973935
 40
0.0210760269348498
 40
0.0210760269348498
 40
0.0210760269348498
 40
0.0210760269348498
 40
0.0210760269348498
 10
19.4872663677977
 20
11.73920565926421
 30
0.0
 10
19.5155503825084
 20
11.76179432675402
 30
0.0
 10
19.6095273900863
 20
11.8395824679414
 30
0.0
 10
19.75755517925219
 20
11.97323756208742
 30
0.0
 10
19.95274309948248
 20
12.16963703118744
 30
0.0
 10
20.21679966568688
 20
12.46397758199848
 30
0.0
 10
20.51255306018558
 20
12.8342047573775
 30
0.0
 10
20.74072383505088
 20
13.158358863349
 30
0.0
 10
20.9131143399869
 20
13.42655137826454
 30
0.0
 10
20.99896356912584
 20
13.56626437242492
 30
0.0
  0
ARC
  5
1B0
330
1F
100
AcDbEntity
  8
0
  6
Continuous
 62
     7
370
    25
100
AcDbCircle
 10
0.0
 20
0.0
 30
0.0
 40
25.00000000000001
100
AcDbArc
 50
32.8642579013
 51
34.6357420987
  0
SPLINE
  5
1B1
330
1F
100
AcDbEntity
  8
0
  6
Continuous
 62
     7
370
    25
100
AcDbSpline
210
0.0
220
0.0
230
1.0
 70
     8
 71
     4
 72
    15
 73
    10
 74
     0
 42
0.000000001
 43
0.00000001
 40
0.0016193182508108
 40
0.0016193182508108
 40
0.0016193182508108
 40
0.0016193182508108
 40
0.0016193182508108
 40
0.0028020339056145
 40
0.005604067811229
 40
0.0081326129577701
 40
0.0106611581043112
 40
0.0157182483973935
 40
0.0210760269348499
 40
0.0210760269348499
 40
0.0210760269348499
 40
0.0210760269348499
 40
0.0210760269348499
 10
18.3030658175762
 20
13.51148702687742
 30
0.0
 10
18.33475884896729
 20
13.52897374035833
 30
0.0
 10
18.4425891643057
 20
13.58602894131931
 30
0.0
 10
18.62271815264648
 20
13.67164119579169
 30
0.0
 10
18.87886278561398
 20
13.77681249733602
 30
0.0
 10
19.25184806919004
 20
13.90812970200889
 30
0.0
 10
19.70707330304257
 20
14.03969040362811
 30
0.0
 10
20.09386982221999
 20
14.126444306555
 30
0.0
 10
20.40761838765925
 20
14.18307953352217
 30
0.0
 10
20.56954944106268
 20
14.20892803105423
 30
0.0
  0
LINE
  5
1B2
330
1F
100
AcDbEntity
  8
0
  6
Continuous
 62
     7
370
    25
100
AcDbLine
 10
18.3030658176
 20
13.5114870269
 30
0.0
 11
18.2927101265
 21
13.5255039177
 31
0.0
  0
SPLINE
  5
1B3
330
1F
100
AcDbEntity
  8
0
  6
Continuous
 62
     7
370
    25
100
AcDbSpline
210
0.0
220
0.0
230
1.0
 70
    24
 71
     3
 72
     8
 73
     4
 74
     0
 42
0.000000001
 43
0.00000001
 40
0.0
 40
0.0
 40
0.0
 40
0.0
 40
1.0
 40
1.0
 40
1.0
 40
1.0
 10
18.29271012648965
 20
13.52550391771868
 30
0.0
 10
18.12818518931767
 20
13.7399169903063
 30
0.0
 10
17.96366025214569
 20
13.95433006289393
 30
0.0
 10
17.79913531497371
 20
14.16874313548155
 30
0.0
  0
LINE
  5
1B4
330
1F
100
AcDbEntity
  8
0
  6
Continuous
 62
     7
370
    25
100
AcDbLine
 10
17.799135315
 20
14.1687431355
 30
0.0
 11
17.7882762882
 21
14.1823738033
 31
0.0
  0
SPLINE
  5
1B5
330
1F
100
AcDbEntity
  8
0
  6
Continuous
 62
     7
370
    25
100
AcDbSpline
210
0.0
220
0.0
230
1.0
 70
     8
 71
     4
 72
    15
 73
    10
 74
     0
 42
0.000000001
 43
0.00000001
 40
0.0016193182508102
 40
0.0016193182508102
 40
0.0016193182508102
 40
0.0016193182508102
 40
0.0016193182508102
 40
0.0028020339056145
 40
0.005604067811229
 40
0.0081326129577701
 40
0.0106611581043112
 40
0.0157182483973935
 40
0.0210760269348499
 40
0.0210760269348499
 40
0.0210760269348499
 40
0.0210760269348499
 40
0.0210760269348499
 10
17.78827628818386
 20
14.18237380325438
 30
0.0
 10
17.81336991647304
 20
14.20846102630331
 30
0.0
 10
17.89638954785437
 20
14.29785014011474
 30
0.0
 10
18.02570544825372
 20
14.44968330006482
 30
0.0
 10
18.19358823391262
 20
14.66987968047559
 30
0.0
 10
18.41696660827467
 20
14.9961684051885
 30
0.0
 10
18.66186544802567
 20
15.40183180017904
 30
0.0
 10
18.84577358913659
 20
15.75299498525677
 30
0.0
 10
18.98168312165119
 20
16.0413945522129
 30
0.0
 10
19.04856169360249
 20
16.19111785532489
 30
0.0
  0
ARC
  5
1B6
330
1F
100
AcDbEntity
  8
0
  6
Continuous
 62
     7
370
    25
100
AcDbCircle
 10
0.0
 20
0.0
 30
0.0
 40
25.00000000000001
100
AcDbArc
 50
40.3642579013
 51
42.1357420987
  0
SPLINE
  5
1B7
330
1F
100
AcDbEntity
  8
0
  6
Continuous
 62
     7
370
    25
100
AcDbSpline
210
0.0
220
0.0
230
1.0
 70
     8
 71
     4
 72
    15
 73
    10
 74
     0
 42
0.000000001
 43
0.00000001
 40
0.0016193182508102
 40
0.0016193182508102
 40
0.0016193182508102
 40
0.0016193182508102
 40
0.0016193182508102
 40
0.0028020339056145
 40
0.005604067811229
 40
0.0081326129577701
 40
0.0106611581043112
 40
0.0157182483973935
 40
0.0210760269348499
 40
0.0210760269348499
 40
0.0210760269348499
 40
0.0210760269348499
 40
0.0210760269348499
 10
16.38287759937358
 20
15.78492386943768
 30
0.0
 10
16.41201701836253
 20
15.80639775236804
 30
0.0
 10
16.51147763227734
 20
15.87703951864248
 30
0.0
 10
16.67889095056863
 20
15.98543089936633
 30
0.0
 10
16.91911662117135
 20
16.12313602944532
 30
0.0
 10
17.27177062924196
 20
16.3020141460475
 30
0.0
 10
17.70592923068458
 20
16.49186814400386
 30
0.0
 10
18.07809299541103
 20
16.62836693207705
 30
0.0
 10
18.38176501785765
 20
16.72547004238768
 30
0.0
 10
18.53893682269387
 20
16.772233646243
 30
0.0
  0
LINE
  5
1B8
330
1F
100
AcDbEntity
  8
0
  6
Continuous
 62
     7
370
    25
100
AcDbLine
 10
16.3828775994
 20
15.7849238694
 30
0.0
 11
16.3707809313
 21
15.7974691549
 31
0.0
  0
SPLINE
  5
1B9
330
1F
100
AcDbEntity
  8
0
  6
Continuous
 62
     7
370
    25
100
AcDbSpline
210
0.0
220
0.0
230
1.0
 70
    24
 71
     3
 72
     8
 73
     4
 74
     0
 42
0.000000001
 43
0.00000001
 40
0.0
 40
0.0
 40
0.0
 40
0.0
 40
1.0
 40
1.0
 40
1.0
 40
1.0
 10
16.37078093127162
 20
15.79746915490939
 30
0.0
 10
16.17967700581739
 20
15.98857308036361
 30
0.0
 10
15.98857308036316
 20
16.17967700581784
 30
0.0
 10
15.79746915490893
 20
16.37078093127207
 30
0.0
  0
LINE
  5
1BA
330
1F
100
AcDbEntity
  8
0
  6
Continuous
 62
     7
370
    25
100
AcDbLine
 10
15.7974691549
 20
16.3707809313
 30
0.0
 11
15.7849238694
 21
16.3828775994
 31
0.0
  0
SPLINE
  5
1BB
330
1F
100
AcDbEntity
  8
0
  6
Continuous
 62
     7
370
    25
100
AcDbSpline
210
0.0
220
0.0
230
1.0
 70
     8
 71
     4
 72
    15
 73
    10
 74
     0
 42
0.000000001
 43
0.00000001
 40
0.0016193182508102
 40
0.0016193182508102
 40
0.0016193182508102
 40
0.0016193182508102
 40
0.0016193182508102
 40
0.0028020339056145
 40
0.005604067811229
 40
0.0081326129577701
 40
0.0106611581043112
 40
0.0157182483973935
 40
0.0210760269348498
 40
0.0210760269348498
 40
0.0210760269348498
 40
0.0210760269348498
 40
0.0210760269348498
 10
15.78492386943729
 20
16.38287759937396
 30
0.0
 10
15.80639775236765
 20
16.41201701836291
 30
0.0
 10
15.87703951864208
 20
16.51147763227773
 30
0.0
 10
15.98543089936592
 20
16.67889095056902
 30
0.0
 10
16.1231360294449
 20
16.91911662117174
 30
0.0
 10
16.30201414604707
 20
17.27177062924235
 30
0.0
 10
16.49186814400343
 20
17.70592923068498
 30
0.0
 10
16.62836693207661
 20
18.07809299541143
 30
0.0
 10
16.72547004238723
 20
18.38176501785805
 30
0.0
 10
16.77223364624254
 20
18.53893682269426
 30
0.0
  0
ARC
  5
1BC
330
1F
100
AcDbEntity
  8
0
  6
Continuous
 62
     7
370
    25
100
AcDbCircle
 10
0.0
 20
0.0
 30
0.0
 40
25.0
100
AcDbArc
 50
47.8642579013
 51
49.6357420987
  0
SPLINE
  5
1BD
330
1F
100
AcDbEntity
  8
0
  6
Continuous
 62
     7
370
    25
100
AcDbSpline
210
0.0
220
0.0
230
1.0
 70
     8
 71
     4
 72
    15
 73
    10
 74
     0
 42
0.000000001
 43
0.00000001
 40
0.0016193182508108
 40
0.0016193182508108
 40
0.0016193182508108
 40
0.0016193182508108
 40
0.0016193182508108
 40
0.0028020339056145
 40
0.005604067811229
 40
0.0081326129577701
 40
0.0106611581043112
 40
0.0157182483973935
 40
0.0210760269348499
 40
0.0210760269348499
 40
0.0210760269348499
 40
0.0210760269348499
 40
0.0210760269348499
 10
14.18237380325398
 20
17.78827628818425
 30
0.0
 10
14.20846102630291
 20
17.81336991647342
 30
0.0
 10
14.29785014011433
 20
17.89638954785474
 30
0.0
 10
14.44968330006439
 20
18.02570544825409
 30
0.0
 10
14.66987968047514
 20
18.19358823391298
 30
0.0
 10
14.99616840518805
 20
18.41696660827503
 30
0.0
 10
15.40183180017858
 20
18.66186544802603
 30
0.0
 10
15.75299498525631
 20
18.84577358913697
 30
0.0
 10
16.04139455221243
 20
18.98168312165159
 30
0.0
 10
16.19111785532442
 20
19.04856169360288
 30
0.0
  0
LINE
  5
1BE
330
1F
100
AcDbEntity
  8
0
  6
Continuous
 62
     7
370
    25
100
AcDbLine
 10
14.1823738033
 20
17.7882762882
 30
0.0
 11
14.1687431355
 21
17.799135315
 31
0.0
  0
SPLINE
  5
1BF
330
1F
100
AcDbEntity
  8
0
  6
Continuous
 62
     7
370
    25
100
AcDbSpline
210
0.0
220
0.0
230
1.0
 70
    24
 71
     3
 72
     8
 73
     4
 74
     0
 42
0.000000001
 43
0.00000001
 40
0.0
 40
0.0
 40
0.0
 40
0.0
 40
1.0
 40
1.0
 40
1.0
 40
1.0
 10
14.16874313548157
 20
17.7991353149737
 30
0.0
 10
13.95433006289377
 20
17.96366025214581
 30
0.0
 10
13.73991699030596
 20
18.12818518931792
 30
0.0
 10
13.52550391771816
 20
18.29271012649003
 30
0.0
  0
LINE
  5
1C0
330
1F
100
AcDbEntity
  8
0
  6
Continuous
 62
     7
370
    25
100
AcDbLine
 10
13.5255039177
 20
18.2927101265
 30
0.0
 11
13.5114870269
 21
18.3030658176
 31
0.0
  0
SPLINE
  5
1C1
330
1F
100
AcDbEntity
  8
0
  6
Continuous
 62
     7
370
    25
100
AcDbSpline
210
0.0
220
0.0
230
1.0
 70
     8
 71
     4
 72
    15
 73
    10
 74
     0
 42
0.000000001
 43
0.00000001
 40
0.0016193182508103
 40
0.0016193182508103
 40
0.0016193182508103
 40
0.0016193182508103
 40
0.0016193182508103
 40
0.0028020339056145
 40
0.005604067811229
 40
0.0081326129577701
 40
0.0106611581043112
 40
0.0157182483973935
 40
0.0210760269348499
 40
0.0210760269348499
 40
0.0210760269348499
 40
0.0210760269348499
 40
0.0210760269348499
 10
13.51148702687694
 20
18.30306581757647
 30
0.0
 10
13.52897374035786
 20
18.33475884896756
 30
0.0
 10
13.58602894131884
 20
18.442589164306
 30
0.0
 10
13.67164119579123
 20
18.62271815264679
 30
0.0
 10
13.77681249733556
 20
18.87886278561431
 30
0.0
 10
13.90812970200841
 20
19.25184806919037
 30
0.0
 10
14.03969040362763
 20
19.7070733030429
 30
0.0
 10
14.12644430655451
 20
20.09386982222033
 30
0.0
 10
14.18307953352167
 20
20.40761838765959
 30
0.0
 10
14.20892803105372
 20
20.56954944106302
 30
0.0
  0
ARC
  5
1C2
330
1F
100
AcDbEntity
  8
0
  6
Continuous
 62
     7
370
    25
100
AcDbCircle
 10
0.0
 20
0.0
 30
0.0
 40
25.0
100
AcDbArc
 50
55.3642579013
 51
57.1357420987
  0
SPLINE
  5
1C3
330
1F
100
AcDbEntity
  8
0
  6
Continuous
 62
     7
370
    25
100
AcDbSpline
210
0.0
220
0.0
230
1.0
 70
     8
 71
     4
 72
    15
 73
    10
 74
     0
 42
0.000000001
 43
0.00000001
 40
0.0016193182508109
 40
0.0016193182508109
 40
0.0016193182508109
 40
0.0016193182508109
 40
0.0016193182508109
 40
0.0028020339056145
 40
0.005604067811229
 40
0.0081326129577701
 40
0.0106611581043112
 40
0.0157182483973935
 40
0.0210760269348499
 40
0.0210760269348499
 40
0.0210760269348499
 40
0.0210760269348499
 40
0.0210760269348499
 10
11.73920565926378
 20
19.48726636779804
 30
0.0
 10
11.76179432675357
 20
19.51555038250873
 30
0.0
 10
11.83958246794094
 20
19.60952739008662
 30
0.0
 10
11.97323756208695
 20
19.7575551792525
 30
0.0
 10
12.16963703118695
 20
19.95274309948278
 30
0.0
 10
12.46397758199799
 20
20.21679966568718
 30
0.0
 10
12.83420475737699
 20
20.51255306018589
 30
0.0
 10
13.15835886334849
 20
20.74072383505121
 30
0.0
 10
13.42655137826403
 20
20.91311433998722
 30
0.0
 10
13.5662643724244
 20
20.99896356912617
 30
0.0
  0
LINE
  5
1C4
330
1F
100
AcDbEntity
  8
0
  6
Continuous
 62
     7
370
    25
100
AcDbLine
 10
11.7392056593
 20
19.4872663678
 30
0.0
 11
11.7242742163
 21
19.4962533349
 31
0.0
  0
SPLINE
  5
1C5
330
1F
100
AcDbEntity
  8
0
  6
Continuous
 62
     7
370
    25
100
AcDbSpline
210
0.0
220
0.0
230
1.0
 70
    24
 71
     3
 72
     8
 73
     4
 74
     0
 42
0.000000001
 43
0.00000001
 40
0.0
 40
0.0
 40
0.0
 40
0.0
 40
1.0
 40
1.0
 40
1.0
 40
1.0
 10
11.72427421632567
 20
19.4962533349462
 30
0.0
 10
11.49022066372273
 20
19.63138421654629
 30
0.0
 10
11.25616711111978
 20
19.76651509814639
 30
0.0
 10
11.02211355851684
 20
19.90164597974648
 30
0.0
  0
LINE
  5
1C6
330
1F
100
AcDbEntity
  8
0
  6
Continuous
 62
     7
370
    25
100
AcDbLine
 10
11.0221135585
 20
19.9016459797
 30
0.0
 11
11.0068648952
 21
19.9100835051
 31
0.0
  0
SPLINE
  5
1C7
330
1F
100
AcDbEntity
  8
0
  6
Continuous
 62
     7
370
    25
100
AcDbSpline
210
0.0
220
0.0
230
1.0
 70
     8
 71
     4
 72
    15
 73
    10
 74
     0
 42
0.000000001
 43
0.00000001
 40
0.0016193182508459
 40
0.0016193182508459
 40
0.0016193182508459
 40
0.0016193182508459
 40
0.0016193182508459
 40
0.0028020339056145
 40
0.005604067811229
 40
0.0081326129577701
 40
0.0106611581043112
 40
0.0157182483973935
 40
0.0210760269348499
 40
0.0210760269348499
 40
0.0210760269348499
 40
0.0210760269348499
 40
0.0210760269348499
 10
11.00686489519638
 20
19.91008350507578
 30
0.0
 10
11.02006523671151
 20
19.94378787231395
 30
0.0
 10
11.06255764205145
 20
20.05814288248335
 30
0.0
 10
11.12392592086175
 20
20.24790548394093
 30
0.0
 10
11.19476388374274
 20
20.51558637358541
 30
0.0
 10
11.27627330270632
 20
20.90252105105388
 30
0.0
 10
11.34728966790817
 20
21.37102388735282
 30
0.0
 10
11.38281430235695
 20
21.76583496529782
 30
0.0
 10
11.39801260154499
 20
22.08429174878753
 30
0.0
 10
11.40250371779444
 20
22.24821136553867
 30
0.0
  0
ARC
  5
1C8
330
1F
100
AcDbEntity
  8
0
  6
Continuous
 62
     7
370
    25
100
AcDbCircle
 10
0.0
 20
0.0
 30
0.0
 40
25.00000000000001
100
AcDbArc
 50
62.8642579013
 51
64.6357420987
  0
SPLINE
  5
1C9
330
1F
100
AcDbEntity
  8
0
  6
Continuous
 62
     7
370
    25
100
AcDbSpline
210
0.0
220
0.0
230
1.0
 70
     8
 71
     4
 72
    15
 73
    10
 74
     0
 42
0.000000001
 43
0.00000001
 40
0.0016193182508103
 40
0.0016193182508103
 40
0.0016193182508103
 40
0.0016193182508103
 40
0.0016193182508103
 40
0.0028020339056145
 40
0.005604067811229
 40
0.0081326129577701
 40
0.0106611581043112
 40
0.0157182483973935
 40
0.0210760269348499
 40
0.0210760269348499
 40
0.0210760269348499
 40
0.0210760269348499
 40
0.0210760269348499
 10
9.095176451720823
 20
20.85282391696778
 30
0.0
 10
9.113880065287988
 20
20.8838143707665
 30
0.0
 10
9.178736257188655
 20
20.98714078188596
 30
0.0
 10
9.29192640981358
 20
21.1513476633047
 30
0.0
 10
9.461168518234322
 20
21.37050099867493
 30
0.0
 10
9.718524646712499
 20
21.67071767566362
 30
0.0
 10
10.04698091286289
 20
22.01226520233184
 30
0.0
 10
10.33857957310248
 20
22.28079454573269
 30
0.0
 10
10.58197618769022
 20
22.48671637375498
 30
0.0
 10
10.70928834483314
 20
22.59006735596911
 30
0.0
  0
LINE
  5
1CA
330
1F
100
AcDbEntity
  8
0
  6
Continuous
 62
     7
370
    25
100
AcDbLine
 10
9.0951764517
 20
20.852823917
 30
0.0
 11
9.0791997147
 21
20.859785055
 31
0.0
  0
SPLINE
  5
1CB
330
1F
100
AcDbEntity
  8
0
  6
Continuous
 62
     7
370
    25
100
AcDbSpline
210
0.0
220
0.0
230
1.0
 70
    24
 71
     3
 72
     8
 73
     4
 74
     0
 42
0.000000001
 43
0.00000001
 40
0.0
 40
0.0
 40
0.0
 40
0.0
 40
1.0
 40
1.0
 40
1.0
 40
1.0
 10
9.079199714745522
 20
20.85978505497516
 30
0.0
 10
8.82951040330453
 20
20.96320975415361
 30
0.0
 10
8.579821091863542
 20
21.06663445333206
 30
0.0
 10
8.33013178042255
 20
21.17005915251051
 30
0.0
  0
LINE
  5
1CC
330
1F
100
AcDbEntity
  8
0
  6
Continuous
 62
     7
370
    25
100
AcDbLine
 10
8.3301317804
 20
21.1700591525
 30
0.0
 11
8.3139122535
 21
21.1764341437
 31
0.0
  0
SPLINE
  5
1CD
330
1F
100
AcDbEntity
  8
0
  6
Continuous
 62
     7
370
    25
100
AcDbSpline
210
0.0
220
0.0
230
1.0
 70
     8
 71
     4
 72
    15
 73
    10
 74
     0
 42
0.000000001
 43
0.00000001
 40
0.0016193182508102
 40
0.0016193182508102
 40
0.0016193182508102
 40
0.0016193182508102
 40
0.0016193182508102
 40
0.0028020339056145
 40
0.005604067811229
 40
0.0081326129577701
 40
0.0106611581043112
 40
0.0157182483973935
 40
0.0210760269348499
 40
0.0210760269348499
 40
0.0210760269348499
 40
0.0210760269348499
 40
0.0210760269348499
 10
8.313912253476367
 20
21.17643414367715
 30
0.0
 10
8.322600361523456
 20
21.21157315569631
 30
0.0
 10
8.349802914406792
 20
21.33049621476945
 30
0.0
 10
8.385877189290852
 20
21.52664553862277
 30
0.0
 10
8.421169756324169
 20
21.80128259070933
 30
0.0
 10
8.451476740821317
 20
22.19554610246015
 30
0.0
 10
8.46073365990774
 20
22.6693103277829
 30
0.0
 10
8.444421189533713
 20
23.06538063748953
 30
0.0
 10
8.417922513829762
 20
23.38309675517128
 30
0.0
 10
8.400979404552412
 20
23.54620022518042
 30
0.0
  0
ARC
  5
1CE
330
1F
100
AcDbEntity
  8
0
  6
Continuous
 62
     7
370
    25
100
AcDbCircle
 10
0.0
 20
0.0
 30
0.0
 40
25.0
100
AcDbArc
 50
70.3642579013
 51
72.1357420987
  0
SPLINE
  5
1CF
330
1F
100
AcDbEntity
  8
0
  6
Continuous
 62
     7
370
    25
100
AcDbSpline
210
0.0
220
0.0
230
1.0
 70
     8
 71
     4
 72
    15
 73
    10
 74
     0
 42
0.000000001
 43
0.00000001
 40
0.0016193182508108
 40
0.0016193182508108
 40
0.0016193182508108
 40
0.0016193182508108
 40
0.0016193182508108
 40
0.0028020339056145
 40
0.005604067811229
 40
0.0081326129577701
 40
0.0106611581043112
 40
0.0157182483973935
 40
0.0210760269348499
 40
0.0210760269348499
 40
0.0210760269348499
 40
0.0210760269348499
 40
0.0210760269348499
 10
6.2955262534297
 20
21.86158386742325
 30
0.0
 10
6.310024789060463
 20
21.8947505050533
 30
0.0
 10
6.360839324249463
 20
22.00565837617255
 30
0.0
 10
6.451627820459637
 20
22.18323472457631
 30
0.0
 10
6.590816788803243
 20
22.4226037007575
 30
0.0
 10
6.806785060237698
 20
22.7538436979514
 30
0.0
 10
7.087850439380349
 20
23.13534138391297
 30
0.0
 10
7.341904319964916
 20
23.43963468433336
 30
0.0
 10
7.556340450666974
 20
23.67556445587216
 30
0.0
 10
7.669073424486125
 20
23.79464882720148
 30
0.0
  0
LINE
  5
1D0
330
1F
100
AcDbEntity
  8
0
  6
Continuous
 62
     7
370
    25
100
AcDbLine
 10
6.2955262534
 20
21.8615838674
 30
0.0
 11
6.2787775888
 21
21.8664000693
 31
0.0
  0
SPLINE
  5
1D1
330
1F
100
AcDbEntity
  8
0
  6
Continuous
 62
     7
370
    25
100
AcDbSpline
210
0.0
220
0.0
230
1.0
 70
    24
 71
     3
 72
     8
 73
     4
 74
     0
 42
0.000000001
 43
0.00000001
 40
0.0
 40
0.0
 40
0.0
 40
0.0
 40
1.0
 40
1.0
 40
1.0
 40
1.0
 10
6.278777588816371
 20
21.86640006928844
 30
0.0
 10
6.017724771883011
 20
21.9363489607676
 30
0.0
 10
5.75667195494965
 20
22.00629785224676
 30
0.0
 10
5.49561913801629
 20
22.07624674372592
 30
0.0
  0
LINE
  5
1D2
330
1F
100
AcDbEntity
  8
0
  6
Continuous
 62
     7
370
    25
100
AcDbLine
 10
5.495619138
 20
22.0762467437
 30
0.0
 11
5.478706268
 21
22.0804501229
 31
0.0
  0
SPLINE
  5
1D3
330
1F
100
AcDbEntity
  8
0
  6
Continuous
 62
     7
370
    25
100
AcDbSpline
210
0.0
220
0.0
230
1.0
 70
     8
 71
     4
 72
    15
 73
    10
 74
     0
 42
0.000000001
 43
0.00000001
 40
0.0016193182508102
 40
0.0016193182508102
 40
0.0016193182508102
 40
0.0016193182508102
 40
0.0016193182508102
 40
0.0028020339056145
 40
0.005604067811229
 40
0.0081326129577701
 40
0.0106611581043112
 40
0.0157182483973935
 40
0.0210760269348498
 40
0.0210760269348498
 40
0.0210760269348498
 40
0.0210760269348498
 40
0.0210760269348498
 10
5.478706268049038
 20
22.08045012286751
 30
0.0
 10
5.482733486690148
 20
22.11642254142864
 30
0.0
 10
5.494180743894605
 20
22.23787884289209
 30
0.0
 10
5.50434377400708
 20
22.43705871982613
 30
0.0
 10
5.503487079585555
 20
22.71395281824872
 30
0.0
 10
5.482073068708846
 20
23.10879920628536
 30
0.0
 10
5.429412153227775
 20
23.57971858338438
 30
0.0
 10
5.361541688921709
 20
23.97027125204213
 30
0.0
 10
5.293799438013878
 20
24.28181049305481
 30
0.0
 10
5.255712004506984
 20
24.44130707072928
 30
0.0
  0
ARC
  5
1D4
330
1F
100
AcDbEntity
  8
0
  6
Continuous
 62
     7
370
    25
100
AcDbCircle
 10
0.0
 20
0.0
 30
0.0
 40
25.00000000000001
100
AcDbArc
 50
77.8642579013
 51
79.6357420987
  0
SPLINE
  5
1D5
330
1F
100
AcDbEntity
  8
0
  6
Continuous
 62
     7
370
    25
100
AcDbSpline
210
0.0
220
0.0
230
1.0
 70
     8
 71
     4
 72
    15
 73
    10
 74
     0
 42
0.000000001
 43
0.00000001
 40
0.0016193182508102
 40
0.0016193182508102
 40
0.0016193182508102
 40
0.0016193182508102
 40
0.0016193182508102
 40
0.0028020339056145
 40
0.005604067811229
 40
0.0081326129577701
 40
0.0106611581043112
 40
0.0157182483973935
 40
0.0210760269348499
 40
0.0210760269348499
 40
0.0210760269348499
 40
0.0210760269348499
 40
0.0210760269348499
 10
3.388157855492707
 20
22.49628605673085
 30
0.0
 10
3.398203239222685
 20
22.53106138782687
 30
0.0
 10
3.434106666914494
 20
22.64765305452164
 30
0.0
 10
3.50094009036845
 20
22.83556048935579
 30
0.0
 10
3.607694356796103
 20
23.09104943679988
 30
0.0
 10
3.778579494184877
 20
23.44764514600994
 30
0.0
 10
4.007444879756617
 20
23.86256546008691
 30
0.0
 10
4.219607048352317
 20
24.19741617479062
 30
0.0
 10
4.401413633519447
 20
24.4593170660428
 30
0.0
 10
4.497638531577298
 20
24.59209725987744
 30
0.0
  0
LINE
  5
1D6
330
1F
100
AcDbEntity
  8
0
  6
Continuous
 62
     7
370
    25
100
AcDbLine
 10
3.3881578555
 20
22.4962860567
 30
0.0
 11
3.3709238375
 21
22.4988749159
 31
0.0
  0
SPLINE
  5
1D7
330
1F
100
AcDbEntity
  8
0
  6
Continuous
 62
     7
370
    25
100
AcDbSpline
210
0.0
220
0.0
230
1.0
 70
    24
 71
     3
 72
     8
 73
     4
 74
     0
 42
0.000000001
 43
0.00000001
 40
0.0
 40
0.0
 40
0.0
 40
0.0
 40
1.0
 40
1.0
 40
1.0
 40
1.0
 10
3.370923837536544
 20
22.49887491590475
 30
0.0
 10
3.102974201185974
 20
22.53415115475793
 30
0.0
 10
2.835024564835404
 20
22.56942739361111
 30
0.0
 10
2.567074928484833
 20
22.6047036324643
 30
0.0
  0
MTEXT
  5
1D9
330
1F
100
AcDbEntity
  8
0
  6
Continuous
 62
     7
100
AcDbMText
 10
-24.9687680902
 20
-33.2387644819
 30
0.0
 40
4.83362
 41
0.0
 71
     1
 72
     1
  1
SOLIDWORKS pi (pIgp)
  7
SLDTEXTSTYLE0
 73
     1
 44
1.0
  0
ENDSEC
  0
SECTION
  2
OBJECTS
  0
DICTIONARY
  5
C
330
0
100
AcDbDictionary
281
     1
  3
ACAD_GROUP
350
D
  3
ACAD_LAYOUT
350
1A
  3
ACAD_MLINESTYLE
350
17
  3
ACAD_PLOTSETTINGS
350
19
  3
ACAD_PLOTSTYLENAME
350
E
  3
ACAD_SCALELIST
350
47
  0
DICTIONARY
  5
D
102
{ACAD_REACTORS
330
C
102
}
330
C
100
AcDbDictionary
281
     1
  0
DICTIONARY
  5
1A
102
{ACAD_REACTORS
330
C
102
}
330
C
100
AcDbDictionary
281
     1
  3
Layout1
350
1E
  3
Layout2
350
26
  3
Model
350
22
  0
DICTIONARY
  5
17
102
{ACAD_REACTORS
330
C
102
}
330
C
100
AcDbDictionary
281
     1
  3
Standard
350
18
  0
DICTIONARY
  5
19
102
{ACAD_REACTORS
330
C
102
}
330
C
100
AcDbDictionary
281
     1
  0
ACDBDICTIONARYWDFLT
  5
E
102
{ACAD_REACTORS
330
C
102
}
330
C
100
AcDbDictionary
281
     1
  3
Normal
350
F
100
AcDbDictionaryWithDefault
340
F
  0
DICTIONARY
  5
47
102
{ACAD_REACTORS
330
C
102
}
330
C
100
AcDbDictionary
281
     1
  3
A0
350
48
  3
A1
350
49
  3
A2
350
4A
  3
A3
350
4B
  3
A4
350
4C
  3
A5
350
4D
  3
A6
350
4E
  3
A7
350
4F
  3
A8
350
50
  3
A9
350
51
  3
B0
350
52
  3
B1
350
53
  3
B2
350
54
  3
B3
350
55
  3
B4
350
56
  3
B5
350
57
  3
B6
350
58
  3
B7
350
59
  3
B8
350
5A
  3
B9
350
5B
  3
C0
350
5C
  3
C1
350
5D
  3
C2
350
5E
  3
C3
350
5F
  3
C4
350
60
  3
C5
350
61
  3
C6
350
62
  3
C7
350
63
  3
C8
350
64
  3
C9
350
65
  3
D0
350
66
  3
D1
350
67
  3
D2
350
68
  0
LAYOUT
  5
1E
102
{ACAD_REACTORS
330
1A
102
}
330
1A
100
AcDbPlotSettings
  1

  2
none_device
  4

  6

 40
0.0
 41
0.0
 42
0.0
 43
0.0
 44
0.0
 45
0.0
 46
0.0
 47
0.0
 48
0.0
 49
0.0
140
0.0
141
0.0
142
1.0
143
1.0
 70
   688
 72
     1
 73
     0
 74
     5
  7

 75
    16
147
1.0
148
0.0
149
0.0
100
AcDbLayout
  1
Layout1
 70
     1
 71
     1
 10
0.0
 20
0.0
 11
420.0
 21
297.0
 12
0.0
 22
0.0
 32
0.0
 14
1.0000000000E+20
 24
1.0000000000E+20
 34
1.0000000000E+20
 15
-1.0000000000E+20
 25
-1.0000000000E+20
 35
-1.0000000000E+20
146
0.0
 13
0.0
 23
0.0
 33
0.0
 16
1.0
 26
0.0
 36
0.0
 17
0.0
 27
1.0
 37
0.0
 76
     0
330
1B
  0
LAYOUT
  5
26
102
{ACAD_REACTORS
330
1A
102
}
330
1A
100
AcDbPlotSettings
  1

  2
none_device
  4

  6

 40
0.0
 41
0.0
 42
0.0
 43
0.0
 44
0.0
 45
0.0
 46
0.0
 47
0.0
 48
0.0
 49
0.0
140
0.0
141
0.0
142
1.0
143
1.0
 70
   688
 72
     1
 73
     0
 74
     5
  7

 75
    16
147
1.0
148
0.0
149
0.0
100
AcDbLayout
  1
Layout2
 70
     1
 71
     2
 10
0.0
 20
0.0
 11
0.0
 21
0.0
 12
0.0
 22
0.0
 32
0.0
 14
0.0
 24
0.0
 34
0.0
 15
0.0
 25
0.0
 35
0.0
146
0.0
 13
0.0
 23
0.0
 33
0.0
 16
1.0
 26
0.0
 36
0.0
 17
0.0
 27
1.0
 37
0.0
 76
     0
330
23
  0
LAYOUT
  5
22
102
{ACAD_REACTORS
330
1A
102
}
330
1A
100
AcDbPlotSettings
  1

  2
none_device
  4
ANSI_A_(11.00_x_8.50_Inches)
  6

 40
6.35
 41
19.05
 42
6.35000508
 43
19.05000254
 44
279.4
 45
215.9
 46
133.34999746
 47
88.89999873
 48
0.0
 49
0.0
140
0.0
141
0.0
142
0.1685105162
143
1.0
 70
  1696
 72
     0
 73
     0
 74
     0
  7

 75
     0
147
0.0179189148
148
-1300.4909072572
149
0.0
100
AcDbLayout
  1
Model
 70
     1
 71
     0
 10
0.0
 20
0.0
 11
420.0
 21
297.0
 12
0.0
 22
0.0
 32
0.0
 14
-24.9687680902
 24
-24.9687680902
 34
0.0
 15
24.9687680902
 25
24.9687680902
 35
0.0
146
0.0
 13
0.0
 23
0.0
 33
0.0
 16
1.0
 26
0.0
 36
0.0
 17
0.0
 27
1.0
 37
0.0
 76
     0
330
1F
331
29
  0
MLINESTYLE
  5
18
102
{ACAD_REACTORS
330
17
102
}
330
17
100
AcDbMlineStyle
  2
Standard
 70
     0
  3

 62
   256
 51
90.0
 52
90.0
 71
     2
 49
0.5
 62
   256
  6
BYLAYER
 49
-0.5
 62
   256
  6
BYLAYER
  0
ACDBPLACEHOLDER
  5
F
102
{ACAD_REACTORS
330
E
102
}
330
E
  0
SCALE
  5
48
102
{ACAD_REACTORS
330
47
102
}
330
47
100
AcDbScale
 70
     0
300
1:1
140
1.0
141
1.0
290
     1
  0
SCALE
  5
49
102
{ACAD_REACTORS
330
47
102
}
330
47
100
AcDbScale
 70
     0
300
1:2
140
1.0
141
2.0
290
     0
  0
SCALE
  5
4A
102
{ACAD_REACTORS
330
47
102
}
330
47
100
AcDbScale
 70
     0
300
1:4
140
1.0
141
4.0
290
     0
  0
SCALE
  5
4B
102
{ACAD_REACTORS
330
47
102
}
330
47
100
AcDbScale
 70
     0
300
1:5
140
1.0
141
5.0
290
     0
  0
SCALE
  5
4C
102
{ACAD_REACTORS
330
47
102
}
330
47
100
AcDbScale
 70
     0
300
1:8
140
1.0
141
8.0
290
     0
  0
SCALE
  5
4D
102
{ACAD_REACTORS
330
47
102
}
330
47
100
AcDbScale
 70
     0
300
1:10
140
1.0
141
10.0
290
     0
  0
SCALE
  5
4E
102
{ACAD_REACTORS
330
47
102
}
330
47
100
AcDbScale
 70
     0
300
1:16
140
1.0
141
16.0
290
     0
  0
SCALE
  5
4F
102
{ACAD_REACTORS
330
47
102
}
330
47
100
AcDbScale
 70
     0
300
1:20
140
1.0
141
20.0
290
     0
  0
SCALE
  5
50
102
{ACAD_REACTORS
330
47
102
}
330
47
100
AcDbScale
 70
     0
300
1:30
140
1.0
141
30.0
290
     0
  0
SCALE
  5
51
102
{ACAD_REACTORS
330
47
102
}
330
47
100
AcDbScale
 70
     0
300
1:40
140
1.0
141
40.0
290
     0
  0
SCALE
  5
52
102
{ACAD_REACTORS
330
47
102
}
330
47
100
AcDbScale
 70
     0
300
1:50
140
1.0
141
50.0
290
     0
  0
SCALE
  5
53
102
{ACAD_REACTORS
330
47
102
}
330
47
100
AcDbScale
 70
     0
300
1:100
140
1.0
141
100.0
290
     0
  0
SCALE
  5
54
102
{ACAD_REACTORS
330
47
102
}
330
47
100
AcDbScale
 70
     0
300
2:1
140
2.0
141
1.0
290
     0
  0
SCALE
  5
55
102
{ACAD_REACTORS
330
47
102
}
330
47
100
AcDbScale
 70
     0
300
4:1
140
4.0
141
1.0
290
     0
  0
SCALE
  5
56
102
{ACAD_REACTORS
330
47
102
}
330
47
100
AcDbScale
 70
     0
300
8:1
140
8.0
141
1.0
290
     0
  0
SCALE
  5
57
102
{ACAD_REACTORS
330
47
102
}
330
47
100
AcDbScale
 70
     0
300
10:1
140
10.0
141
1.0
290
     0
  0
SCALE
  5
58
102
{ACAD_REACTORS
330
47
102
}
330
47
100
AcDbScale
 70
     0
300
100:1
140
100.0
141
1.0
290
     0
  0
SCALE
  5
59
102
{ACAD_REACTORS
330
47
102
}
330
47
100
AcDbScale
 70
     0
300
1/128" = 1'-0"
140
0.0078125
141
12.0
290
     0
  0
SCALE
  5
5A
102
{ACAD_REACTORS
330
47
102
}
330
47
100
AcDbScale
 70
     0
300
1/64" = 1'-0"
140
0.015625
141
12.0
290
     0
  0
SCALE
  5
5B
102
{ACAD_REACTORS
330
47
102
}
330
47
100
AcDbScale
 70
     0
300
1/32" = 1'-0"
140
0.03125
141
12.0
290
     0
  0
SCALE
  5
5C
102
{ACAD_REACTORS
330
47
102
}
330
47
100
AcDbScale
 70
     0
300
1/16" = 1'-0"
140
0.0625
141
12.0
290
     0
  0
SCALE
  5
5D
102
{ACAD_REACTORS
330
47
102
}
330
47
100
AcDbScale
 70
     0
300
3/32" = 1'-0"
140
0.09375
141
12.0
290
     0
  0
SCALE
  5
5E
102
{ACAD_REACTORS
330
47
102
}
330
47
100
AcDbScale
 70
     0
300
1/8" = 1'-0"
140
0.125
141
12.0
290
     0
  0
SCALE
  5
5F
102
{ACAD_REACTORS
330
47
102
}
330
47
100
AcDbScale
 70
     0
300
3/16" = 1'-0"
140
0.1875
141
12.0
290
     0
  0
SCALE
  5
60
102
{ACAD_REACTORS
330
47
102
}
330
47
100
AcDbScale
 70
     0
300
1/4" = 1'-0"
140
0.25
141
12.0
290
     0
  0
SCALE
  5
61
102
{ACAD_REACTORS
330
47
102
}
330
47
100
AcDbScale
 70
     0
300
3/8" = 1'-0"
140
0.375
141
12.0
290
     0
  0
SCALE
  5
62
102
{ACAD_REACTORS
330
47
102
}
330
47
100
AcDbScale
 70
     0
300
1/2" = 1'-0"
140
0.5
141
12.0
290
     0
  0
SCALE
  5
63
102
{ACAD_REACTORS
330
47
102
}
330
47
100
AcDbScale
 70
     0
300
3/4" = 1'-0"
140
0.75
141
12.0
290
     0
  0
SCALE
  5
64
102
{ACAD_REACTORS
330
47
102
}
330
47
100
AcDbScale
 70
     0
300
1" = 1'-0"
140
1.0
141
12.0
290
     0
  0
SCALE
  5
65
102
{ACAD_REACTORS
330
47
102
}
330
47
100
AcDbScale
 70
     0
300
1-1/2" = 1'-0"
140
1.5
141
12.0
290
     0
  0
SCALE
  5
66
102
{ACAD_REACTORS
330
47
102
}
330
47
100
AcDbScale
 70
     0
300
3" = 1'-0"
140
3.0
141
12.0
290
     0
  0
SCALE
  5
67
102
{ACAD_REACTORS
330
47
102
}
330
47
100
AcDbScale
 70
     0
300
6" = 1'-0"
140
6.0
141
12.0
290
     0
  0
SCALE
  5
68
102
{ACAD_REACTORS
330
47
102
}
330
47
100
AcDbScale
 70
     0
300
1'-0" = 1'-0"
140
12.0
141
12.0
290
     0
  0
ENDSEC
  0
EOF
