  0
SECTION
  2
HEADER
  9
$ACADVER
  1
AC1015
  9
$ACADMAINTVER
 70
     6
  9
$DWGCODEPAGE
  3
DOS932
  9
$INSBASE
 10
0.0
 20
0.0
 30
0.0
  9
$EXTMIN
 10
-12.9305940098
 20
-12.9305940098
 30
0.0
  9
$EXTMAX
 10
12.9305940098
 20
12.9305940098
 30
0.0
  9
$LIMMIN
 10
0.0
 20
0.0
  9
$LIMMAX
 10
420.0
 20
297.0
  9
$ORTHOMODE
 70
     0
  9
$REGENMODE
 70
     1
  9
$FILLMODE
 70
     1
  9
$QTEXTMODE
 70
     0
  9
$MIRRTEXT
 70
     1
  9
$LTSCALE
 40
1.0
  9
$ATTMODE
 70
     1
  9
$TEXTSIZE
 40
3.5
  9
$TRACEWID
 40
1.0
  9
$TEXTSTYLE
  7
Standard
  9
$CLAYER
  8
0
  9
$CELTYPE
  6
ByLayer
  9
$CECOLOR
 62
   256
  9
$CELTSCALE
 40
1.0
  9
$DISPSILH
 70
     0
  9
$DIMSCALE
 40
1.0
  9
$DIMASZ
 40
3.302
  9
$DIMEXO
 40
1.0
  9
$DIMDLI
 40
3.75
  9
$DIMRND
 40
0.0
  9
$DIMDLE
 40
0.0
  9
$DIMEXE
 40
1.0
  9
$DIMTP
 40
0.0
  9
$DIMTM
 40
0.0
  9
$DIMTXT
 40
3.5
  9
$DIMCEN
 40
2.5
  9
$DIMTSZ
 40
0.0
  9
$DIMTOL
 70
     0
  9
$DIMLIM
 70
     0
  9
$DIMTIH
 70
     1
  9
$DIMTOH
 70
     1
  9
$DIMSE1
 70
     0
  9
$DIMSE2
 70
     0
  9
$DIMTAD
 70
     1
  9
$DIMZIN
 70
     0
  9
$DIMBLK
  1

  9
$DIMASO
 70
     1
  9
$DIMSHO
 70
     1
  9
$DIMPOST
  1

  9
$DIMAPOST
  1

  9
$DIMALT
 70
     0
  9
$DIMALTD
 70
     3
  9
$DIMALTF
 40
0.0393700787
  9
$DIMLFAC
 40
1.0
  9
$DIMTOFL
 70
     1
  9
$DIMTVP
 40
0.0
  9
$DIMTIX
 70
     0
  9
$DIMSOXD
 70
     0
  9
$DIMSAH
 70
     0
  9
$DIMBLK1
  1

  9
$DIMBLK2
  1

  9
$DIMSTYLE
  2
ISO-25
  9
$DIMCLRD
 70
     0
  9
$DIMCLRE
 70
     0
  9
$DIMCLRT
 70
     0
  9
$DIMTFAC
 40
1.0
  9
$DIMGAP
 40
1.524
  9
$DIMJUST
 70
     0
  9
$DIMSD1
 70
     0
  9
$DIMSD2
 70
     0
  9
$DIMTOLJ
 70
     0
  9
$DIMTZIN
 70
     0
  9
$DIMALTZ
 70
     0
  9
$DIMALTTZ
 70
     0
  9
$DIMUPT
 70
     0
  9
$DIMDEC
 70
     2
  9
$DIMTDEC
 70
     2
  9
$DIMALTU
 70
     2
  9
$DIMALTTD
 70
     3
  9
$DIMTXSTY
  7
Standard
  9
$DIMAUNIT
 70
     0
  9
$DIMADEC
 70
     2
  9
$DIMALTRND
 40
0.0
  9
$DIMAZIN
 70
     0
  9
$DIMDSEP
 70
    44
  9
$DIMATFIT
 70
     3
  9
$DIMFRAC
 70
     0
  9
$DIMLDRBLK
  1

  9
$DIMLUNIT
 70
     2
  9
$DIMLWD
 70
    -2
  9
$DIMLWE
 70
    -2
  9
$DIMTMOVE
 70
     0
  9
$LUNITS
 70
     2
  9
$LUPREC
 70
     2
  9
$SKETCHINC
 40
1.0
  9
$FILLETRAD
 40
10.0
  9
$AUNITS
 70
     0
  9
$AUPREC
 70
     2
  9
$MENU
  1
.
  9
$ELEVATION
 40
0.0
  9
$PELEVATION
 40
0.0
  9
$THICKNESS
 40
0.0
  9
$LIMCHECK
 70
     0
  9
$CHAMFERA
 40
0.0
  9
$CHAMFERB
 40
0.0
  9
$CHAMFERC
 40
0.0
  9
$CHAMFERD
 40
0.0
  9
$SKPOLY
 70
     0
  9
$TDCREATE
 40
2458858.955737847
  9
$TDUCREATE
 40
2458858.580737847
  9
$TDUPDATE
 40
2458858.955765799
  9
$TDUUPDATE
 40
2458858.580765799
  9
$TDINDWG
 40
0.0000000116
  9
$TDUSRTIMER
 40
0.0000000116
  9
$USRTIMER
 70
     1
  9
$ANGBASE
 50
0.0
  9
$ANGDIR
 70
     0
  9
$PDMODE
 70
     0
  9
$PDSIZE
 40
-1.0
  9
$PLINEWID
 40
0.0
  9
$SPLFRAME
 70
     0
  9
$SPLINETYPE
 70
     6
  9
$SPLINESEGS
 70
     8
  9
$HANDSEED
  5
10A
  9
$SURFTAB1
 70
     6
  9
$SURFTAB2
 70
     6
  9
$SURFTYPE
 70
     6
  9
$SURFU
 70
     6
  9
$SURFV
 70
     6
  9
$UCSBASE
  2

  9
$UCSNAME
  2

  9
$UCSORG
 10
0.0
 20
0.0
 30
0.0
  9
$UCSXDIR
 10
1.0
 20
0.0
 30
0.0
  9
$UCSYDIR
 10
0.0
 20
1.0
 30
0.0
  9
$UCSORTHOREF
  2

  9
$UCSORTHOVIEW
 70
     0
  9
$UCSORGTOP
 10
0.0
 20
0.0
 30
0.0
  9
$UCSORGBOTTOM
 10
0.0
 20
0.0
 30
0.0
  9
$UCSORGLEFT
 10
0.0
 20
0.0
 30
0.0
  9
$UCSORGRIGHT
 10
0.0
 20
0.0
 30
0.0
  9
$UCSORGFRONT
 10
0.0
 20
0.0
 30
0.0
  9
$UCSORGBACK
 10
0.0
 20
0.0
 30
0.0
  9
$PUCSBASE
  2

  9
$PUCSNAME
  2

  9
$PUCSORG
 10
0.0
 20
0.0
 30
0.0
  9
$PUCSXDIR
 10
1.0
 20
0.0
 30
0.0
  9
$PUCSYDIR
 10
0.0
 20
1.0
 30
0.0
  9
$PUCSORTHOREF
  2

  9
$PUCSORTHOVIEW
 70
     0
  9
$PUCSORGTOP
 10
0.0
 20
0.0
 30
0.0
  9
$PUCSORGBOTTOM
 10
0.0
 20
0.0
 30
0.0
  9
$PUCSORGLEFT
 10
0.0
 20
0.0
 30
0.0
  9
$PUCSORGRIGHT
 10
0.0
 20
0.0
 30
0.0
  9
$PUCSORGFRONT
 10
0.0
 20
0.0
 30
0.0
  9
$PUCSORGBACK
 10
0.0
 20
0.0
 30
0.0
  9
$USERI1
 70
     0
  9
$USERI2
 70
     0
  9
$USERI3
 70
     0
  9
$USERI4
 70
     0
  9
$USERI5
 70
     0
  9
$USERR1
 40
0.0
  9
$USERR2
 40
0.0
  9
$USERR3
 40
0.0
  9
$USERR4
 40
0.0
  9
$USERR5
 40
0.0
  9
$WORLDVIEW
 70
     1
  9
$SHADEDGE
 70
     3
  9
$SHADEDIF
 70
    70
  9
$TILEMODE
 70
     1
  9
$MAXACTVP
 70
    64
  9
$PINSBASE
 10
0.0
 20
0.0
 30
0.0
  9
$PLIMCHECK
 70
     0
  9
$PEXTMIN
 10
1.0000000000E+20
 20
1.0000000000E+20
 30
1.0000000000E+20
  9
$PEXTMAX
 10
-1.0000000000E+20
 20
-1.0000000000E+20
 30
-1.0000000000E+20
  9
$PLIMMIN
 10
0.0
 20
0.0
  9
$PLIMMAX
 10
420.0
 20
297.0
  9
$UNITMODE
 70
     0
  9
$VISRETAIN
 70
     1
  9
$PLINEGEN
 70
     0
  9
$PSLTSCALE
 70
     1
  9
$TREEDEPTH
 70
  3020
  9
$CMLSTYLE
  2
Standard
  9
$CMLJUST
 70
     0
  9
$CMLSCALE
 40
20.0
  9
$PROXYGRAPHICS
 70
     1
  9
$MEASUREMENT
 70
     1
  9
$CELWEIGHT
370
    -1
  9
$ENDCAPS
280
     0
  9
$JOINSTYLE
280
     0
  9
$LWDISPLAY
290
     1
  9
$INSUNITS
 70
     4
  9
$HYPERLINKBASE
  1

  9
$STYLESHEET
  1

  9
$XEDIT
290
     1
  9
$CEPSNTYPE
380
     0
  9
$PSTYLEMODE
290
     1
  9
$FINGERPRINTGUID
  2
{824F57AF-C0E9-49DE-BB9F-9BA211AF40D6}
  9
$VERSIONGUID
  2
{FAEB1C32-E019-11D5-929B-00C0DF256EC4}
  9
$EXTNAMES
290
     1
  9
$PSVPSCALE
 40
0.0
  9
$OLESTARTUP
290
     0
  0
ENDSEC
  0
SECTION
  2
CLASSES
  0
CLASS
  1
ACDBDICTIONARYWDFLT
  2
AcDbDictionaryWithDefault
  3
ObjectDBX Classes
 90
        0
280
     0
281
     0
  0
CLASS
  1
VISUALSTYLE
  2
AcDbVisualStyle
  3
ObjectDBX Classes
 90
     4095
280
     0
281
     0
  0
CLASS
  1
MATERIAL
  2
AcDbMaterial
  3
ObjectDBX Classes
 90
     1153
280
     0
281
     0
  0
CLASS
  1
SCALE
  2
AcDbScale
  3
ObjectDBX Classes
 90
     1153
280
     0
281
     0
  0
CLASS
  1
TABLESTYLE
  2
AcDbTableStyle
  3
ObjectDBX Classes
 90
     4095
280
     0
281
     0
  0
CLASS
  1
MLEADERSTYLE
  2
AcDbMLeaderStyle
  3
ACDB_MLEADERSTYLE_CLASS
 90
     4095
280
     0
281
     0
  0
CLASS
  1
SUN
  2
AcDbSun
  3
SCENEOE
 90
     1153
280
     0
281
     0
  0
CLASS
  1
ACDBPLACEHOLDER
  2
AcDbPlaceHolder
  3
ObjectDBX Classes
 90
        0
280
     0
281
     0
  0
CLASS
  1
LAYOUT
  2
AcDbLayout
  3
ObjectDBX Classes
 90
        0
280
     0
281
     0
  0
ENDSEC
  0
SECTION
  2
TABLES
  0
TABLE
  2
VPORT
  5
8
330
0
100
AcDbSymbolTable
 70
     1
  0
VPORT
  5
29
330
8
100
AcDbSymbolTableRecord
100
AcDbViewportTableRecord
  2
*Active
 70
     0
 10
0.0
 20
0.0
 11
1.0
 21
1.0
 12
0.0
 22
0.0
 13
0.0
 23
0.0
 14
10.0
 24
10.0
 15
10.0
 25
10.0
 16
0.0
 26
0.0
 36
1.0
 17
0.0
 27
0.0
 37
0.0
 40
26.37841178
 41
1.0
 42
50.0
 43
0.0
 44
0.0
 50
0.0
 51
0.0
 71
     0
 72
   100
 73
     1
 74
     3
 75
     0
 76
     0
 77
     0
 78
     0
281
     0
 65
     1
110
0.0
120
0.0
130
0.0
111
1.0
121
0.0
131
0.0
112
0.0
122
1.0
132
0.0
 79
     0
146
0.0
  0
ENDTAB
  0
TABLE
  2
LTYPE
  5
5
330
0
100
AcDbSymbolTable
 70
     6
  0
LTYPE
  5
14
330
5
100
AcDbSymbolTableRecord
100
AcDbLinetypeTableRecord
  2
ByBlock
 70
     0
  3

 72
    65
 73
     0
 40
0.0
  0
LTYPE
  5
15
330
5
100
AcDbSymbolTableRecord
100
AcDbLinetypeTableRecord
  2
ByLayer
 70
     0
  3

 72
    65
 73
     0
 40
0.0
  0
LTYPE
  5
16
330
5
100
AcDbSymbolTableRecord
100
AcDbLinetypeTableRecord
  2
Continuous
 70
     0
  3
Solid line
 72
    65
 73
     0
 40
0.0
  0
LTYPE
  5
6E
330
5
100
AcDbSymbolTableRecord
100
AcDbLinetypeTableRecord
  2
HIDDEN
 70
     0
  3
Hidden __ __ __ __ __ __ __ __ __ __ __ __ __ __
 72
    65
 73
     2
 40
1.905
 49
1.27
 74
     0
 49
-0.635
 74
     0
  0
LTYPE
  5
6F
330
5
100
AcDbSymbolTableRecord
100
AcDbLinetypeTableRecord
  2
PHANTOM
 70
     0
  3
Phantom ______  __  __  ______  __  __  ______
 72
    65
 73
     6
 40
12.7
 49
6.35
 74
     0
 49
-1.27
 74
     0
 49
1.27
 74
     0
 49
-1.27
 74
     0
 49
1.27
 74
     0
 49
-1.27
 74
     0
  0
LTYPE
  5
70
330
5
100
AcDbSymbolTableRecord
100
AcDbLinetypeTableRecord
  2
CENTER
 70
     0
  3
Center ____ _ ____ _ ____ _ ____ _ ____ _ ____
 72
    65
 73
     4
 40
10.16
 49
6.35
 74
     0
 49
-1.27
 74
     0
 49
1.27
 74
     0
 49
-1.27
 74
     0
  0
LTYPE
  5
71
330
5
100
AcDbSymbolTableRecord
100
AcDbLinetypeTableRecord
  2
CENTERX2
 70
     0
  3
Center (2x) ________  __  ________  __  _____
 72
    65
 73
     4
 40
20.32
 49
12.7
 74
     0
 49
-2.54
 74
     0
 49
2.54
 74
     0
 49
-2.54
 74
     0
  0
LTYPE
  5
72
330
5
100
AcDbSymbolTableRecord
100
AcDbLinetypeTableRecord
  2
DOT2
 70
     0
  3
Dot (.5x) ........................................
 72
    65
 73
     2
 40
0.635
 49
0.0
 74
     0
 49
-0.635
 74
     0
  0
ENDTAB
  0
TABLE
  2
LAYER
  5
2
330
0
100
AcDbSymbolTable
 70
     1
  0
LAYER
  5
10
330
2
100
AcDbSymbolTableRecord
100
AcDbLayerTableRecord
  2
0
 70
     0
 62
     7
  6
Continuous
370
    -3
390
F
  0
ENDTAB
  0
TABLE
  2
STYLE
  5
3
330
0
100
AcDbSymbolTable
 70
     2
  0
STYLE
  5
11
330
3
100
AcDbSymbolTableRecord
100
AcDbTextStyleTableRecord
  2
Standard
 70
     0
 40
0.0
 41
1.0
 50
0.0
 71
     0
 42
3.5
  3
txt
  4
bigfont
  0
STYLE
  5
108
330
3
100
AcDbSymbolTableRecord
100
AcDbTextStyleTableRecord
  2
SLDTEXTSTYLE0
 70
     0
 40
0.0
 41
0.7
 50
0.0
 71
     0
 42
3.5
  3
TXT
  4
bigfont
  0
ENDTAB
  0
TABLE
  2
VIEW
  5
6
330
0
100
AcDbSymbolTable
 70
     0
  0
ENDTAB
  0
TABLE
  2
UCS
  5
7
330
0
100
AcDbSymbolTable
 70
     0
  0
ENDTAB
  0
TABLE
  2
APPID
  5
9
330
0
100
AcDbSymbolTable
 70
     1
  0
APPID
  5
12
330
9
100
AcDbSymbolTableRecord
100
AcDbRegAppTableRecord
  2
ACAD
 70
     0
  0
ENDTAB
  0
TABLE
  2
DIMSTYLE
  5
A
330
0
100
AcDbSymbolTable
 70
     1
100
AcDbDimStyleTable
  0
DIMSTYLE
105
27
330
A
100
AcDbSymbolTableRecord
100
AcDbDimStyleTableRecord
  2
ISO-25
 70
     0
 41
2.5
 42
0.625
 43
3.75
 44
1.25
 73
     0
 74
     0
 77
     1
 78
     8
140
2.5
141
2.5
143
0.0393700787
147
0.625
171
     3
172
     1
178
     0
271
     2
272
     2
274
     3
278
    44
283
     0
284
     8
340
11
  0
ENDTAB
  0
TABLE
  2
BLOCK_RECORD
  5
1
330
0
100
AcDbSymbolTable
 70
     1
  0
BLOCK_RECORD
  5
1F
330
1
100
AcDbSymbolTableRecord
100
AcDbBlockTableRecord
  2
*Model_Space
340
22
  0
BLOCK_RECORD
  5
1B
330
1
100
AcDbSymbolTableRecord
100
AcDbBlockTableRecord
  2
*Paper_Space
340
1E
  0
BLOCK_RECORD
  5
23
330
1
100
AcDbSymbolTableRecord
100
AcDbBlockTableRecord
  2
*Paper_Space0
340
26
  0
ENDTAB
  0
ENDSEC
  0
SECTION
  2
BLOCKS
  0
BLOCK
  5
20
330
1F
100
AcDbEntity
  8
0
100
AcDbBlockBegin
  2
*Model_Space
 70
     0
 10
0.0
 20
0.0
 30
0.0
  3
*Model_Space
  1

  0
ENDBLK
  5
21
330
1F
100
AcDbEntity
  8
0
100
AcDbBlockEnd
  0
BLOCK
  5
1C
330
1B
100
AcDbEntity
 67
     1
  8
0
100
AcDbBlockBegin
  2
*Paper_Space
 70
     0
 10
0.0
 20
0.0
 30
0.0
  3
*Paper_Space
  1

  0
ENDBLK
  5
1D
330
1B
100
AcDbEntity
 67
     1
  8
0
100
AcDbBlockEnd
  0
BLOCK
  5
24
330
23
100
AcDbEntity
  8
0
100
AcDbBlockBegin
  2
*Paper_Space0
 70
     0
 10
0.0
 20
0.0
 30
0.0
  3
*Paper_Space0
  1

  0
ENDBLK
  5
25
330
23
100
AcDbEntity
  8
0
100
AcDbBlockEnd
  0
ENDSEC
  0
SECTION
  2
ENTITIES
  0
CIRCLE
  5
73
330
1F
100
AcDbEntity
  8
0
  6
Continuous
 62
     7
370
    25
100
AcDbCircle
 10
7.5
 20
0.0
 30
0.0
 40
1.525
  0
CIRCLE
  5
74
330
1F
100
AcDbEntity
  8
0
  6
Continuous
 62
     7
370
    25
100
AcDbCircle
 10
0.0
 20
-7.5
 30
0.0
 40
1.525
  0
CIRCLE
  5
75
330
1F
100
AcDbEntity
  8
0
  6
Continuous
 62
     7
370
    25
100
AcDbCircle
 10
-7.5
 20
0.0
 30
0.0
 40
1.525
  0
CIRCLE
  5
76
330
1F
100
AcDbEntity
  8
0
  6
Continuous
 62
     7
370
    25
100
AcDbCircle
 10
0.0
 20
7.5
 30
0.0
 40
1.524999999999999
  0
CIRCLE
  5
77
330
1F
100
AcDbEntity
  8
0
  6
Continuous
 62
     7
370
    25
100
AcDbCircle
 10
0.0
 20
0.0
 30
0.0
 40
3.025
  0
ARC
  5
78
330
1F
100
AcDbEntity
  8
0
  6
Continuous
 62
     7
370
    25
100
AcDbCircle
 10
0.0
 20
0.0
 30
0.0
 40
10.75
100
AcDbArc
 50
72.1039047256
 51
77.8960952744
  0
LINE
  5
79
330
1F
100
AcDbEntity
  8
0
  6
Continuous
 62
     7
370
    25
100
AcDbLine
 10
2.3644756064
 20
11.0256271936
 30
0.0
 11
2.2541158856
 21
10.5110162008
 31
0.0
  0
SPLINE
  5
7A
330
1F
100
AcDbEntity
  8
0
  6
Continuous
 62
     7
370
    25
100
AcDbSpline
210
0.0
220
0.0
230
1.0
 70
     8
 71
     4
 72
    15
 73
    10
 74
     0
 42
0.000000001
 43
0.00000001
 40
0.0
 40
0.0
 40
0.0
 40
0.0
 40
0.0
 40
0.0028020339056145
 40
0.005604067811229
 40
0.0106611581043112
 40
0.0157182483973935
 40
0.029959916154659
 40
0.0303120130717029
 40
0.0303120130717029
 40
0.0303120130717029
 40
0.0303120130717029
 40
0.0303120130717029
 10
2.364475606384703
 20
11.02562719356037
 30
0.0
 10
2.37137271147747
 20
11.06800176336751
 30
0.0
 10
2.381164777968315
 20
11.153165270573
 30
0.0
 10
2.385347198299828
 20
11.316588812973
 30
0.0
 10
2.372362640726031
 20
11.55692992089987
 30
0.0
 10
2.317334907614529
 20
11.9693911363119
 30
0.0
 10
2.224994698570746
 20
12.33707230277589
 30
0.0
 10
2.131690414548302
 20
12.62326973851341
 30
0.0
 10
2.052762475179662
 20
12.83217366691376
 30
0.0
 10
2.050852627607716
 20
12.83721167153655
 30
0.0
  0
ARC
  5
7B
330
1F
100
AcDbEntity
  8
0
  6
Continuous
 62
     7
370
    25
100
AcDbCircle
 10
0.0
 20
0.0
 30
0.0
 40
13.0
100
AcDbArc
 50
80.9232197182
 51
84.0767802818
  0
SPLINE
  5
7C
330
1F
100
AcDbEntity
  8
0
  6
Continuous
 62
     7
370
    25
100
AcDbSpline
210
0.0
220
0.0
230
1.0
 70
     8
 71
     4
 72
    15
 73
    10
 74
     0
 42
0.000000001
 43
0.00000001
 40
0.0
 40
0.0
 40
0.0
 40
0.0
 40
0.0
 40
0.0028020339056145
 40
0.005604067811229
 40
0.0106611581043112
 40
0.0157182483973935
 40
0.029959916154659
 40
0.0303120130717029
 40
0.0303120130717029
 40
0.0303120130717029
 40
0.0303120130717029
 40
0.0303120130717029
 10
0.5697342480560404
 20
11.26190937590772
 30
0.0
 10
0.5740395018144195
 20
11.3046251694164
 30
0.0
 10
0.586623029510678
 20
11.38942117378228
 30
0.0
 10
0.6248802468873113
 20
11.54835868404652
 30
0.0
 10
0.6996272224432896
 20
11.77714971651968
 30
0.0
 10
0.8595327489325949
 20
12.16131443149067
 30
0.0
 10
1.043889430059302
 20
12.49256776128905
 30
0.0
 10
1.208087794728362
 20
12.74486433019096
 30
0.0
 10
1.338394645047051
 20
12.9262219759468
 30
0.0
 10
1.341543347686763
 20
12.93059400980006
 30
0.0
  0
LINE
  5
7D
330
1F
100
AcDbEntity
  8
0
  6
Continuous
 62
     7
370
    25
100
AcDbLine
 10
0.5697342481
 20
11.2619093759
 30
0.0
 11
0.5431424269
 21
10.73627013
 31
0.0
  0
ARC
  5
7E
330
1F
100
AcDbEntity
  8
0
  6
Continuous
 62
     7
370
    25
100
AcDbCircle
 10
0.0
 20
0.0
 30
0.0
 40
10.75
100
AcDbArc
 50
87.1039047256
 51
92.8960952744
  0
LINE
  5
7F
330
1F
100
AcDbEntity
  8
0
  6
Continuous
 62
     7
370
    25
100
AcDbLine
 10
-0.5697342481
 20
11.2619093759
 30
0.0
 11
-0.5431424269
 21
10.73627013
 31
0.0
  0
SPLINE
  5
80
330
1F
100
AcDbEntity
  8
0
  6
Continuous
 62
     7
370
    25
100
AcDbSpline
210
0.0
220
0.0
230
1.0
 70
     8
 71
     4
 72
    15
 73
    10
 74
     0
 42
0.000000001
 43
0.00000001
 40
0.0
 40
0.0
 40
0.0
 40
0.0
 40
0.0
 40
0.0028020339056145
 40
0.005604067811229
 40
0.0106611581043112
 40
0.0157182483973935
 40
0.029959916154659
 40
0.0303120130717029
 40
0.0303120130717029
 40
0.0303120130717029
 40
0.0303120130717029
 40
0.0303120130717029
 10
-0.5697342480560404
 20
11.26190937590772
 30
0.0
 10
-0.5740395018144195
 20
11.3046251694164
 30
0.0
 10
-0.586623029510678
 20
11.38942117378228
 30
0.0
 10
-0.6248802468873113
 20
11.54835868404652
 30
0.0
 10
-0.6996272224432896
 20
11.77714971651968
 30
0.0
 10
-0.8595327489325949
 20
12.16131443149067
 30
0.0
 10
-1.043889430059302
 20
12.49256776128905
 30
0.0
 10
-1.208087794728362
 20
12.74486433019096
 30
0.0
 10
-1.338394645047051
 20
12.9262219759468
 30
0.0
 10
-1.341543347686763
 20
12.93059400980006
 30
0.0
  0
ARC
  5
81
330
1F
100
AcDbEntity
  8
0
  6
Continuous
 62
     7
370
    25
100
AcDbCircle
 10
0.0
 20
0.0
 30
0.0
 40
13.0
100
AcDbArc
 50
95.9232197182
 51
99.0767802818
  0
SPLINE
  5
82
330
1F
100
AcDbEntity
  8
0
  6
Continuous
 62
     7
370
    25
100
AcDbSpline
210
0.0
220
0.0
230
1.0
 70
     8
 71
     4
 72
    15
 73
    10
 74
     0
 42
0.000000001
 43
0.00000001
 40
0.0
 40
0.0
 40
0.0
 40
0.0
 40
0.0
 40
0.0028020339056145
 40
0.005604067811229
 40
0.0106611581043112
 40
0.0157182483973935
 40
0.029959916154659
 40
0.0303120130717029
 40
0.0303120130717029
 40
0.0303120130717029
 40
0.0303120130717029
 40
0.0303120130717029
 10
-2.364475606384857
 20
11.02562719356034
 30
0.0
 10
-2.371372711477624
 20
11.06800176336747
 30
0.0
 10
-2.381164777968471
 20
11.15316527057296
 30
0.0
 10
-2.385347198299986
 20
11.31658881297296
 30
0.0
 10
-2.372362640726193
 20
11.55692992089983
 30
0.0
 10
-2.317334907614696
 20
11.96939113631187
 30
0.0
 10
-2.224994698570918
 20
12.33707230277586
 30
0.0
 10
-2.131690414548479
 20
12.62326973851338
 30
0.0
 10
-2.052762475179842
 20
12.83217366691373
 30
0.0
 10
-2.050852627607895
 20
12.83721167153653
 30
0.0
  0
LINE
  5
83
330
1F
100
AcDbEntity
  8
0
  6
Continuous
 62
     7
370
    25
100
AcDbLine
 10
-2.3644756064
 20
11.0256271936
 30
0.0
 11
-2.2541158856
 21
10.5110162008
 31
0.0
  0
ARC
  5
84
330
1F
100
AcDbEntity
  8
0
  6
Continuous
 62
     7
370
    25
100
AcDbCircle
 10
0.0
 20
0.0
 30
0.0
 40
10.75
100
AcDbArc
 50
102.1039047256
 51
107.8960952744
  0
LINE
  5
85
330
1F
100
AcDbEntity
  8
0
  6
Continuous
 62
     7
370
    25
100
AcDbLine
 10
-3.465117655
 20
10.7307110455
 30
0.0
 11
-3.3033864805
 21
10.2298649923
 31
0.0
  0
SPLINE
  5
86
330
1F
100
AcDbEntity
  8
0
  6
Continuous
 62
     7
370
    25
100
AcDbSpline
210
0.0
220
0.0
230
1.0
 70
     8
 71
     4
 72
    15
 73
    10
 74
     0
 42
0.000000001
 43
0.00000001
 40
0.0
 40
0.0
 40
0.0
 40
0.0
 40
0.0
 40
0.0028020339056145
 40
0.005604067811229
 40
0.0106611581043112
 40
0.0157182483973935
 40
0.029959916154659
 40
0.0303120130717029
 40
0.0303120130717029
 40
0.0303120130717029
 40
0.0303120130717029
 40
0.0303120130717029
 10
-3.465117655022281
 20
10.73071104547221
 30
0.0
 10
-3.480331871702941
 20
10.770857051946
 30
0.0
 10
-3.514433446969067
 20
10.84950684590676
 30
0.0
 10
-3.592523135912672
 20
10.99312699536736
 30
0.0
 10
-3.723938646591913
 20
11.19477622161883
 30
0.0
 10
-3.977824669085157
 20
11.52446424568571
 30
0.0
 10
-4.241634219139829
 20
11.79671537181473
 30
0.0
 10
-4.465536817253941
 20
11.99791747965017
 30
0.0
 10
-4.638342382015716
 20
12.13936961891092
 30
0.0
 10
-4.642515360841773
 20
12.14277773511267
 30
0.0
  0
ARC
  5
87
330
1F
100
AcDbEntity
  8
0
  6
Continuous
 62
     7
370
    25
100
AcDbCircle
 10
0.0
 20
0.0
 30
0.0
 40
13.0
100
AcDbArc
 50
110.9232197182
 51
114.0767802818
  0
SPLINE
  5
88
330
1F
100
AcDbEntity
  8
0
  6
Continuous
 62
     7
370
    25
100
AcDbSpline
210
0.0
220
0.0
230
1.0
 70
     8
 71
     4
 72
    15
 73
    10
 74
     0
 42
0.000000001
 43
0.00000001
 40
0.0
 40
0.0
 40
0.0
 40
0.0
 40
0.0
 40
0.0028020339056145
 40
0.005604067811229
 40
0.0106611581043112
 40
0.0157182483973935
 40
0.029959916154659
 40
0.030312013071703
 40
0.030312013071703
 40
0.030312013071703
 40
0.030312013071703
 40
0.030312013071703
 10
-5.137550355731318
 20
10.03796673868226
 30
0.0
 10
-5.155179793361164
 20
10.07711232788277
 30
0.0
 10
-5.186680140889917
 20
10.15683958565117
 30
0.0
 10
-5.233017173895766
 20
10.31361211584256
 30
0.0
 10
-5.282679910444816
 20
10.54912444990038
 30
0.0
 10
-5.336280019785047
 20
10.96177361554751
 30
0.0
 10
-5.342249115471121
 20
11.34082575480445
 30
0.0
 10
-5.326197444858811
 20
11.64142017509569
 30
0.0
 10
-5.304027225073612
 20
11.86363392865013
 30
0.0
 10
-5.303486385525287
 20
11.86899457235312
 30
0.0
  0
LINE
  5
89
330
1F
100
AcDbEntity
  8
0
  6
Continuous
 62
     7
370
    25
100
AcDbLine
 10
-5.1375503557
 20
10.0379667387
 30
0.0
 11
-4.8977599255
 21
9.5694538879
 31
0.0
  0
ARC
  5
8A
330
1F
100
AcDbEntity
  8
0
  6
Continuous
 62
     7
370
    25
100
AcDbCircle
 10
0.0
 20
0.0
 30
0.0
 40
10.75
100
AcDbArc
 50
117.1039047256
 51
122.8960952744
  0
LINE
  5
8B
330
1F
100
AcDbEntity
  8
0
  6
Continuous
 62
     7
370
    25
100
AcDbLine
 10
-6.1243590202
 20
9.4682324906
 30
0.0
 11
-5.8385102045
 21
9.026311461
 31
0.0
  0
SPLINE
  5
8C
330
1F
100
AcDbEntity
  8
0
  6
Continuous
 62
     7
370
    25
100
AcDbSpline
210
0.0
220
0.0
230
1.0
 70
     8
 71
     4
 72
    15
 73
    10
 74
     0
 42
0.000000001
 43
0.00000001
 40
0.0
 40
0.0
 40
0.0
 40
0.0
 40
0.0
 40
0.0028020339056145
 40
0.005604067811229
 40
0.0106611581043112
 40
0.0157182483973935
 40
0.029959916154659
 40
0.030312013071703
 40
0.030312013071703
 40
0.030312013071703
 40
0.030312013071703
 40
0.030312013071703
 10
-6.124359020176429
 20
9.468232490626214
 30
0.0
 10
-6.149445376055264
 20
9.503072826068353
 30
0.0
 10
-6.202741032892389
 20
9.57021655614049
 30
0.0
 10
-6.315341510150771
 20
9.688731868955248
 30
0.0
 10
-6.494469806074886
 20
9.849497227457089
 30
0.0
 10
-6.825034411705643
 20
10.10224086661492
 30
0.0
 10
-7.15031864581795
 20
10.29693632474515
 30
0.0
 10
-7.418666885332175
 20
10.43333238036733
 30
0.0
 10
-7.622194750873218
 20
10.52523928360308
 30
0.0
 10
-7.6271076242748
 20
10.52745122466635
 30
0.0
  0
ARC
  5
8D
330
1F
100
AcDbEntity
  8
0
  6
Continuous
 62
     7
370
    25
100
AcDbCircle
 10
0.0
 20
0.0
 30
0.0
 40
13.0
100
AcDbArc
 50
125.9232197182
 51
129.0767802818
  0
SPLINE
  5
8E
330
1F
100
AcDbEntity
  8
0
  6
Continuous
 62
     7
370
    25
100
AcDbSpline
210
0.0
220
0.0
230
1.0
 70
     8
 71
     4
 72
    15
 73
    10
 74
     0
 42
0.000000001
 43
0.00000001
 40
0.0
 40
0.0
 40
0.0
 40
0.0
 40
0.0
 40
0.0028020339056145
 40
0.005604067811229
 40
0.0106611581043112
 40
0.0157182483973935
 40
0.029959916154659
 40
0.0303120130717029
 40
0.0303120130717029
 40
0.0303120130717029
 40
0.0303120130717029
 40
0.0303120130717029
 10
-7.56050953853808
 20
8.366235439087344
 30
0.0
 10
-7.587669891664555
 20
8.399484340468375
 30
0.0
 10
-7.638731823603919
 20
8.468342067938286
 30
0.0
 10
-7.724065677060319
 20
8.607779797067375
 30
0.0
 10
-7.832991274307947
 20
8.822413580892636
 30
0.0
 10
-7.991566467226737
 20
9.207129338071011
 30
0.0
 10
-8.095438083636056
 20
9.57172067324381
 30
0.0
 10
-8.157732921259463
 20
9.866227065101686
 30
0.0
 10
-8.193831284898042
 20
10.08660714373108
 30
0.0
 10
-8.194696310694777
 20
10.09192510750477
 30
0.0
  0
LINE
  5
8F
330
1F
100
AcDbEntity
  8
0
  6
Continuous
 62
     7
370
    25
100
AcDbLine
 10
-7.5605095385
 20
8.3662354391
 30
0.0
 11
-7.2076297204
 21
7.9757491067
 31
0.0
  0
ARC
  5
90
330
1F
100
AcDbEntity
  8
0
  6
Continuous
 62
     7
370
    25
100
AcDbCircle
 10
0.0
 20
0.0
 30
0.0
 40
10.75
100
AcDbArc
 50
132.1039047256
 51
137.8960952744
  0
LINE
  5
91
330
1F
100
AcDbEntity
  8
0
  6
Continuous
 62
     7
370
    25
100
AcDbLine
 10
-8.3662354391
 20
7.5605095385
 30
0.0
 11
-7.9757491067
 21
7.2076297204
 31
0.0
  0
SPLINE
  5
92
330
1F
100
AcDbEntity
  8
0
  6
Continuous
 62
     7
370
    25
100
AcDbSpline
210
0.0
220
0.0
230
1.0
 70
     8
 71
     4
 72
    15
 73
    10
 74
     0
 42
0.000000001
 43
0.00000001
 40
0.0
 40
0.0
 40
0.0
 40
0.0
 40
0.0
 40
0.0028020339056145
 40
0.005604067811229
 40
0.0106611581043112
 40
0.0157182483973935
 40
0.029959916154659
 40
0.0303120130717029
 40
0.0303120130717029
 40
0.0303120130717029
 40
0.0303120130717029
 40
0.0303120130717029
 10
-8.366235439087369
 20
7.560509538538053
 30
0.0
 10
-8.399484340468401
 20
7.587669891664525
 30
0.0
 10
-8.46834206793831
 20
7.638731823603891
 30
0.0
 10
-8.607779797067401
 20
7.72406567706029
 30
0.0
 10
-8.822413580892663
 20
7.832991274307916
 30
0.0
 10
-9.20712933807104
 20
7.991566467226706
 30
0.0
 10
-9.571720673243838
 20
8.095438083636022
 30
0.0
 10
-9.866227065101715
 20
8.157732921259429
 30
0.0
 10
-10.08660714373111
 20
8.19383128489801
 30
0.0
 10
-10.0919251075048
 20
8.194696310694745
 30
0.0
  0
ARC
  5
93
330
1F
100
AcDbEntity
  8
0
  6
Continuous
 62
     7
370
    25
100
AcDbCircle
 10
0.0
 20
0.0
 30
0.0
 40
13.0
100
AcDbArc
 50
140.9232197182
 51
144.0767802818
  0
SPLINE
  5
94
330
1F
100
AcDbEntity
  8
0
  6
Continuous
 62
     7
370
    25
100
AcDbSpline
210
0.0
220
0.0
230
1.0
 70
     8
 71
     4
 72
    15
 73
    10
 74
     0
 42
0.000000001
 43
0.00000001
 40
0.0
 40
0.0
 40
0.0
 40
0.0
 40
0.0
 40
0.0028020339056145
 40
0.005604067811229
 40
0.0106611581043112
 40
0.0157182483973935
 40
0.029959916154659
 40
0.0303120130717029
 40
0.0303120130717029
 40
0.0303120130717029
 40
0.0303120130717029
 40
0.0303120130717029
 10
-9.468232490626235
 20
6.124359020176397
 30
0.0
 10
-9.503072826068374
 20
6.149445376055231
 30
0.0
 10
-9.570216556140513
 20
6.202741032892356
 30
0.0
 10
-9.688731868955271
 20
6.315341510150739
 30
0.0
 10
-9.84949722745711
 20
6.494469806074851
 30
0.0
 10
-10.10224086661494
 20
6.825034411705609
 30
0.0
 10
-10.29693632474517
 20
7.150318645817914
 30
0.0
 10
-10.43333238036735
 20
7.418666885332137
 30
0.0
 10
-10.5252392836031
 20
7.622194750873182
 30
0.0
 10
-10.52745122466638
 20
7.627107624274763
 30
0.0
  0
LINE
  5
95
330
1F
100
AcDbEntity
  8
0
  6
Continuous
 62
     7
370
    25
100
AcDbLine
 10
-9.4682324906
 20
6.1243590202
 30
0.0
 11
-9.026311461
 21
5.8385102045
 31
0.0
  0
ARC
  5
96
330
1F
100
AcDbEntity
  8
0
  6
Continuous
 62
     7
370
    25
100
AcDbCircle
 10
0.0
 20
0.0
 30
0.0
 40
10.75
100
AcDbArc
 50
147.1039047256
 51
152.8960952744
  0
LINE
  5
97
330
1F
100
AcDbEntity
  8
0
  6
Continuous
 62
     7
370
    25
100
AcDbLine
 10
-10.0379667387
 20
5.1375503557
 30
0.0
 11
-9.5694538879
 21
4.8977599255
 31
0.0
  0
SPLINE
  5
98
330
1F
100
AcDbEntity
  8
0
  6
Continuous
 62
     7
370
    25
100
AcDbSpline
210
0.0
220
0.0
230
1.0
 70
     8
 71
     4
 72
    15
 73
    10
 74
     0
 42
0.000000001
 43
0.00000001
 40
0.0
 40
0.0
 40
0.0
 40
0.0
 40
0.0
 40
0.0028020339056145
 40
0.005604067811229
 40
0.0106611581043112
 40
0.0157182483973935
 40
0.029959916154659
 40
0.030312013071703
 40
0.030312013071703
 40
0.030312013071703
 40
0.030312013071703
 40
0.030312013071703
 10
-10.03796673868228
 20
5.137550355731283
 30
0.0
 10
-10.07711232788279
 20
5.155179793361128
 30
0.0
 10
-10.15683958565119
 20
5.186680140889883
 30
0.0
 10
-10.31361211584258
 20
5.23301717389573
 30
0.0
 10
-10.5491244499004
 20
5.28267991044478
 30
0.0
 10
-10.96177361554754
 20
5.336280019785009
 30
0.0
 10
-11.34082575480447
 20
5.342249115471082
 30
0.0
 10
-11.64142017509571
 20
5.326197444858771
 30
0.0
 10
-11.86363392865016
 20
5.304027225073571
 30
0.0
 10
-11.86899457235314
 20
5.303486385525246
 30
0.0
  0
ARC
  5
99
330
1F
100
AcDbEntity
  8
0
  6
Continuous
 62
     7
370
    25
100
AcDbCircle
 10
0.0
 20
0.0
 30
0.0
 40
13.0
100
AcDbArc
 50
155.9232197182
 51
159.0767802818
  0
SPLINE
  5
9A
330
1F
100
AcDbEntity
  8
0
  6
Continuous
 62
     7
370
    25
100
AcDbSpline
210
0.0
220
0.0
230
1.0
 70
     8
 71
     4
 72
    15
 73
    10
 74
     0
 42
0.000000001
 43
0.00000001
 40
0.0
 40
0.0
 40
0.0
 40
0.0
 40
0.0
 40
0.0028020339056145
 40
0.005604067811229
 40
0.0106611581043112
 40
0.0157182483973935
 40
0.029959916154659
 40
0.0303120130717029
 40
0.0303120130717029
 40
0.0303120130717029
 40
0.0303120130717029
 40
0.0303120130717029
 10
-10.73071104547222
 20
3.465117655022243
 30
0.0
 10
-10.77085705194601
 20
3.480331871702903
 30
0.0
 10
-10.84950684590677
 20
3.514433446969028
 30
0.0
 10
-10.99312699536738
 20
3.592523135912634
 30
0.0
 10
-11.19477622161885
 20
3.723938646591874
 30
0.0
 10
-11.52446424568572
 20
3.977824669085117
 30
0.0
 10
-11.79671537181475
 20
4.241634219139788
 30
0.0
 10
-11.99791747965018
 20
4.465536817253899
 30
0.0
 10
-12.13936961891094
 20
4.638342382015675
 30
0.0
 10
-12.14277773511269
 20
4.642515360841732
 30
0.0
  0
LINE
  5
9B
330
1F
100
AcDbEntity
  8
0
  6
Continuous
 62
     7
370
    25
100
AcDbLine
 10
-10.7307110455
 20
3.465117655
 30
0.0
 11
-10.2298649923
 21
3.3033864805
 31
0.0
  0
ARC
  5
9C
330
1F
100
AcDbEntity
  8
0
  6
Continuous
 62
     7
370
    25
100
AcDbCircle
 10
0.0
 20
0.0
 30
0.0
 40
10.75
100
AcDbArc
 50
162.1039047256
 51
167.8960952744
  0
LINE
  5
9D
330
1F
100
AcDbEntity
  8
0
  6
Continuous
 62
     7
370
    25
100
AcDbLine
 10
-11.0256271936
 20
2.3644756064
 30
0.0
 11
-10.5110162008
 21
2.2541158856
 31
0.0
  0
SPLINE
  5
9E
330
1F
100
AcDbEntity
  8
0
  6
Continuous
 62
     7
370
    25
100
AcDbSpline
210
0.0
220
0.0
230
1.0
 70
     8
 71
     4
 72
    15
 73
    10
 74
     0
 42
0.000000001
 43
0.00000001
 40
0.0
 40
0.0
 40
0.0
 40
0.0
 40
0.0
 40
0.0028020339056145
 40
0.005604067811229
 40
0.0106611581043112
 40
0.0157182483973935
 40
0.029959916154659
 40
0.0303120130717029
 40
0.0303120130717029
 40
0.0303120130717029
 40
0.0303120130717029
 40
0.0303120130717029
 10
-11.02562719356035
 20
2.364475606384818
 30
0.0
 10
-11.06800176336748
 20
2.371372711477585
 30
0.0
 10
-11.15316527057297
 20
2.381164777968432
 30
0.0
 10
-11.31658881297298
 20
2.385347198299946
 30
0.0
 10
-11.55692992089985
 20
2.372362640726152
 30
0.0
 10
-11.96939113631188
 20
2.317334907614653
 30
0.0
 10
-12.33707230277587
 20
2.224994698570875
 30
0.0
 10
-12.62326973851339
 20
2.131690414548434
 30
0.0
 10
-12.83217366691374
 20
2.052762475179797
 30
0.0
 10
-12.83721167153653
 20
2.05085262760785
 30
0.0
  0
ARC
  5
9F
330
1F
100
AcDbEntity
  8
0
  6
Continuous
 62
     7
370
    25
100
AcDbCircle
 10
0.0
 20
0.0
 30
0.0
 40
13.0
100
AcDbArc
 50
170.9232197182
 51
174.0767802818
  0
SPLINE
  5
A0
330
1F
100
AcDbEntity
  8
0
  6
Continuous
 62
     7
370
    25
100
AcDbSpline
210
0.0
220
0.0
230
1.0
 70
     8
 71
     4
 72
    15
 73
    10
 74
     0
 42
0.000000001
 43
0.00000001
 40
0.0
 40
0.0
 40
0.0
 40
0.0
 40
0.0
 40
0.0028020339056145
 40
0.005604067811229
 40
0.0106611581043112
 40
0.0157182483973935
 40
0.029959916154659
 40
0.0303120130717029
 40
0.0303120130717029
 40
0.0303120130717029
 40
0.0303120130717029
 40
0.0303120130717029
 10
-11.26190937590773
 20
0.5697342480560011
 30
0.0
 10
-11.30462516941641
 20
0.5740395018143801
 30
0.0
 10
-11.38942117378229
 20
0.5866230295106383
 30
0.0
 10
-11.54835868404652
 20
0.624880246887271
 30
0.0
 10
-11.77714971651968
 20
0.6996272224432485
 30
0.0
 10
-12.16131443149067
 20
0.8595327489325524
 30
0.0
 10
-12.49256776128905
 20
1.043889430059258
 30
0.0
 10
-12.74486433019096
 20
1.208087794728318
 30
0.0
 10
-12.92622197594681
 20
1.338394645047007
 30
0.0
 10
-12.93059400980006
 20
1.341543347686718
 30
0.0
  0
LINE
  5
A1
330
1F
100
AcDbEntity
  8
0
  6
Continuous
 62
     7
370
    25
100
AcDbLine
 10
-11.2619093759
 20
0.5697342481
 30
0.0
 11
-10.73627013
 21
0.5431424269
 31
0.0
  0
ARC
  5
A2
330
1F
100
AcDbEntity
  8
0
  6
Continuous
 62
     7
370
    25
100
AcDbCircle
 10
0.0
 20
0.0
 30
0.0
 40
10.75
100
AcDbArc
 50
177.1039047256
 51
182.8960952744
  0
LINE
  5
A3
330
1F
100
AcDbEntity
  8
0
  6
Continuous
 62
     7
370
    25
100
AcDbLine
 10
-11.2619093759
 20
-0.5697342481
 30
0.0
 11
-10.73627013
 21
-0.5431424269
 31
0.0
  0
SPLINE
  5
A4
330
1F
100
AcDbEntity
  8
0
  6
Continuous
 62
     7
370
    25
100
AcDbSpline
210
0.0
220
0.0
230
1.0
 70
     8
 71
     4
 72
    15
 73
    10
 74
     0
 42
0.000000001
 43
0.00000001
 40
0.0
 40
0.0
 40
0.0
 40
0.0
 40
0.0
 40
0.0028020339056145
 40
0.005604067811229
 40
0.0106611581043112
 40
0.0157182483973935
 40
0.029959916154659
 40
0.0303120130717029
 40
0.0303120130717029
 40
0.0303120130717029
 40
0.0303120130717029
 40
0.0303120130717029
 10
-11.26190937590772
 20
-0.5697342480560799
 30
0.0
 10
-11.3046251694164
 20
-0.5740395018144591
 30
0.0
 10
-11.38942117378228
 20
-0.5866230295107179
 30
0.0
 10
-11.54835868404651
 20
-0.6248802468873516
 30
0.0
 10
-11.77714971651968
 20
-0.6996272224433306
 30
0.0
 10
-12.16131443149066
 20
-0.8595327489326373
 30
0.0
 10
-12.49256776128904
 20
-1.043889430059346
 30
0.0
 10
-12.74486433019096
 20
-1.208087794728407
 30
0.0
 10
-12.9262219759468
 20
-1.338394645047097
 30
0.0
 10
-12.93059400980006
 20
-1.341543347686809
 30
0.0
  0
ARC
  5
A5
330
1F
100
AcDbEntity
  8
0
  6
Continuous
 62
     7
370
    25
100
AcDbCircle
 10
0.0
 20
0.0
 30
0.0
 40
13.0
100
AcDbArc
 50
185.9232197182
 51
189.0767802818
  0
SPLINE
  5
A6
330
1F
100
AcDbEntity
  8
0
  6
Continuous
 62
     7
370
    25
100
AcDbSpline
210
0.0
220
0.0
230
1.0
 70
     8
 71
     4
 72
    15
 73
    10
 74
     0
 42
0.000000001
 43
0.00000001
 40
0.0
 40
0.0
 40
0.0
 40
0.0
 40
0.0
 40
0.0028020339056145
 40
0.005604067811229
 40
0.0106611581043112
 40
0.0157182483973935
 40
0.029959916154659
 40
0.0303120130717029
 40
0.0303120130717029
 40
0.0303120130717029
 40
0.0303120130717029
 40
0.0303120130717029
 10
-11.02562719356033
 20
-2.364475606384896
 30
0.0
 10
-11.06800176336747
 20
-2.371372711477663
 30
0.0
 10
-11.15316527057296
 20
-2.38116477796851
 30
0.0
 10
-11.31658881297296
 20
-2.385347198300026
 30
0.0
 10
-11.55692992089983
 20
-2.372362640726233
 30
0.0
 10
-11.96939113631186
 20
-2.317334907614737
 30
0.0
 10
-12.33707230277585
 20
-2.224994698570961
 30
0.0
 10
-12.62326973851338
 20
-2.131690414548522
 30
0.0
 10
-12.83217366691373
 20
-2.052762475179886
 30
0.0
 10
-12.83721167153652
 20
-2.050852627607939
 30
0.0
  0
LINE
  5
A7
330
1F
100
AcDbEntity
  8
0
  6
Continuous
 62
     7
370
    25
100
AcDbLine
 10
-11.0256271936
 20
-2.3644756064
 30
0.0
 11
-10.5110162008
 21
-2.2541158856
 31
0.0
  0
ARC
  5
A8
330
1F
100
AcDbEntity
  8
0
  6
Continuous
 62
     7
370
    25
100
AcDbCircle
 10
0.0
 20
0.0
 30
0.0
 40
10.75
100
AcDbArc
 50
192.1039047256
 51
197.8960952744
  0
LINE
  5
A9
330
1F
100
AcDbEntity
  8
0
  6
Continuous
 62
     7
370
    25
100
AcDbLine
 10
-10.7307110455
 20
-3.465117655
 30
0.0
 11
-10.2298649923
 21
-3.3033864805
 31
0.0
  0
SPLINE
  5
AA
330
1F
100
AcDbEntity
  8
0
  6
Continuous
 62
     7
370
    25
100
AcDbSpline
210
0.0
220
0.0
230
1.0
 70
     8
 71
     4
 72
    15
 73
    10
 74
     0
 42
0.000000001
 43
0.00000001
 40
0.0
 40
0.0
 40
0.0
 40
0.0
 40
0.0
 40
0.0028020339056145
 40
0.005604067811229
 40
0.0106611581043112
 40
0.0157182483973935
 40
0.029959916154659
 40
0.0303120130717029
 40
0.0303120130717029
 40
0.0303120130717029
 40
0.0303120130717029
 40
0.0303120130717029
 10
-10.73071104547219
 20
-3.465117655022319
 30
0.0
 10
-10.77085705194599
 20
-3.480331871702979
 30
0.0
 10
-10.84950684590675
 20
-3.514433446969105
 30
0.0
 10
-10.99312699536735
 20
-3.592523135912711
 30
0.0
 10
-11.19477622161882
 20
-3.723938646591953
 30
0.0
 10
-11.5244642456857
 20
-3.977824669085197
 30
0.0
 10
-11.79671537181472
 20
-4.24163421913987
 30
0.0
 10
-11.99791747965015
 20
-4.465536817253983
 30
0.0
 10
-12.13936961891091
 20
-4.638342382015758
 30
0.0
 10
-12.14277773511265
 20
-4.642515360841816
 30
0.0
  0
ARC
  5
AB
330
1F
100
AcDbEntity
  8
0
  6
Continuous
 62
     7
370
    25
100
AcDbCircle
 10
0.0
 20
0.0
 30
0.0
 40
13.0
100
AcDbArc
 50
200.9232197182
 51
204.0767802818
  0
SPLINE
  5
AC
330
1F
100
AcDbEntity
  8
0
  6
Continuous
 62
     7
370
    25
100
AcDbSpline
210
0.0
220
0.0
230
1.0
 70
     8
 71
     4
 72
    15
 73
    10
 74
     0
 42
0.000000001
 43
0.00000001
 40
0.0
 40
0.0
 40
0.0
 40
0.0
 40
0.0
 40
0.0028020339056145
 40
0.005604067811229
 40
0.0106611581043112
 40
0.0157182483973935
 40
0.029959916154659
 40
0.0303120130717029
 40
0.0303120130717029
 40
0.0303120130717029
 40
0.0303120130717029
 40
0.0303120130717029
 10
-10.03796673868224
 20
-5.137550355731354
 30
0.0
 10
-10.07711232788276
 20
-5.1551797933612
 30
0.0
 10
-10.15683958565116
 20
-5.186680140889954
 30
0.0
 10
-10.31361211584255
 20
-5.233017173895804
 30
0.0
 10
-10.54912444990036
 20
-5.282679910444854
 30
0.0
 10
-10.9617736155475
 20
-5.336280019785086
 30
0.0
 10
-11.34082575480443
 20
-5.342249115471161
 30
0.0
 10
-11.64142017509567
 20
-5.326197444858852
 30
0.0
 10
-11.86363392865012
 20
-5.304027225073654
 30
0.0
 10
-11.8689945723531
 20
-5.303486385525329
 30
0.0
  0
LINE
  5
AD
330
1F
100
AcDbEntity
  8
0
  6
Continuous
 62
     7
370
    25
100
AcDbLine
 10
-10.0379667387
 20
-5.1375503557
 30
0.0
 11
-9.5694538879
 21
-4.8977599255
 31
0.0
  0
ARC
  5
AE
330
1F
100
AcDbEntity
  8
0
  6
Continuous
 62
     7
370
    25
100
AcDbCircle
 10
0.0
 20
0.0
 30
0.0
 40
10.75
100
AcDbArc
 50
207.1039047256
 51
212.8960952744
  0
LINE
  5
AF
330
1F
100
AcDbEntity
  8
0
  6
Continuous
 62
     7
370
    25
100
AcDbLine
 10
-9.4682324906
 20
-6.1243590202
 30
0.0
 11
-9.026311461
 21
-5.8385102045
 31
0.0
  0
SPLINE
  5
B0
330
1F
100
AcDbEntity
  8
0
  6
Continuous
 62
     7
370
    25
100
AcDbSpline
210
0.0
220
0.0
230
1.0
 70
     8
 71
     4
 72
    15
 73
    10
 74
     0
 42
0.000000001
 43
0.00000001
 40
0.0
 40
0.0
 40
0.0
 40
0.0
 40
0.0
 40
0.0028020339056145
 40
0.005604067811229
 40
0.0106611581043112
 40
0.0157182483973935
 40
0.029959916154659
 40
0.030312013071703
 40
0.030312013071703
 40
0.030312013071703
 40
0.030312013071703
 40
0.030312013071703
 10
-9.468232490626194
 20
-6.124359020176462
 30
0.0
 10
-9.503072826068333
 20
-6.149445376055299
 30
0.0
 10
-9.57021655614047
 20
-6.202741032892424
 30
0.0
 10
-9.688731868955228
 20
-6.315341510150807
 30
0.0
 10
-9.849497227457068
 20
-6.494469806074921
 30
0.0
 10
-10.1022408666149
 20
-6.825034411705681
 30
0.0
 10
-10.29693632474512
 20
-7.150318645817987
 30
0.0
 10
-10.4333323803673
 20
-7.418666885332211
 30
0.0
 10
-10.52523928360306
 20
-7.622194750873255
 30
0.0
 10
-10.52745122466633
 20
-7.627107624274838
 30
0.0
  0
ARC
  5
B1
330
1F
100
AcDbEntity
  8
0
  6
Continuous
 62
     7
370
    25
100
AcDbCircle
 10
0.0
 20
0.0
 30
0.0
 40
13.0
100
AcDbArc
 50
215.9232197182
 51
219.0767802818
  0
SPLINE
  5
B2
330
1F
100
AcDbEntity
  8
0
  6
Continuous
 62
     7
370
    25
100
AcDbSpline
210
0.0
220
0.0
230
1.0
 70
     8
 71
     4
 72
    15
 73
    10
 74
     0
 42
0.000000001
 43
0.00000001
 40
0.0
 40
0.0
 40
0.0
 40
0.0
 40
0.0
 40
0.0028020339056145
 40
0.005604067811229
 40
0.0106611581043112
 40
0.0157182483973935
 40
0.029959916154659
 40
0.0303120130717029
 40
0.0303120130717029
 40
0.0303120130717029
 40
0.0303120130717029
 40
0.0303120130717029
 10
-8.366235439087317
 20
-7.56050953853811
 30
0.0
 10
-8.399484340468348
 20
-7.587669891664584
 30
0.0
 10
-8.468342067938258
 20
-7.638731823603949
 30
0.0
 10
-8.607779797067348
 20
-7.724065677060349
 30
0.0
 10
-8.822413580892608
 20
-7.832991274307977
 30
0.0
 10
-9.207129338070983
 20
-7.99156646722677
 30
0.0
 10
-9.571720673243782
 20
-8.09543808363609
 30
0.0
 10
-9.866227065101656
 20
-8.157732921259498
 30
0.0
 10
-10.08660714373105
 20
-8.19383128489808
 30
0.0
 10
-10.09192510750474
 20
-8.194696310694813
 30
0.0
  0
LINE
  5
B3
330
1F
100
AcDbEntity
  8
0
  6
Continuous
 62
     7
370
    25
100
AcDbLine
 10
-8.3662354391
 20
-7.5605095385
 30
0.0
 11
-7.9757491067
 21
-7.2076297204
 31
0.0
  0
ARC
  5
B4
330
1F
100
AcDbEntity
  8
0
  6
Continuous
 62
     7
370
    25
100
AcDbCircle
 10
0.0
 20
0.0
 30
0.0
 40
10.75
100
AcDbArc
 50
222.1039047256
 51
227.8960952744
  0
LINE
  5
B5
330
1F
100
AcDbEntity
  8
0
  6
Continuous
 62
     7
370
    25
100
AcDbLine
 10
-7.5605095385
 20
-8.3662354391
 30
0.0
 11
-7.2076297204
 21
-7.9757491067
 31
0.0
  0
SPLINE
  5
B6
330
1F
100
AcDbEntity
  8
0
  6
Continuous
 62
     7
370
    25
100
AcDbSpline
210
0.0
220
0.0
230
1.0
 70
     8
 71
     4
 72
    15
 73
    10
 74
     0
 42
0.000000001
 43
0.00000001
 40
0.0
 40
0.0
 40
0.0
 40
0.0
 40
0.0
 40
0.0028020339056145
 40
0.005604067811229
 40
0.0106611581043112
 40
0.0157182483973935
 40
0.029959916154659
 40
0.0303120130717029
 40
0.0303120130717029
 40
0.0303120130717029
 40
0.0303120130717029
 40
0.0303120130717029
 10
-7.560509538538022
 20
-8.366235439087395
 30
0.0
 10
-7.587669891664497
 20
-8.399484340468426
 30
0.0
 10
-7.63873182360386
 20
-8.468342067938337
 30
0.0
 10
-7.724065677060259
 20
-8.607779797067428
 30
0.0
 10
-7.832991274307885
 20
-8.82241358089269
 30
0.0
 10
-7.991566467226672
 20
-9.207129338071066
 30
0.0
 10
-8.095438083635987
 20
-9.571720673243865
 30
0.0
 10
-8.157732921259393
 20
-9.866227065101741
 30
0.0
 10
-8.193831284897971
 20
-10.08660714373113
 30
0.0
 10
-8.194696310694706
 20
-10.09192510750483
 30
0.0
  0
ARC
  5
B7
330
1F
100
AcDbEntity
  8
0
  6
Continuous
 62
     7
370
    25
100
AcDbCircle
 10
0.0
 20
0.0
 30
0.0
 40
13.0
100
AcDbArc
 50
230.9232197182
 51
234.0767802818
  0
SPLINE
  5
B8
330
1F
100
AcDbEntity
  8
0
  6
Continuous
 62
     7
370
    25
100
AcDbSpline
210
0.0
220
0.0
230
1.0
 70
     8
 71
     4
 72
    15
 73
    10
 74
     0
 42
0.000000001
 43
0.00000001
 40
0.0
 40
0.0
 40
0.0
 40
0.0
 40
0.0
 40
0.0028020339056145
 40
0.005604067811229
 40
0.0106611581043112
 40
0.0157182483973935
 40
0.029959916154659
 40
0.030312013071703
 40
0.030312013071703
 40
0.030312013071703
 40
0.030312013071703
 40
0.030312013071703
 10
-6.124359020176363
 20
-9.468232490626256
 30
0.0
 10
-6.149445376055198
 20
-9.503072826068395
 30
0.0
 10
-6.202741032892322
 20
-9.570216556140535
 30
0.0
 10
-6.315341510150705
 20
-9.688731868955294
 30
0.0
 10
-6.494469806074816
 20
-9.849497227457134
 30
0.0
 10
-6.825034411705573
 20
-10.10224086661497
 30
0.0
 10
-7.150318645817878
 20
-10.2969363247452
 30
0.0
 10
-7.4186668853321
 20
-10.43333238036738
 30
0.0
 10
-7.622194750873144
 20
-10.52523928360313
 30
0.0
 10
-7.627107624274725
 20
-10.5274512246664
 30
0.0
  0
LINE
  5
B9
330
1F
100
AcDbEntity
  8
0
  6
Continuous
 62
     7
370
    25
100
AcDbLine
 10
-6.1243590202
 20
-9.4682324906
 30
0.0
 11
-5.8385102045
 21
-9.026311461
 31
0.0
  0
ARC
  5
BA
330
1F
100
AcDbEntity
  8
0
  6
Continuous
 62
     7
370
    25
100
AcDbCircle
 10
0.0
 20
0.0
 30
0.0
 40
10.75
100
AcDbArc
 50
237.1039047256
 51
242.8960952744
  0
LINE
  5
BB
330
1F
100
AcDbEntity
  8
0
  6
Continuous
 62
     7
370
    25
100
AcDbLine
 10
-5.1375503557
 20
-10.0379667387
 30
0.0
 11
-4.8977599255
 21
-9.5694538879
 31
0.0
  0
SPLINE
  5
BC
330
1F
100
AcDbEntity
  8
0
  6
Continuous
 62
     7
370
    25
100
AcDbSpline
210
0.0
220
0.0
230
1.0
 70
     8
 71
     4
 72
    15
 73
    10
 74
     0
 42
0.000000001
 43
0.00000001
 40
0.0
 40
0.0
 40
0.0
 40
0.0
 40
0.0
 40
0.0028020339056145
 40
0.005604067811229
 40
0.0106611581043112
 40
0.0157182483973935
 40
0.029959916154659
 40
0.0303120130717029
 40
0.0303120130717029
 40
0.0303120130717029
 40
0.0303120130717029
 40
0.0303120130717029
 10
-5.137550355731247
 20
-10.03796673868229
 30
0.0
 10
-5.155179793361093
 20
-10.07711232788281
 30
0.0
 10
-5.186680140889847
 20
-10.15683958565121
 30
0.0
 10
-5.233017173895695
 20
-10.3136121158426
 30
0.0
 10
-5.282679910444742
 20
-10.54912444990042
 30
0.0
 10
-5.33628001978497
 20
-10.96177361554755
 30
0.0
 10
-5.342249115471043
 20
-11.34082575480449
 30
0.0
 10
-5.326197444858731
 20
-11.64142017509573
 30
0.0
 10
-5.304027225073531
 20
-11.86363392865017
 30
0.0
 10
-5.303486385525206
 20
-11.86899457235316
 30
0.0
  0
ARC
  5
BD
330
1F
100
AcDbEntity
  8
0
  6
Continuous
 62
     7
370
    25
100
AcDbCircle
 10
0.0
 20
0.0
 30
0.0
 40
13.0
100
AcDbArc
 50
245.9232197182
 51
249.0767802818
  0
SPLINE
  5
BE
330
1F
100
AcDbEntity
  8
0
  6
Continuous
 62
     7
370
    25
100
AcDbSpline
210
0.0
220
0.0
230
1.0
 70
     8
 71
     4
 72
    15
 73
    10
 74
     0
 42
0.000000001
 43
0.00000001
 40
0.0
 40
0.0
 40
0.0
 40
0.0
 40
0.0
 40
0.0028020339056145
 40
0.005604067811229
 40
0.0106611581043112
 40
0.0157182483973935
 40
0.029959916154659
 40
0.030312013071703
 40
0.030312013071703
 40
0.030312013071703
 40
0.030312013071703
 40
0.030312013071703
 10
-3.465117655022206
 20
-10.73071104547223
 30
0.0
 10
-3.480331871702866
 20
-10.77085705194603
 30
0.0
 10
-3.514433446968991
 20
-10.84950684590678
 30
0.0
 10
-3.592523135912595
 20
-10.99312699536739
 30
0.0
 10
-3.723938646591835
 20
-11.19477622161886
 30
0.0
 10
-3.977824669085076
 20
-11.52446424568574
 30
0.0
 10
-4.241634219139748
 20
-11.79671537181476
 30
0.0
 10
-4.465536817253858
 20
-11.9979174796502
 30
0.0
 10
-4.638342382015632
 20
-12.13936961891095
 30
0.0
 10
-4.642515360841689
 20
-12.1427777351127
 30
0.0
  0
LINE
  5
BF
330
1F
100
AcDbEntity
  8
0
  6
Continuous
 62
     7
370
    25
100
AcDbLine
 10
-3.465117655
 20
-10.7307110455
 30
0.0
 11
-3.3033864805
 21
-10.2298649923
 31
0.0
  0
ARC
  5
C0
330
1F
100
AcDbEntity
  8
0
  6
Continuous
 62
     7
370
    25
100
AcDbCircle
 10
0.0
 20
0.0
 30
0.0
 40
10.75
100
AcDbArc
 50
252.1039047256
 51
257.8960952744
  0
LINE
  5
C1
330
1F
100
AcDbEntity
  8
0
  6
Continuous
 62
     7
370
    25
100
AcDbLine
 10
-2.3644756064
 20
-11.0256271936
 30
0.0
 11
-2.2541158856
 21
-10.5110162008
 31
0.0
  0
SPLINE
  5
C2
330
1F
100
AcDbEntity
  8
0
  6
Continuous
 62
     7
370
    25
100
AcDbSpline
210
0.0
220
0.0
230
1.0
 70
     8
 71
     4
 72
    15
 73
    10
 74
     0
 42
0.000000001
 43
0.00000001
 40
0.0
 40
0.0
 40
0.0
 40
0.0
 40
0.0
 40
0.0028020339056145
 40
0.005604067811229
 40
0.0106611581043112
 40
0.0157182483973935
 40
0.029959916154659
 40
0.0303120130717029
 40
0.0303120130717029
 40
0.0303120130717029
 40
0.0303120130717029
 40
0.0303120130717029
 10
-2.36447560638478
 20
-11.02562719356036
 30
0.0
 10
-2.371372711477547
 20
-11.06800176336749
 30
0.0
 10
-2.381164777968392
 20
-11.15316527057298
 30
0.0
 10
-2.385347198299907
 20
-11.31658881297298
 30
0.0
 10
-2.372362640726112
 20
-11.55692992089985
 30
0.0
 10
-2.317334907614611
 20
-11.96939113631189
 30
0.0
 10
-2.224994698570832
 20
-12.33707230277587
 30
0.0
 10
-2.131690414548389
 20
-12.62326973851339
 30
0.0
 10
-2.052762475179751
 20
-12.83217366691375
 30
0.0
 10
-2.050852627607805
 20
-12.83721167153654
 30
0.0
  0
ARC
  5
C3
330
1F
100
AcDbEntity
  8
0
  6
Continuous
 62
     7
370
    25
100
AcDbCircle
 10
0.0
 20
0.0
 30
0.0
 40
13.0
100
AcDbArc
 50
260.9232197182
 51
264.0767802818
  0
SPLINE
  5
C4
330
1F
100
AcDbEntity
  8
0
  6
Continuous
 62
     7
370
    25
100
AcDbSpline
210
0.0
220
0.0
230
1.0
 70
     8
 71
     4
 72
    15
 73
    10
 74
     0
 42
0.000000001
 43
0.00000001
 40
0.0
 40
0.0
 40
0.0
 40
0.0
 40
0.0
 40
0.0028020339056145
 40
0.005604067811229
 40
0.0106611581043112
 40
0.0157182483973935
 40
0.029959916154659
 40
0.0303120130717029
 40
0.0303120130717029
 40
0.0303120130717029
 40
0.0303120130717029
 40
0.0303120130717029
 10
-0.5697342480560404
 20
-11.26190937590772
 30
0.0
 10
-0.5740395018144195
 20
-11.3046251694164
 30
0.0
 10
-0.586623029510678
 20
-11.38942117378228
 30
0.0
 10
-0.6248802468873113
 20
-11.54835868404652
 30
0.0
 10
-0.6996272224432896
 20
-11.77714971651968
 30
0.0
 10
-0.8595327489325949
 20
-12.16131443149067
 30
0.0
 10
-1.043889430059302
 20
-12.49256776128905
 30
0.0
 10
-1.208087794728362
 20
-12.74486433019096
 30
0.0
 10
-1.338394645047051
 20
-12.9262219759468
 30
0.0
 10
-1.341543347686763
 20
-12.93059400980006
 30
0.0
  0
LINE
  5
C5
330
1F
100
AcDbEntity
  8
0
  6
Continuous
 62
     7
370
    25
100
AcDbLine
 10
-0.5697342481
 20
-11.2619093759
 30
0.0
 11
-0.5431424269
 21
-10.73627013
 31
0.0
  0
ARC
  5
C6
330
1F
100
AcDbEntity
  8
0
  6
Continuous
 62
     7
370
    25
100
AcDbCircle
 10
0.0
 20
0.0
 30
0.0
 40
10.75
100
AcDbArc
 50
267.1039047256
 51
272.8960952744
  0
LINE
  5
C7
330
1F
100
AcDbEntity
  8
0
  6
Continuous
 62
     7
370
    25
100
AcDbLine
 10
0.5697342481
 20
-11.2619093759
 30
0.0
 11
0.5431424269
 21
-10.73627013
 31
0.0
  0
SPLINE
  5
C8
330
1F
100
AcDbEntity
  8
0
  6
Continuous
 62
     7
370
    25
100
AcDbSpline
210
0.0
220
0.0
230
1.0
 70
     8
 71
     4
 72
    15
 73
    10
 74
     0
 42
0.000000001
 43
0.00000001
 40
0.0
 40
0.0
 40
0.0
 40
0.0
 40
0.0
 40
0.0028020339056145
 40
0.005604067811229
 40
0.0106611581043112
 40
0.0157182483973935
 40
0.029959916154659
 40
0.0303120130717029
 40
0.0303120130717029
 40
0.0303120130717029
 40
0.0303120130717029
 40
0.0303120130717029
 10
0.5697342480560404
 20
-11.26190937590772
 30
0.0
 10
0.5740395018144195
 20
-11.3046251694164
 30
0.0
 10
0.586623029510678
 20
-11.38942117378228
 30
0.0
 10
0.6248802468873113
 20
-11.54835868404652
 30
0.0
 10
0.6996272224432896
 20
-11.77714971651968
 30
0.0
 10
0.8595327489325949
 20
-12.16131443149067
 30
0.0
 10
1.043889430059302
 20
-12.49256776128905
 30
0.0
 10
1.208087794728362
 20
-12.74486433019096
 30
0.0
 10
1.338394645047051
 20
-12.9262219759468
 30
0.0
 10
1.341543347686763
 20
-12.93059400980006
 30
0.0
  0
ARC
  5
C9
330
1F
100
AcDbEntity
  8
0
  6
Continuous
 62
     7
370
    25
100
AcDbCircle
 10
0.0
 20
0.0
 30
0.0
 40
13.0
100
AcDbArc
 50
275.9232197182
 51
279.0767802818
  0
SPLINE
  5
CA
330
1F
100
AcDbEntity
  8
0
  6
Continuous
 62
     7
370
    25
100
AcDbSpline
210
0.0
220
0.0
230
1.0
 70
     8
 71
     4
 72
    15
 73
    10
 74
     0
 42
0.000000001
 43
0.00000001
 40
0.0
 40
0.0
 40
0.0
 40
0.0
 40
0.0
 40
0.0028020339056145
 40
0.005604067811229
 40
0.0106611581043112
 40
0.0157182483973935
 40
0.029959916154659
 40
0.030312013071703
 40
0.030312013071703
 40
0.030312013071703
 40
0.030312013071703
 40
0.030312013071703
 10
2.364475606384934
 20
-11.02562719356032
 30
0.0
 10
2.371372711477702
 20
-11.06800176336746
 30
0.0
 10
2.381164777968548
 20
-11.15316527057294
 30
0.0
 10
2.385347198300065
 20
-11.31658881297295
 30
0.0
 10
2.372362640726273
 20
-11.55692992089982
 30
0.0
 10
2.317334907614778
 20
-11.96939113631185
 30
0.0
 10
2.224994698571004
 20
-12.33707230277584
 30
0.0
 10
2.131690414548565
 20
-12.62326973851336
 30
0.0
 10
2.05276247517993
 20
-12.83217366691372
 30
0.0
 10
2.050852627607984
 20
-12.83721167153651
 30
0.0
  0
LINE
  5
CB
330
1F
100
AcDbEntity
  8
0
  6
Continuous
 62
     7
370
    25
100
AcDbLine
 10
2.3644756064
 20
-11.0256271936
 30
0.0
 11
2.2541158856
 21
-10.5110162008
 31
0.0
  0
ARC
  5
CC
330
1F
100
AcDbEntity
  8
0
  6
Continuous
 62
     7
370
    25
100
AcDbCircle
 10
0.0
 20
0.0
 30
0.0
 40
10.75
100
AcDbArc
 50
282.1039047256
 51
287.8960952744
  0
LINE
  5
CD
330
1F
100
AcDbEntity
  8
0
  6
Continuous
 62
     7
370
    25
100
AcDbLine
 10
3.465117655
 20
-10.7307110455
 30
0.0
 11
3.3033864805
 21
-10.2298649923
 31
0.0
  0
SPLINE
  5
CE
330
1F
100
AcDbEntity
  8
0
  6
Continuous
 62
     7
370
    25
100
AcDbSpline
210
0.0
220
0.0
230
1.0
 70
     8
 71
     4
 72
    15
 73
    10
 74
     0
 42
0.000000001
 43
0.00000001
 40
0.0
 40
0.0
 40
0.0
 40
0.0
 40
0.0
 40
0.0028020339056145
 40
0.005604067811229
 40
0.0106611581043112
 40
0.0157182483973935
 40
0.029959916154659
 40
0.0303120130717029
 40
0.0303120130717029
 40
0.0303120130717029
 40
0.0303120130717029
 40
0.0303120130717029
 10
3.465117655022356
 20
-10.73071104547218
 30
0.0
 10
3.480331871703016
 20
-10.77085705194598
 30
0.0
 10
3.514433446969142
 20
-10.84950684590673
 30
0.0
 10
3.592523135912749
 20
-10.99312699536734
 30
0.0
 10
3.723938646591991
 20
-11.19477622161881
 30
0.0
 10
3.977824669085237
 20
-11.52446424568568
 30
0.0
 10
4.241634219139911
 20
-11.7967153718147
 30
0.0
 10
4.465536817254024
 20
-11.99791747965014
 30
0.0
 10
4.6383423820158
 20
-12.13936961891089
 30
0.0
 10
4.642515360841858
 20
-12.14277773511264
 30
0.0
  0
ARC
  5
CF
330
1F
100
AcDbEntity
  8
0
  6
Continuous
 62
     7
370
    25
100
AcDbCircle
 10
0.0
 20
0.0
 30
0.0
 40
13.0
100
AcDbArc
 50
290.9232197182
 51
294.0767802818
  0
SPLINE
  5
D0
330
1F
100
AcDbEntity
  8
0
  6
Continuous
 62
     7
370
    25
100
AcDbSpline
210
0.0
220
0.0
230
1.0
 70
     8
 71
     4
 72
    15
 73
    10
 74
     0
 42
0.000000001
 43
0.00000001
 40
0.0
 40
0.0
 40
0.0
 40
0.0
 40
0.0
 40
0.0028020339056145
 40
0.005604067811229
 40
0.0106611581043112
 40
0.0157182483973935
 40
0.029959916154659
 40
0.030312013071703
 40
0.030312013071703
 40
0.030312013071703
 40
0.030312013071703
 40
0.030312013071703
 10
5.137550355731388
 20
-10.03796673868222
 30
0.0
 10
5.155179793361235
 20
-10.07711232788274
 30
0.0
 10
5.186680140889989
 20
-10.15683958565113
 30
0.0
 10
5.233017173895839
 20
-10.31361211584253
 30
0.0
 10
5.28267991044489
 20
-10.54912444990034
 30
0.0
 10
5.336280019785124
 20
-10.96177361554748
 30
0.0
 10
5.342249115471201
 20
-11.34082575480442
 30
0.0
 10
5.326197444858892
 20
-11.64142017509565
 30
0.0
 10
5.304027225073695
 20
-11.8636339286501
 30
0.0
 10
5.30348638552537
 20
-11.86899457235308
 30
0.0
  0
LINE
  5
D1
330
1F
100
AcDbEntity
  8
0
  6
Continuous
 62
     7
370
    25
100
AcDbLine
 10
5.1375503557
 20
-10.0379667387
 30
0.0
 11
4.8977599255
 21
-9.5694538879
 31
0.0
  0
ARC
  5
D2
330
1F
100
AcDbEntity
  8
0
  6
Continuous
 62
     7
370
    25
100
AcDbCircle
 10
0.0
 20
0.0
 30
0.0
 40
10.75
100
AcDbArc
 50
297.1039047256
 51
302.8960952744
  0
LINE
  5
D3
330
1F
100
AcDbEntity
  8
0
  6
Continuous
 62
     7
370
    25
100
AcDbLine
 10
6.1243590202
 20
-9.4682324906
 30
0.0
 11
5.8385102045
 21
-9.026311461
 31
0.0
  0
SPLINE
  5
D4
330
1F
100
AcDbEntity
  8
0
  6
Continuous
 62
     7
370
    25
100
AcDbSpline
210
0.0
220
0.0
230
1.0
 70
     8
 71
     4
 72
    15
 73
    10
 74
     0
 42
0.000000001
 43
0.00000001
 40
0.0
 40
0.0
 40
0.0
 40
0.0
 40
0.0
 40
0.0028020339056145
 40
0.005604067811229
 40
0.0106611581043112
 40
0.0157182483973935
 40
0.029959916154659
 40
0.0303120130717029
 40
0.0303120130717029
 40
0.0303120130717029
 40
0.0303120130717029
 40
0.0303120130717029
 10
6.124359020176495
 20
-9.468232490626171
 30
0.0
 10
6.149445376055332
 20
-9.50307282606831
 30
0.0
 10
6.202741032892455
 20
-9.570216556140448
 30
0.0
 10
6.315341510150841
 20
-9.688731868955205
 30
0.0
 10
6.494469806074954
 20
-9.849497227457043
 30
0.0
 10
6.825034411705715
 20
-10.10224086661487
 30
0.0
 10
7.150318645818022
 20
-10.2969363247451
 30
0.0
 10
7.418666885332247
 20
-10.43333238036727
 30
0.0
 10
7.622194750873293
 20
-10.52523928360303
 30
0.0
 10
7.627107624274875
 20
-10.5274512246663
 30
0.0
  0
ARC
  5
D5
330
1F
100
AcDbEntity
  8
0
  6
Continuous
 62
     7
370
    25
100
AcDbCircle
 10
0.0
 20
0.0
 30
0.0
 40
13.0
100
AcDbArc
 50
305.9232197182
 51
309.0767802818
  0
SPLINE
  5
D6
330
1F
100
AcDbEntity
  8
0
  6
Continuous
 62
     7
370
    25
100
AcDbSpline
210
0.0
220
0.0
230
1.0
 70
     8
 71
     4
 72
    15
 73
    10
 74
     0
 42
0.000000001
 43
0.00000001
 40
0.0
 40
0.0
 40
0.0
 40
0.0
 40
0.0
 40
0.0028020339056145
 40
0.005604067811229
 40
0.0106611581043112
 40
0.0157182483973935
 40
0.029959916154659
 40
0.030312013071703
 40
0.030312013071703
 40
0.030312013071703
 40
0.030312013071703
 40
0.030312013071703
 10
7.560509538538138
 20
-8.366235439087289
 30
0.0
 10
7.587669891664613
 20
-8.399484340468321
 30
0.0
 10
7.638731823603979
 20
-8.46834206793823
 30
0.0
 10
7.724065677060378
 20
-8.60777979706732
 30
0.0
 10
7.832991274308008
 20
-8.82241358089258
 30
0.0
 10
7.991566467226801
 20
-9.207129338070954
 30
0.0
 10
8.095438083636122
 20
-9.571720673243753
 30
0.0
 10
8.157732921259532
 20
-9.86622706510163
 30
0.0
 10
8.193831284898113
 20
-10.08660714373102
 30
0.0
 10
8.194696310694848
 20
-10.09192510750471
 30
0.0
  0
LINE
  5
D7
330
1F
100
AcDbEntity
  8
0
  6
Continuous
 62
     7
370
    25
100
AcDbLine
 10
7.5605095385
 20
-8.3662354391
 30
0.0
 11
7.2076297204
 21
-7.9757491067
 31
0.0
  0
ARC
  5
D8
330
1F
100
AcDbEntity
  8
0
  6
Continuous
 62
     7
370
    25
100
AcDbCircle
 10
0.0
 20
0.0
 30
0.0
 40
10.75
100
AcDbArc
 50
312.1039047256
 51
317.8960952744
  0
LINE
  5
D9
330
1F
100
AcDbEntity
  8
0
  6
Continuous
 62
     7
370
    25
100
AcDbLine
 10
8.3662354391
 20
-7.5605095385
 30
0.0
 11
7.9757491067
 21
-7.2076297204
 31
0.0
  0
SPLINE
  5
DA
330
1F
100
AcDbEntity
  8
0
  6
Continuous
 62
     7
370
    25
100
AcDbSpline
210
0.0
220
0.0
230
1.0
 70
     8
 71
     4
 72
    15
 73
    10
 74
     0
 42
0.000000001
 43
0.00000001
 40
0.0
 40
0.0
 40
0.0
 40
0.0
 40
0.0
 40
0.0028020339056145
 40
0.005604067811229
 40
0.0106611581043112
 40
0.0157182483973935
 40
0.029959916154659
 40
0.030312013071703
 40
0.030312013071703
 40
0.030312013071703
 40
0.030312013071703
 40
0.030312013071703
 10
8.36623543908742
 20
-7.560509538537993
 30
0.0
 10
8.399484340468453
 20
-7.587669891664467
 30
0.0
 10
8.468342067938366
 20
-7.63873182360383
 30
0.0
 10
8.607779797067453
 20
-7.724065677060228
 30
0.0
 10
8.822413580892716
 20
-7.832991274307854
 30
0.0
 10
9.207129338071093
 20
-7.991566467226641
 30
0.0
 10
9.571720673243894
 20
-8.095438083635957
 30
0.0
 10
9.86622706510177
 20
-8.157732921259361
 30
0.0
 10
10.08660714373116
 20
-8.19383128489794
 30
0.0
 10
10.09192510750486
 20
-8.194696310694672
 30
0.0
  0
ARC
  5
DB
330
1F
100
AcDbEntity
  8
0
  6
Continuous
 62
     7
370
    25
100
AcDbCircle
 10
0.0
 20
0.0
 30
0.0
 40
13.0
100
AcDbArc
 50
320.9232197182
 51
324.0767802818
  0
SPLINE
  5
DC
330
1F
100
AcDbEntity
  8
0
  6
Continuous
 62
     7
370
    25
100
AcDbSpline
210
0.0
220
0.0
230
1.0
 70
     8
 71
     4
 72
    15
 73
    10
 74
     0
 42
0.000000001
 43
0.00000001
 40
0.0
 40
0.0
 40
0.0
 40
0.0
 40
0.0
 40
0.0028020339056145
 40
0.005604067811229
 40
0.0106611581043112
 40
0.0157182483973935
 40
0.029959916154659
 40
0.030312013071703
 40
0.030312013071703
 40
0.030312013071703
 40
0.030312013071703
 40
0.030312013071703
 10
9.468232490626278
 20
-6.124359020176329
 30
0.0
 10
9.503072826068417
 20
-6.149445376055164
 30
0.0
 10
9.570216556140554
 20
-6.202741032892289
 30
0.0
 10
9.688731868955315
 20
-6.315341510150671
 30
0.0
 10
9.849497227457157
 20
-6.494469806074783
 30
0.0
 10
10.10224086661499
 20
-6.825034411705538
 30
0.0
 10
10.29693632474522
 20
-7.150318645817843
 30
0.0
 10
10.4333323803674
 20
-7.418666885332065
 30
0.0
 10
10.52523928360316
 20
-7.622194750873109
 30
0.0
 10
10.52745122466643
 20
-7.62710762427469
 30
0.0
  0
LINE
  5
DD
330
1F
100
AcDbEntity
  8
0
  6
Continuous
 62
     7
370
    25
100
AcDbLine
 10
9.4682324906
 20
-6.1243590202
 30
0.0
 11
9.026311461
 21
-5.8385102045
 31
0.0
  0
ARC
  5
DE
330
1F
100
AcDbEntity
  8
0
  6
Continuous
 62
     7
370
    25
100
AcDbCircle
 10
0.0
 20
0.0
 30
0.0
 40
10.75
100
AcDbArc
 50
327.1039047256
 51
332.8960952744
  0
LINE
  5
DF
330
1F
100
AcDbEntity
  8
0
  6
Continuous
 62
     7
370
    25
100
AcDbLine
 10
10.0379667387
 20
-5.1375503557
 30
0.0
 11
9.5694538879
 21
-4.8977599255
 31
0.0
  0
SPLINE
  5
E0
330
1F
100
AcDbEntity
  8
0
  6
Continuous
 62
     7
370
    25
100
AcDbSpline
210
0.0
220
0.0
230
1.0
 70
     8
 71
     4
 72
    15
 73
    10
 74
     0
 42
0.000000001
 43
0.00000001
 40
0.0
 40
0.0
 40
0.0
 40
0.0
 40
0.0
 40
0.0028020339056145
 40
0.005604067811229
 40
0.0106611581043112
 40
0.0157182483973935
 40
0.029959916154659
 40
0.0303120130717029
 40
0.0303120130717029
 40
0.0303120130717029
 40
0.0303120130717029
 40
0.0303120130717029
 10
10.03796673868231
 20
-5.137550355731213
 30
0.0
 10
10.07711232788283
 20
-5.155179793361058
 30
0.0
 10
10.15683958565123
 20
-5.186680140889812
 30
0.0
 10
10.31361211584261
 20
-5.233017173895659
 30
0.0
 10
10.54912444990043
 20
-5.282679910444706
 30
0.0
 10
10.96177361554757
 20
-5.336280019784932
 30
0.0
 10
11.34082575480451
 20
-5.342249115471003
 30
0.0
 10
11.64142017509575
 20
-5.326197444858689
 30
0.0
 10
11.86363392865019
 20
-5.304027225073487
 30
0.0
 10
11.86899457235317
 20
-5.303486385525162
 30
0.0
  0
ARC
  5
E1
330
1F
100
AcDbEntity
  8
0
  6
Continuous
 62
     7
370
    25
100
AcDbCircle
 10
0.0
 20
0.0
 30
0.0
 40
13.0
100
AcDbArc
 50
335.9232197182
 51
339.0767802818
  0
SPLINE
  5
E2
330
1F
100
AcDbEntity
  8
0
  6
Continuous
 62
     7
370
    25
100
AcDbSpline
210
0.0
220
0.0
230
1.0
 70
     8
 71
     4
 72
    15
 73
    10
 74
     0
 42
0.000000001
 43
0.00000001
 40
0.0
 40
0.0
 40
0.0
 40
0.0
 40
0.0
 40
0.0028020339056145
 40
0.005604067811229
 40
0.0106611581043112
 40
0.0157182483973935
 40
0.029959916154659
 40
0.0303120130717029
 40
0.0303120130717029
 40
0.0303120130717029
 40
0.0303120130717029
 40
0.0303120130717029
 10
10.73071104547224
 20
-3.465117655022169
 30
0.0
 10
10.77085705194604
 20
-3.480331871702828
 30
0.0
 10
10.8495068459068
 20
-3.514433446968953
 30
0.0
 10
10.9931269953674
 20
-3.592523135912557
 30
0.0
 10
11.19477622161887
 20
-3.723938646591795
 30
0.0
 10
11.52446424568575
 20
-3.977824669085036
 30
0.0
 10
11.79671537181478
 20
-4.241634219139706
 30
0.0
 10
11.99791747965021
 20
-4.465536817253816
 30
0.0
 10
12.13936961891097
 20
-4.63834238201559
 30
0.0
 10
12.14277773511272
 20
-4.642515360841648
 30
0.0
  0
LINE
  5
E3
330
1F
100
AcDbEntity
  8
0
  6
Continuous
 62
     7
370
    25
100
AcDbLine
 10
10.7307110455
 20
-3.465117655
 30
0.0
 11
10.2298649923
 21
-3.3033864805
 31
0.0
  0
ARC
  5
E4
330
1F
100
AcDbEntity
  8
0
  6
Continuous
 62
     7
370
    25
100
AcDbCircle
 10
0.0
 20
0.0
 30
0.0
 40
10.75
100
AcDbArc
 50
342.1039047256
 51
347.8960952744
  0
LINE
  5
E5
330
1F
100
AcDbEntity
  8
0
  6
Continuous
 62
     7
370
    25
100
AcDbLine
 10
11.0256271936
 20
-2.3644756064
 30
0.0
 11
10.5110162008
 21
-2.2541158856
 31
0.0
  0
SPLINE
  5
E6
330
1F
100
AcDbEntity
  8
0
  6
Continuous
 62
     7
370
    25
100
AcDbSpline
210
0.0
220
0.0
230
1.0
 70
     8
 71
     4
 72
    15
 73
    10
 74
     0
 42
0.000000001
 43
0.00000001
 40
0.0
 40
0.0
 40
0.0
 40
0.0
 40
0.0
 40
0.0028020339056145
 40
0.005604067811229
 40
0.0106611581043112
 40
0.0157182483973935
 40
0.029959916154659
 40
0.030312013071703
 40
0.030312013071703
 40
0.030312013071703
 40
0.030312013071703
 40
0.030312013071703
 10
11.02562719356037
 20
-2.364475606384742
 30
0.0
 10
11.0680017633675
 20
-2.371372711477508
 30
0.0
 10
11.15316527057299
 20
-2.381164777968353
 30
0.0
 10
11.31658881297299
 20
-2.385347198299868
 30
0.0
 10
11.55692992089986
 20
-2.372362640726072
 30
0.0
 10
11.96939113631189
 20
-2.31733490761457
 30
0.0
 10
12.33707230277588
 20
-2.224994698570788
 30
0.0
 10
12.6232697385134
 20
-2.131690414548345
 30
0.0
 10
12.83217366691376
 20
-2.052762475179705
 30
0.0
 10
12.83721167153655
 20
-2.050852627607759
 30
0.0
  0
ARC
  5
E7
330
1F
100
AcDbEntity
  8
0
  6
Continuous
 62
     7
370
    25
100
AcDbCircle
 10
0.0
 20
0.0
 30
0.0
 40
13.0
100
AcDbArc
 50
350.9232197182
 51
354.0767802818
  0
SPLINE
  5
E8
330
1F
100
AcDbEntity
  8
0
  6
Continuous
 62
     7
370
    25
100
AcDbSpline
210
0.0
220
0.0
230
1.0
 70
     8
 71
     4
 72
    15
 73
    10
 74
     0
 42
0.000000001
 43
0.00000001
 40
0.0
 40
0.0
 40
0.0
 40
0.0
 40
0.0
 40
0.0028020339056145
 40
0.005604067811229
 40
0.0106611581043112
 40
0.0157182483973935
 40
0.029959916154659
 40
0.0303120130717029
 40
0.0303120130717029
 40
0.0303120130717029
 40
0.0303120130717029
 40
0.0303120130717029
 10
11.26190937590773
 20
-0.5697342480559225
 30
0.0
 10
11.30462516941641
 20
-0.5740395018143012
 30
0.0
 10
11.38942117378229
 20
-0.5866230295105588
 30
0.0
 10
11.54835868404652
 20
-0.6248802468871902
 30
0.0
 10
11.77714971651968
 20
-0.6996272224431662
 30
0.0
 10
12.16131443149067
 20
-0.8595327489324674
 30
0.0
 10
12.49256776128906
 20
-1.043889430059171
 30
0.0
 10
12.74486433019097
 20
-1.208087794728229
 30
0.0
 10
12.92622197594682
 20
-1.338394645046917
 30
0.0
 10
12.93059400980007
 20
-1.341543347686628
 30
0.0
  0
LINE
  5
E9
330
1F
100
AcDbEntity
  8
0
  6
Continuous
 62
     7
370
    25
100
AcDbLine
 10
11.2619093759
 20
-0.5697342481
 30
0.0
 11
10.73627013
 21
-0.5431424269
 31
0.0
  0
ARC
  5
EA
330
1F
100
AcDbEntity
  8
0
  6
Continuous
 62
     7
370
    25
100
AcDbCircle
 10
0.0
 20
0.0
 30
0.0
 40
10.75
100
AcDbArc
 50
357.1039047256
 51
2.8960952744
  0
LINE
  5
EB
330
1F
100
AcDbEntity
  8
0
  6
Continuous
 62
     7
370
    25
100
AcDbLine
 10
11.2619093759
 20
0.5697342481
 30
0.0
 11
10.73627013
 21
0.5431424269
 31
0.0
  0
SPLINE
  5
EC
330
1F
100
AcDbEntity
  8
0
  6
Continuous
 62
     7
370
    25
100
AcDbSpline
210
0.0
220
0.0
230
1.0
 70
     8
 71
     4
 72
    15
 73
    10
 74
     0
 42
0.000000001
 43
0.00000001
 40
0.0
 40
0.0
 40
0.0
 40
0.0
 40
0.0
 40
0.0028020339056145
 40
0.005604067811229
 40
0.0106611581043112
 40
0.0157182483973935
 40
0.029959916154659
 40
0.0303120130717029
 40
0.0303120130717029
 40
0.0303120130717029
 40
0.0303120130717029
 40
0.0303120130717029
 10
11.26190937590772
 20
0.5697342480561585
 30
0.0
 10
11.3046251694164
 20
0.574039501814538
 30
0.0
 10
11.38942117378228
 20
0.5866230295107974
 30
0.0
 10
11.54835868404651
 20
0.6248802468874323
 30
0.0
 10
11.77714971651967
 20
0.6996272224434129
 30
0.0
 10
12.16131443149066
 20
0.8595327489327222
 30
0.0
 10
12.49256776128903
 20
1.043889430059433
 30
0.0
 10
12.74486433019095
 20
1.208087794728496
 30
0.0
 10
12.92622197594679
 20
1.338394645047188
 30
0.0
 10
12.93059400980005
 20
1.341543347686899
 30
0.0
  0
ARC
  5
ED
330
1F
100
AcDbEntity
  8
0
  6
Continuous
 62
     7
370
    25
100
AcDbCircle
 10
0.0
 20
0.0
 30
0.0
 40
13.0
100
AcDbArc
 50
5.9232197182
 51
9.0767802818
  0
SPLINE
  5
EE
330
1F
100
AcDbEntity
  8
0
  6
Continuous
 62
     7
370
    25
100
AcDbSpline
210
0.0
220
0.0
230
1.0
 70
     8
 71
     4
 72
    15
 73
    10
 74
     0
 42
0.000000001
 43
0.00000001
 40
0.0
 40
0.0
 40
0.0
 40
0.0
 40
0.0
 40
0.0028020339056145
 40
0.005604067811229
 40
0.0106611581043112
 40
0.0157182483973935
 40
0.029959916154659
 40
0.0303120130717029
 40
0.0303120130717029
 40
0.0303120130717029
 40
0.0303120130717029
 40
0.0303120130717029
 10
11.02562719356031
 20
2.364475606384973
 30
0.0
 10
11.06800176336745
 20
2.37137271147774
 30
0.0
 10
11.15316527057294
 20
2.381164777968587
 30
0.0
 10
11.31658881297294
 20
2.385347198300105
 30
0.0
 10
11.55692992089981
 20
2.372362640726313
 30
0.0
 10
11.96939113631185
 20
2.31733490761482
 30
0.0
 10
12.33707230277584
 20
2.224994698571047
 30
0.0
 10
12.62326973851336
 20
2.13169041454861
 30
0.0
 10
12.83217366691371
 20
2.052762475179975
 30
0.0
 10
12.83721167153651
 20
2.050852627608029
 30
0.0
  0
LINE
  5
EF
330
1F
100
AcDbEntity
  8
0
  6
Continuous
 62
     7
370
    25
100
AcDbLine
 10
11.0256271936
 20
2.3644756064
 30
0.0
 11
10.5110162008
 21
2.2541158856
 31
0.0
  0
ARC
  5
F0
330
1F
100
AcDbEntity
  8
0
  6
Continuous
 62
     7
370
    25
100
AcDbCircle
 10
0.0
 20
0.0
 30
0.0
 40
10.75
100
AcDbArc
 50
12.1039047256
 51
17.8960952744
  0
LINE
  5
F1
330
1F
100
AcDbEntity
  8
0
  6
Continuous
 62
     7
370
    25
100
AcDbLine
 10
10.7307110455
 20
3.465117655
 30
0.0
 11
10.2298649923
 21
3.3033864805
 31
0.0
  0
SPLINE
  5
F2
330
1F
100
AcDbEntity
  8
0
  6
Continuous
 62
     7
370
    25
100
AcDbSpline
210
0.0
220
0.0
230
1.0
 70
     8
 71
     4
 72
    15
 73
    10
 74
     0
 42
0.000000001
 43
0.00000001
 40
0.0
 40
0.0
 40
0.0
 40
0.0
 40
0.0
 40
0.0028020339056145
 40
0.005604067811229
 40
0.0106611581043112
 40
0.0157182483973935
 40
0.029959916154659
 40
0.0303120130717029
 40
0.0303120130717029
 40
0.0303120130717029
 40
0.0303120130717029
 40
0.0303120130717029
 10
10.73071104547217
 20
3.465117655022393
 30
0.0
 10
10.77085705194597
 20
3.480331871703054
 30
0.0
 10
10.84950684590672
 20
3.51443344696918
 30
0.0
 10
10.99312699536733
 20
3.592523135912787
 30
0.0
 10
11.1947762216188
 20
3.723938646592031
 30
0.0
 10
11.52446424568567
 20
3.977824669085277
 30
0.0
 10
11.79671537181469
 20
4.241634219139953
 30
0.0
 10
11.99791747965012
 20
4.465536817254067
 30
0.0
 10
12.13936961891087
 20
4.638342382015844
 30
0.0
 10
12.14277773511262
 20
4.642515360841903
 30
0.0
  0
ARC
  5
F3
330
1F
100
AcDbEntity
  8
0
  6
Continuous
 62
     7
370
    25
100
AcDbCircle
 10
0.0
 20
0.0
 30
0.0
 40
13.0
100
AcDbArc
 50
20.9232197182
 51
24.0767802818
  0
SPLINE
  5
F4
330
1F
100
AcDbEntity
  8
0
  6
Continuous
 62
     7
370
    25
100
AcDbSpline
210
0.0
220
0.0
230
1.0
 70
     8
 71
     4
 72
    15
 73
    10
 74
     0
 42
0.000000001
 43
0.00000001
 40
0.0
 40
0.0
 40
0.0
 40
0.0
 40
0.0
 40
0.0028020339056145
 40
0.005604067811229
 40
0.0106611581043112
 40
0.0157182483973935
 40
0.029959916154659
 40
0.0303120130717029
 40
0.0303120130717029
 40
0.0303120130717029
 40
0.0303120130717029
 40
0.0303120130717029
 10
10.0379667386822
 20
5.137550355731423
 30
0.0
 10
10.07711232788272
 20
5.15517979336127
 30
0.0
 10
10.15683958565112
 20
5.186680140890025
 30
0.0
 10
10.31361211584251
 20
5.233017173895875
 30
0.0
 10
10.54912444990033
 20
5.282679910444926
 30
0.0
 10
10.96177361554746
 20
5.336280019785162
 30
0.0
 10
11.3408257548044
 20
5.34224911547124
 30
0.0
 10
11.64142017509564
 20
5.326197444858933
 30
0.0
 10
11.86363392865008
 20
5.304027225073737
 30
0.0
 10
11.86899457235306
 20
5.303486385525412
 30
0.0
  0
LINE
  5
F5
330
1F
100
AcDbEntity
  8
0
  6
Continuous
 62
     7
370
    25
100
AcDbLine
 10
10.0379667387
 20
5.1375503557
 30
0.0
 11
9.5694538879
 21
4.8977599255
 31
0.0
  0
ARC
  5
F6
330
1F
100
AcDbEntity
  8
0
  6
Continuous
 62
     7
370
    25
100
AcDbCircle
 10
0.0
 20
0.0
 30
0.0
 40
10.75
100
AcDbArc
 50
27.1039047256
 51
32.8960952744
  0
LINE
  5
F7
330
1F
100
AcDbEntity
  8
0
  6
Continuous
 62
     7
370
    25
100
AcDbLine
 10
9.4682324906
 20
6.1243590202
 30
0.0
 11
9.026311461
 21
5.8385102045
 31
0.0
  0
SPLINE
  5
F8
330
1F
100
AcDbEntity
  8
0
  6
Continuous
 62
     7
370
    25
100
AcDbSpline
210
0.0
220
0.0
230
1.0
 70
     8
 71
     4
 72
    15
 73
    10
 74
     0
 42
0.000000001
 43
0.00000001
 40
0.0
 40
0.0
 40
0.0
 40
0.0
 40
0.0
 40
0.0028020339056145
 40
0.005604067811229
 40
0.0106611581043112
 40
0.0157182483973935
 40
0.029959916154659
 40
0.0303120130717029
 40
0.0303120130717029
 40
0.0303120130717029
 40
0.0303120130717029
 40
0.0303120130717029
 10
9.468232490626152
 20
6.124359020176528
 30
0.0
 10
9.503072826068289
 20
6.149445376055365
 30
0.0
 10
9.570216556140426
 20
6.202741032892489
 30
0.0
 10
9.688731868955182
 20
6.315341510150875
 30
0.0
 10
9.84949722745702
 20
6.494469806074989
 30
0.0
 10
10.10224086661485
 20
6.82503441170575
 30
0.0
 10
10.29693632474507
 20
7.150318645818057
 30
0.0
 10
10.43333238036725
 20
7.418666885332282
 30
0.0
 10
10.525239283603
 20
7.622194750873328
 30
0.0
 10
10.52745122466627
 20
7.62710762427491
 30
0.0
  0
ARC
  5
F9
330
1F
100
AcDbEntity
  8
0
  6
Continuous
 62
     7
370
    25
100
AcDbCircle
 10
0.0
 20
0.0
 30
0.0
 40
13.0
100
AcDbArc
 50
35.9232197182
 51
39.0767802818
  0
SPLINE
  5
FA
330
1F
100
AcDbEntity
  8
0
  6
Continuous
 62
     7
370
    25
100
AcDbSpline
210
0.0
220
0.0
230
1.0
 70
     8
 71
     4
 72
    15
 73
    10
 74
     0
 42
0.000000001
 43
0.00000001
 40
0.0
 40
0.0
 40
0.0
 40
0.0
 40
0.0
 40
0.0028020339056145
 40
0.005604067811229
 40
0.0106611581043112
 40
0.0157182483973935
 40
0.029959916154659
 40
0.0303120130717029
 40
0.0303120130717029
 40
0.0303120130717029
 40
0.0303120130717029
 40
0.0303120130717029
 10
8.366235439087262
 20
7.560509538538168
 30
0.0
 10
8.399484340468295
 20
7.587669891664643
 30
0.0
 10
8.468342067938206
 20
7.638731823604007
 30
0.0
 10
8.607779797067293
 20
7.724065677060409
 30
0.0
 10
8.822413580892555
 20
7.832991274308039
 30
0.0
 10
9.207129338070928
 20
7.991566467226832
 30
0.0
 10
9.571720673243727
 20
8.095438083636155
 30
0.0
 10
9.866227065101603
 20
8.157732921259566
 30
0.0
 10
10.08660714373099
 20
8.193831284898149
 30
0.0
 10
10.09192510750469
 20
8.194696310694882
 30
0.0
  0
LINE
  5
FB
330
1F
100
AcDbEntity
  8
0
  6
Continuous
 62
     7
370
    25
100
AcDbLine
 10
8.3662354391
 20
7.5605095385
 30
0.0
 11
7.9757491067
 21
7.2076297204
 31
0.0
  0
ARC
  5
FC
330
1F
100
AcDbEntity
  8
0
  6
Continuous
 62
     7
370
    25
100
AcDbCircle
 10
0.0
 20
0.0
 30
0.0
 40
10.75
100
AcDbArc
 50
42.1039047256
 51
47.8960952744
  0
LINE
  5
FD
330
1F
100
AcDbEntity
  8
0
  6
Continuous
 62
     7
370
    25
100
AcDbLine
 10
7.5605095385
 20
8.3662354391
 30
0.0
 11
7.2076297204
 21
7.9757491067
 31
0.0
  0
SPLINE
  5
FE
330
1F
100
AcDbEntity
  8
0
  6
Continuous
 62
     7
370
    25
100
AcDbSpline
210
0.0
220
0.0
230
1.0
 70
     8
 71
     4
 72
    15
 73
    10
 74
     0
 42
0.000000001
 43
0.00000001
 40
0.0
 40
0.0
 40
0.0
 40
0.0
 40
0.0
 40
0.0028020339056145
 40
0.005604067811229
 40
0.0106611581043112
 40
0.0157182483973935
 40
0.029959916154659
 40
0.0303120130717029
 40
0.0303120130717029
 40
0.0303120130717029
 40
0.0303120130717029
 40
0.0303120130717029
 10
7.560509538537964
 20
8.366235439087449
 30
0.0
 10
7.587669891664438
 20
8.399484340468481
 30
0.0
 10
7.638731823603802
 20
8.46834206793839
 30
0.0
 10
7.724065677060199
 20
8.607779797067483
 30
0.0
 10
7.832991274307824
 20
8.822413580892745
 30
0.0
 10
7.991566467226608
 20
9.207129338071121
 30
0.0
 10
8.095438083635923
 20
9.571720673243922
 30
0.0
 10
8.157732921259326
 20
9.866227065101798
 30
0.0
 10
8.193831284897904
 20
10.08660714373119
 30
0.0
 10
8.194696310694638
 20
10.09192510750489
 30
0.0
  0
ARC
  5
FF
330
1F
100
AcDbEntity
  8
0
  6
Continuous
 62
     7
370
    25
100
AcDbCircle
 10
0.0
 20
0.0
 30
0.0
 40
13.0
100
AcDbArc
 50
50.9232197182
 51
54.0767802818
  0
SPLINE
  5
100
330
1F
100
AcDbEntity
  8
0
  6
Continuous
 62
     7
370
    25
100
AcDbSpline
210
0.0
220
0.0
230
1.0
 70
     8
 71
     4
 72
    15
 73
    10
 74
     0
 42
0.000000001
 43
0.00000001
 40
0.0
 40
0.0
 40
0.0
 40
0.0
 40
0.0
 40
0.0028020339056145
 40
0.005604067811229
 40
0.0106611581043112
 40
0.0157182483973935
 40
0.029959916154659
 40
0.0303120130717029
 40
0.0303120130717029
 40
0.0303120130717029
 40
0.0303120130717029
 40
0.0303120130717029
 10
6.124359020176296
 20
9.468232490626301
 30
0.0
 10
6.149445376055131
 20
9.503072826068438
 30
0.0
 10
6.202741032892255
 20
9.570216556140577
 30
0.0
 10
6.315341510150636
 20
9.688731868955337
 30
0.0
 10
6.494469806074748
 20
9.84949722745718
 30
0.0
 10
6.825034411705502
 20
10.10224086661501
 30
0.0
 10
7.150318645817806
 20
10.29693632474525
 30
0.0
 10
7.418666885332027
 20
10.43333238036743
 30
0.0
 10
7.622194750873071
 20
10.52523928360319
 30
0.0
 10
7.627107624274652
 20
10.52745122466646
 30
0.0
  0
LINE
  5
101
330
1F
100
AcDbEntity
  8
0
  6
Continuous
 62
     7
370
    25
100
AcDbLine
 10
6.1243590202
 20
9.4682324906
 30
0.0
 11
5.8385102045
 21
9.026311461
 31
0.0
  0
ARC
  5
102
330
1F
100
AcDbEntity
  8
0
  6
Continuous
 62
     7
370
    25
100
AcDbCircle
 10
0.0
 20
0.0
 30
0.0
 40
10.75
100
AcDbArc
 50
57.1039047256
 51
62.8960952744
  0
LINE
  5
103
330
1F
100
AcDbEntity
  8
0
  6
Continuous
 62
     7
370
    25
100
AcDbLine
 10
5.1375503557
 20
10.0379667387
 30
0.0
 11
4.8977599255
 21
9.5694538879
 31
0.0
  0
SPLINE
  5
104
330
1F
100
AcDbEntity
  8
0
  6
Continuous
 62
     7
370
    25
100
AcDbSpline
210
0.0
220
0.0
230
1.0
 70
     8
 71
     4
 72
    15
 73
    10
 74
     0
 42
0.000000001
 43
0.00000001
 40
0.0
 40
0.0
 40
0.0
 40
0.0
 40
0.0
 40
0.0028020339056145
 40
0.005604067811229
 40
0.0106611581043112
 40
0.0157182483973935
 40
0.029959916154659
 40
0.0303120130717029
 40
0.0303120130717029
 40
0.0303120130717029
 40
0.0303120130717029
 40
0.0303120130717029
 10
5.137550355731177
 20
10.03796673868233
 30
0.0
 10
5.155179793361022
 20
10.07711232788285
 30
0.0
 10
5.186680140889776
 20
10.15683958565124
 30
0.0
 10
5.233017173895623
 20
10.31361211584263
 30
0.0
 10
5.282679910444668
 20
10.54912444990045
 30
0.0
 10
5.336280019784893
 20
10.96177361554759
 30
0.0
 10
5.342249115470963
 20
11.34082575480453
 30
0.0
 10
5.326197444858647
 20
11.64142017509576
 30
0.0
 10
5.304027225073447
 20
11.86363392865021
 30
0.0
 10
5.303486385525121
 20
11.86899457235319
 30
0.0
  0
ARC
  5
105
330
1F
100
AcDbEntity
  8
0
  6
Continuous
 62
     7
370
    25
100
AcDbCircle
 10
0.0
 20
0.0
 30
0.0
 40
13.0
100
AcDbArc
 50
65.9232197182
 51
69.0767802818
  0
SPLINE
  5
106
330
1F
100
AcDbEntity
  8
0
  6
Continuous
 62
     7
370
    25
100
AcDbSpline
210
0.0
220
0.0
230
1.0
 70
     8
 71
     4
 72
    15
 73
    10
 74
     0
 42
0.000000001
 43
0.00000001
 40
0.0
 40
0.0
 40
0.0
 40
0.0
 40
0.0
 40
0.0028020339056145
 40
0.005604067811229
 40
0.0106611581043112
 40
0.0157182483973935
 40
0.029959916154659
 40
0.0303120130717029
 40
0.0303120130717029
 40
0.0303120130717029
 40
0.0303120130717029
 40
0.0303120130717029
 10
3.465117655022131
 20
10.73071104547225
 30
0.0
 10
3.48033187170279
 20
10.77085705194605
 30
0.0
 10
3.514433446968915
 20
10.84950684590681
 30
0.0
 10
3.592523135912518
 20
10.99312699536741
 30
0.0
 10
3.723938646591757
 20
11.19477622161888
 30
0.0
 10
3.977824669084996
 20
11.52446424568577
 30
0.0
 10
4.241634219139665
 20
11.79671537181479
 30
0.0
 10
4.465536817253774
 20
11.99791747965023
 30
0.0
 10
4.638342382015548
 20
12.13936961891099
 30
0.0
 10
4.642515360841607
 20
12.14277773511274
 30
0.0
  0
LINE
  5
107
330
1F
100
AcDbEntity
  8
0
  6
Continuous
 62
     7
370
    25
100
AcDbLine
 10
3.465117655
 20
10.7307110455
 30
0.0
 11
3.3033864805
 21
10.2298649923
 31
0.0
  0
MTEXT
  5
109
330
1F
100
AcDbEntity
  8
0
  6
Continuous
 62
     7
100
AcDbMText
 10
-12.9305940098
 20
-21.2005904015
 30
0.0
 40
4.83362
 41
0.0
 71
     1
 72
     1
  1
SOLIDWORKS pi (pIgp)
  7
SLDTEXTSTYLE0
 73
     1
 44
1.0
  0
ENDSEC
  0
SECTION
  2
OBJECTS
  0
DICTIONARY
  5
C
330
0
100
AcDbDictionary
281
     1
  3
ACAD_GROUP
350
D
  3
ACAD_LAYOUT
350
1A
  3
ACAD_MLINESTYLE
350
17
  3
ACAD_PLOTSETTINGS
350
19
  3
ACAD_PLOTSTYLENAME
350
E
  3
ACAD_SCALELIST
350
47
  0
DICTIONARY
  5
D
102
{ACAD_REACTORS
330
C
102
}
330
C
100
AcDbDictionary
281
     1
  0
DICTIONARY
  5
1A
102
{ACAD_REACTORS
330
C
102
}
330
C
100
AcDbDictionary
281
     1
  3
Layout1
350
1E
  3
Layout2
350
26
  3
Model
350
22
  0
DICTIONARY
  5
17
102
{ACAD_REACTORS
330
C
102
}
330
C
100
AcDbDictionary
281
     1
  3
Standard
350
18
  0
DICTIONARY
  5
19
102
{ACAD_REACTORS
330
C
102
}
330
C
100
AcDbDictionary
281
     1
  0
ACDBDICTIONARYWDFLT
  5
E
102
{ACAD_REACTORS
330
C
102
}
330
C
100
AcDbDictionary
281
     1
  3
Normal
350
F
100
AcDbDictionaryWithDefault
340
F
  0
DICTIONARY
  5
47
102
{ACAD_REACTORS
330
C
102
}
330
C
100
AcDbDictionary
281
     1
  3
A0
350
48
  3
A1
350
49
  3
A2
350
4A
  3
A3
350
4B
  3
A4
350
4C
  3
A5
350
4D
  3
A6
350
4E
  3
A7
350
4F
  3
A8
350
50
  3
A9
350
51
  3
B0
350
52
  3
B1
350
53
  3
B2
350
54
  3
B3
350
55
  3
B4
350
56
  3
B5
350
57
  3
B6
350
58
  3
B7
350
59
  3
B8
350
5A
  3
B9
350
5B
  3
C0
350
5C
  3
C1
350
5D
  3
C2
350
5E
  3
C3
350
5F
  3
C4
350
60
  3
C5
350
61
  3
C6
350
62
  3
C7
350
63
  3
C8
350
64
  3
C9
350
65
  3
D0
350
66
  3
D1
350
67
  3
D2
350
68
  0
LAYOUT
  5
1E
102
{ACAD_REACTORS
330
1A
102
}
330
1A
100
AcDbPlotSettings
  1

  2
none_device
  4

  6

 40
0.0
 41
0.0
 42
0.0
 43
0.0
 44
0.0
 45
0.0
 46
0.0
 47
0.0
 48
0.0
 49
0.0
140
0.0
141
0.0
142
1.0
143
1.0
 70
   688
 72
     1
 73
     0
 74
     5
  7

 75
    16
147
1.0
148
0.0
149
0.0
100
AcDbLayout
  1
Layout1
 70
     1
 71
     1
 10
0.0
 20
0.0
 11
420.0
 21
297.0
 12
0.0
 22
0.0
 32
0.0
 14
1.0000000000E+20
 24
1.0000000000E+20
 34
1.0000000000E+20
 15
-1.0000000000E+20
 25
-1.0000000000E+20
 35
-1.0000000000E+20
146
0.0
 13
0.0
 23
0.0
 33
0.0
 16
1.0
 26
0.0
 36
0.0
 17
0.0
 27
1.0
 37
0.0
 76
     0
330
1B
  0
LAYOUT
  5
26
102
{ACAD_REACTORS
330
1A
102
}
330
1A
100
AcDbPlotSettings
  1

  2
none_device
  4

  6

 40
0.0
 41
0.0
 42
0.0
 43
0.0
 44
0.0
 45
0.0
 46
0.0
 47
0.0
 48
0.0
 49
0.0
140
0.0
141
0.0
142
1.0
143
1.0
 70
   688
 72
     1
 73
     0
 74
     5
  7

 75
    16
147
1.0
148
0.0
149
0.0
100
AcDbLayout
  1
Layout2
 70
     1
 71
     2
 10
0.0
 20
0.0
 11
0.0
 21
0.0
 12
0.0
 22
0.0
 32
0.0
 14
0.0
 24
0.0
 34
0.0
 15
0.0
 25
0.0
 35
0.0
146
0.0
 13
0.0
 23
0.0
 33
0.0
 16
1.0
 26
0.0
 36
0.0
 17
0.0
 27
1.0
 37
0.0
 76
     0
330
23
  0
LAYOUT
  5
22
102
{ACAD_REACTORS
330
1A
102
}
330
1A
100
AcDbPlotSettings
  1

  2
none_device
  4
ANSI_A_(11.00_x_8.50_Inches)
  6

 40
6.35
 41
19.05
 42
6.35000508
 43
19.05000254
 44
279.4
 45
215.9
 46
133.34999746
 47
88.89999873
 48
0.0
 49
0.0
140
0.0
141
0.0
142
0.3253910839
143
1.0
 70
  1696
 72
     0
 73
     0
 74
     0
  7

 75
     0
147
0.0179189148
148
-1300.4909072572
149
0.0
100
AcDbLayout
  1
Model
 70
     1
 71
     0
 10
0.0
 20
0.0
 11
420.0
 21
297.0
 12
0.0
 22
0.0
 32
0.0
 14
-12.9305940098
 24
-12.9305940098
 34
0.0
 15
12.9305940098
 25
12.9305940098
 35
0.0
146
0.0
 13
0.0
 23
0.0
 33
0.0
 16
1.0
 26
0.0
 36
0.0
 17
0.0
 27
1.0
 37
0.0
 76
     0
330
1F
331
29
  0
MLINESTYLE
  5
18
102
{ACAD_REACTORS
330
17
102
}
330
17
100
AcDbMlineStyle
  2
Standard
 70
     0
  3

 62
   256
 51
90.0
 52
90.0
 71
     2
 49
0.5
 62
   256
  6
BYLAYER
 49
-0.5
 62
   256
  6
BYLAYER
  0
ACDBPLACEHOLDER
  5
F
102
{ACAD_REACTORS
330
E
102
}
330
E
  0
SCALE
  5
48
102
{ACAD_REACTORS
330
47
102
}
330
47
100
AcDbScale
 70
     0
300
1:1
140
1.0
141
1.0
290
     1
  0
SCALE
  5
49
102
{ACAD_REACTORS
330
47
102
}
330
47
100
AcDbScale
 70
     0
300
1:2
140
1.0
141
2.0
290
     0
  0
SCALE
  5
4A
102
{ACAD_REACTORS
330
47
102
}
330
47
100
AcDbScale
 70
     0
300
1:4
140
1.0
141
4.0
290
     0
  0
SCALE
  5
4B
102
{ACAD_REACTORS
330
47
102
}
330
47
100
AcDbScale
 70
     0
300
1:5
140
1.0
141
5.0
290
     0
  0
SCALE
  5
4C
102
{ACAD_REACTORS
330
47
102
}
330
47
100
AcDbScale
 70
     0
300
1:8
140
1.0
141
8.0
290
     0
  0
SCALE
  5
4D
102
{ACAD_REACTORS
330
47
102
}
330
47
100
AcDbScale
 70
     0
300
1:10
140
1.0
141
10.0
290
     0
  0
SCALE
  5
4E
102
{ACAD_REACTORS
330
47
102
}
330
47
100
AcDbScale
 70
     0
300
1:16
140
1.0
141
16.0
290
     0
  0
SCALE
  5
4F
102
{ACAD_REACTORS
330
47
102
}
330
47
100
AcDbScale
 70
     0
300
1:20
140
1.0
141
20.0
290
     0
  0
SCALE
  5
50
102
{ACAD_REACTORS
330
47
102
}
330
47
100
AcDbScale
 70
     0
300
1:30
140
1.0
141
30.0
290
     0
  0
SCALE
  5
51
102
{ACAD_REACTORS
330
47
102
}
330
47
100
AcDbScale
 70
     0
300
1:40
140
1.0
141
40.0
290
     0
  0
SCALE
  5
52
102
{ACAD_REACTORS
330
47
102
}
330
47
100
AcDbScale
 70
     0
300
1:50
140
1.0
141
50.0
290
     0
  0
SCALE
  5
53
102
{ACAD_REACTORS
330
47
102
}
330
47
100
AcDbScale
 70
     0
300
1:100
140
1.0
141
100.0
290
     0
  0
SCALE
  5
54
102
{ACAD_REACTORS
330
47
102
}
330
47
100
AcDbScale
 70
     0
300
2:1
140
2.0
141
1.0
290
     0
  0
SCALE
  5
55
102
{ACAD_REACTORS
330
47
102
}
330
47
100
AcDbScale
 70
     0
300
4:1
140
4.0
141
1.0
290
     0
  0
SCALE
  5
56
102
{ACAD_REACTORS
330
47
102
}
330
47
100
AcDbScale
 70
     0
300
8:1
140
8.0
141
1.0
290
     0
  0
SCALE
  5
57
102
{ACAD_REACTORS
330
47
102
}
330
47
100
AcDbScale
 70
     0
300
10:1
140
10.0
141
1.0
290
     0
  0
SCALE
  5
58
102
{ACAD_REACTORS
330
47
102
}
330
47
100
AcDbScale
 70
     0
300
100:1
140
100.0
141
1.0
290
     0
  0
SCALE
  5
59
102
{ACAD_REACTORS
330
47
102
}
330
47
100
AcDbScale
 70
     0
300
1/128" = 1'-0"
140
0.0078125
141
12.0
290
     0
  0
SCALE
  5
5A
102
{ACAD_REACTORS
330
47
102
}
330
47
100
AcDbScale
 70
     0
300
1/64" = 1'-0"
140
0.015625
141
12.0
290
     0
  0
SCALE
  5
5B
102
{ACAD_REACTORS
330
47
102
}
330
47
100
AcDbScale
 70
     0
300
1/32" = 1'-0"
140
0.03125
141
12.0
290
     0
  0
SCALE
  5
5C
102
{ACAD_REACTORS
330
47
102
}
330
47
100
AcDbScale
 70
     0
300
1/16" = 1'-0"
140
0.0625
141
12.0
290
     0
  0
SCALE
  5
5D
102
{ACAD_REACTORS
330
47
102
}
330
47
100
AcDbScale
 70
     0
300
3/32" = 1'-0"
140
0.09375
141
12.0
290
     0
  0
SCALE
  5
5E
102
{ACAD_REACTORS
330
47
102
}
330
47
100
AcDbScale
 70
     0
300
1/8" = 1'-0"
140
0.125
141
12.0
290
     0
  0
SCALE
  5
5F
102
{ACAD_REACTORS
330
47
102
}
330
47
100
AcDbScale
 70
     0
300
3/16" = 1'-0"
140
0.1875
141
12.0
290
     0
  0
SCALE
  5
60
102
{ACAD_REACTORS
330
47
102
}
330
47
100
AcDbScale
 70
     0
300
1/4" = 1'-0"
140
0.25
141
12.0
290
     0
  0
SCALE
  5
61
102
{ACAD_REACTORS
330
47
102
}
330
47
100
AcDbScale
 70
     0
300
3/8" = 1'-0"
140
0.375
141
12.0
290
     0
  0
SCALE
  5
62
102
{ACAD_REACTORS
330
47
102
}
330
47
100
AcDbScale
 70
     0
300
1/2" = 1'-0"
140
0.5
141
12.0
290
     0
  0
SCALE
  5
63
102
{ACAD_REACTORS
330
47
102
}
330
47
100
AcDbScale
 70
     0
300
3/4" = 1'-0"
140
0.75
141
12.0
290
     0
  0
SCALE
  5
64
102
{ACAD_REACTORS
330
47
102
}
330
47
100
AcDbScale
 70
     0
300
1" = 1'-0"
140
1.0
141
12.0
290
     0
  0
SCALE
  5
65
102
{ACAD_REACTORS
330
47
102
}
330
47
100
AcDbScale
 70
     0
300
1-1/2" = 1'-0"
140
1.5
141
12.0
290
     0
  0
SCALE
  5
66
102
{ACAD_REACTORS
330
47
102
}
330
47
100
AcDbScale
 70
     0
300
3" = 1'-0"
140
3.0
141
12.0
290
     0
  0
SCALE
  5
67
102
{ACAD_REACTORS
330
47
102
}
330
47
100
AcDbScale
 70
     0
300
6" = 1'-0"
140
6.0
141
12.0
290
     0
  0
SCALE
  5
68
102
{ACAD_REACTORS
330
47
102
}
330
47
100
AcDbScale
 70
     0
300
1'-0" = 1'-0"
140
12.0
141
12.0
290
     0
  0
ENDSEC
  0
EOF
